<?xml version="1.0" encoding="UTF-8"?>
<!-- Generator: Adobe Illustrator 15.0.0, SVG Export Plug-In . SVG Version: 6.00 Build 0)  -->
<svg xmlns="http://www.w3.org/2000/svg" xmlns:xlink="http://www.w3.org/1999/xlink" version="1.1" id="Layer_1" x="0px" y="0px" width="140px" height="140px" viewBox="0 0 140 140" enable-background="new 0 0 140 140" xml:space="preserve">
<circle fill="#336699" stroke="#2B597F" stroke-miterlimit="10" cx="71" cy="59" r="53.897"/>
<path fill="#FFFFFF" stroke="#30648E" stroke-miterlimit="10" d="M67.803,69.363c-0.543,0.831-16.818-11.031-26.542-25.437  c-4.977-7.373,15.851-29.86,27.463-27.832c-9.112,9.346-13.435,19.845-5.101,29.79c6.392,7.627,5.47,6.152,8.194,15.954  C74.693,72.189,70.568,65.123,67.803,69.363z"/>
<path fill="#FFFFFF" stroke="#30648E" stroke-miterlimit="10" d="M73.094,62.022c2.725-9.801,1.803-8.327,8.194-15.954  c8.335-9.945,4.011-20.444-5.103-29.79c11.614-2.027,32.441,20.459,27.465,27.833c-9.724,14.404-26,26.268-26.541,25.436  C74.344,65.307,70.218,72.373,73.094,62.022z"/>
<path fill="#FFFFFF" stroke="#30648E" stroke-miterlimit="10" d="M96.93,88.34C83.587,86.334,69.789,77.774,72.95,63.127  c2.34-10.864,13.125-18.139,20.323-26.275c6.613-7.468,6.035-19.052,11.951-25.597c-1.428,5.331,4.477,20.178,1.809,30.246  c-4.283,16.011-17.538,19.198-25.242,33.837c-8.975,17.048,17.93,26.851,25.576,35.188C104.635,107.578,101.836,90.561,96.93,88.34  L96.93,88.34C95.493,88.125,96.93,88.34,96.93,88.34z"/>
<path fill="#FFFFFF" stroke="#30648E" stroke-miterlimit="10" d="M44.941,87.727L44.941,87.727  c-5.656,2.219-8.882,19.238-12.033,22.188c8.813-8.34,39.83-18.143,29.487-35.19c-8.883-14.638-24.163-17.825-29.102-33.836  c-2.601-8.517,4.046-23.894,2.086-30.246c6.82,6.544,6.153,18.128,13.778,25.596c8.297,8.136,20.731,15.411,23.427,26.276  C76.229,77.16,60.323,85.721,44.941,87.727C44.941,87.727,46.597,87.51,44.941,87.727z"/>
<path fill="none" d="M129.316,6.641C102.241-27.401,52.683-33.051,18.635-5.972c-34.049,27.08-39.689,76.625-12.618,110.671  c27.082,34.051,76.628,39.697,110.675,12.617C150.74,90.241,156.401,40.694,129.316,6.641z"/>
<text transform="matrix(1.0925 0.9533 -0.6575 0.7535 7.0117 107.3984)" fill="#676767" font-family="'ArialMT'" font-size="24.3675">S</text>
<text transform="matrix(1.3229 0.5936 -0.4094 0.9124 29.9395 125.1719)" fill="#676767" font-family="'ArialMT'" font-size="24.3675">r</text>
<text transform="matrix(1.4321 0.2274 -0.1568 0.9876 45.54 131.9766)" fill="#676767" font-family="'ArialMT'" font-size="24.3675">o</text>
<text transform="matrix(1.4306 -0.2363 0.163 0.9866 70.8291 135.0449)" fill="#676767" font-family="'ArialMT'" font-size="24.3675">p</text>
<text transform="matrix(1.2801 -0.681 0.4697 0.8828 95.8584 129.9355)" fill="#676767" font-family="'ArialMT'" font-size="24.3675">h</text>
<text transform="matrix(1.0014 -1.0487 0.7232 0.6906 117.8779 117.1582)" fill="#676767" font-family="'ArialMT'" font-size="24.3675">é</text>
</svg>