<svg>
    <metadata>
Created by FontForge 20110222 at Thu Mar  6 18:36:24 2014
 By Orthosie Webhosting
(c) 2001 by Beth Mardutho: The Syriac Institute. For free distribution. Created by  George Kiraz, Christine Kiraz and Paul Nelson. Sponsored by the Syriac Orthodox Archdiocese of the Western United States, through its bishop Mor Clemis Eugene Kaplan.
</metadata>
    <defs>
        <font id="SertoJerusalemItalic" horiz-adv-x="1024">
            <font-face font-family="SertoJerusalemItalic" font-weight="400" font-style="italic" font-stretch="normal" units-per-em="2048" panose-1="0 0 4 0 0 0 0 0 0 0" ascent="1638" descent="-410" x-height="762" cap-height="1171" bbox="-560 -648 2212 1560" underline-thickness="20" underline-position="-140" slope="-11" unicode-range="U+000D-2671"/>
            <missing-glyph d="M128 0v1400h768v-1400h-768zM256 128h512v1144h-512v-1144z"/>
            <glyph glyph-name="U0728U0722Isol" unicode="ܨܢ" horiz-adv-x="783" d="M997 -648q-76 32 -170 92q-57 -92 -189 -92q-152 0 -350 95q-231 110 -231 246q0 13 3 34q104 -100 286 -173t326 -73q47 0 75 18q-155 112 -330 282q-223 217 -257 335q-2 6 -2 13q0 54 109 128q120 -224 496 -653q-7 20 -53 93q-37 58 -37 87q0 21 9 63t9 64 q0 69 -39 118q-22 27 -72 61q-39 26 -39 40q0 18 28.5 69t43.5 60q33 -23 84 -100q55 -80 55 -115q0 -24 -12.5 -71t-12.5 -72q0 -57 65 -152.5t65 -191.5q0 -27 -5 -52q82 -89 145 -153z"/>
            <glyph glyph-name="U0720U0020U0710Isol" unicode="ܠ ܐ" horiz-adv-x="1537" d="M1562 46q0 -46 -33 -46q-23 0 -210 120q-56 -86 -79 -103q-37 -27 -128 -27q-59 0 -182 81l-321 211q98 -152 98 -242q0 -56 -50 -151q-57 72 -124 236.5t-73 254.5l-716 466q6 42 37 104l685 -450q4 34 33 156l-408 268q6 50 31 108q135 -91 393 -260q-2 77 -51 139 q-26 33 -95 86q-54 42 -61 67.5t-7 49.5q0 43 34 86q65 -27 141 -109.5t93 -147.5q11 -41 11 -87q0 -51 -13 -118l746 -487q68 -42 135 -84q101 -67 110 -93q4 -12 4 -28zM1196 199l-654 429q-19 -87 -19 -135q0 -16 2 -31l448 -291q89 -57 116 -57q36 0 69 25.5t38 59.5z "/>
            <glyph glyph-name="U072aU0308Isol" unicode="ܪ̈" horiz-adv-x="483" d="M397 727q0 -20 -23 -52.5t-42 -32.5q-23 0 -69 39.5t-46 62.5q0 20 23 52.5t42 32.5q23 0 69 -39.5t46 -62.5zM109 727q0 -20 -22.5 -52.5t-42.5 -32.5q-22 0 -68 39.5t-46 62.5q0 20 22.5 52.5t41.5 32.5q23 0 69 -39.5t46 -62.5zM497 35q0 -228 -167 -287 q70 109 70 159q0 76 -58 119q-59 37 -119 73q-73 54 -98 147q-10 36 -10 69q0 129 127 129q113 0 190 -154q65 -129 65 -255z"/>
            <glyph glyph-name=".notdef" d="M128 0v1400h768v-1400h-768zM256 128h512v1144h-512v-1144z"/>
            <glyph glyph-name=".null" horiz-adv-x="0"/>
            <glyph glyph-name="nonmarkingreturn" unicode="&#xD;" horiz-adv-x="681"/>
            <glyph glyph-name="space" unicode=" " horiz-adv-x="681"/>
            <glyph glyph-name="exclam" unicode="!" horiz-adv-x="549" d="M227 471q0 -34 -29 -34q-40 0 -59 58l-219 678q-14 45 -14 57q0 58 64 58q86 0 110 -115l144 -678q3 -13 3 -24zM421 50q0 -77 -80 -77h-39q-51 0 -93.5 40t-42.5 91q0 77 80 77h39q51 0 93.5 -40.5t42.5 -90.5z"/>
            <glyph glyph-name="quotedbl" unicode="&#34;" horiz-adv-x="996" d="M616 732q0 -51 -45 -51q-53 0 -81 69l-201 486h266l60 -486q1 -9 1 -18zM187 732q0 -51 -46 -51q-53 0 -81 69l-200 486h266l60 -486q1 -10 1 -18z"/>
            <glyph glyph-name="numbersign" unicode="#" horiz-adv-x="1070" d="M858 421q0 -30 -46 -30h-167l92 -468q3 -12 3 -21q0 -33 -30 -33q-46 0 -58 60l-91 462h-190l93 -468q3 -11 3 -20q0 -34 -30 -34q-43 0 -55 42q-26 94 -52 239q-22 121 -43 241h-175q-69 0 -69 54q0 30 46 30h181l-52 264h-156q-70 0 -70 54q0 30 47 30h162l-92 468 q-2 10 -2 19q0 35 29 35q42 0 55 -41q26 -92 52 -239q22 -121 43 -242h189l-92 468q-2 11 -2 20q0 34 29 34q43 0 55 -41q26 -93 52 -239l42 -242h179q69 0 69 -54q0 -30 -46 -30h-185l52 -264h161q69 0 69 -54zM544 475l-52 264h-189l51 -264h190z"/>
            <glyph glyph-name="dollar" unicode="$" horiz-adv-x="1070" d="M862 342q0 -104 -88 -167q-74 -52 -186 -64l66 -247q4 -15 4 -26q0 -31 -31 -31q-42 0 -57 57l-66 247q-157 10 -286 100q10 -36 10 -49q0 -29 -31 -29q-42 0 -57 56q-48 178 -48 189q0 32 31 32q16 0 34 -13q14 -26 40 -70q29 -38 97 -78q92 -56 230 -56q95 0 165 38 q85 47 85 134q0 27 -7 51q-41 136 -219 185q-162 36 -325 73q-181 62 -231 228q-10 33 -10 70q0 94 70 156q64 56 161 68q-32 113 -32 125q0 38 31 38q39 0 62 -65q11 -49 23 -98q119 -10 237 -77q-2 9 -2 16q0 33 31 33q43 0 58 -56q37 -138 37 -149q0 -32 -32 -32 q-22 0 -48 35q-20 27 -39 54q-22 24 -52 42q-91 54 -207 54q-82 0 -142 -42q-67 -46 -67 -124q0 -26 6 -49q37 -124 214 -169q162 -36 324 -73q184 -66 237 -244q10 -35 10 -73z"/>
            <glyph glyph-name="percent" unicode="%" horiz-adv-x="1070" d="M440 945q0 -85 -54.5 -138t-140.5 -53q-127 0 -231 101.5t-104 227.5q0 86 54.5 138t141.5 52q126 0 230 -101t104 -227zM804 746q0 -14 -23 -23q-96 -39 -382 -141q-322 -116 -348 -116q-38 0 -38 39q0 14 23 23q99 40 383 142q321 115 348 115q37 0 37 -39zM909 164 q0 -85 -55.5 -137.5t-141.5 -52.5q-126 0 -230.5 101.5t-104.5 226.5q0 86 54.5 138.5t141.5 52.5q126 0 231 -101.5t105 -227.5zM378 961q0 96 -79.5 174t-176.5 78q-66 0 -108 -40t-42 -106q0 -96 79.5 -174t176.5 -78q66 0 108 40t42 106zM846 180q0 97 -80 174.5 t-177 77.5q-66 0 -108 -40t-42 -106q0 -96 80 -174t177 -78q66 0 108 40t42 106z"/>
            <glyph glyph-name="ampersand" unicode="&amp;" horiz-adv-x="1070" d="M949 32q0 -30 -47 -30h-114l-90 99q-55 -132 -197 -132q-150 0 -275.5 130.5t-125.5 281.5q0 165 161 217q-96 109 -114 134q-60 84 -60 161q0 83 58 136q55 51 139 51q70 0 147 -41q36 22 47 22q19 0 37 -16t18 -35q0 -21 -80 -70q-76 55 -145 55q-55 0 -94 -36.5 t-39 -90.5q0 -78 151 -246l331 -369q30 115 25 266h82q69 0 69 -56q0 -29 -65 -29q-2 -169 -39 -262l80 -86q8 0 25 1t27 1q88 0 88 -56zM628 179l-311 345q-131 -33 -131 -163q0 -109 91 -207q92 -101 199 -101q113 0 152 126z"/>
            <glyph glyph-name="quotesingle" unicode="'" horiz-adv-x="565" d="M193 708q0 -53 -45 -53q-53 0 -83 75l-211 525h266l71 -525q2 -12 2 -22z"/>
            <glyph glyph-name="parenleft" unicode="(" horiz-adv-x="638" d="M586 -219q0 -32 -33 -32q-41 0 -203 210q-226 293 -295 548q-36 131 -36 252q0 101 34 280q42 225 94 225q19 0 37 -15t18 -34q0 -5 -2 -14q-59 -239 -59 -387q0 -318 176 -636q72 -129 255 -365q14 -18 14 -32z"/>
            <glyph glyph-name="parenright" unicode=")" horiz-adv-x="638" d="M429 242q0 -124 -37 -283q-50 -210 -91 -210q-19 0 -37 15.5t-18 34.5q0 5 2 14q59 238 59 386q0 318 -176 636q-72 130 -255 366q-14 18 -14 32q0 31 33 31q52 0 215 -225q138 -189 187 -288q132 -260 132 -509z"/>
            <glyph glyph-name="asterisk" unicode="*" horiz-adv-x="1067" d="M702 956q0 -21 -33 -33l-249 -89l146 -140q113 -112 113 -139q0 -32 -32 -32q-22 0 -51 29l-232 233l-106 -233q-13 -29 -34 -29q-18 0 -36.5 15t-18.5 33q0 27 48 129l66 134l-298 90q-55 17 -55 55q0 31 29 31q33 0 159 -40q85 -28 170 -55l-77 287q-4 14 -4 25 q0 32 31 32q42 0 58 -57l77 -287q70 28 141 55q106 40 135 40q20 0 36.5 -17t16.5 -37z"/>
            <glyph glyph-name="plus" unicode="+" horiz-adv-x="1242" d="M977 573q0 -30 -47 -30h-372l113 -420q3 -14 3 -24q0 -32 -31 -32q-42 0 -57 56l-113 420h-372q-69 0 -69 54q0 30 47 30h372l-112 418q-4 14 -4 24q0 32 32 32q42 0 57 -56l112 -418h372q69 0 69 -54z"/>
            <glyph glyph-name="comma" unicode="," horiz-adv-x="426" d="M349 6q0 -111 -92 -201l-17 63q-14 38 -36 51q49 26 49 76q0 9 -3 17q-89 22 -89 109q0 62 64 62q61 0 96 -61q28 -50 28 -116z"/>
            <glyph glyph-name="period" unicode="." horiz-adv-x="426" d="M348 61q0 -76 -65 -76q-41 0 -79.5 40t-38.5 82q0 76 65 76q42 0 80 -40t38 -82z"/>
            <glyph glyph-name="slash" unicode="/" horiz-adv-x="1073" d="M601 1344q0 -8 -3 -21l-288 -1448q-7 -37 -34 -37q-20 0 -37 16t-17 36q0 8 3 21l287 1448q7 37 35 37q20 0 37 -16t17 -36z"/>
            <glyph glyph-name="zero" unicode="0" horiz-adv-x="1070" d="M853 299q0 -330 -267 -330q-195 0 -350 185q-128 153 -185 368l-56 208q-31 116 -31 224q0 330 267 330q196 0 350 -186q127 -152 185 -368l56 -208q31 -116 31 -223zM762 329q0 101 -27 205l-50 185q-47 177 -149 311q-127 169 -282 169q-200 0 -200 -276 q0 -100 28 -204l50 -185q47 -177 149 -312q128 -169 282 -169q199 0 199 276z"/>
            <glyph glyph-name="one" unicode="1" horiz-adv-x="1070" d="M736 32q0 -31 -47 -31h-229q-66 0 -66 54q0 31 47 31h71l-288 1072q-11 -4 -38 -21q-19 -13 -41 -13q-20 0 -36.5 17t-16.5 37t32 33l153 63l319 -1188q78 0 84 -1q56 -9 56 -53z"/>
            <glyph glyph-name="two" unicode="2" horiz-adv-x="1070" d="M963 0h-772l-34 124q128 151 271 355q192 273 206 368q2 9 2 24q0 129 -127 231q-119 98 -251 98q-105 0 -172.5 -57.5t-73.5 -161.5q-2 -41 -32 -41q-55 0 -55 72q0 41 22 97q33 85 115 132q77 44 172 44q172 0 327 -130q163 -137 163 -305q0 -109 -193 -392 q-146 -214 -282 -368l1 -6h605q-12 41 -12 58q0 31 31 31q40 0 64 -69q12 -52 25 -104z"/>
            <glyph glyph-name="three" unicode="3" horiz-adv-x="1070" d="M884 261q0 -135 -105 -216q-96 -75 -234 -75q-107 0 -237 46q-180 64 -180 128q0 30 30 30l76 -36q78 -38 87 -42q107 -42 203 -42q108 0 187 59q86 66 86 170q0 154 -158 266q-144 102 -304 102q-69 0 -69 54q0 31 58 31q9 0 27.5 -1t27.5 -1q84 0 142 44q64 48 64 129 q0 124 -115 212q-107 82 -234 82q-179 0 -247 -112q-5 -9 -18 -24q-6 -5 -18 -5q-53 0 -53 50q0 37 61 90q99 85 252 85q168 0 309 -113q151 -120 151 -283q0 -136 -128 -206q140 -56 234 -163q105 -120 105 -259z"/>
            <glyph glyph-name="four" unicode="4" horiz-adv-x="1070" d="M950 31q0 -31 -46 -31h-230q-65 0 -65 54q0 31 46 31h71l-73 267h-557l-26 97l251 807h175l220 -820q8 0 25.5 1t26.5 1q88 0 88 -56q0 -32 -65 -32q-9 0 -26.5 1t-26.5 1l72 -267q78 0 85 -1q55 -9 55 -53zM631 436l-197 735h-44l-228 -735h469z"/>
            <glyph glyph-name="five" unicode="5" horiz-adv-x="1070" d="M873 280q0 -145 -86.5 -227.5t-232.5 -82.5q-200 0 -375 125q-54 39 -54 66q0 32 30 32l107 -62q136 -77 265 -77q119 0 188 66t69 184q0 170 -111 298q-117 135 -284 135q-121 0 -243 -69q-29 -16 -41 -16q-40 0 -52 46l-150 557h586q70 0 70 -55q0 -30 -47 -30h-502 l110 -411q132 62 255 62q205 0 354 -169q144 -164 144 -372z"/>
            <glyph glyph-name="six" unicode="6" horiz-adv-x="1070" d="M884 250q0 -126 -71 -203t-195 -77q-219 0 -392 227q-136 178 -203 429q-24 92 -24 180q0 209 122 342q126 137 333 137q58 0 111 -17q75 -24 75 -69q0 -29 -30 -29q-14 0 -63 15t-78 15q-174 0 -281 -126q-102 -119 -102 -296q0 -99 52 -247q92 225 284 225 q180 0 323 -165q139 -159 139 -341zM798 269q0 144 -105 270q-111 133 -251 133q-175 0 -247 -280q160 -338 402 -338q96 0 150 61q51 57 51 154z"/>
            <glyph glyph-name="seven" unicode="7" horiz-adv-x="1070" d="M662 1120l-49 -1080q-2 -43 -32 -43q-57 0 -55 56v12l48 1066q-5 17 -11 38h-602q24 -88 24 -95q0 -35 -31 -35q-42 0 -56 53l-43 162h771z"/>
            <glyph glyph-name="eight" unicode="8" horiz-adv-x="1070" d="M881 244q0 -125 -88 -202q-83 -73 -210 -73q-179 0 -334 135q-160 140 -160 317q0 150 141 229q-281 140 -281 373q0 117 83 191q80 70 199 70q168 0 314 -127q152 -133 152 -298q0 -124 -124 -209q131 -57 215 -159q93 -114 93 -247zM609 878q0 127 -116 226 q-112 95 -241 95q-91 0 -151 -52q-64 -55 -64 -145q0 -127 113 -221q108 -89 238 -89q89 0 152 47q69 53 69 139zM795 264q0 139 -124 244q-118 101 -259 101q-98 0 -165 -53q-71 -58 -71 -154q0 -138 124 -246q120 -103 260 -103q99 0 165 56q70 59 70 155z"/>
            <glyph glyph-name="nine" unicode="9" horiz-adv-x="1070" d="M831 401q0 -188 -135 -311q-132 -119 -322 -119q-57 0 -114 17q-80 23 -80 67q0 30 32 30q20 0 64 -15t69 -15q177 0 286 106.5t109 282.5q0 92 -56 267q-68 -231 -276 -231q-184 0 -330 171q-139 163 -139 350q0 125 65 203q70 82 193 82q225 0 399 -236 q133 -181 204 -443q31 -116 31 -206zM631 851q-185 350 -409 350q-95 0 -148 -65q-48 -60 -48 -157q0 -145 107 -277q113 -138 255 -138q108 0 170 95q37 58 73 192z"/>
            <glyph glyph-name="colon" unicode=":" horiz-adv-x="426" d="M264 376q0 -76 -65 -76q-42 0 -80 39.5t-38 81.5q0 77 65 77q42 0 80 -40t38 -82zM348 61q0 -76 -65 -76q-41 0 -79.5 40t-38.5 82q0 76 65 76q42 0 80 -40t38 -82z"/>
            <glyph glyph-name="semicolon" unicode=";" horiz-adv-x="426" d="M218 526q0 -76 -65 -76q-42 0 -80 39.5t-38 81.5q0 77 65 77q42 0 80 -40t38 -82zM349 6q0 -111 -92 -201l-17 63q-14 38 -36 51q49 26 49 76q0 9 -3 17q-89 22 -89 109q0 62 64 62q61 0 96 -61q28 -50 28 -116z"/>
            <glyph glyph-name="less" unicode="&lt;" horiz-adv-x="1229" d="M1093 97q0 -32 -32 -32q-11 0 -36 12l-1043 506l773 506q18 12 30 12q19 0 36.5 -16t17.5 -35q0 -20 -23 -35l-663 -432l893 -432q47 -23 47 -54z"/>
            <glyph glyph-name="equal" unicode="=" horiz-adv-x="1278" d="M974 725q0 -30 -43 -30l-874 1q-66 0 -66 55q0 30 43 30l874 -1q66 0 66 -55zM1055 424q0 -30 -44 -30l-873 1q-66 0 -66 54q0 30 43 30l874 -1q66 0 66 -54z"/>
            <glyph glyph-name="greater" unicode="&gt;" horiz-adv-x="1229" d="M1015 583l-772 -506q-18 -12 -30 -12q-19 0 -36.5 16t-17.5 35q0 20 23 35l662 432l-892 432q-47 23 -47 54q0 32 32 32q11 0 36 -12z"/>
            <glyph glyph-name="question" unicode="?" horiz-adv-x="1027" d="M701 780q0 -96 -89 -168q-48 -38 -174 -98q26 -91 26 -105q0 -36 -30 -36q-43 0 -58 56l-38 141q275 113 275 237q0 18 -5 38q-31 118 -136 194.5t-229 76.5q-122 0 -248 -71q26 -92 26 -106q0 -36 -30 -36q-42 0 -57 56l-38 141q114 57 158 73q79 27 173 27 q164 0 293.5 -98t171.5 -255q9 -35 9 -67zM663 47q0 -77 -81 -77h-84q-51 0 -93.5 40t-42.5 91q0 77 80 77h84q51 0 94 -40t43 -91z"/>
            <glyph glyph-name="at" unicode="@" horiz-adv-x="1307" d="M1090 415q0 -31 -46 -31h-147l-30 110q-127 -139 -315 -139q-139 0 -246 79q-117 88 -117 223q0 111 117 167q90 43 215 43q108 0 254 -28l-33 123q-27 102 -165 179q-126 71 -240 71q-133 0 -209 -113q-67 -99 -67 -239q0 -64 16 -121l88 -331q46 -169 194 -307 q157 -147 324 -147q212 0 286 71q17 16 29 16q19 0 36 -15.5t17 -34.5q0 -28 -43 -60q-80 -61 -314 -61q-199 0 -385 174q-174 162 -228 364l-90 336q-18 68 -18 142q0 167 83 282q94 129 254 129q131 0 300 -105q176 -110 209 -230l131 -493q77 0 86 -1q54 -9 54 -53z M840 595l-44 167q-112 29 -247 29q-99 0 -176 -31q-104 -43 -104 -127q0 -95 85 -152q75 -51 174 -51q185 0 312 165z"/>
            <glyph glyph-name="A" unicode="A" horiz-adv-x="1356" d="M1317 30q0 -31 -43 -31h-232q-66 0 -66 54q0 31 46 31h71l-197 307h-552l-25 -307q69 0 80 -2q50 -10 50 -52q0 -31 -43 -31h-232q-66 0 -66 54q0 31 46 31h71l115 1087l140 -1l697 -1086q78 0 85 -1q55 -9 55 -53zM841 475l-395 611h-31l-62 -611h488z"/>
            <glyph glyph-name="B" unicode="B" horiz-adv-x="1284" d="M1100 241q0 -109 -80 -177q-75 -64 -187 -64l-586 -1q-69 0 -69 54q0 29 47 32q-17 -1 70 -1l-268 1002q-78 0 -86 1q-54 9 -54 53q0 31 46 31l486 -1q145 0 268 -82q129 -86 167 -221q10 -33 10 -66q0 -110 -108 -183q145 -47 236 -135q108 -105 108 -242zM775 821 q0 114 -111 193q-102 72 -220 72h-333l117 -436h297q96 0 164 37q86 46 86 134zM1012 263q0 95 -85 180q-124 122 -375 122h-302l129 -481h425q85 0 144 46q64 50 64 133z"/>
            <glyph glyph-name="C" unicode="C" horiz-adv-x="1229" d="M1082 213q0 -21 -25 -61q-117 -185 -342 -185q-244 0 -479 220q-158 148 -203 317l-46 171q-19 70 -19 138q0 169 104.5 276.5t273.5 107.5q208 0 396 -142q-19 67 -19 82q0 33 30 33q42 0 57 -56l63 -233q4 -15 4 -26q0 -31 -31 -31q-16 0 -32 12q-10 8 -28 45 q-21 44 -26 52q-33 47 -101 91q-136 89 -288 89q-142 0 -228 -91.5t-86 -235.5q0 -61 17 -123l39 -147q50 -184 217 -323q173 -142 360 -142q107 0 187 54q50 34 101 102q41 54 53 54q51 0 51 -48z"/>
            <glyph glyph-name="D" unicode="D" horiz-adv-x="1283" d="M1053 382q0 -166 -93 -271q-98 -111 -261 -111l-452 -1q-69 0 -69 54q0 28 48 32q-17 -1 69 -1l-268 1000q-77 0 -85 1q-55 9 -55 53q0 31 46 31l452 1q314 0 540 -345q51 -78 108 -298q20 -75 20 -145zM968 405q0 53 -14 104l-40 152q-44 159 -188 288 q-152 137 -310 137h-305l268 -1002h305q129 0 209 98q75 92 75 223z"/>
            <glyph glyph-name="E" unicode="E" horiz-adv-x="1241" d="M1132 0l-885 -1q-69 0 -69 54q0 31 46 31h71l-268 1002q-78 0 -85 1q-55 9 -55 53q0 31 46 31l841 -1l42 -155q4 -15 4 -25q0 -31 -31 -31q-38 0 -57 49q-10 39 -19 78h-602l117 -437h301q-23 86 -23 96q0 31 32 31q42 0 57 -56l60 -226q4 -15 4 -25q0 -31 -31 -31 q-37 0 -57 49l-20 78h-301l129 -481h646q-24 85 -24 96q0 31 32 31q42 0 57 -56z"/>
            <glyph glyph-name="F" unicode="F" horiz-adv-x="1241" d="M862 990q0 -31 -31 -31q-38 0 -57 49q-10 39 -19 78h-644l117 -437h301q-23 86 -23 96q0 31 32 31q42 0 57 -56l60 -226q4 -15 4 -25q0 -31 -31 -31q-37 0 -57 49l-20 78h-301l129 -481q78 0 85 -1q55 -9 55 -53q0 -31 -43 -31h-232q-66 0 -66 54q0 31 46 31h71 l-268 1002q-78 0 -85 1q-55 9 -55 53q0 31 46 31l883 -1l42 -155q4 -15 4 -25z"/>
            <glyph glyph-name="G" unicode="G" horiz-adv-x="1327" d="M1114 73q-165 -107 -353 -107q-255 0 -447 146.5t-259 392.5q-61 227 -61 303q0 175 108 281.5t283 106.5q203 0 373 -111q-12 39 -12 54q0 30 32 30q42 0 57 -56q55 -204 55 -215q0 -31 -31 -31q-23 0 -40 26q-12 22 -24 45q-18 31 -41 54q-36 37 -97 66 q-115 54 -242 54q-247 0 -319 -243q-14 -46 -14 -95q0 -59 57 -269q58 -213 219.5 -334t383.5 -121q137 0 274 72l-83 311h-289q-69 0 -69 55q0 30 46 30l404 -1q69 0 69 -55q0 -30 -76 -29z"/>
            <glyph glyph-name="H" unicode="H" horiz-adv-x="1278" d="M1161 30q0 -31 -43 -31h-232q-66 0 -66 54q0 31 46 31h70l-129 482h-557l129 -482q78 0 85 -1q55 -9 55 -53q0 -31 -43 -31h-232q-66 0 -66 54q0 31 46 31h71l-268 1002q-78 0 -85 1q-55 9 -55 53q0 31 43 31h232q66 0 66 -54q0 -31 -46 -31h-71l117 -436h557l-116 436 q-78 0 -85 1q-55 9 -55 53q0 31 43 31h232q66 0 66 -54q0 -31 -46 -31h-71l268 -1002q78 0 85 -1q55 -9 55 -53z"/>
            <glyph glyph-name="I" unicode="I" horiz-adv-x="638" d="M519 30q0 -31 -43 -31h-232q-66 0 -66 54q0 31 46 31h71l-268 1002q-78 0 -85 1q-55 9 -55 53q0 31 43 31h232q66 0 66 -54q0 -31 -46 -31h-71l268 -1002q78 0 85 -1q55 -9 55 -53z"/>
            <glyph glyph-name="J" unicode="J" horiz-adv-x="1278" d="M880 1111q0 -30 -47 -30h-200l199 -742q13 -48 13 -94q0 -127 -87 -206q-83 -77 -211 -77q-190 0 -296 98q-91 85 -151 278q-4 13 -4 24q0 32 31 32q39 0 73 -90q45 -121 88 -168q81 -90 236 -90q100 0 166.5 60t66.5 158q0 37 -10 75l-199 742h-329q-70 0 -70 54 q0 30 48 30h614q69 0 69 -54z"/>
            <glyph glyph-name="K" unicode="K" horiz-adv-x="1320" d="M1201 30q0 -31 -46 -31l-266 1q-69 0 -69 54q0 31 46 31h71l-549 525l-128 -152l100 -374q78 0 85 -1q55 -9 55 -53q0 -31 -43 -31h-232q-66 0 -66 54q0 31 46 31h71l-268 1002q-78 0 -85 1q-55 9 -55 53q0 31 43 31h232q66 0 66 -54q0 -31 -46 -31h-71l138 -517l442 517 q-78 0 -85 1q-55 9 -55 53q0 31 43 31h269q66 0 66 -54q0 -31 -46 -31h-71l-352 -413l620 -589q78 0 85 -1q55 -9 55 -53z"/>
            <glyph glyph-name="L" unicode="L" horiz-adv-x="1155" d="M1046 0l-799 -1q-69 0 -69 54q0 31 46 31h71l-267 1002q-78 0 -85 1q-55 9 -55 53q0 31 43 31h232q66 0 66 -54q0 -31 -46 -31h-71l268 -1002h559q-24 85 -24 96q0 31 32 31q42 0 57 -56z"/>
            <glyph glyph-name="M" unicode="M" horiz-adv-x="1491" d="M1373 30q0 -31 -43 -31h-232q-66 0 -66 54q0 31 46 31h71l-268 1002h-18l-120 -735h-96l-520 735h-16l268 -1002q78 0 85 -1q55 -9 55 -53q0 -31 -43 -31h-232q-66 0 -66 54q0 31 46 31h71l-268 1002q-78 0 -85 1q-55 9 -55 53q0 31 46 31l224 -1l512 -724l119 724l225 1 q69 0 69 -54q0 -31 -46 -31h-71l268 -1002q78 0 85 -1q55 -9 55 -53z"/>
            <glyph glyph-name="N" unicode="N" horiz-adv-x="1364" d="M1129 0h-108l-900 1047l258 -963q78 0 85 -1q55 -9 55 -53q0 -31 -43 -31h-232q-66 0 -66 54q0 31 46 31h71l-268 1002q-78 0 -85 1q-55 9 -55 53q0 31 46 31l178 -1l901 -1049l-258 965q-78 0 -85 1q-55 9 -55 53q0 31 43 31h232q66 0 66 -54q0 -31 -46 -31h-71z"/>
            <glyph glyph-name="O" unicode="O" horiz-adv-x="1324" d="M1084 393q0 -185 -92 -300q-100 -124 -281 -124q-278 0 -496 268q-207 253 -207 538q0 185 93 299q100 125 280 125q279 0 497 -268q206 -253 206 -538zM996 417q0 241 -173 462q-185 236 -419 236q-152 0 -234 -110q-74 -99 -74 -255q0 -241 174 -462q185 -235 418 -235 q152 0 234 109q74 98 74 255z"/>
            <glyph glyph-name="P" unicode="P" horiz-adv-x="1192" d="M874 745q0 -175 -199 -247q-63 -23 -209 -23q-32 0 -96.5 2t-96.5 2l106 -396q78 0 86 -1q55 -9 55 -53q0 -31 -47 -31h-226q-69 0 -69 54q0 31 46 31h71l-268 1002q-78 0 -85 1q-55 9 -55 53q0 31 46 31l446 -1q162 0 299 -93q141 -97 185 -248q11 -40 11 -83zM787 771 q0 129 -127 225q-117 89 -250 89h-299l140 -522h268q102 0 179 52q89 59 89 156z"/>
            <glyph glyph-name="Q" unicode="Q" horiz-adv-x="1324" d="M1250 -142q0 -37 -76 -70q-67 -28 -111 -28q-47 0 -136.5 27t-136.5 27q-99 0 -271 -46q-19 -5 -28 -5q-16 0 -34.5 14t-18.5 30q0 30 69 91l96 80q-244 56 -422 300q-172 237 -172 493q0 185 92 300q101 125 281 125q278 0 496 -267q206 -253 206 -537q0 -182 -88 -297 q-98 -126 -274 -129l-90 -84q78 17 133 17t149.5 -27.5t130.5 -27.5q44 0 95 32.5t57 32.5q20 0 36.5 -15.5t16.5 -35.5zM997 414q0 241 -173 462q-185 236 -419 236q-152 0 -234 -110q-74 -99 -74 -255q0 -241 174 -462q185 -235 418 -235q152 0 234 109q74 98 74 255z"/>
            <glyph glyph-name="R" unicode="R" horiz-adv-x="1332" d="M1213 29q0 -31 -47 -31l-139 1l-478 522h-287l117 -438q78 0 86 -1q55 -9 55 -53q0 -31 -47 -31h-226q-69 0 -69 54q0 31 46 31h71l-268 1002q-78 0 -85 1q-55 9 -55 53q0 31 46 31l466 -1q148 0 281 -91q138 -95 178 -233q9 -31 9 -65q0 -156 -217 -237l422 -460 q78 0 86 -1q55 -9 55 -53zM779 804q0 113 -126 201q-115 80 -233 80h-309l129 -480h229q107 0 198 46q112 56 112 153z"/>
            <glyph glyph-name="S" unicode="S" horiz-adv-x="1229" d="M1013 226q0 -129 -112 -200q-95 -59 -232 -59q-220 0 -387 137q16 -56 16 -72q0 -32 -30 -32q-42 0 -57 56l-62 232q-4 15 -4 26q0 31 30 31q17 0 33 -12q20 -40 55 -101q37 -55 111 -105q112 -76 272 -76q109 0 186 45q93 55 93 156q0 35 -9 65q-48 160 -250 216 q-184 40 -369 81q-205 69 -263 261q-11 38 -11 80q0 119 99 185q86 57 210 57q176 0 333 -111q-12 38 -12 54q0 30 31 30q42 0 57 -56l58 -214q3 -14 3 -25q0 -31 -30 -31q-17 0 -33 12q-19 38 -53 97q-33 49 -97 93q-98 67 -232 67q-96 0 -165 -42q-81 -49 -81 -140 q0 -30 8 -58q45 -152 245 -203q185 -40 369 -80q207 -72 268 -276q12 -42 12 -88z"/>
            <glyph glyph-name="T" unicode="T" horiz-adv-x="1241" d="M864 989q0 -31 -31 -31q-38 0 -57 49q-9 39 -19 78h-344l268 -1002q78 0 85 -1q56 -9 56 -53q0 -31 -44 -31h-231q-67 0 -67 54q0 31 46 31h71l-269 1002h-344q24 -85 24 -96q0 -31 -32 -31q-42 0 -57 56l-42 155h941l42 -155q4 -15 4 -25z"/>
            <glyph glyph-name="U" unicode="U" horiz-adv-x="1360" d="M1041 270q0 -137 -84.5 -219.5t-222.5 -82.5q-175 0 -326 124q-147 121 -193 293l-189 702q-77 0 -85 1q-55 9 -55 53q0 31 47 31h226q69 0 69 -54q0 -29 -48 -32q17 1 -70 1l189 -702q36 -135 152 -232q120 -101 257 -101q108 0 176.5 68.5t68.5 177.5q0 43 -11 87 l-189 702q-77 0 -85 1q-55 9 -55 53q0 31 47 31h226q69 0 69 -54q0 -29 -48 -32q17 1 -70 1l189 -702q15 -59 15 -115z"/>
            <glyph glyph-name="V" unicode="V" horiz-adv-x="1506" d="M1098 1117q0 -31 -46 -31h-71l-125 -1086h-117l-714 1086q-75 0 -83 1q-54 10 -54 53q0 31 43 31h232q66 0 66 -54q0 -31 -46 -31h-71l658 -1002h6l121 1002q-78 0 -85 1q-55 9 -55 53q0 31 43 31h232q66 0 66 -54z"/>
            <glyph glyph-name="W" unicode="W" horiz-adv-x="1963" d="M1558 1117q0 -31 -46 -31h-71l-85 -1086h-117l-388 651l-35 -651h-117l-674 1086q-75 0 -83 1q-54 10 -54 53q0 31 43 31h232q66 0 66 -54q0 -31 -46 -31h-71l618 -1002h6l42 678h87l395 -678h16l81 1002q-78 0 -85 1q-55 9 -55 53q0 31 43 31h232q66 0 66 -54z"/>
            <glyph glyph-name="X" unicode="X" horiz-adv-x="1449" d="M1333 29q0 -31 -44 -31h-251q-67 0 -67 54q0 31 46 31h71l-466 446l-223 -446q78 0 85 -1q56 -9 56 -53q0 -31 -44 -31h-251q-67 0 -67 54q0 31 46 31h71l256 515l-506 487q-78 0 -85 1q-55 9 -55 53q0 31 43 31h252q66 0 66 -54q0 -31 -46 -31h-71l436 -419l210 419 q-78 0 -85 1q-55 9 -55 53q0 31 43 31h252q66 0 66 -54q0 -31 -46 -31h-71l-244 -487l537 -515q78 0 85 -1q56 -9 56 -53z"/>
            <glyph glyph-name="Y" unicode="Y" horiz-adv-x="1371" d="M961 1116q0 -31 -46 -31h-71l-214 -558l119 -444q78 0 85 -1q56 -9 56 -53q0 -31 -44 -31h-232q-67 0 -67 54q0 31 46 31h71l-119 444l-518 558q-78 0 -85 1q-55 9 -55 53q0 31 43 31h252q66 0 66 -54q0 -31 -46 -31h-71l435 -473l174 473q-78 0 -85 1q-55 9 -55 53 q0 31 43 31h252q66 0 66 -54z"/>
            <glyph glyph-name="Z" unicode="Z" horiz-adv-x="1109" d="M1000 0h-809l-33 122l424 964h-560q24 -85 24 -96q0 -31 -32 -31q-42 0 -57 56l-42 155h725l32 -119l-423 -967h644q-24 85 -24 96q0 31 32 31q42 0 57 -56z"/>
            <glyph glyph-name="bracketleft" unicode="[" horiz-adv-x="644" d="M594 -228q0 -30 -43 -30h-291l-406 1514h291q66 0 66 -55q0 -30 -46 -30h-204l360 -1345h204q69 0 69 -54z"/>
            <glyph glyph-name="backslash" unicode="\" horiz-adv-x="1073" d="M997 -131q0 -31 -33 -31q-27 0 -54 37l-1064 1448q-20 27 -20 42q0 31 33 31q27 0 55 -37l1063 -1448q20 -27 20 -42z"/>
            <glyph glyph-name="bracketright" unicode="]" horiz-adv-x="644" d="M604 -258h-291q-66 0 -66 54q0 30 46 30h204l-360 1345h-204q-69 0 -69 54q0 31 43 31h291z"/>
            <glyph glyph-name="asciicircum" unicode="^" horiz-adv-x="1073" d="M757 767q0 -31 -34 -31q-21 0 -48 26l-405 384l-199 -384q-14 -27 -34 -27t-38 16t-18 35q0 12 9 29l244 463l493 -463q30 -28 30 -48z"/>
            <glyph glyph-name="underscore" unicode="_" horiz-adv-x="1229" d="M1411 -532q0 -29 -44 -29h-1123q-66 0 -66 54q0 30 43 30h1124q66 0 66 -55z"/>
            <glyph glyph-name="grave" unicode="`" horiz-adv-x="642" d="M249 1054q0 -32 -33 -32q-15 0 -43 20l-291 204q-38 26 -38 52q0 32 33 32q19 0 183.5 -113.5t179.5 -135.5q9 -12 9 -27z"/>
            <glyph glyph-name="a" unicode="a" horiz-adv-x="1146" d="M1028 31q0 -31 -46 -31h-147l-30 109q-127 -139 -315 -139q-139 0 -246 80q-117 87 -117 222q0 112 117 168q90 43 215 43q108 0 254 -28l-33 123q-21 79 -108 120q-72 34 -164 34q-59 0 -175 -36q-78 -25 -94 -25q-18 0 -32.5 15.5t-14.5 32.5q0 8 4 15q13 21 138 49 q113 26 157 26q120 0 223 -58q114 -65 143 -173l131 -493q77 0 86 -1q54 -10 54 -53zM778 210l-44 167q-112 30 -247 30q-99 0 -176 -32q-104 -43 -104 -127q0 -94 85 -152q75 -50 174 -50q185 0 312 164z"/>
            <glyph glyph-name="b" unicode="b" horiz-adv-x="1229" d="M1083 265q0 -140 -92.5 -225t-233.5 -85q-218 0 -395 178l36 -133h-155q-69 0 -69 54q0 28 48 32q-17 -1 69 -1l-289 1079q-78 0 -86 1q-54 10 -54 53q0 31 46 31h155l170 -632q82 177 299 177q206 0 378.5 -162t172.5 -367zM1003 285q0 168 -142 302q-140 131 -309 131 q-116 0 -192 -69.5t-76 -184.5q0 -168 143 -301q140 -131 308 -131q117 0 192.5 69t75.5 184z"/>
            <glyph glyph-name="c" unicode="c" horiz-adv-x="1094" d="M987 149q0 -37 -66 -89q-122 -96 -302 -96q-216 0 -381 159.5t-165 374.5q0 143 93 225q89 79 234 79q174 0 320 -104q-11 41 -11 50q0 27 29 27q38 0 52 -51q49 -184 49 -194q0 -29 -28 -29q-15 0 -28 10q-14 25 -40 68q-29 45 -99 89q-93 57 -228 57q-119 0 -190 -61 q-76 -64 -76 -181q0 -180 137 -313q134 -131 315 -131q186 0 309 138q17 18 29 18q47 0 47 -46z"/>
            <glyph glyph-name="d" unicode="d" horiz-adv-x="1229" d="M1161 31q0 -31 -46 -31h-155l-36 133q-82 -178 -300 -178q-206 0 -376 161q-174 163 -174 368q0 140 94 226q90 84 232 84q217 0 394 -177l-146 547q-78 0 -86 1q-54 10 -54 53q0 31 46 31l155 -1l312 -1163q77 0 86 -1q54 -10 54 -53zM873 286q0 167 -143 301 q-140 131 -309 131q-116 0 -191 -68q-77 -71 -77 -186q0 -168 143 -301q139 -131 309 -131q116 0 192 69.5t76 184.5z"/>
            <glyph glyph-name="e" unicode="e" horiz-adv-x="1150" d="M1009 117q0 -53 -138 -107q-102 -39 -217 -39q-193 0 -357.5 125.5t-215.5 311.5q-14 53 -14 103q0 138 99 221q92 78 233 78q192 0 344 -126q148 -122 197 -310h-773q59 -146 184 -235q128 -92 283 -92q181 0 302 102q16 14 26 14q17 0 32 -14.5t15 -31.5zM843 450 q-56 125 -171 203q-118 80 -253 80q-120 0 -195 -65q-78 -69 -78 -188q0 -15 2 -30h695z"/>
            <glyph glyph-name="f" unicode="f" horiz-adv-x="1180" d="M758 1163q0 -29 -35 -29q-45 0 -132 18.5t-131 18.5q-212 0 -212 -135q0 -55 23 -138q19 -68 39 -136h182q69 0 69 -55q0 -30 -47 -30h-182l160 -593q78 0 85 -1q55 -9 55 -53q0 -31 -46 -31h-226q-69 0 -69 54q0 31 46 31h71l-161 593h-182q-69 0 -69 55q0 30 47 30h182 l-60 231q-10 35 -10 67q0 104 98 156q78 41 193 41q37 0 152 -20q124 -20 140 -33q20 -17 20 -41z"/>
            <glyph glyph-name="g" unicode="g" horiz-adv-x="1300" d="M1095 -239q0 -110 -78 -180q-74 -67 -186 -67h-238q-69 0 -69 55q0 30 46 30l241 -1q81 0 139 52t58 132q0 31 -11 72l-76 289q-83 -175 -298 -175q-206 0 -377 160q-174 164 -174 369q0 140 94 226q91 84 233 84q212 0 388 -173l-34 128h155q69 0 69 -54q0 -28 -49 -32 q16 1 -69 1l225 -835q11 -41 11 -81zM870 298q0 168 -141 300t-311 132q-116 0 -190 -68q-77 -71 -77 -186q0 -167 141 -299.5t310 -132.5q116 0 192 69.5t76 184.5z"/>
            <glyph glyph-name="h" unicode="h" horiz-adv-x="1284" d="M1165 30q0 -31 -46 -31h-226q-69 0 -69 54q0 31 46 31h71l-104 385q-27 100 -115 158q-83 55 -190 55q-96 0 -158 -58q-32 -30 -102 -138l108 -402q78 0 85 -1q55 -9 55 -53q0 -31 -46 -31h-226q-69 0 -69 54q0 31 46 31h71l-291 1086q-78 0 -85 1q-55 9 -55 53 q0 31 46 31h155l174 -647q103 158 275 158q138 0 252 -79q119 -82 153 -212l105 -391q78 0 85 -1q55 -9 55 -53z"/>
            <glyph glyph-name="i" unicode="i" horiz-adv-x="638" d="M145 962h-124l-58 217h124zM296 84l-159 593q-78 0 -84 1q-56 9 -56 53q0 31 44 31h158l181 -678h-84zM382 84q78 0 85 -1q55 -9 55 -53q0 -31 -43 -31h-232q-66 0 -66 54q0 31 46 31h155z"/>
            <glyph glyph-name="j" unicode="j" horiz-adv-x="944" d="M577 962h-124l-58 217h124zM891 -258q0 -109 -70 -170q-66 -58 -177 -58h-267q-69 0 -69 55q0 30 46 30l265 -1q83 0 133.5 45t50.5 126q0 35 -10 72l-224 836q-77 0 -85 1q-55 9 -55 53q0 31 47 31h155l246 -921q14 -52 14 -99z"/>
            <glyph glyph-name="k" unicode="k" horiz-adv-x="1214" d="M1096 30q0 -31 -43 -31h-264q-66 0 -66 54q0 31 46 31h71l-460 371l-75 -81l79 -290q78 0 85 -1q55 -9 55 -53q0 -31 -43 -31h-234q-66 0 -66 54q0 31 46 31h71l-290 1086q-78 0 -84 1q-56 9 -56 53q0 31 44 31h157l208 -774l276 300q-78 0 -84 1q-56 9 -56 53 q0 31 44 31h276q67 0 67 -54q0 -31 -47 -31h-71l-254 -274l528 -423q78 0 85 -1q55 -9 55 -53z"/>
            <glyph glyph-name="l" unicode="l" horiz-adv-x="642" d="M522 30q0 -31 -43 -31h-232q-66 0 -66 54q0 31 46 31h71l-291 1086q-78 0 -84 1q-56 9 -56 53q0 31 44 31h157l314 -1171q78 0 85 -1q55 -9 55 -53z"/>
            <glyph glyph-name="m" unicode="m" horiz-adv-x="1878" d="M1759 30q0 -31 -46 -31h-226q-69 0 -69 54q0 31 46 31h71l-111 411q-26 96 -112 155q-82 57 -184 57q-159 0 -258 -157q9 -20 14 -41l115 -425q78 0 85 -1q55 -9 55 -53q0 -31 -46 -31h-226q-69 0 -69 54q0 31 46 31h71l-111 411q-26 96 -112 155q-82 57 -184 57 q-107 0 -157 -55q-8 -9 -87 -145l114 -423q78 0 85 -1q55 -9 55 -53q0 -31 -46 -31h-226q-69 0 -69 54q0 31 46 31h71l-160 593q-77 0 -85 1q-55 9 -55 53q0 31 47 31h155l34 -127q69 97 102 120q52 37 154 37q194 0 326 -153q112 153 294 153q132 0 246 -78 q119 -81 152 -205l115 -425q78 0 85 -1q55 -9 55 -53z"/>
            <glyph glyph-name="n" unicode="n" horiz-adv-x="1282" d="M1163 30q0 -31 -46 -31h-226q-69 0 -69 54q0 31 46 31h71l-111 411q-26 96 -112 155q-82 57 -184 57q-100 0 -163 -57q-38 -35 -101 -143l114 -423q78 0 85 -1q55 -9 55 -53q0 -31 -46 -31h-226q-69 0 -69 54q0 31 46 31h71l-160 593q-77 0 -85 1q-55 9 -55 53 q0 31 47 31h155l34 -127q113 157 276 157q132 0 246 -78q119 -81 152 -205l115 -425q78 0 85 -1q55 -9 55 -53z"/>
            <glyph glyph-name="o" unicode="o" horiz-adv-x="1146" d="M949 278q0 -140 -92 -225t-234 -85q-206 0 -377 161q-174 163 -174 368q0 140 94 226q91 84 233 84q206 0 378 -162t172 -367zM870 298q0 168 -141 300t-311 132q-116 0 -190 -68q-77 -71 -77 -186q0 -167 141 -299.5t310 -132.5q116 0 192 69.5t76 184.5z"/>
            <glyph glyph-name="p" unicode="p" horiz-adv-x="1229" d="M1079 278q0 -140 -92 -225t-234 -85q-217 0 -393 177l145 -547q9 0 26 1t26 1q88 0 88 -56q0 -30 -46 -30h-225q-70 0 -70 54q0 28 48 32q-8 -1 69 -2l-289 1079q-77 0 -85 1q-55 9 -55 53q0 31 47 31h155l35 -133q82 178 300 178q206 0 378 -162t172 -367zM1000 298 q0 168 -141 300t-311 132q-116 0 -190 -68q-77 -71 -77 -186q0 -167 141 -299.5t310 -132.5q116 0 192 69.5t76 184.5z"/>
            <glyph glyph-name="q" unicode="q" horiz-adv-x="1229" d="M1289 -456q0 -30 -48 -30h-225q-69 0 -69 54q0 28 49 32q-5 -1 69 -2l-147 547q-83 -177 -300 -177q-206 0 -376 161q-174 163 -174 368q0 140 92 225t234 85q218 0 395 -178l-36 133h155q69 0 69 -54q0 -29 -48 -33q5 1 -69 2l289 -1079q8 0 25 1t27 1q88 0 88 -56z M867 298q0 168 -141.5 300t-310.5 132q-116 0 -192 -69t-76 -184q0 -168 143 -302q140 -131 309 -131q116 0 192 69.5t76 184.5z"/>
            <glyph glyph-name="r" unicode="r" horiz-adv-x="1112" d="M828 644q0 -32 -34 -32q-15 0 -75 43.5t-104 43.5q-80 0 -184 -97q-44 -40 -147 -162l95 -357q9 0 26.5 1t26.5 1q87 0 87 -56q0 -30 -46 -30h-225q-70 0 -70 54q0 32 64 32q10 0 27.5 -1t25.5 -1l-159 594q-8 0 -25.5 -1t-26.5 -1q-88 0 -88 57q0 30 47 30h155l56 -212 q93 111 145 154q95 79 189 79q54 0 142 -43q98 -49 98 -96z"/>
            <glyph glyph-name="s" unicode="s" horiz-adv-x="1034" d="M876 159q0 -101 -109 -152q-84 -39 -198 -39q-179 0 -318 91q6 -23 6 -35q0 -27 -28 -27q-38 0 -51 51q-45 169 -45 178q0 29 27 29q29 0 52 -44q34 -63 38 -67q94 -101 296 -101q88 0 157 28q95 36 95 110q0 19 -5 34q-34 112 -203 148q-155 25 -309 50 q-171 46 -211 181q-6 21 -6 45q0 87 99 132q75 35 175 35q156 0 275 -77q-3 11 -3 21q0 29 28 29q39 0 53 -51q38 -142 38 -152q0 -29 -29 -29q-24 0 -45 34l-32 54q-20 24 -52 44q-82 50 -209 50q-73 0 -134 -22q-84 -31 -84 -91q0 -13 4 -25q24 -80 149 -109 q127 -20 254 -41q162 -30 243.5 -106t81.5 -176z"/>
            <glyph glyph-name="t" unicode="t" horiz-adv-x="1101" d="M1037 97q0 -46 -103 -91q-88 -39 -176 -39q-128 0 -230 66q-108 70 -140 189l-123 455h-205q-69 0 -69 55q0 30 47 30h205l-94 352q-3 14 -3 24q0 32 30 32q43 0 58 -56l94 -352h406q69 0 69 -55q0 -30 -47 -30h-406l123 -455q22 -80 98 -127q71 -44 158 -44q44 0 127 26 q15 4 71 38q52 32 57 32q19 0 36 -16t17 -34z"/>
            <glyph glyph-name="u" unicode="u" horiz-adv-x="1273" d="M1157 30q0 -30 -46 -30h-155l-33 123q-130 -156 -330 -156q-123 0 -217 76t-126 196l-118 438q-8 0 -25 -1t-26 -1q-89 0 -89 57q0 30 47 30h155l140 -523q21 -80 86 -134t146 -54q205 0 326 188l-118 438q-8 0 -25 -1t-26 -1q-89 0 -89 57q0 30 47 30h155l181 -678 q8 0 25.5 1t26.5 1q88 0 88 -56z"/>
            <glyph glyph-name="v" unicode="v" horiz-adv-x="1340" d="M1019 750q23 -17 23 -42q0 -33 -64 -33q-9 0 -27 1t-27 1zM321 750q23 -17 23 -42q0 -33 -64 -33q-9 0 -27 1t-27 1zM1042 708q0 -33 -64 -33q-9 0 -27 1t-27 1l-139 -677h-142l-507 677q-8 0 -25.5 -1t-26.5 -1q-88 0 -88 57q0 30 43 30h239q66 0 66 -54q0 -33 -64 -33 q-9 0 -27 1t-27 1l447 -593h37l123 593q-8 0 -25.5 -1t-26.5 -1q-88 0 -88 57q0 30 43 30h240q66 0 66 -54z"/>
            <glyph glyph-name="w" unicode="w" horiz-adv-x="1750" d="M1429 750q23 -17 23 -42q0 -33 -64 -33q-9 0 -27 1t-27 1zM1452 708q0 -33 -64 -33q-9 0 -27 1t-27 1l-119 -677h-142l-254 365l-54 -365h-142l-487 677q-8 0 -25.5 -1t-26.5 -1q-88 0 -88 57q0 30 43 30h239q66 0 66 -54q0 -33 -64 -33q-9 0 -27 1t-27 1l427 -593h37 l58 377h92l263 -377h37l103 593q-8 0 -25.5 -1t-26.5 -1q-88 0 -88 57q0 30 43 30h240q66 0 66 -54zM321 750q23 -17 23 -42q0 -33 -64 -33q-9 0 -27 1t-27 1z"/>
            <glyph glyph-name="x" unicode="x" horiz-adv-x="1346" d="M981 750q23 -17 23 -42q0 -33 -64 -33q-9 0 -27 1t-27 1zM1220 12q7 8 7 19q0 56 -88 56q-9 0 -26.5 -1t-25.5 -1zM388 750q23 -17 23 -42q0 -33 -64 -33q-9 0 -27 1t-27 1zM1227 30q0 -30 -43 -30h-265q-65 0 -65 54q0 33 63 33q9 0 26.5 -1t26.5 -1l-343 253l-217 -253 q8 0 25.5 1t26.5 1q88 0 88 -57q0 -30 -43 -30h-265q-65 0 -65 54q0 33 63 33q9 0 26.5 -1t26.5 -1l262 309l-378 283q-8 0 -25.5 -1t-26.5 -1q-88 0 -88 57q0 30 43 30h265q66 0 66 -54q0 -33 -64 -33q-9 0 -27 1t-27 1l304 -228l174 228q-8 0 -26 -1t-26 -1q-89 0 -89 57 q0 30 43 30h265q66 0 66 -54q0 -33 -64 -33q-9 0 -27 1t-27 1l-217 -283l418 -309q8 0 25.5 1t26.5 1q88 0 88 -57zM543 12q7 8 7 19q0 56 -88 56q-9 0 -26.5 -1t-25.5 -1z"/>
            <glyph glyph-name="y" unicode="y" horiz-adv-x="1419" d="M1098 750q23 -17 23 -42q0 -33 -64 -33q-9 0 -27 1t-27 1zM325 750q23 -17 23 -42q0 -33 -64 -33q-9 0 -27 1t-27 1zM1121 708q0 -33 -64 -33q-9 0 -27 1t-27 1l-346 -1078q8 0 25.5 1t26.5 1q88 0 88 -57q0 -30 -43 -30h-240q-66 0 -66 54q0 33 64 33q9 0 27 -1t26 -1 l128 401l-555 677q-8 0 -25.5 -1t-26.5 -1q-88 0 -88 57q0 30 43 30h241q66 0 66 -54q0 -33 -64 -33q-9 0 -27 1t-27 1l493 -585l188 585q-8 0 -25.5 -1t-26.5 -1q-88 0 -88 57q0 30 43 30h241q66 0 66 -54zM791 -474q6 8 6 19q0 56 -88 56q-8 0 -25.5 -1t-26.5 -1z"/>
            <glyph glyph-name="z" unicode="z" horiz-adv-x="1015" d="M905 0h-714l-20 75l413 602h-468q23 -84 23 -92q0 -35 -32 -35q-42 0 -56 53l-42 159h672l20 -75l-417 -603l513 1q-23 84 -23 92q0 35 32 35q42 0 56 -53z"/>
            <glyph glyph-name="braceleft" unicode="{" horiz-adv-x="719" d="M673 -233q0 -30 -42 -30q-90 0 -165 66q-72 62 -96 152l-97 360q-19 73 -76 106q-10 5 -94 34q-46 15 -46 50q0 19 64 41t64 79q0 20 -7 47l-97 360q-8 32 -8 63q0 70 41.5 113t112.5 43q62 0 62 -52q0 -18 -65 -40.5t-65 -80.5q0 -20 7 -46l97 -360q10 -40 10 -69 q0 -59 -54 -109q110 -69 139 -179l96 -359q21 -75 78 -108q12 -7 95 -33q46 -14 46 -48z"/>
            <glyph glyph-name="bar" unicode="|" horiz-adv-x="387" d="M333 -227q0 -31 -31 -31q-42 0 -56 52l-377 1408q-3 12 -3 21q0 33 30 33q43 0 59 -57l374 -1401q4 -14 4 -25z"/>
            <glyph glyph-name="braceright" unicode="}" horiz-adv-x="719" d="M481 483q0 -20 -64 -42.5t-64 -78.5q0 -21 7 -47l97 -360q9 -33 9 -64q0 -70 -42 -112t-112 -42q-63 0 -63 51q0 18 65 40.5t65 80.5q0 21 -8 47l-96 359q-10 39 -10 68q0 60 53 111q-109 68 -138 178l-97 360q-20 74 -77 107q-12 6 -95 33q-46 15 -46 48q0 31 41 31 q89 0 166 -66q72 -64 96 -153l97 -360q20 -75 76 -107q11 -6 94 -33q46 -14 46 -49z"/>
            <glyph glyph-name="asciitilde" unicode="~" horiz-adv-x="1156" d="M821 835q0 -52 -71.5 -117t-124.5 -65q-81 0 -228 109.5t-193 109.5q-54 0 -101.5 -75t-65.5 -75t-34.5 15t-16.5 33q0 14 13 41q75 145 181 145q82 0 227.5 -109t188.5 -109q60 0 106.5 75.5t65.5 75.5q21 0 37 -16.5t16 -37.5z"/>
            <glyph glyph-name="exclamdown" unicode="¡" horiz-adv-x="547" d="M233 750q0 -77 -80 -77h-39q-51 0 -93 40.5t-42 91.5q0 76 80 76h39q51 0 93 -40t42 -91zM481 -329q0 -57 -63 -57q-81 0 -104 82q-2 11 -7 33l-136 645q-2 13 -2 24q0 34 29 34q40 0 58 -58l211 -645q14 -42 14 -58z"/>
            <glyph glyph-name="cent" unicode="¢" horiz-adv-x="1038" d="M820 393q0 -51 -113 -94q-91 -34 -159 -38q59 -221 59 -232q0 -31 -31 -31q-42 0 -57 56l-55 207q-182 21 -320 164q-141 146 -141 327q0 217 255 276q-70 264 -70 275q0 31 30 31q42 0 57 -56l66 -247q129 -4 239 -75q0 34 31 34q43 0 57 -51l34 -127q4 -15 4 -26 q0 -31 -31 -31q-23 0 -56 51q-43 65 -85 93q-72 51 -191 51q-109 0 -178 -54q-75 -59 -75 -165q0 -157 125 -273.5t282 -116.5q85 0 183.5 52t86.5 52q53 0 53 -52z"/>
            <glyph glyph-name="sterling" unicode="£" horiz-adv-x="1198" d="M1046 142q0 -61 -35.5 -100.5t-95.5 -39.5h-669q-69 0 -69 52q0 19 41 33q49 16 65 38q43 57 43 176q0 146 -63 268h-169q-69 0 -69 54q0 30 47 30h148q-136 229 -136 330q0 98 63.5 159.5t161.5 61.5q104 0 205 -67q112 -74 112 -115q0 -31 -33 -31q-6 0 -92.5 64 t-165.5 64q-71 0 -117 -44t-46 -114q0 -61 50 -159q42 -74 84 -149h205q69 0 69 -54q0 -30 -47 -30h-186q65 -152 65 -286q0 -113 -43 -197h519q51 0 62 35q4 12 4 77q0 43 29 43q63 0 63 -99z"/>
            <glyph glyph-name="currency" unicode="¤" horiz-adv-x="1105" d="M944 230q0 -31 -34 -31q-18 0 -190 137q-77 -72 -192 -72t-229 72q-27 -40 -54 -79q-43 -58 -65 -58q-19 0 -37 15t-18 34q0 23 40 76l58 72q-143 138 -143 300q0 66 27 123q-51 39 -103 77q-75 61 -75 87q0 32 33 32q18 0 189 -136q72 73 194 73q120 0 230 -73 q27 39 54 79q42 57 64 57q18 0 36 -15.5t18 -33.5q0 -23 -39 -75q-28 -36 -57 -72q141 -137 141 -300q0 -67 -28 -123q51 -39 103 -78q77 -61 77 -88zM705 541q0 126 -106 226.5t-233 100.5q-87 0 -143 -52.5t-56 -138.5q0 -127 107 -228q104 -100 231 -100q87 0 143.5 52.5 t56.5 139.5z"/>
            <glyph glyph-name="yen" unicode="¥" horiz-adv-x="1371" d="M961 1116q0 -31 -46 -31h-71l-212 -555q60 0 74 -4q45 -10 45 -51q0 -26 -41 -31l-58 1l31 -115q62 0 76 -3q45 -11 45 -52q0 -26 -41 -31l-57 1l43 -162q78 0 85 -1q56 -9 56 -53q0 -31 -43 -31h-234q-66 0 -66 54q0 31 46 31h71l-43 163q-79 0 -84 1q-55 9 -55 54 q0 30 43 30h73l-31 115q-79 0 -84 1q-55 9 -55 54q0 30 43 30h71l-515 554q-78 0 -85 1q-55 9 -55 53q0 31 43 31h252q66 0 66 -54q0 -31 -46 -31h-71l435 -473l174 473q-78 0 -85 1q-55 9 -55 53q0 31 43 31h252q66 0 66 -54z"/>
            <glyph glyph-name="brokenbar" unicode="¦" horiz-adv-x="384" d="M91 675q0 -33 -30 -33q-42 0 -64 80l-120 450q-11 40 -11 51q0 29 31 29q35 0 54 -44q3 -7 20 -73l100 -376q20 -74 20 -84zM333 -229q0 -33 -30 -33q-42 0 -63 79l-121 450q-11 40 -11 51q0 29 32 29q34 0 52 -40q4 -8 20 -68l102 -385q19 -74 19 -83z"/>
            <glyph glyph-name="section" unicode="§" horiz-adv-x="1229" d="M1028 345q0 -64 -64 -98q-50 -26 -121 -27q71 -79 71 -172q0 -84 -59 -133q-56 -45 -141 -45h-406q-62 228 -62 236q0 23 22 23q31 0 42 -40l42 -158h344q64 0 108 33q49 37 49 100q0 118 -226 246q-211 108 -421 216q-227 131 -227 254q0 117 188 127q-69 74 -69 162 q0 82 53 134t135 52h415q61 -227 61 -235q0 -22 -21 -22q-31 0 -41 40l-42 156h-350q-61 0 -105 -39.5t-44 -99.5q0 -116 225 -240q209 -106 419 -211q225 -130 225 -259zM967 357q0 85 -185 195q-42 25 -266 134q-183 89 -286 163q-57 -7 -115 -15q-73 -17 -73 -68 q0 -15 4 -27q26 -83 330 -244q379 -200 405 -220q4 2 111 19q75 12 75 63z"/>
            <glyph glyph-name="dieresis" unicode="¨" horiz-adv-x="892" d="M479 1122q0 -60 -63 -60q-40 0 -73 31.5t-33 71.5q0 60 62 60q40 0 73.5 -31.5t33.5 -71.5zM50 1122q0 -60 -63 -60q-39 0 -72 31.5t-33 70.5q0 61 61 61q40 0 73.5 -31.5t33.5 -71.5z"/>
            <glyph glyph-name="copyright" unicode="©" horiz-adv-x="1523" d="M1278 428q0 -203 -132.5 -326.5t-337.5 -123.5q-300 0 -547 236q-250 239 -250 537q0 203 133 328q131 122 336 122q300 0 547 -236q251 -238 251 -537zM1208 446q0 265 -223 478q-220 209 -487 209q-182 0 -299 -108q-119 -112 -119 -293q0 -265 223 -477 q220 -209 486 -209q183 0 299 108q120 111 120 292zM919 410q0 -10 -12 -30q-59 -93 -172 -93q-107 0 -210 82t-131 187l-23 85q-9 35 -9 69q0 84 52.5 138t136.5 54q104 0 198 -71q-10 34 -10 41q0 17 16 17q21 0 28 -28q33 -124 33 -130q0 -15 -15 -15q-8 0 -16 6 q-39 68 -77 94q-68 44 -144 44q-72 0 -114.5 -46t-42.5 -117q0 -31 8 -62l20 -73q24 -93 109 -163t179 -70q73 0 170 105q26 0 26 -24z"/>
            <glyph glyph-name="ordfeminine" unicode="ª" horiz-adv-x="950" d="M636 772q0 -28 -41 -28h-141l-16 60q-93 -80 -218 -80q-104 0 -185 55q-91 62 -91 162q0 80 90 121q68 30 161 30q70 0 170 -16l-17 66q-24 89 -178 89q-35 0 -99 -20t-95 -20q-17 0 -34 14t-17 30q0 33 99 55q77 18 128 18q91 0 167 -40q88 -47 110 -126l86 -321 q5 0 21 1q13 1 21 1q79 0 79 -51zM412 903l-27 95q-69 17 -161 17q-66 0 -120 -19q-76 -26 -76 -78q0 -58 58 -90q48 -27 110 -27q127 0 216 102z"/>
            <glyph glyph-name="guillemotleft" unicode="«" horiz-adv-x="1229" d="M1133 31q0 -30 -33 -30q-18 0 -50 23l-558 410l339 410q19 24 37 24q20 0 37.5 -16t17.5 -36q0 -13 -12 -32l-220 -350l407 -349q35 -30 35 -54zM664 31q0 -30 -33 -30q-18 0 -50 23l-558 410l339 410q19 24 37 24q20 0 37.5 -15.5t17.5 -34.5q0 -13 -13 -34l-220 -350 l407 -349q36 -31 36 -54z"/>
            <glyph glyph-name="logicalnot" unicode="¬" horiz-adv-x="1359" d="M1186 235q0 -32 -31 -32q-43 0 -58 56l-112 420h-920q-69 0 -69 54q0 30 43 30h1008l136 -507q3 -11 3 -21z"/>
            <glyph glyph-name="registered" unicode="®" horiz-adv-x="1523" d="M1280 421q0 -203 -132.5 -326.5t-338.5 -123.5q-299 0 -546 236q-250 239 -250 537q0 203 133 328q131 122 336 122q300 0 547 -236q251 -238 251 -537zM1209 439q0 265 -222 478q-220 209 -487 209q-182 0 -299 -108q-119 -112 -119 -293q0 -265 223 -477 q220 -209 486 -209q183 0 300.5 109.5t117.5 290.5zM1011 315q0 -16 -24 -15h-69l-239 261h-144l59 -219q70 0 70 -27q0 -15 -23 -15h-113q-35 0 -35 27q0 15 59 15l-134 501q-70 0 -70 27q0 16 23 16l233 -1q74 0 141.5 -46.5t87.5 -115.5q5 -16 5 -32q0 -78 -109 -119 l212 -230q70 0 70 -27zM794 702q0 57 -63 101q-58 40 -117 40h-154l64 -240h115q53 0 99 23q56 28 56 76z"/>
            <glyph glyph-name="degree" unicode="°" horiz-adv-x="570" d="M131 1221q0 -45 -30 -72t-75 -27q-66 0 -121 51t-55 116q0 45 29.5 72.5t74.5 27.5q66 0 121.5 -51.5t55.5 -116.5zM84 1232q0 44 -37 78t-81 34q-70 0 -70 -66q0 -43 37 -77t81 -34q70 0 70 65z"/>
            <glyph glyph-name="plusminus" unicode="±" horiz-adv-x="1229" d="M935 706q0 -30 -46 -30h-372l112 -420q4 -14 4 -24q0 -32 -32 -32q-42 0 -57 56l-112 420h-372q-69 0 -69 54q0 30 46 30h372l-112 418q-4 14 -4 24q0 32 32 32q42 0 57 -56l112 -418h372q69 0 69 -54zM1116 28q0 -28 -48 -28h-828q-68 0 -68 54q0 32 63 32h797 q84 0 84 -58z"/>
            <glyph glyph-name="twosuperior" unicode="²" horiz-adv-x="800" d="M491 529h-386l-17 62q240 283 240 373q0 64 -64 116q-59 49 -125 49q-117 0 -123 -110q-1 -20 -16 -20q-28 0 -28 35q0 61 48 100q45 37 107 37q86 0 163 -65q82 -68 82 -153q0 -54 -97 -195q-73 -107 -140 -187h302q-6 20 -6 29q0 15 16 15q22 0 44 -86z"/>
            <glyph glyph-name="threesuperior" unicode="³" horiz-adv-x="800" d="M459 659q0 -67 -52 -108q-48 -37 -117 -37q-46 0 -120 23q-89 29 -89 64q0 15 15 15q133 -60 183 -60q54 0 94 29q43 33 43 85q0 77 -79 133q-72 51 -152 51q-35 0 -35 27q0 15 57 15q42 0 71 21q32 25 32 65q0 62 -58 106q-53 41 -117 41q-66 0 -141 -70q-27 0 -27 25 q0 18 31 45q49 42 126 42q84 0 154 -56q76 -60 76 -142q0 -68 -64 -103q70 -28 117 -81q52 -60 52 -130z"/>
            <glyph glyph-name="acute" unicode="´" horiz-adv-x="705" d="M192 1268q0 -14 -16 -31l-182 -204q-18 -20 -33 -20q-19 0 -37 16.5t-18 35.5q0 15 16 32l181 204q18 20 34 20q20 0 37.5 -16.5t17.5 -36.5z"/>
            <glyph glyph-name="paragraph" unicode="¶" horiz-adv-x="1229" d="M1134 -123q0 -31 -46 -31h-483q-69 0 -69 54q0 31 46 31h71l-166 633q-297 20 -455 196q-36 41 -76 194q-8 33 -8 61q0 119 128 186q104 54 235 54l398 -1q69 0 69 -54q0 -31 -47 -31h-71l334 -1238q78 0 85 -1q55 -9 55 -53zM910 -69l-331 1238h-176l334 -1238h173z M470 627l-147 542q-251 -23 -251 -172q0 -26 27 -125q29 -105 147 -174q102 -60 224 -71z"/>
            <glyph glyph-name="cedilla" unicode="¸" horiz-adv-x="605" d="M576 -251q0 -86 -117 -86q-49 0 -116 21q-83 26 -83 62q0 22 23 22q8 0 66 -22.5t94 -22.5q69 0 69 46q0 64 -133 64q-43 163 -43 171q0 22 22 22q30 0 48 -55q9 -41 18 -81q61 -8 104 -43q48 -40 48 -98z"/>
            <glyph glyph-name="onesuperior" unicode="¹" horiz-adv-x="800" d="M382 550q0 -15 -21 -15h-117q-33 0 -33 27q0 15 59 15l-144 536q-5 -2 -19 -11q-9 -6 -20 -6q-27 0 -27 27q0 10 16 17l77 31l159 -594q70 0 70 -27z"/>
            <glyph glyph-name="ordmasculine" unicode="º" horiz-adv-x="912" d="M564 945q0 -102 -75 -163q-71 -57 -175 -57q-148 0 -274 107q-132 111 -132 257q0 102 76 163q70 57 174 57q149 0 275 -106q131 -112 131 -258zM480 965q0 108 -98 190q-93 77 -203 77q-77 0 -130 -42q-57 -46 -57 -121q0 -108 98 -189q94 -78 204 -78q77 0 129 42 q57 46 57 121z"/>
            <glyph glyph-name="guillemotright" unicode="»" horiz-adv-x="1229" d="M1054 434l-338 -410q-19 -23 -38 -23q-20 0 -37 15.5t-17 35.5q0 14 12 33l219 349l-406 350q-35 30 -35 54q0 30 32 30q18 0 51 -24zM585 434l-339 -410q-19 -23 -37 -23q-20 0 -37 15.5t-17 35.5q0 14 12 33l219 349l-406 350q-35 30 -35 54q0 30 32 30q17 0 50 -24z "/>
            <glyph glyph-name="onequarter" unicode="¼" horiz-adv-x="1280" d="M1166 15q0 -15 -21 -15h-117q-33 0 -33 27q0 16 59 16l-36 133h-279l-13 49l125 403h88l110 -410l13 1h13q44 0 44 -28q0 -15 -59 -15l36 -133q70 0 70 -28zM757 1116q0 -9 -2 -20l-238 -968q-9 -36 -35 -36q-53 0 -53 55q0 9 2 20l238 968q9 35 35 35q53 0 53 -54z M405 550q0 -15 -21 -15h-117q-33 0 -33 27q0 15 59 15l-144 536q-5 -2 -19 -11q-9 -6 -20 -6q-27 0 -27 27q0 10 16 17l77 31l159 -594q70 0 70 -27zM1006 218l-98 368h-22l-114 -368h234z"/>
            <glyph glyph-name="onehalf" unicode="½" horiz-adv-x="1280" d="M1170 0h-386l-17 62q239 283 239 374q0 64 -61.5 114t-127.5 50q-117 0 -123 -109q-1 -21 -16 -21q-27 0 -27 36q0 61 48 100q45 37 107 37q85 0 164.5 -67t79.5 -151q0 -55 -96 -196q-73 -107 -141 -187h303q-6 21 -6 29q0 16 16 16q22 0 44 -87zM717 1116q0 -9 -2 -20 l-238 -968q-9 -36 -35 -36q-53 0 -53 55q0 9 2 20l238 968q9 35 35 35q53 0 53 -54zM405 550q0 -15 -21 -15h-117q-33 0 -33 27q0 15 59 15l-144 536q-5 -2 -19 -11q-9 -6 -20 -6q-27 0 -27 27q0 10 16 17l77 31l159 -594q70 0 70 -27z"/>
            <glyph glyph-name="threequarters" unicode="¾" horiz-adv-x="1280" d="M1166 15q0 -15 -21 -15h-117q-33 0 -33 27q0 16 59 16l-36 133h-279l-13 49l125 403h88l110 -410l13 1h13q44 0 44 -28q0 -15 -59 -15l36 -133q70 0 70 -28zM757 1116q0 -9 -2 -20l-238 -968q-9 -36 -35 -36q-53 0 -53 55q0 9 2 20l238 968q9 35 35 35q53 0 53 -54z M459 659q0 -67 -52 -108q-48 -37 -117 -37q-46 0 -120 23q-89 29 -89 64q0 15 15 15q133 -60 183 -60q54 0 94 29q43 33 43 85q0 77 -79 133q-72 51 -152 51q-35 0 -35 27q0 15 57 15q42 0 71 21q32 25 32 65q0 62 -58 106q-53 41 -117 41q-66 0 -141 -70q-27 0 -27 25 q0 18 31 45q49 42 126 42q84 0 154 -56q76 -60 76 -142q0 -68 -64 -103q70 -28 117 -81q52 -60 52 -130zM1006 218l-98 368h-22l-114 -368h234z"/>
            <glyph glyph-name="questiondown" unicode="¿" horiz-adv-x="1029" d="M519 751q0 -76 -80 -76h-84q-51 0 -93.5 40t-42.5 91q0 77 80 77h84q51 0 93.5 -40.5t42.5 -91.5zM998 -295q-109 -56 -159 -73q-81 -28 -172 -28q-163 0 -293 98.5t-172 255.5q-9 35 -9 67q0 95 89 167q48 38 174 98q-26 92 -26 106q0 36 31 36q42 0 57 -57l38 -141 q-121 -49 -175 -85q-101 -68 -101 -151q0 -19 6 -39q31 -118 136.5 -194.5t228.5 -76.5q119 0 248 71q-22 77 -22 91q0 34 31 34q41 0 57 -57z"/>
            <glyph glyph-name="Agrave" unicode="À" horiz-adv-x="1504" d="M492 1257q0 -32 -33 -32q-14 0 -43 20l-291 204q-37 26 -37 52q0 32 33 32q19 0 183 -113.5t180 -135.5q8 -12 8 -27zM1386 34q0 -31 -43 -31h-232q-66 0 -66 54q0 31 46 31h71l-197 307h-552l-25 -307q69 0 80 -2q50 -10 50 -52q0 -31 -43 -31h-232q-66 0 -66 54 q0 31 46 31h71l115 1087l140 -1l697 -1086q78 0 85 -1q55 -9 55 -53zM910 479l-395 611h-31l-62 -611h488z"/>
            <glyph glyph-name="Aacute" unicode="Á" horiz-adv-x="1504" d="M693 1481q0 -15 -16 -32l-181 -204q-18 -20 -33 -20q-21 0 -38.5 17t-17.5 38q0 19 104.5 136t125.5 117q20 0 38 -16t18 -36zM1386 34q0 -31 -43 -31h-232q-66 0 -66 54q0 31 46 31h71l-197 307h-552l-25 -307q69 0 80 -2q50 -10 50 -52q0 -31 -43 -31h-232 q-66 0 -66 54q0 31 46 31h71l115 1087l140 -1l697 -1086q78 0 85 -1q55 -9 55 -53zM910 479l-395 611h-31l-62 -611h488z"/>
            <glyph glyph-name="Acircumflex" unicode="Â" horiz-adv-x="1504" d="M744 1255q0 -31 -33 -31q-15 0 -306 186q-51 -53 -102 -105q-82 -81 -104 -81q-19 0 -37 16t-18 35q0 16 18 33l215 206l326 -206q41 -26 41 -53zM1386 34q0 -31 -43 -31h-232q-66 0 -66 54q0 31 46 31h71l-197 307h-552l-25 -307q69 0 80 -2q50 -10 50 -52 q0 -31 -43 -31h-232q-66 0 -66 54q0 31 46 31h71l115 1087l140 -1l697 -1086q78 0 85 -1q55 -9 55 -53zM910 479l-395 611h-31l-62 -611h488z"/>
            <glyph glyph-name="Atilde" unicode="Ã" horiz-adv-x="1504" d="M750 1340q0 -39 -56.5 -77.5t-97.5 -38.5q-57 0 -162.5 61t-133.5 61q-33 0 -71 -40.5t-54 -40.5q-20 0 -36.5 15t-16.5 35q0 37 59 77q56 38 96 38q55 0 159.5 -60.5t136.5 -60.5q30 0 69.5 40.5t53.5 40.5q20 0 37 -15t17 -35zM1386 34q0 -31 -43 -31h-232 q-66 0 -66 54q0 31 46 31h71l-197 307h-552l-25 -307q69 0 80 -2q50 -10 50 -52q0 -31 -43 -31h-232q-66 0 -66 54q0 31 46 31h71l115 1087l140 -1l697 -1086q78 0 85 -1q55 -9 55 -53zM910 479l-395 611h-31l-62 -611h488z"/>
            <glyph glyph-name="Adieresis" unicode="Ä" horiz-adv-x="1504" d="M674 1281q0 -57 -58 -57q-38 0 -69.5 29.5t-31.5 67.5q0 57 60 57q37 0 68 -30t31 -67zM374 1281q0 -57 -58 -57q-38 0 -69.5 29.5t-31.5 67.5q0 57 60 57q37 0 68 -30t31 -67zM1386 34q0 -31 -43 -31h-232q-66 0 -66 54q0 31 46 31h71l-197 307h-552l-25 -307 q69 0 80 -2q50 -10 50 -52q0 -31 -43 -31h-232q-66 0 -66 54q0 31 46 31h71l115 1087l140 -1l697 -1086q78 0 85 -1q55 -9 55 -53zM910 479l-395 611h-31l-62 -611h488z"/>
            <glyph glyph-name="Aring" unicode="Å" horiz-adv-x="1504" d="M570 1324q0 -44 -30 -71.5t-75 -27.5q-65 0 -120.5 51.5t-55.5 116.5q0 44 30 71.5t75 27.5q65 0 120.5 -51.5t55.5 -116.5zM1386 34q0 -31 -43 -31h-232q-66 0 -66 54q0 31 46 31h71l-197 307h-552l-25 -307q69 0 80 -2q50 -10 50 -52q0 -31 -43 -31h-232q-66 0 -66 54 q0 31 46 31h71l115 1087l140 -1l697 -1086q78 0 85 -1q55 -9 55 -53zM524 1336q0 43 -37 77t-81 34q-70 0 -70 -66q0 -43 37 -77t80 -34q71 0 71 66zM910 479l-395 611h-31l-62 -611h488z"/>
            <glyph glyph-name="AE" unicode="Æ" horiz-adv-x="1620" d="M1511 -1l-805 -1q-69 0 -69 54q0 31 46 31h71l-82 308h-258l-25 -307q69 0 80 -2q50 -10 50 -52q0 -31 -43 -31h-232q-66 0 -66 54q0 31 46 31h71l100 1003q-49 8 -49 52q0 31 46 31l761 -1l42 -155q4 -15 4 -25q0 -31 -31 -31q-38 0 -57 49q-9 39 -19 78h-522l117 -437 h251q-23 86 -23 96q0 31 32 31q42 0 57 -56l61 -226q4 -15 4 -25q0 -31 -31 -31q-38 0 -57 49l-20 78h-251l128 -481h566q-24 85 -24 96q0 31 32 31q42 0 57 -56zM649 475l-162 607l-64 -607h226z"/>
            <glyph glyph-name="Ccedilla" unicode="Ç" horiz-adv-x="1229" d="M1106 211q0 -21 -25 -61q-110 -173 -318 -184q5 -25 16 -74q61 -8 103 -43q49 -40 49 -98q0 -86 -118 -86q-48 0 -115 21q-84 26 -84 62q0 22 23 22q8 0 66.5 -22.5t93.5 -22.5q69 0 69 46q0 64 -132 64l-35 131q-221 14 -439 219q-158 147 -204 317l-46 171 q-18 70 -18 138q0 169 104.5 276.5t273.5 107.5q208 0 396 -142q-20 68 -20 82q0 33 31 33q42 0 57 -56q66 -248 66 -259q0 -31 -31 -31q-15 0 -31 12q-19 37 -54 96q-33 48 -101 92q-137 89 -288 89q-143 0 -228.5 -91.5t-85.5 -235.5q0 -61 17 -123l39 -147 q49 -184 217 -323q172 -142 360 -142q107 0 187 54q49 34 100 102q41 54 53 54q52 0 52 -48z"/>
            <glyph glyph-name="Egrave" unicode="È" horiz-adv-x="1241" d="M374 1254q0 -32 -33 -32q-15 0 -43 20l-291 204q-37 26 -37 52q0 32 33 32q19 0 183 -113.5t179 -135.5q9 -12 9 -27zM1132 0l-885 -1q-69 0 -69 54q0 31 46 31h71l-268 1002q-78 0 -85 1q-55 9 -55 53q0 31 46 31l841 -1l42 -155q4 -15 4 -25q0 -31 -31 -31 q-38 0 -57 49q-10 39 -19 78h-602l117 -437h301q-23 86 -23 96q0 31 32 31q42 0 57 -56l60 -226q4 -15 4 -25q0 -31 -31 -31q-37 0 -57 49l-20 78h-301l129 -481h646q-24 85 -24 96q0 31 32 31q42 0 57 -56z"/>
            <glyph glyph-name="Eacute" unicode="É" horiz-adv-x="1241" d="M564 1478q0 -15 -15 -32l-181 -204q-18 -20 -33 -20q-21 0 -38.5 17t-17.5 38q0 19 104.5 136t125.5 117q20 0 37.5 -16t17.5 -36zM1132 0l-885 -1q-69 0 -69 54q0 31 46 31h71l-268 1002q-78 0 -85 1q-55 9 -55 53q0 31 46 31l841 -1l42 -155q4 -15 4 -25q0 -31 -31 -31 q-38 0 -57 49q-10 39 -19 78h-602l117 -437h301q-23 86 -23 96q0 31 32 31q42 0 57 -56l60 -226q4 -15 4 -25q0 -31 -31 -31q-37 0 -57 49l-20 78h-301l129 -481h646q-24 85 -24 96q0 31 32 31q42 0 57 -56z"/>
            <glyph glyph-name="Ecircumflex" unicode="Ê" horiz-adv-x="1241" d="M625 1251q0 -31 -33 -31q-15 0 -306 186q-51 -53 -102 -105q-82 -81 -104 -81q-19 0 -37 16t-18 35q0 16 18 33l215 206l326 -206q41 -26 41 -53zM1132 0l-885 -1q-69 0 -69 54q0 31 46 31h71l-268 1002q-78 0 -85 1q-55 9 -55 53q0 31 46 31l841 -1l42 -155q4 -15 4 -25 q0 -31 -31 -31q-38 0 -57 49q-10 39 -19 78h-602l117 -437h301q-23 86 -23 96q0 31 32 31q42 0 57 -56l60 -226q4 -15 4 -25q0 -31 -31 -31q-37 0 -57 49l-20 78h-301l129 -481h646q-24 85 -24 96q0 31 32 31q42 0 57 -56z"/>
            <glyph glyph-name="Edieresis" unicode="Ë" horiz-adv-x="1241" d="M558 1277q0 -57 -59 -57q-38 0 -69.5 29.5t-31.5 67.5q0 57 60 57q37 0 68.5 -30t31.5 -67zM258 1277q0 -57 -59 -57q-38 0 -69.5 29.5t-31.5 67.5q0 57 60 57q37 0 68.5 -30t31.5 -67zM1132 0l-885 -1q-69 0 -69 54q0 31 46 31h71l-268 1002q-78 0 -85 1q-55 9 -55 53 q0 31 46 31l841 -1l42 -155q4 -15 4 -25q0 -31 -31 -31q-38 0 -57 49q-10 39 -19 78h-602l117 -437h301q-23 86 -23 96q0 31 32 31q42 0 57 -56l60 -226q4 -15 4 -25q0 -31 -31 -31q-37 0 -57 49l-20 78h-301l129 -481h646q-24 85 -24 96q0 31 32 31q42 0 57 -56z"/>
            <glyph glyph-name="Igrave" unicode="Ì" horiz-adv-x="638" d="M174 1254q0 -32 -33 -32q-15 0 -43 20l-291 204q-37 26 -37 52q0 32 33 32q19 0 183 -113.5t179 -135.5q9 -12 9 -27zM519 30q0 -31 -43 -31h-232q-66 0 -66 54q0 31 46 31h71l-268 1002q-78 0 -85 1q-55 9 -55 53q0 31 43 31h232q66 0 66 -54q0 -31 -46 -31h-71 l268 -1002q78 0 85 -1q55 -9 55 -53z"/>
            <glyph glyph-name="Iacute" unicode="Í" horiz-adv-x="638" d="M154 1478q0 -15 -15 -32l-181 -204q-18 -20 -33 -20q-21 0 -38.5 17t-17.5 38q0 19 104.5 136t125.5 117q20 0 37.5 -16t17.5 -36zM519 30q0 -31 -43 -31h-232q-66 0 -66 54q0 31 46 31h71l-268 1002q-78 0 -85 1q-55 9 -55 53q0 31 43 31h232q66 0 66 -54q0 -31 -46 -31 h-71l268 -1002q78 0 85 -1q55 -9 55 -53z"/>
            <glyph glyph-name="Icircumflex" unicode="Î" horiz-adv-x="638" d="M325 1251q0 -31 -33 -31q-15 0 -306 186q-51 -53 -102 -105q-82 -81 -104 -81q-19 0 -37 16t-18 35q0 16 18 33l215 206l326 -206q41 -26 41 -53zM519 30q0 -31 -43 -31h-232q-66 0 -66 54q0 31 46 31h71l-268 1002q-78 0 -85 1q-55 9 -55 53q0 31 43 31h232q66 0 66 -54 q0 -31 -46 -31h-71l268 -1002q78 0 85 -1q55 -9 55 -53z"/>
            <glyph glyph-name="Idieresis" unicode="Ï" horiz-adv-x="638" d="M248 1277q0 -57 -59 -57q-38 0 -69.5 29.5t-31.5 67.5q0 57 60 57q37 0 68.5 -30t31.5 -67zM-52 1277q0 -57 -59 -57q-38 0 -69.5 29.5t-31.5 67.5q0 57 60 57q37 0 68.5 -30t31.5 -67zM519 30q0 -31 -43 -31h-232q-66 0 -66 54q0 31 46 31h71l-268 1002q-78 0 -85 1 q-55 9 -55 53q0 31 43 31h232q66 0 66 -54q0 -31 -46 -31h-71l268 -1002q78 0 85 -1q55 -9 55 -53z"/>
            <glyph glyph-name="Eth" unicode="Ð" horiz-adv-x="1283" d="M1053 382q0 -166 -93 -271q-98 -111 -261 -111l-452 -1q-69 0 -69 54q0 29 47 32q-17 -1 70 -1l-123 459q-78 0 -85 1q-55 9 -55 53q0 28 50 31q-17 -1 68 -1l-123 457q-77 0 -85 1q-55 9 -55 53q0 31 46 31l452 1q314 0 540 -345q51 -78 108 -298q20 -75 20 -145z M968 405q0 53 -14 104l-40 152q-43 159 -188 288q-152 137 -310 137h-305l123 -459q80 0 87 -1q56 -9 56 -53q0 -27 -51 -31q15 1 -70 1l123 -459h305q129 0 209 98q75 92 75 223z"/>
            <glyph glyph-name="Ntilde" unicode="Ñ" horiz-adv-x="1364" d="M671 1336q0 -39 -56.5 -77.5t-97.5 -38.5q-57 0 -162.5 61t-133.5 61q-33 0 -71 -40.5t-54 -40.5q-20 0 -36.5 15t-16.5 35q0 37 59 77q56 38 96 38q55 0 159.5 -60.5t136.5 -60.5q30 0 69.5 40.5t53.5 40.5q20 0 37 -15t17 -35zM1129 0h-108l-900 1047l258 -963 q78 0 85 -1q55 -9 55 -53q0 -31 -43 -31h-232q-66 0 -66 54q0 31 46 31h71l-268 1002q-78 0 -85 1q-55 9 -55 53q0 31 46 31l178 -1l901 -1049l-258 965q-78 0 -85 1q-55 9 -55 53q0 31 43 31h232q66 0 66 -54q0 -31 -46 -31h-71z"/>
            <glyph glyph-name="Ograve" unicode="Ò" horiz-adv-x="1324" d="M396 1284q0 -32 -33 -32q-15 0 -43 20l-291 204q-37 26 -37 52q0 32 33 32q18 0 184 -114q163 -113 178 -135q9 -12 9 -27zM1084 393q0 -185 -92 -300q-100 -124 -281 -124q-278 0 -496 268q-207 253 -207 538q0 185 93 299q100 125 280 125q279 0 497 -268 q206 -253 206 -538zM996 417q0 241 -173 462q-185 236 -419 236q-152 0 -234 -110q-74 -99 -74 -255q0 -241 174 -462q185 -235 418 -235q152 0 234 109q74 98 74 255z"/>
            <glyph glyph-name="Oacute" unicode="Ó" horiz-adv-x="1324" d="M596 1508q0 -15 -15 -32l-181 -204q-18 -20 -33 -20q-21 0 -38.5 17t-17.5 38q0 19 104.5 136t125.5 117q19 0 37 -16t18 -36zM1084 393q0 -185 -92 -300q-100 -124 -281 -124q-278 0 -496 268q-207 253 -207 538q0 185 93 299q100 125 280 125q279 0 497 -268 q206 -253 206 -538zM996 417q0 241 -173 462q-185 236 -419 236q-152 0 -234 -110q-74 -99 -74 -255q0 -241 174 -462q185 -235 418 -235q152 0 234 109q74 98 74 255z"/>
            <glyph glyph-name="Ocircumflex" unicode="Ô" horiz-adv-x="1324" d="M650 1271q0 -31 -34 -31q-15 0 -305 186q-52 -53 -103 -105q-82 -81 -104 -81q-19 0 -36.5 16t-17.5 35q0 16 18 33l215 206l326 -206q41 -26 41 -53zM1084 393q0 -185 -92 -300q-100 -124 -281 -124q-278 0 -496 268q-207 253 -207 538q0 185 93 299q100 125 280 125 q279 0 497 -268q206 -253 206 -538zM996 417q0 241 -173 462q-185 236 -419 236q-152 0 -234 -110q-74 -99 -74 -255q0 -241 174 -462q185 -235 418 -235q152 0 234 109q74 98 74 255z"/>
            <glyph glyph-name="Otilde" unicode="Õ" horiz-adv-x="1324" d="M666 1356q0 -39 -59 -79q-54 -37 -96 -37q-56 0 -161.5 61t-133.5 61q-34 0 -71.5 -40.5t-54.5 -40.5q-19 0 -36 15t-17 35q0 37 60 77q55 38 95 38q55 0 159.5 -60.5t137.5 -60.5q29 0 69 40.5t54 40.5q20 0 37 -15t17 -35zM1084 393q0 -185 -92 -300 q-100 -124 -281 -124q-278 0 -496 268q-207 253 -207 538q0 185 93 299q100 125 280 125q279 0 497 -268q206 -253 206 -538zM996 417q0 241 -173 462q-185 236 -419 236q-152 0 -234 -110q-74 -99 -74 -255q0 -241 174 -462q185 -235 418 -235q152 0 234 109q74 98 74 255z "/>
            <glyph glyph-name="Odieresis" unicode="Ö" horiz-adv-x="1324" d="M572 1297q0 -57 -59 -57q-37 0 -68.5 29.5t-31.5 67.5q0 57 59 57q37 0 68.5 -30t31.5 -67zM272 1297q0 -57 -59 -57q-37 0 -68.5 29.5t-31.5 67.5q0 57 59 57q37 0 68.5 -30t31.5 -67zM1084 393q0 -185 -92 -300q-100 -124 -281 -124q-278 0 -496 268q-207 253 -207 538 q0 185 93 299q100 125 280 125q279 0 497 -268q206 -253 206 -538zM996 417q0 241 -173 462q-185 236 -419 236q-152 0 -234 -110q-74 -99 -74 -255q0 -241 174 -462q185 -235 418 -235q152 0 234 109q74 98 74 255z"/>
            <glyph glyph-name="multiply" unicode="×" horiz-adv-x="985" d="M807 271q0 -32 -33 -32q-16 0 -46 23l-333 263l-193 -263q-16 -22 -33 -22q-19 0 -37 16t-18 35q0 12 13 31l192 263l-334 263q-33 27 -33 50q0 32 33 32q16 0 45 -23l333 -263l191 262q16 22 34 22q19 0 37 -16t18 -35q0 -14 -13 -31l-191 -261l333 -263q35 -27 35 -51z "/>
            <glyph glyph-name="Oslash" unicode="Ø" horiz-adv-x="1324" d="M1084 392q0 -185 -92 -300q-100 -126 -280 -126q-184 0 -362 137q-25 -53 -51 -107q-42 -81 -67 -81q-15 0 -34.5 14t-19.5 29q0 24 99 210q-268 269 -268 603q0 185 92 300q100 125 281 125q183 0 358 -134q25 54 51 108q42 81 68 81q15 0 34 -14t19 -29q0 -26 -98 -210 q123 -121 195 -277q75 -164 75 -329zM996 416q0 282 -218 512l-393 -757q153 -121 304 -121t234 111q73 99 73 255zM704 994q-152 118 -299 118q-152 0 -234 -111q-74 -99 -74 -255q0 -278 216 -508z"/>
            <glyph glyph-name="Ugrave" unicode="Ù" horiz-adv-x="1360" d="M396 1284q0 -32 -33 -32q-15 0 -43 20l-291 204q-37 26 -37 52q0 32 33 32q18 0 184 -114q163 -113 178 -135q9 -12 9 -27zM1041 270q0 -137 -84.5 -219.5t-222.5 -82.5q-175 0 -326 124q-147 121 -193 293l-189 702q-77 0 -85 1q-55 9 -55 53q0 31 47 31h226 q69 0 69 -54q0 -29 -48 -32q17 1 -70 1l189 -702q36 -135 152 -232q120 -101 257 -101q108 0 176.5 68.5t68.5 177.5q0 43 -11 87l-189 702q-77 0 -85 1q-55 9 -55 53q0 31 47 31h226q69 0 69 -54q0 -29 -48 -32q17 1 -70 1l189 -702q15 -59 15 -115z"/>
            <glyph glyph-name="Uacute" unicode="Ú" horiz-adv-x="1360" d="M596 1508q0 -15 -15 -32l-181 -204q-18 -20 -33 -20q-21 0 -38.5 17t-17.5 38q0 19 104.5 136t125.5 117q19 0 37 -16t18 -36zM1041 270q0 -137 -84.5 -219.5t-222.5 -82.5q-175 0 -326 124q-147 121 -193 293l-189 702q-77 0 -85 1q-55 9 -55 53q0 31 47 31h226 q69 0 69 -54q0 -29 -48 -32q17 1 -70 1l189 -702q36 -135 152 -232q120 -101 257 -101q108 0 176.5 68.5t68.5 177.5q0 43 -11 87l-189 702q-77 0 -85 1q-55 9 -55 53q0 31 47 31h226q69 0 69 -54q0 -29 -48 -32q17 1 -70 1l189 -702q15 -59 15 -115z"/>
            <glyph glyph-name="Ucircumflex" unicode="Û" horiz-adv-x="1360" d="M650 1271q0 -31 -34 -31q-15 0 -305 186q-52 -53 -103 -105q-82 -81 -104 -81q-19 0 -36.5 16t-17.5 35q0 16 18 33l215 206l326 -206q41 -26 41 -53zM1041 270q0 -137 -84.5 -219.5t-222.5 -82.5q-175 0 -326 124q-147 121 -193 293l-189 702q-77 0 -85 1q-55 9 -55 53 q0 31 47 31h226q69 0 69 -54q0 -29 -48 -32q17 1 -70 1l189 -702q36 -135 152 -232q120 -101 257 -101q108 0 176.5 68.5t68.5 177.5q0 43 -11 87l-189 702q-77 0 -85 1q-55 9 -55 53q0 31 47 31h226q69 0 69 -54q0 -29 -48 -32q17 1 -70 1l189 -702q15 -59 15 -115z"/>
            <glyph glyph-name="Udieresis" unicode="Ü" horiz-adv-x="1360" d="M572 1297q0 -57 -59 -57q-37 0 -68.5 29.5t-31.5 67.5q0 57 59 57q37 0 68.5 -30t31.5 -67zM272 1297q0 -57 -59 -57q-37 0 -68.5 29.5t-31.5 67.5q0 57 59 57q37 0 68.5 -30t31.5 -67zM1041 270q0 -137 -84.5 -219.5t-222.5 -82.5q-175 0 -326 124q-147 121 -193 293 l-189 702q-77 0 -85 1q-55 9 -55 53q0 31 47 31h226q69 0 69 -54q0 -29 -48 -32q17 1 -70 1l189 -702q36 -135 152 -232q120 -101 257 -101q108 0 176.5 68.5t68.5 177.5q0 43 -11 87l-189 702q-77 0 -85 1q-55 9 -55 53q0 31 47 31h226q69 0 69 -54q0 -29 -48 -32 q17 1 -70 1l189 -702q15 -59 15 -115z"/>
            <glyph glyph-name="Yacute" unicode="Ý" horiz-adv-x="1371" d="M596 1508q0 -15 -15 -32l-181 -204q-18 -20 -33 -20q-21 0 -38.5 17t-17.5 38q0 19 104.5 136t125.5 117q19 0 37 -16t18 -36zM961 1116q0 -31 -46 -31h-71l-214 -558l119 -444q78 0 85 -1q56 -9 56 -53q0 -31 -44 -31h-232q-67 0 -67 54q0 31 46 31h71l-119 444 l-518 558q-78 0 -85 1q-55 9 -55 53q0 31 43 31h252q66 0 66 -54q0 -31 -46 -31h-71l435 -473l174 473q-78 0 -85 1q-55 9 -55 53q0 31 43 31h252q66 0 66 -54z"/>
            <glyph glyph-name="Thorn" unicode="Þ" horiz-adv-x="1196" d="M939 507q0 -172 -199 -246q-65 -24 -211 -24q-32 0 -95.5 2t-95.5 2l41 -154q78 0 86 -1q55 -9 55 -53q0 -31 -47 -31h-227q-69 0 -69 54q0 31 46 31h72l-269 1002q-78 0 -85 1q-55 9 -55 53q0 31 46 31h227q69 0 69 -54q0 -31 -46 -31h-71l42 -157h291q172 0 310 -102 q185 -138 185 -323zM852 533q0 129 -127 225q-117 89 -250 89h-299l139 -521h268q103 0 180 51q89 59 89 156z"/>
            <glyph glyph-name="germandbls" unicode="ß" horiz-adv-x="1201" d="M1020 205q0 -236 -194 -236q-99 0 -180 74q-76 69 -103 169q-2 8 -2 15q0 32 31 32q29 0 57 -53q41 -80 57 -100q46 -53 118 -53q127 0 127 175q0 185 -150 328q-149 140 -335 140q-72 0 -72 54q0 10 6 19q54 14 107 28q96 33 96 113q0 100 -91 181t-192 81 q-68 0 -115 -34q-54 -39 -54 -104q0 -20 6 -42l243 -906q77 0 85 -1q55 -10 55 -53q0 -31 -47 -31h-227q-69 0 -69 54q0 28 48 32q-16 -1 70 -1l-242 906q-9 33 -9 64q0 93 72 149q65 52 161 52q129 0 239.5 -88.5t144.5 -214.5q8 -31 8 -60q0 -86 -72 -147 q188 -71 300 -205q123 -148 123 -337z"/>
            <glyph glyph-name="agrave" unicode="à" horiz-adv-x="1146" d="M370 1041q0 -32 -33 -32q-15 0 -43 20l-291 204q-38 26 -38 52q0 32 33 32q19 0 183.5 -114t179.5 -135q9 -13 9 -27zM1028 31q0 -31 -46 -31h-147l-30 109q-127 -139 -315 -139q-139 0 -246 80q-117 87 -117 222q0 112 117 168q90 43 215 43q108 0 254 -28l-33 123 q-21 79 -108 120q-72 34 -164 34q-59 0 -175 -36q-78 -25 -94 -25q-18 0 -32.5 15.5t-14.5 32.5q0 8 4 15q13 21 138 49q113 26 157 26q120 0 223 -58q114 -65 143 -173l131 -493q77 0 86 -1q54 -10 54 -53zM778 210l-44 167q-112 30 -247 30q-99 0 -176 -32 q-104 -43 -104 -127q0 -94 85 -152q75 -50 174 -50q185 0 312 164z"/>
            <glyph glyph-name="aacute" unicode="á" horiz-adv-x="1146" d="M566 1265q0 -15 -15 -32l-181 -204q-18 -20 -33 -20q-21 0 -38.5 16.5t-17.5 37.5q0 20 104.5 137t124.5 117t38 -16t18 -36zM1028 31q0 -31 -46 -31h-147l-30 109q-127 -139 -315 -139q-139 0 -246 80q-117 87 -117 222q0 112 117 168q90 43 215 43q108 0 254 -28 l-33 123q-21 79 -108 120q-72 34 -164 34q-59 0 -175 -36q-78 -25 -94 -25q-18 0 -32.5 15.5t-14.5 32.5q0 8 4 15q13 21 138 49q113 26 157 26q120 0 223 -58q114 -65 143 -173l131 -493q77 0 86 -1q54 -10 54 -53zM778 210l-44 167q-112 30 -247 30q-99 0 -176 -32 q-104 -43 -104 -127q0 -94 85 -152q75 -50 174 -50q185 0 312 164z"/>
            <glyph glyph-name="acircumflex" unicode="â" horiz-adv-x="1146" d="M620 1040q0 -31 -33 -31q-15 0 -306 186l-102 -106q-82 -80 -104 -80q-19 0 -36.5 15.5t-17.5 34.5q0 16 18 34l214 206l327 -206q40 -26 40 -53zM1028 31q0 -31 -46 -31h-147l-30 109q-127 -139 -315 -139q-139 0 -246 80q-117 87 -117 222q0 112 117 168q90 43 215 43 q108 0 254 -28l-33 123q-21 79 -108 120q-72 34 -164 34q-59 0 -175 -36q-78 -25 -94 -25q-18 0 -32.5 15.5t-14.5 32.5q0 8 4 15q13 21 138 49q113 26 157 26q120 0 223 -58q114 -65 143 -173l131 -493q77 0 86 -1q54 -10 54 -53zM778 210l-44 167q-112 30 -247 30 q-99 0 -176 -32q-104 -43 -104 -127q0 -94 85 -152q75 -50 174 -50q185 0 312 164z"/>
            <glyph glyph-name="atilde" unicode="ã" horiz-adv-x="1146" d="M601 1125q0 -39 -56.5 -77.5t-97.5 -38.5q-56 0 -161.5 61t-134.5 61q-33 0 -71 -40.5t-54 -40.5q-20 0 -36.5 15t-16.5 34q0 38 59 78q56 38 96 38q55 0 159.5 -60.5t136.5 -60.5q30 0 69.5 40.5t54.5 40.5q19 0 36 -15.5t17 -34.5zM1028 31q0 -31 -46 -31h-147l-30 109 q-127 -139 -315 -139q-139 0 -246 80q-117 87 -117 222q0 112 117 168q90 43 215 43q108 0 254 -28l-33 123q-21 79 -108 120q-72 34 -164 34q-59 0 -175 -36q-78 -25 -94 -25q-18 0 -32.5 15.5t-14.5 32.5q0 8 4 15q13 21 138 49q113 26 157 26q120 0 223 -58 q114 -65 143 -173l131 -493q77 0 86 -1q54 -10 54 -53zM778 210l-44 167q-112 30 -247 30q-99 0 -176 -32q-104 -43 -104 -127q0 -94 85 -152q75 -50 174 -50q185 0 312 164z"/>
            <glyph glyph-name="adieresis" unicode="ä" horiz-adv-x="1146" d="M544 1063q0 -56 -59 -56q-38 0 -69 29.5t-31 67.5q0 56 59 56q37 0 68.5 -29.5t31.5 -67.5zM244 1063q0 -56 -59 -56q-38 0 -69 29.5t-31 67.5q0 56 59 56q37 0 68.5 -29.5t31.5 -67.5zM1028 31q0 -31 -46 -31h-147l-30 109q-127 -139 -315 -139q-139 0 -246 80 q-117 87 -117 222q0 112 117 168q90 43 215 43q108 0 254 -28l-33 123q-21 79 -108 120q-72 34 -164 34q-59 0 -175 -36q-78 -25 -94 -25q-18 0 -32.5 15.5t-14.5 32.5q0 8 4 15q13 21 138 49q113 26 157 26q120 0 223 -58q114 -65 143 -173l131 -493q77 0 86 -1 q54 -10 54 -53zM778 210l-44 167q-112 30 -247 30q-99 0 -176 -32q-104 -43 -104 -127q0 -94 85 -152q75 -50 174 -50q185 0 312 164z"/>
            <glyph glyph-name="aring" unicode="å" horiz-adv-x="1146" d="M442 1108q0 -45 -30 -72t-75 -27q-65 0 -120.5 51t-55.5 116q0 45 29.5 72.5t74.5 27.5q66 0 121.5 -51.5t55.5 -116.5zM1028 31q0 -31 -46 -31h-147l-30 109q-127 -139 -315 -139q-139 0 -246 80q-117 87 -117 222q0 112 117 168q90 43 215 43q108 0 254 -28l-33 123 q-21 79 -108 120q-72 34 -164 34q-59 0 -175 -36q-78 -25 -94 -25q-18 0 -32.5 15.5t-14.5 32.5q0 8 4 15q13 21 138 49q113 26 157 26q120 0 223 -58q114 -65 143 -173l131 -493q77 0 86 -1q54 -10 54 -53zM395 1120q0 43 -37 77t-80 34q-71 0 -71 -66q0 -43 37.5 -77 t80.5 -34q70 0 70 66zM778 210l-44 167q-112 30 -247 30q-99 0 -176 -32q-104 -43 -104 -127q0 -94 85 -152q75 -50 174 -50q185 0 312 164z"/>
            <glyph glyph-name="ae" unicode="æ" horiz-adv-x="1784" d="M1649 117q0 -53 -138 -107q-101 -39 -217 -39q-240 0 -412 174q26 -97 26 -121t-30 -24q-46 0 -73 109q-127 -139 -315 -139q-139 0 -246 80q-117 87 -117 222q0 112 117 168q90 43 215 43q108 0 252 -28q0 8 -31 123q-22 79 -108 120q-72 34 -164 34q-60 0 -188 -40 q-64 -21 -81 -21q-18 0 -32.5 15.5t-14.5 32.5q0 9 4 15q15 22 138 49q113 26 157 26q101 0 194 -44q102 -47 148 -129q79 174 306 174q192 0 344 -126q148 -122 197 -310h-769q2 -8 6 -23q12 -32 48 -85q152 -219 409 -219q182 0 302 102q16 14 26 14q17 0 32 -15t15 -31z M1483 450q-56 125 -171 203q-118 80 -253 80q-120 0 -195 -65q-78 -69 -78 -188q0 -17 5 -30h692zM778 210q-14 56 -48 168q-110 29 -243 29q-99 0 -176 -32q-104 -43 -104 -127q0 -94 85 -152q75 -50 174 -50q185 0 312 164z"/>
            <glyph glyph-name="ccedilla" unicode="ç" horiz-adv-x="1094" d="M987 149q0 -36 -66 -89q-107 -85 -261 -95q5 -24 15 -71q61 -8 104 -43q48 -40 48 -98q0 -86 -117 -86q-49 0 -116 21q-83 26 -83 62q0 22 23 22q7 0 65.5 -22.5t94.5 -22.5q69 0 69 46q0 64 -133 64l-34 127q-209 9 -366 167.5t-157 366.5q0 143 93 225q89 79 234 79 q174 0 320 -104q-10 36 -10 49q0 28 28 28q38 0 52 -51q49 -184 49 -194q0 -29 -28 -29q-14 0 -28 10q-15 28 -44 74q-29 41 -95 83q-93 57 -228 57q-119 0 -190 -61q-76 -64 -76 -181q0 -180 137 -313q134 -131 315 -131q186 0 309 138q17 18 29 18q47 0 47 -46z"/>
            <glyph glyph-name="egrave" unicode="è" horiz-adv-x="1150" d="M378 1041q0 -31 -33 -31q-15 0 -43 20l-291 204q-37 26 -37 52q0 32 33 32q19 0 183 -114t179 -135q9 -13 9 -28zM1009 117q0 -53 -138 -107q-102 -39 -217 -39q-193 0 -357.5 125.5t-215.5 311.5q-14 53 -14 103q0 138 99 221q92 78 233 78q192 0 344 -126 q148 -122 197 -310h-773q59 -146 184 -235q128 -92 283 -92q181 0 302 102q16 14 26 14q17 0 32 -14.5t15 -31.5zM843 450q-56 125 -171 203q-118 80 -253 80q-120 0 -195 -65q-78 -69 -78 -188q0 -15 2 -30h695z"/>
            <glyph glyph-name="eacute" unicode="é" horiz-adv-x="1150" d="M574 1266q0 -15 -15 -32l-181 -204q-18 -20 -33 -20q-21 0 -38.5 16.5t-17.5 37.5q0 20 104.5 137t125.5 117q20 0 37.5 -16t17.5 -36zM1009 117q0 -53 -138 -107q-102 -39 -217 -39q-193 0 -357.5 125.5t-215.5 311.5q-14 53 -14 103q0 138 99 221q92 78 233 78 q192 0 344 -126q148 -122 197 -310h-773q59 -146 184 -235q128 -92 283 -92q181 0 302 102q16 14 26 14q17 0 32 -14.5t15 -31.5zM843 450q-56 125 -171 203q-118 80 -253 80q-120 0 -195 -65q-78 -69 -78 -188q0 -15 2 -30h695z"/>
            <glyph glyph-name="ecircumflex" unicode="ê" horiz-adv-x="1150" d="M618 1041q0 -31 -33 -31q-15 0 -306 186l-102 -106q-82 -80 -104 -80q-19 0 -36.5 15.5t-17.5 34.5q0 16 18 34l215 206l326 -206q40 -26 40 -53zM1009 117q0 -53 -138 -107q-102 -39 -217 -39q-193 0 -357.5 125.5t-215.5 311.5q-14 53 -14 103q0 138 99 221 q92 78 233 78q192 0 344 -126q148 -122 197 -310h-773q59 -146 184 -235q128 -92 283 -92q181 0 302 102q16 14 26 14q17 0 32 -14.5t15 -31.5zM843 450q-56 125 -171 203q-118 80 -253 80q-120 0 -195 -65q-78 -69 -78 -188q0 -15 2 -30h695z"/>
            <glyph glyph-name="edieresis" unicode="ë" horiz-adv-x="1150" d="M544 1066q0 -56 -59 -56q-38 0 -69 29.5t-31 67.5q0 56 59 56q37 0 68.5 -30t31.5 -67zM244 1066q0 -56 -59 -56q-38 0 -69 29.5t-31 67.5q0 56 59 56q37 0 68.5 -30t31.5 -67zM1009 117q0 -53 -138 -107q-102 -39 -217 -39q-193 0 -357.5 125.5t-215.5 311.5 q-14 53 -14 103q0 138 99 221q92 78 233 78q192 0 344 -126q148 -122 197 -310h-773q59 -146 184 -235q128 -92 283 -92q181 0 302 102q16 14 26 14q17 0 32 -14.5t15 -31.5zM843 450q-56 125 -171 203q-118 80 -253 80q-120 0 -195 -65q-78 -69 -78 -188q0 -15 2 -30h695z "/>
            <glyph glyph-name="igrave" unicode="ì" horiz-adv-x="638" d="M228 994q0 -32 -33 -32q-15 0 -43 20l-291 204q-38 26 -38 52q0 32 33 32q19 0 183.5 -113.5t179.5 -135.5q9 -12 9 -27zM296 84l-159 593q-78 0 -84 1q-56 9 -56 53q0 31 44 31h158l181 -678h-84zM382 84q78 0 85 -1q55 -9 55 -53q0 -31 -43 -31h-232q-66 0 -66 54 q0 31 46 31h155z"/>
            <glyph glyph-name="iacute" unicode="í" horiz-adv-x="638" d="M209 1218q0 -15 -15 -32l-181 -204q-18 -20 -33 -20q-21 0 -38.5 17t-17.5 38q0 19 104.5 136t124.5 117t38 -16t18 -36zM296 84l-159 593q-78 0 -84 1q-56 9 -56 53q0 31 44 31h158l181 -678h-84zM382 84q78 0 85 -1q55 -9 55 -53q0 -31 -43 -31h-232q-66 0 -66 54 q0 31 46 31h155z"/>
            <glyph glyph-name="icircumflex" unicode="î" horiz-adv-x="638" d="M390 993q0 -31 -33 -31q-15 0 -306 186q-51 -53 -102 -105q-82 -81 -104 -81q-19 0 -36.5 16t-17.5 35q0 16 17 33l215 206l326 -206q41 -26 41 -53zM296 84l-159 593q-78 0 -84 1q-56 9 -56 53q0 31 44 31h158l181 -678h-84zM382 84q78 0 85 -1q55 -9 55 -53 q0 -31 -43 -31h-232q-66 0 -66 54q0 31 46 31h155z"/>
            <glyph glyph-name="idieresis" unicode="ï" horiz-adv-x="638" d="M294 1019q0 -57 -59 -57q-38 0 -69.5 29.5t-31.5 67.5q0 57 60 57q37 0 68.5 -30t31.5 -67zM-6 1019q0 -57 -59 -57q-38 0 -69.5 29.5t-31.5 67.5q0 57 60 57q37 0 68.5 -30t31.5 -67zM296 84l-159 593q-78 0 -84 1q-56 9 -56 53q0 31 44 31h158l181 -678h-84zM382 84 q78 0 85 -1q55 -9 55 -53q0 -31 -43 -31h-232q-66 0 -66 54q0 31 46 31h155z"/>
            <glyph glyph-name="eth" unicode="ð" horiz-adv-x="1148" d="M944 278q0 -304 -325 -304q-205 0 -376 158.5t-171 362.5q0 136 94 217q89 78 227 78q231 0 400 -189q-72 139 -145 217q-62 68 -200 167q-262 -101 -281 -101q-49 0 -49 41q0 10 8 19q27 32 234 82q-83 15 -184 42q-21 15 -21 35q0 27 42 27q117 0 247 -69q42 18 84 37 q53 23 86 23q44 0 44 -42q0 -35 -137 -64q307 -226 398 -565q25 -92 25 -172zM868 288q0 170 -139 299q-136 126 -307 126q-116 0 -191 -63q-81 -67 -81 -180q0 -163 146 -296q143 -129 308 -129q115 0 187 63q77 67 77 180z"/>
            <glyph glyph-name="ntilde" unicode="ñ" horiz-adv-x="1282" d="M691 1108q0 -39 -56.5 -77.5t-97.5 -38.5q-56 0 -161.5 61t-134.5 61q-33 0 -71 -40.5t-54 -40.5q-20 0 -36.5 15t-16.5 35q0 37 59 77q56 38 96 38q55 0 159.5 -60.5t136.5 -60.5q30 0 69.5 40.5t53.5 40.5q20 0 37 -15t17 -35zM1163 30q0 -31 -46 -31h-226 q-69 0 -69 54q0 31 46 31h71l-111 411q-26 96 -112 155q-82 57 -184 57q-100 0 -163 -57q-38 -35 -101 -143l114 -423q78 0 85 -1q55 -9 55 -53q0 -31 -46 -31h-226q-69 0 -69 54q0 31 46 31h71l-160 593q-77 0 -85 1q-55 9 -55 53q0 31 47 31h155l34 -127q113 157 276 157 q132 0 246 -78q119 -81 152 -205l115 -425q78 0 85 -1q55 -9 55 -53z"/>
            <glyph glyph-name="ograve" unicode="ò" horiz-adv-x="1146" d="M378 1039q0 -32 -33 -32q-15 0 -43 20l-291 204q-37 26 -37 52q0 32 33 32q18 0 182.5 -114t179.5 -135q9 -13 9 -27zM949 278q0 -140 -92 -225t-234 -85q-206 0 -377 161q-174 163 -174 368q0 140 94 226q91 84 233 84q206 0 378 -162t172 -367zM870 298q0 168 -141 300 t-311 132q-116 0 -190 -68q-77 -71 -77 -186q0 -167 141 -299.5t310 -132.5q116 0 192 69.5t76 184.5z"/>
            <glyph glyph-name="oacute" unicode="ó" horiz-adv-x="1146" d="M574 1263q0 -15 -15 -32l-181 -204q-18 -20 -33 -20q-21 0 -38.5 16.5t-17.5 37.5q0 20 104.5 137t125.5 117q19 0 37 -16t18 -36zM949 278q0 -140 -92 -225t-234 -85q-206 0 -377 161q-174 163 -174 368q0 140 94 226q91 84 233 84q206 0 378 -162t172 -367zM870 298 q0 168 -141 300t-311 132q-116 0 -190 -68q-77 -71 -77 -186q0 -167 141 -299.5t310 -132.5q116 0 192 69.5t76 184.5z"/>
            <glyph glyph-name="ocircumflex" unicode="ô" horiz-adv-x="1146" d="M628 1038q0 -31 -33 -31q-15 0 -306 186l-102 -106q-82 -80 -104 -80q-19 0 -36.5 15.5t-17.5 34.5q0 17 18 34l214 206l327 -206q40 -26 40 -53zM949 278q0 -140 -92 -225t-234 -85q-206 0 -377 161q-174 163 -174 368q0 140 94 226q91 84 233 84q206 0 378 -162 t172 -367zM870 298q0 168 -141 300t-311 132q-116 0 -190 -68q-77 -71 -77 -186q0 -167 141 -299.5t310 -132.5q116 0 192 69.5t76 184.5z"/>
            <glyph glyph-name="otilde" unicode="õ" horiz-adv-x="1146" d="M600 1123q0 -39 -59 -79q-55 -37 -96 -37q-56 0 -161.5 61t-134.5 61q-33 0 -71 -40.5t-54 -40.5q-19 0 -36 15t-17 34q0 38 60 78q55 38 95 38q55 0 159.5 -60.5t136.5 -60.5q30 0 70 40.5t54 40.5q20 0 37 -15.5t17 -34.5zM949 278q0 -140 -92 -225t-234 -85 q-206 0 -377 161q-174 163 -174 368q0 140 94 226q91 84 233 84q206 0 378 -162t172 -367zM870 298q0 168 -141 300t-311 132q-116 0 -190 -68q-77 -71 -77 -186q0 -167 141 -299.5t310 -132.5q116 0 192 69.5t76 184.5z"/>
            <glyph glyph-name="odieresis" unicode="ö" horiz-adv-x="1146" d="M544 1063q0 -56 -59 -56q-38 0 -69 29.5t-31 67.5q0 56 59 56q37 0 68.5 -29.5t31.5 -67.5zM244 1063q0 -56 -59 -56q-38 0 -69 29.5t-31 67.5q0 56 59 56q37 0 68.5 -29.5t31.5 -67.5zM949 278q0 -140 -92 -225t-234 -85q-206 0 -377 161q-174 163 -174 368 q0 140 94 226q91 84 233 84q206 0 378 -162t172 -367zM870 298q0 168 -141 300t-311 132q-116 0 -190 -68q-77 -71 -77 -186q0 -167 141 -299.5t310 -132.5q116 0 192 69.5t76 184.5z"/>
            <glyph glyph-name="divide" unicode="÷" horiz-adv-x="1239" d="M484 955q0 -61 -62 -61q-40 0 -73.5 31.5t-33.5 71.5q0 60 63 60q40 0 73 -31.5t33 -70.5zM978 569q0 -28 -47 -28h-830q-69 0 -69 56q0 28 46 28h831q69 0 69 -56zM695 169q0 -60 -64 -60q-39 0 -72 31.5t-33 70.5q0 60 62 60q40 0 73.5 -31t33.5 -71z"/>
            <glyph glyph-name="oslash" unicode="ø" horiz-adv-x="1171" d="M970 293q0 -142 -99 -229q-95 -83 -239 -83q-147 0 -292 90q-95 -137 -113 -137q-15 0 -32 12.5t-17 26.5q0 22 91 148q-200 168 -200 386q0 142 99 229q95 84 239 84q151 0 293 -90q93 136 112 136q15 0 32 -12.5t17 -26.5q0 -24 -91 -148q200 -167 200 -386zM891 313 q0 175 -159 312l-354 -499q114 -69 234 -69q119 0 197 68q82 71 82 188zM660 675q-113 68 -232 68t-197 -68q-83 -71 -83 -188q0 -171 160 -311z"/>
            <glyph glyph-name="ugrave" unicode="ù" horiz-adv-x="1273" d="M405 994q0 -32 -33 -32q-15 0 -43 20l-291 204q-38 26 -38 52q0 32 33 32q19 0 183.5 -113.5t179.5 -135.5q9 -12 9 -27zM1157 30q0 -30 -46 -30h-155l-33 123q-130 -156 -330 -156q-123 0 -217 76t-126 196l-118 438q-8 0 -25 -1t-26 -1q-89 0 -89 57q0 30 47 30h155 l140 -523q21 -80 86 -134t146 -54q205 0 326 188l-118 438q-8 0 -25 -1t-26 -1q-89 0 -89 57q0 30 47 30h155l181 -678q8 0 25.5 1t26.5 1q88 0 88 -56z"/>
            <glyph glyph-name="uacute" unicode="ú" horiz-adv-x="1273" d="M588 1218q0 -15 -15 -32l-181 -204q-18 -20 -33 -20q-21 0 -38.5 17t-17.5 38q0 19 104.5 136t124.5 117t38 -16t18 -36zM1157 30q0 -30 -46 -30h-155l-33 123q-130 -156 -330 -156q-123 0 -217 76t-126 196l-118 438q-8 0 -25 -1t-26 -1q-89 0 -89 57q0 30 47 30h155 l140 -523q21 -80 86 -134t146 -54q205 0 326 188l-118 438q-8 0 -25 -1t-26 -1q-89 0 -89 57q0 30 47 30h155l181 -678q8 0 25.5 1t26.5 1q88 0 88 -56z"/>
            <glyph glyph-name="ucircumflex" unicode="û" horiz-adv-x="1273" d="M680 993q0 -31 -33 -31q-15 0 -306 186q-51 -53 -102 -105q-82 -81 -104 -81q-19 0 -36.5 16t-17.5 35q0 16 17 33l215 206l326 -206q41 -26 41 -53zM1157 30q0 -30 -46 -30h-155l-33 123q-130 -156 -330 -156q-123 0 -217 76t-126 196l-118 438q-8 0 -25 -1t-26 -1 q-89 0 -89 57q0 30 47 30h155l140 -523q21 -80 86 -134t146 -54q205 0 326 188l-118 438q-8 0 -25 -1t-26 -1q-89 0 -89 57q0 30 47 30h155l181 -678q8 0 25.5 1t26.5 1q88 0 88 -56z"/>
            <glyph glyph-name="udieresis" unicode="ü" horiz-adv-x="1273" d="M599 1019q0 -57 -59 -57q-38 0 -69.5 29.5t-31.5 67.5q0 57 60 57q37 0 68.5 -30t31.5 -67zM299 1019q0 -57 -59 -57q-38 0 -69.5 29.5t-31.5 67.5q0 57 60 57q37 0 68.5 -30t31.5 -67zM1157 30q0 -30 -46 -30h-155l-33 123q-130 -156 -330 -156q-123 0 -217 76t-126 196 l-118 438q-8 0 -25 -1t-26 -1q-89 0 -89 57q0 30 47 30h155l140 -523q21 -80 86 -134t146 -54q205 0 326 188l-118 438q-8 0 -25 -1t-26 -1q-89 0 -89 57q0 30 47 30h155l181 -678q8 0 25.5 1t26.5 1q88 0 88 -56z"/>
            <glyph glyph-name="yacute" unicode="ý" horiz-adv-x="1419" d="M1098 750q23 -17 23 -42q0 -33 -64 -33q-9 0 -27 1t-27 1zM707 1218q0 -15 -15 -32l-181 -204q-18 -20 -33 -20q-21 0 -38.5 17t-17.5 38q0 19 104.5 136t124.5 117t38 -16t18 -36zM325 750q23 -17 23 -42q0 -33 -64 -33q-9 0 -27 1t-27 1zM1121 708q0 -33 -64 -33 q-9 0 -27 1t-27 1l-346 -1078q8 0 25.5 1t26.5 1q88 0 88 -57q0 -30 -43 -30h-240q-66 0 -66 54q0 33 64 33q9 0 27 -1t26 -1l128 401l-555 677q-8 0 -25.5 -1t-26.5 -1q-88 0 -88 57q0 30 43 30h241q66 0 66 -54q0 -33 -64 -33q-9 0 -27 1t-27 1l493 -585l188 585 q-8 0 -25.5 -1t-26.5 -1q-88 0 -88 57q0 30 43 30h241q66 0 66 -54zM791 -474q6 8 6 19q0 56 -88 56q-8 0 -25.5 -1t-26.5 -1z"/>
            <glyph glyph-name="thorn" unicode="þ" horiz-adv-x="1229" d="M1083 265q0 -140 -92.5 -225t-233.5 -85q-218 0 -395 178l143 -535q8 0 25.5 1t26.5 1q88 0 88 -56q0 -30 -46 -30h-225q-70 0 -70 54q0 28 49 32q-6 -1 68 -2l-419 1566q-8 0 -25 -1t-27 -1q-88 0 -88 56q0 30 47 30h154l170 -631q82 177 299 177q206 0 378.5 -162 t172.5 -367zM1003 285q0 168 -142 302q-140 131 -309 131q-116 0 -192 -69.5t-76 -184.5q0 -168 143 -301q140 -131 308 -131q117 0 192.5 69t75.5 184z"/>
            <glyph glyph-name="ydieresis" unicode="ÿ" horiz-adv-x="1419" d="M1098 750q23 -17 23 -42q0 -33 -64 -33q-9 0 -27 1t-27 1zM687 1019q0 -57 -59 -57q-38 0 -69 29.5t-31 67.5q0 57 59 57q37 0 68.5 -30t31.5 -67zM387 1019q0 -57 -59 -57q-38 0 -69 29.5t-31 67.5q0 57 59 57q37 0 68.5 -30t31.5 -67zM325 750q23 -17 23 -42 q0 -33 -64 -33q-9 0 -27 1t-27 1zM1121 708q0 -33 -64 -33q-9 0 -27 1t-27 1l-346 -1078q8 0 25.5 1t26.5 1q88 0 88 -57q0 -30 -43 -30h-240q-66 0 -66 54q0 33 64 33q9 0 27 -1t26 -1l128 401l-555 677q-8 0 -25.5 -1t-26.5 -1q-88 0 -88 57q0 30 43 30h241q66 0 66 -54 q0 -33 -64 -33q-9 0 -27 1t-27 1l493 -585l188 585q-8 0 -25.5 -1t-26.5 -1q-88 0 -88 57q0 30 43 30h241q66 0 66 -54zM791 -474q6 8 6 19q0 56 -88 56q-8 0 -25.5 -1t-26.5 -1z"/>
            <glyph glyph-name="Amacron" unicode="Ā" horiz-adv-x="1504" d="M715 1304q0 -30 -43 -30h-477q-66 0 -66 55q0 30 43 30h478q65 0 65 -55zM1386 34q0 -31 -43 -31h-232q-66 0 -66 54q0 31 46 31h71l-197 307h-552l-25 -307q69 0 80 -2q50 -10 50 -52q0 -31 -43 -31h-232q-66 0 -66 54q0 31 46 31h71l115 1087l140 -1l697 -1086 q78 0 85 -1q55 -9 55 -53zM910 479l-395 611h-31l-62 -611h488z"/>
            <glyph glyph-name="amacron" unicode="ā" horiz-adv-x="1146" d="M610 1039q0 -30 -43 -30h-478q-66 0 -66 54q0 31 44 31h477q66 0 66 -55zM1028 31q0 -31 -46 -31h-147l-30 109q-127 -139 -315 -139q-139 0 -246 80q-117 87 -117 222q0 112 117 168q90 43 215 43q108 0 254 -28l-33 123q-21 79 -108 120q-72 34 -164 34q-59 0 -175 -36 q-78 -25 -94 -25q-18 0 -32.5 15.5t-14.5 32.5q0 8 4 15q13 21 138 49q113 26 157 26q120 0 223 -58q114 -65 143 -173l131 -493q77 0 86 -1q54 -10 54 -53zM778 210l-44 167q-112 30 -247 30q-99 0 -176 -32q-104 -43 -104 -127q0 -94 85 -152q75 -50 174 -50 q185 0 312 164z"/>
            <glyph glyph-name="mu1" unicode="ă" horiz-adv-x="1280" d="M1161 30q0 -31 -46 -31l-155 1l-33 123q-130 -156 -332 -156q-110 0 -202 67l97 -364q4 -14 4 -25q0 -31 -31 -31q-42 0 -57 56l-298 1111q-77 0 -85 1q-55 9 -55 53q0 31 47 31h155l168 -627q21 -80 86 -134t146 -54q205 0 326 188l-146 542q-77 0 -85 1q-55 9 -55 53 q0 31 47 31h155l209 -782q78 0 85 -1q55 -9 55 -53z"/>
            <glyph glyph-name="Emacron" unicode="Ē" horiz-adv-x="1241" d="M605 1304q0 -30 -43 -30h-477q-66 0 -66 55q0 30 43 30h478q65 0 65 -55zM1132 0l-885 -1q-69 0 -69 54q0 31 46 31h71l-268 1002q-78 0 -85 1q-55 9 -55 53q0 31 46 31l841 -1l42 -155q4 -15 4 -25q0 -31 -31 -31q-38 0 -57 49q-10 39 -19 78h-602l117 -437h301 q-23 86 -23 96q0 31 32 31q42 0 57 -56l60 -226q4 -15 4 -25q0 -31 -31 -31q-37 0 -57 49l-20 78h-301l129 -481h646q-24 85 -24 96q0 31 32 31q42 0 57 -56z"/>
            <glyph glyph-name="emacron" unicode="ē" horiz-adv-x="1150" d="M620 1039q0 -30 -43 -30h-478q-66 0 -66 54q0 31 44 31h477q66 0 66 -55zM1009 117q0 -53 -138 -107q-102 -39 -217 -39q-193 0 -357.5 125.5t-215.5 311.5q-14 53 -14 103q0 138 99 221q92 78 233 78q192 0 344 -126q148 -122 197 -310h-773q59 -146 184 -235 q128 -92 283 -92q181 0 302 102q16 14 26 14q17 0 32 -14.5t15 -31.5zM843 450q-56 125 -171 203q-118 80 -253 80q-120 0 -195 -65q-78 -69 -78 -188q0 -15 2 -30h695z"/>
            <glyph glyph-name="U0047U0331" unicode="ę" horiz-adv-x="1327" d="M1114 73q-165 -107 -353 -107q-255 0 -447 146.5t-259 392.5q-61 227 -61 303q0 175 108 281.5t283 106.5q203 0 373 -111q-12 39 -12 54q0 30 32 30q42 0 57 -56q55 -204 55 -215q0 -31 -31 -31q-23 0 -40 26q-12 22 -24 45q-18 31 -41 54q-36 37 -97 66 q-115 54 -242 54q-247 0 -319 -243q-14 -46 -14 -95q0 -59 57 -269q58 -213 219.5 -334t383.5 -121q137 0 274 72l-83 311h-289q-69 0 -69 55q0 30 46 30l404 -1q69 0 69 -55q0 -30 -76 -29zM1107 -255q0 -30 -45 -30h-491q-66 0 -66 55q0 30 46 30h487q69 0 69 -55z"/>
            <glyph glyph-name="U0067U0331" unicode="Ě" horiz-adv-x="1300" d="M1095 -239q0 -110 -78 -180q-74 -67 -186 -67h-238q-69 0 -69 55q0 30 46 30l241 -1q81 0 139 52t58 132q0 31 -11 72l-76 289q-83 -175 -298 -175q-206 0 -377 160q-174 164 -174 369q0 140 94 226q91 84 233 84q212 0 388 -173l-34 128h155q69 0 69 -54q0 -28 -49 -32 q16 1 -69 1l225 -835q11 -41 11 -81zM1093 -618q0 -30 -44 -30h-492q-65 0 -65 55q0 30 46 30h487q68 0 68 -55zM870 298q0 168 -141 300t-311 132q-116 0 -190 -68q-77 -71 -77 -186q0 -167 141 -299.5t310 -132.5q116 0 192 69.5t76 184.5z"/>
            <glyph glyph-name="U0050U0331" unicode="ğ" horiz-adv-x="1192" d="M874 745q0 -175 -199 -247q-63 -23 -209 -23q-32 0 -96.5 2t-96.5 2l106 -396q78 0 86 -1q55 -9 55 -53q0 -31 -47 -31h-226q-69 0 -69 54q0 31 46 31h71l-268 1002q-78 0 -85 1q-55 9 -55 53q0 31 46 31l446 -1q162 0 299 -93q141 -97 185 -248q11 -40 11 -83z M1022 -255q0 -30 -44 -30h-492q-65 0 -65 55q0 30 46 30h486q69 0 69 -55zM787 771q0 129 -127 225q-117 89 -250 89h-299l140 -522h268q102 0 179 52q89 59 89 156z"/>
            <glyph glyph-name="U0070U0331" unicode="Ġ" horiz-adv-x="1229" d="M1079 278q0 -140 -92 -225t-234 -85q-217 0 -393 177l145 -547q9 0 26 1t26 1q88 0 88 -56q0 -30 -46 -30h-225q-70 0 -70 54q0 28 48 32q-8 -1 69 -2l-289 1079q-77 0 -85 1q-55 9 -55 53q0 31 47 31h155l35 -133q82 178 300 178q206 0 378 -162t172 -367zM1183 -618 q0 -30 -44 -30h-492q-65 0 -65 55q0 30 46 30h487q68 0 68 -55zM1000 298q0 168 -141 300t-311 132q-116 0 -190 -68q-77 -71 -77 -186q0 -167 141 -299.5t310 -132.5q116 0 192 69.5t76 184.5z"/>
            <glyph glyph-name="Imacron" unicode="Ī" horiz-adv-x="638" d="M305 1304q0 -30 -43 -30h-477q-66 0 -66 55q0 30 43 30h478q65 0 65 -55zM519 30q0 -31 -43 -31h-232q-66 0 -66 54q0 31 46 31h71l-268 1002q-78 0 -85 1q-55 9 -55 53q0 31 43 31h232q66 0 66 -54q0 -31 -46 -31h-71l268 -1002q78 0 85 -1q55 -9 55 -53z"/>
            <glyph glyph-name="imacron" unicode="ī" horiz-adv-x="638" d="M350 1039q0 -30 -43 -30h-478q-66 0 -66 54q0 31 44 31h477q66 0 66 -55zM296 84l-159 593q-78 0 -84 1q-56 9 -56 53q0 31 44 31h158l181 -678h-84zM382 84q78 0 85 -1q55 -9 55 -53q0 -31 -43 -31h-232q-66 0 -66 54q0 31 46 31h155z"/>
            <glyph glyph-name="Omacron" unicode="Ō" horiz-adv-x="1324" d="M655 1304q0 -30 -43 -30h-477q-66 0 -66 55q0 30 43 30h478q65 0 65 -55zM1084 393q0 -185 -92 -300q-100 -124 -281 -124q-278 0 -496 268q-207 253 -207 538q0 185 93 299q100 125 280 125q279 0 497 -268q206 -253 206 -538zM996 417q0 241 -173 462 q-185 236 -419 236q-152 0 -234 -110q-74 -99 -74 -255q0 -241 174 -462q185 -235 418 -235q152 0 234 109q74 98 74 255z"/>
            <glyph glyph-name="omacron" unicode="ō" horiz-adv-x="1146" d="M610 1039q0 -30 -43 -30h-478q-66 0 -66 54q0 31 44 31h477q66 0 66 -55zM949 278q0 -140 -92 -225t-234 -85q-206 0 -377 161q-174 163 -174 368q0 140 94 226q91 84 233 84q206 0 378 -162t172 -367zM870 298q0 168 -141 300t-311 132q-116 0 -190 -68 q-77 -71 -77 -186q0 -167 141 -299.5t310 -132.5q116 0 192 69.5t76 184.5z"/>
            <glyph glyph-name="Umacron" unicode="Ū" horiz-adv-x="1360" d="M665 1304q0 -30 -43 -30h-477q-66 0 -66 55q0 30 43 30h478q65 0 65 -55zM1041 270q0 -137 -84.5 -219.5t-222.5 -82.5q-175 0 -326 124q-147 121 -193 293l-189 702q-77 0 -85 1q-55 9 -55 53q0 31 47 31h226q69 0 69 -54q0 -29 -48 -32q17 1 -70 1l189 -702 q36 -135 152 -232q120 -101 257 -101q108 0 176.5 68.5t68.5 177.5q0 43 -11 87l-189 702q-77 0 -85 1q-55 9 -55 53q0 31 47 31h226q69 0 69 -54q0 -29 -48 -32q17 1 -70 1l189 -702q15 -59 15 -115z"/>
            <glyph glyph-name="umacron" unicode="ū" horiz-adv-x="1273" d="M660 1039q0 -30 -43 -30h-478q-66 0 -66 54q0 31 44 31h477q66 0 66 -55zM1157 30q0 -30 -46 -30h-155l-33 123q-130 -156 -330 -156q-123 0 -217 76t-126 196l-118 438q-8 0 -25 -1t-26 -1q-89 0 -89 57q0 30 47 30h155l140 -523q21 -80 86 -134t146 -54q205 0 326 188 l-118 438q-8 0 -25 -1t-26 -1q-89 0 -89 57q0 30 47 30h155l181 -678q8 0 25.5 1t26.5 1q88 0 88 -56z"/>
            <glyph glyph-name="U02c0" unicode="ˀ" horiz-adv-x="395" d="M58 1123q0 -29 -29 -64t-29 -55q0 -13 6 -39h-43q-9 31 -9 49q0 30 29 64t29 52q0 31 -29.5 55.5t-61.5 24.5q-61 0 -53 -74l-48 5q-2 13 -2 24q0 82 93 82q55 0 99 -34q48 -37 48 -90z"/>
            <glyph glyph-name="U02c1" unicode="ˁ" horiz-adv-x="395" d="M57 1141l-45 -5q-32 74 -93 74q-56 0 -56 -50q0 -35 61 -79q68 -49 85 -116h-44q-4 13 -14 39q-10 18 -80 72q-56 42 -56 96q0 75 95 75q105 0 147 -106z"/>
            <glyph glyph-name="U02d2" unicode="˒" horiz-adv-x="638" d="M130 1007q0 -28 -10 -81q-13 -67 -28 -67q-17 0 -17 13l1 6q1 19 9 58q9 36 9 58q0 96 -53 191q-13 23 -77 110l-4 6q0 13 10 13q16 0 64 -68q42 -57 57 -86q39 -78 39 -153z"/>
            <glyph glyph-name="U02d3" unicode="˓" horiz-adv-x="638" d="M177 872q0 -13 -10 -13q-12 0 -61 63q-99 129 -99 238q0 31 10 85q12 69 28 69q17 0 17 -13l-1 -6q-17 -127 -17 -116q0 -96 52 -191q14 -24 77 -110z"/>
            <glyph glyph-name="U0303" unicode="̃" horiz-adv-x="0" d="M648 116q0 -39 -59 -79q-54 -37 -95 -37q-57 0 -162.5 61t-133.5 61q-33 0 -71 -40.5t-54 -40.5q-20 0 -36.5 15t-16.5 35q0 37 59 77q56 38 96 38q55 0 159.5 -60.5t136.5 -60.5q30 0 69.5 40.5t53.5 40.5q20 0 37 -15t17 -35z"/>
            <glyph glyph-name="U0304" unicode="̄" horiz-adv-x="0" d="M630 30q0 -30 -44 -30h-492q-65 0 -65 55q0 30 46 30h486q69 0 69 -55z"/>
            <glyph glyph-name="U0307" unicode="̇" horiz-adv-x="0" d="M-20 772q0 -19 -18 -42.5t-37 -23.5q-24 0 -59 29t-35 52q0 20 18 43t37 23q24 0 59 -28.5t35 -52.5z"/>
            <glyph glyph-name="U0308" unicode="̈" horiz-adv-x="0" d="M476 57q0 -57 -58 -57q-38 0 -69.5 29.5t-31.5 67.5q0 57 60 57q37 0 68 -30t31 -67zM176 57q0 -57 -58 -57q-38 0 -69.5 29.5t-31.5 67.5q0 57 60 57q37 0 68 -30t31 -67z"/>
            <glyph glyph-name="U030a" unicode="̊" horiz-adv-x="0" d="M279 99q0 -44 -29.5 -71.5t-74.5 -27.5q-66 0 -121.5 51.5t-55.5 116.5q0 44 30 71.5t75 27.5q66 0 121 -51.5t55 -116.5zM233 111q0 43 -37 77t-81 34q-70 0 -70 -66q0 -43 37 -77t81 -34q70 0 70 66z"/>
            <glyph glyph-name="U0323" unicode="̣" horiz-adv-x="0" d="M218 -97q0 -57 -59 -57q-38 0 -69.5 30t-31.5 67q0 57 60 57q37 0 68.5 -30t31.5 -67z"/>
            <glyph glyph-name="U0324" unicode="̤" horiz-adv-x="0" d="M518 -97q0 -57 -59 -57q-38 0 -69.5 30t-31.5 67q0 57 60 57q37 0 68.5 -30t31.5 -67zM218 -97q0 -57 -59 -57q-38 0 -69.5 30t-31.5 67q0 57 60 57q37 0 68.5 -30t31.5 -67z"/>
            <glyph glyph-name="U0325" unicode="̥" horiz-adv-x="0" d="M351 -168q0 -44 -30 -71.5t-75 -27.5q-65 0 -120.5 51.5t-55.5 116.5q0 44 30 71.5t75 27.5q65 0 120.5 -51.5t55.5 -116.5zM304 -156q0 43 -37 77t-80 34q-70 0 -70 -66q0 -43 37 -77t80 -34q70 0 70 66z"/>
            <glyph glyph-name="U032d" unicode="̭" horiz-adv-x="0" d="M707 -259q0 -31 -34 -31q-15 0 -305 186q-52 -53 -103 -105q-82 -81 -104 -81q-19 0 -36.5 16t-17.5 35q0 16 18 33l215 206l326 -206q41 -26 41 -53z"/>
            <glyph glyph-name="U032e" unicode="̮" horiz-adv-x="0" d="M685 -108q0 -89 -82 -139q-70 -42 -164 -42q-119 0 -221 60q-112 66 -143 174q-2 7 -2 14q0 32 32 32q18 0 32 -11q11 -8 23 -37q29 -69 106 -110q69 -37 150 -37q95 0 140 45q30 30 36 97q5 53 30 53q63 0 63 -99z"/>
            <glyph glyph-name="U0330" unicode="̰" horiz-adv-x="0" d="M701 -90q0 -39 -56.5 -77.5t-97.5 -38.5q-56 0 -161.5 61t-134.5 61q-33 0 -71 -40.5t-54 -40.5q-20 0 -36.5 15t-16.5 35q0 37 59 77q56 38 96 38q55 0 159.5 -60.5t136.5 -60.5q30 0 69.5 40.5t53.5 40.5q20 0 37 -15t17 -35z"/>
            <glyph glyph-name="U0331" unicode="̱" horiz-adv-x="0" d="M653 -55q0 -30 -44 -30h-492q-66 0 -66 55q0 30 47 30h486q69 0 69 -55z"/>
            <glyph glyph-name="U060c" unicode="،" horiz-adv-x="468" d="M357 75q0 -75 -77 -75q-75 0 -117 74q-34 61 -34 142q0 134 112 244l20 -77q17 -47 44 -62q-59 -32 -59 -93q0 -10 3 -20q46 -12 77 -49t31 -84z"/>
            <glyph glyph-name="U061b" unicode="؛" horiz-adv-x="468" d="M251 471q0 -76 -77 -76q-75 0 -117 74q-34 61 -34 142q0 134 112 244l21 -77q16 -47 43 -62q-59 -32 -59 -92q0 -11 3 -21q46 -11 77 -48t31 -84zM366 83q0 -83 -86 -83q-54 0 -100 43.5t-46 97.5q0 83 86 83q55 0 100.5 -43.5t45.5 -97.5z"/>
            <glyph glyph-name="U061f" unicode="؟" horiz-adv-x="916" d="M625 883q0 -30 -29 -30q-35 0 -55 52l-20 82q-155 67 -270 67q-92 0 -152 -47q-66 -51 -66 -141q0 -130 144 -219q75 -46 260 -108q39 -146 39 -156q0 -30 -30 -30q-35 0 -54 52l-21 81q-204 77 -285 139q-136 106 -136 272q0 115 80 178q74 58 193 58q125 0 363 -94 q39 -146 39 -156zM665 45q0 -72 -75 -72h-80q-48 0 -88.5 38t-40.5 85q0 73 77 73h79q48 0 88 -38t40 -86z"/>
            <glyph glyph-name="U0621" unicode="ء" horiz-adv-x="509" d="M496 209q0 -62 -32 -80l-279 -152q-5 20 -5 25q0 48 121 102q-192 36 -192 139q0 62 40 133q47 79 104 79q35 0 63 -28.5t28 -63.5q0 -25 -16 -65q-48 55 -95 55q-71 0 -71 -69q0 -51 85 -82q65 -23 129 -23q48 0 120 30z"/>
            <glyph glyph-name="U0640" unicode="ـ" horiz-adv-x="500" d="M541 0h-570l-41 152h570z"/>
            <glyph glyph-name="U064b" unicode="ً" horiz-adv-x="0" d="M254 326q0 -28 -17 -39l-232 -155q-4 20 -4 32q0 32 40 59l207 142q6 -23 6 -39zM289 194q0 -28 -16 -39l-232 -155q-4 20 -4 33q0 31 39 58l207 142q6 -23 6 -39z"/>
            <glyph glyph-name="U064c" unicode="ٌ" horiz-adv-x="0" d="M379 73q-41 19 -97 53q-81 -116 -181 -130q11 54 11 84q0 82 -61 82q-29 0 -29 -40q0 -12 3 -29q-26 44 -26 80q0 66 53 66q54 0 78 -64q4 -9 24 -109q53 23 90 81q-86 49 -86 114q0 38 20 69q22 35 58 35t62 -39q24 -34 24 -71q0 -11 -7 -65q49 -31 64 -117zM269 224 q1 28 -13 52q-16 28 -42 28q-19 0 -19 -14q0 -25 74 -66z"/>
            <glyph glyph-name="U064d" unicode="ٍ" horiz-adv-x="0" d="M360 -39q0 -27 -17 -39l-232 -155q-4 20 -4 33q0 32 39 58l208 142q6 -22 6 -39zM395 -171q0 -28 -16 -39l-232 -156q-4 20 -4 33q0 32 39 59l207 141q6 -22 6 -38z"/>
            <glyph glyph-name="U064e" unicode="َ" horiz-adv-x="0" d="M289 194q0 -28 -16 -39l-232 -155q-4 20 -4 33q0 31 39 58l207 142q6 -23 6 -39z"/>
            <glyph glyph-name="U064f" unicode="ُ" horiz-adv-x="0" d="M336 83l-85 47q-73 -130 -143 -130q-17 0 -56 11q79 51 155 141q-82 50 -82 122q0 110 69 110q89 0 89 -128q0 -25 -6 -57q16 -9 42 -27zM238 227q0 28 -19 54t-47 26q-12 0 -12 -11q0 -30 78 -75v6z"/>
            <glyph glyph-name="U0650" unicode="ِ" horiz-adv-x="0" d="M352 -41q0 -28 -16 -39l-232 -155q-4 20 -4 33q0 31 39 58l207 142q6 -23 6 -39z"/>
            <glyph glyph-name="U0651" unicode="ّ" horiz-adv-x="0" d="M324 133q0 -74 -65 -74q-32 0 -63 19q1 -32 -20.5 -55t-52.5 -23q-107 0 -105 160v29l20 3q27 -100 62 -100q46 0 46 90q0 24 -4 56l15 6q44 -89 76 -89q34 0 34 58q0 29 -9 75l18 9q48 -92 48 -164z"/>
            <glyph glyph-name="U0652" unicode="ْ" horiz-adv-x="0" d="M253 110q0 -46 -28 -78t-73 -32q-68 0 -104 57q-31 48 -31 119q0 106 86 106q56 0 104 -59q46 -55 46 -113zM206 118q0 27 -49 57q-45 29 -73 29q-41 0 -41 -36q0 -79 101 -79q62 0 62 29z"/>
            <glyph glyph-name="U0653" unicode="ٓ" horiz-adv-x="0" d="M585 106q-68 -106 -209 -106q-40 0 -116.5 20.5t-115.5 20.5q-35 0 -74 -24l-18 13q32 104 92 104q50 0 146.5 -25t146.5 -25q49 0 130 35z"/>
            <glyph glyph-name="U0654" unicode="ٔ" horiz-adv-x="0" d="M287 108q0 -32 -16 -37l-230 -71q-1 52 69 80q-80 35 -80 84q0 41 42.5 87t82.5 46q62 0 62 -65q0 -18 -11 -47q-54 30 -81 30q-26 0 -53 -30q91 -68 147 -68q22 0 67 13z"/>
            <glyph glyph-name="U0655" unicode="ٕ" horiz-adv-x="0" d="M375 -189q0 -32 -16 -37l-230 -71q-1 52 70 80q-80 35 -80 84q0 41 42.5 87t82.5 46q62 0 62 -65q0 -18 -11 -47q-54 30 -82 30q-25 0 -52 -30q90 -68 146 -68q23 0 67 13z"/>
            <glyph glyph-name="U0656" unicode="ٖ" horiz-adv-x="0" d="M442 142q0 -68 -95 -83l-184 -8q-106 -6 -122 -51q-11 24 -13 44q12 29 53 52t74 23q15 65 60 109q49 48 113 48q52 0 83 -40.5t31 -93.5zM379 161q0 55 -58 55q-42 0 -77.5 -28t-47.5 -69h42q141 0 141 42z"/>
            <glyph glyph-name="U0660" unicode="٠" horiz-adv-x="854" d="M449 312q-109 54 -197 111q-2 46 -2 89q0 58 4 112q83 -60 184 -121q1 -57 11 -191z"/>
            <glyph glyph-name="U0661" unicode="١" horiz-adv-x="939" d="M625 -23h-50q-69 246 -184 444q-108 184 -291 383q-1 34 -1 69q0 74 6 160q368 -402 474 -800q23 -86 46 -256z"/>
            <glyph glyph-name="U0662" unicode="٢" horiz-adv-x="939" d="M594 -17h-56q-92 270 -217 466q-119 185 -328 396l18 181q198 -188 310 -188q122 0 122 131q0 14 -1 29h46q37 -136 37 -200q0 -148 -146 -148q-19 0 -44 2q154 -226 210 -437q13 -49 49 -232z"/>
            <glyph glyph-name="U0663" unicode="٣" horiz-adv-x="939" d="M653 850q0 -156 -141 -156q-72 0 -137 58q-47 -90 -132 -84q97 -158 146 -326q38 -129 70 -350h-56q-94 447 -470 818l4 214q173 -179 261 -179q124 0 138 171h35q53 -134 139 -134q72 0 72 85q0 21 -4 51l48 -5q27 -99 27 -163z"/>
            <glyph glyph-name="U0664" unicode="٤" horiz-adv-x="939" d="M739 164l-7 -180q-163 28 -249 53q-181 51 -200 116q-9 33 -9 70q0 92 110 260q-102 37 -148 60q-97 49 -111 100q-5 21 -5 44q0 90 87 199q68 85 163 155v-197q-127 -59 -120 -92q15 -17 156 -80q125 -57 125 -91q0 -32 -77 -152.5t-77 -142.5v-6q10 -36 362 -116z"/>
            <glyph glyph-name="U0665" unicode="٥" horiz-adv-x="939" d="M669 467q0 -36 -9 -80q-22 -112 -75.5 -153.5t-170.5 -41.5q-97 0 -177 47q-89 51 -113 139q-9 33 -9 90q0 110 33 209q45 137 132 137q106 0 229.5 -88t150.5 -187q9 -34 9 -72zM594 422q0 62 -136 147q-129 81 -197 81q-36 0 -55 -50q-15 -37 -15 -80q0 -146 266 -146 q137 0 137 48z"/>
            <glyph glyph-name="U0666" unicode="٦" horiz-adv-x="939" d="M790 7q-175 39 -247 250q-29 81 -142 461q-96 -26 -174 -26q-118 0 -168 37.5t-81 150.5q-12 47 -23 110h43q78 -97 234 -97q78 0 216 44q6 -154 32 -254q91 -350 270 -457z"/>
            <glyph glyph-name="U0667" unicode="٧" horiz-adv-x="939" d="M674 755q-132 -91 -132 -447q0 -150 23 -304h-59q-86 216 -219 412q-170 249 -325 314l-55 263q160 -59 329 -308q92 -137 228 -407q-7 112 -7 204q0 448 151 519z"/>
            <glyph glyph-name="U0668" unicode="٨" horiz-adv-x="939" d="M863 -7q-160 60 -328 307q-93 138 -229 408q7 -112 7 -204q0 -448 -151 -519l-66 246q132 90 132 444q0 150 -23 306h59q86 -215 220 -411q169 -249 325 -314z"/>
            <glyph glyph-name="U0669" unicode="٩" horiz-adv-x="939" d="M790 -50q-118 52 -210 249q-38 80 -118 321q-68 -70 -160 -70q-105 0 -173 79q-66 75 -66 182q0 25 5 62q25 229 166 229q91 0 148 -72q38 -48 75 -155l103 -291q86 -243 193 -280zM394 684q-54 120 -156 120q-37 0 -69 -15q-41 -18 -41 -51q0 -43 55 -71q47 -24 94 -24 q59 0 117 41z"/>
            <glyph glyph-name="U0670" unicode="ٰ" horiz-adv-x="0" d="M135 79q0 -35 -18 -90l-31 5l1 23q0 56 -72 180t-72 166q0 33 39 97q24 -80 80 -191q73 -144 73 -190z"/>
            <glyph glyph-name="U0700" unicode="܀" horiz-adv-x="893" d="M680 352q0 -73 -46 -160q-35 9 -95 66q-64 61 -64 94q0 66 56 171q33 -22 87 -79q62 -66 62 -92zM424 572q0 -73 -44 -159q-31 2 -95.5 65.5t-64.5 93.5q0 67 56 171q33 -21 87 -79q61 -65 61 -92zM574 106q0 -73 -45 -159q-31 2 -95.5 65.5t-64.5 93.5q0 67 56 172 q33 -22 87 -80q62 -65 62 -92zM322 315q0 -73 -46 -160q-35 9 -95 67q-64 60 -64 93q0 66 56 171q33 -22 87 -79q62 -66 62 -92z"/>
            <glyph glyph-name="U0701" unicode="܁" horiz-adv-x="425" d="M236 479q0 -77 -65 -77q-41 0 -79.5 40t-38.5 82q0 77 65 77q42 0 80 -40t38 -82z"/>
            <glyph glyph-name="U0702" unicode="܂" horiz-adv-x="425" d="M397 -122q0 -76 -65 -76q-41 0 -79.5 40t-38.5 82q0 76 65 76q42 0 80 -40t38 -82z"/>
            <glyph glyph-name="U0703" unicode="܃" horiz-adv-x="425" d="M221 526q0 -76 -65 -76q-41 0 -79.5 39.5t-38.5 81.5q0 77 65 77q42 0 80 -40t38 -82zM300 243q0 -77 -65 -77q-42 0 -80 40t-38 82q0 76 65 76q41 0 79.5 -39.5t38.5 -81.5z"/>
            <glyph glyph-name="U0704" unicode="܄" horiz-adv-x="425" d="M344 76q0 -76 -65 -76q-41 0 -79.5 40t-38.5 82q0 76 65 76q42 0 80 -40t38 -82zM423 -207q0 -76 -65 -76q-42 0 -80 39.5t-38 81.5q0 77 65 77q41 0 79.5 -40t38.5 -82z"/>
            <glyph glyph-name="U0705" unicode="܅" horiz-adv-x="730" d="M525 479q0 -77 -65 -77q-41 0 -79.5 40t-38.5 82q0 77 65 77q42 0 80 -40t38 -82zM236 479q0 -77 -65 -77q-41 0 -79.5 40t-38.5 82q0 77 65 77q42 0 80 -40t38 -82z"/>
            <glyph glyph-name="U0706" unicode="܆" horiz-adv-x="550" d="M268 360q0 -76 -65 -76q-41 0 -79.5 39.5t-38.5 81.5q0 77 65 77q42 0 80 -40t38 -82zM469 76q0 -76 -64 -76q-42 0 -80 40t-38 82q0 76 64 76q42 0 80 -40t38 -82z"/>
            <glyph glyph-name="U0707" unicode="܇" horiz-adv-x="550" d="M394 358q0 -74 -65 -74q-42 0 -80.5 40.5t-38.5 82.5q0 75 65 75q42 0 80.5 -40.5t38.5 -83.5zM345 75q0 -75 -66 -75q-42 0 -80 40.5t-38 82.5q0 75 65 75q42 0 80.5 -40.5t38.5 -82.5z"/>
            <glyph glyph-name="U0708" unicode="܈" horiz-adv-x="550" d="M224 526q0 -76 -65 -76q-42 0 -80 39.5t-38 81.5q0 77 65 77q42 0 80 -40t38 -82zM396 243q0 -77 -65 -77q-42 0 -80 40t-38 82q0 76 65 76q41 0 79.5 -39.5t38.5 -81.5z"/>
            <glyph glyph-name="U0709" unicode="܉" horiz-adv-x="550" d="M344 76q0 -76 -65 -76q-41 0 -79.5 40t-38.5 82q0 76 65 76q42 0 80 -40t38 -82zM516 -207q0 -76 -65 -76q-42 0 -80 39.5t-38 81.5q0 77 65 77q42 0 80 -40t38 -82z"/>
            <glyph glyph-name="U070a" unicode="܊" horiz-adv-x="784" d="M457 814h-484l-23 84h102l20 31l-24 89h43l23 -87l41 -33h78l22 36l-23 87h44l25 -95l34 -28h100zM386 398h-102l-28 102h102zM492 1h-102l-27 102h102z"/>
            <glyph glyph-name="U070b" unicode="܋" horiz-adv-x="1249" d="M922 819h-951l-20 75h951zM531 663h-92l-25 92h92z"/>
            <glyph glyph-name="U070c" unicode="܌" horiz-adv-x="1023" d="M807 401h-199l53 74l-764 603l39 52l764 -601l53 75z"/>
            <glyph glyph-name="U070d" unicode="܍" horiz-adv-x="1026" d="M677 463q0 -38 -36 -38q-18 0 -40 19t-22 38q0 38 36 38q19 0 40.5 -19t21.5 -38zM419 667q0 -39 -36 -39q-19 0 -40.5 19.5t-21.5 37.5q0 38 36 38q19 0 40.5 -18.5t21.5 -37.5zM774 242l-41 -57l-290 228l-167 -228l-72 57l167 228l-290 229l42 57l290 -229l167 229 l72 -57l-167 -229zM533 267q0 -39 -36 -39q-18 0 -40 19t-22 38q0 38 36 38q19 0 40.5 -18.5t21.5 -37.5zM280 469q0 -39 -36 -39q-19 0 -40.5 19t-21.5 38q0 38 36 38q18 0 40 -19t22 -37z"/>
            <glyph glyph-name="U070f" unicode="܏" horiz-adv-x="41" d="M113 -116h-41l-380 1418q-15 5 -25 18h-85q-6 -22 -32 -22q-21 0 -38.5 17t-17.5 37q0 33 33 33q31 0 49 -29h78q2 29 33 29t49 -29h78q2 29 33 29q21 0 39 -17t18 -37q0 -33 -34 -33q-25 0 -43 22h-85q-3 -10 -10 -15z"/>
            <glyph glyph-name="U0710" unicode="ܐ" horiz-adv-x="419" d="M345 40q0 -56 -50 -151q-43 54 -104 193q-57 130 -78 208q-16 62 -16 124q0 67 28 183.5t28 167.5q0 80 -49 144q-27 34 -96 87q-56 43 -62.5 69.5t-6.5 48.5q0 43 34 86q65 -27 140.5 -109.5t93.5 -147.5q11 -40 11 -87q0 -62 -28.5 -182t-28.5 -181q0 -79 92 -220.5 t92 -232.5z"/>
            <glyph glyph-name="U0711" unicode="ܑ" horiz-adv-x="47" d="M93 47q0 -15 -17 -47q-15 7 -37 61t-22 77q0 14 7.5 42t7.5 42q0 33 -27.5 55t-27.5 42q0 12 12 27q25 -7 48 -36t23 -54q0 -16 -7 -45.5t-7 -45.5q0 -21 23.5 -58t23.5 -60z"/>
            <glyph glyph-name="U0712" unicode="ܒ" horiz-adv-x="1244" d="M1241 129q0 -129 -155 -129h-640q-141 0 -225 67q-92 73 -92 210q0 50 13 105q53 -123 105 -170q68 -60 189 -60h613q33 0 33 34q0 59 -102 125q-153 99 -395 99q-28 0 -75 -5q-58 -5 -75 -6q0 151 228 151q180 0 368 -118q210 -133 210 -303z"/>
            <glyph glyph-name="U0713" unicode="ܓ" horiz-adv-x="1600" d="M2067 -472q0 -92 -186 -92q-204 0 -631 184q-192 84 -616 297q-228 115 -324 180q-211 145 -211 268q0 66 57 104q29 -88 94.5 -163t508.5 -323q215 -120 550 -263q413 -177 552 -177q47 0 47 23q0 27 -62 63q-94 54 -334 172q-206 98 -617 301q-95 48 -283 146 q-50 27 -142 89q15 45 108 66l871 -444q312 -158 340 -174q246 -139 273 -222q5 -16 5 -35z"/>
            <glyph glyph-name="U0714" unicode="ܔ" horiz-adv-x="1600" d="M2072 -470q0 -94 -191 -94q-204 0 -631 184q-193 84 -616 297q-228 115 -324 180q-211 145 -211 268q0 66 57 104q29 -88 94 -163q54 -61 311 -211q200 -117 352 -192l91 144q-129 64 -384 197q-54 28 -150 93q11 44 108 66l871 -444q336 -170 343 -174 q249 -140 275 -222q5 -16 5 -33zM1902 -434q0 30 -56 63q-68 39 -236 123q-172 83 -515 250l-91 -144q657 -315 857 -315q41 0 41 23z"/>
            <glyph glyph-name="U0715" unicode="ܕ" horiz-adv-x="483" d="M497 35q0 -228 -167 -287q70 109 70 159q0 76 -58 119q-59 37 -119 73q-73 54 -98 147q-10 36 -10 69q0 129 127 129q113 0 190 -154q65 -129 65 -255zM591 -420q0 -19 -22 -50t-40 -31q-21 0 -65 37.5t-44 59.5q0 19 21.5 50t40.5 31q21 0 65 -37.5t44 -59.5z"/>
            <glyph glyph-name="U0716" unicode="ܖ" horiz-adv-x="483" d="M497 35q0 -228 -167 -287q70 109 70 159q0 76 -58 119q-59 37 -119 73q-73 54 -98 147q-10 36 -10 69q0 129 127 129q113 0 190 -154q65 -129 65 -255z"/>
            <glyph glyph-name="U0717" unicode="ܗ" horiz-adv-x="913" d="M915 62q0 -65 -19 -121q-23 87 -47 173q-38 125 -74 151q-25 -12 -58 -65q-72 -113 -104 -142q-63 -58 -163 -58q-105 0 -201.5 72.5t-123.5 172.5q-15 55 -15 106q0 94 45 155q51 68 141 68q94 0 217 -76q115 -71 174 -155q15 15 50 77q29 53 57 66q45 -58 84 -204 q37 -136 37 -220zM630 237q-38 74 -128 130t-173 56q-46 0 -99 -16q-66 -20 -79 -52q34 -78 129 -135q92 -55 179 -55q39 0 95 20q66 23 76 52z"/>
            <glyph glyph-name="U0718" unicode="ܘ" horiz-adv-x="681" d="M653 210q0 -98 -59.5 -154t-157.5 -56q-116 0 -212 99q-85 89 -116 210q-9 37 -9 68q0 95 73 149q65 48 164 48q132 0 227 -118q90 -111 90 -246zM578 186q-3 23 -12 55q-23 81 -107.5 145t-169.5 64q-93 0 -133 -30q28 -105 132 -186.5t212 -81.5q53 0 78 34z"/>
            <glyph glyph-name="U0719" unicode="ܙ" horiz-adv-x="343" d="M366 -37q0 -194 -103 -281q21 70 21 127q0 125 -108 344q-73 149 -73 179q0 26 44.5 95.5t66.5 69.5q47 0 131 -361q21 -90 21 -173z"/>
            <glyph glyph-name="U071a" unicode="ܚ" horiz-adv-x="1198" d="M1212 88q0 -98 -211 -98q-231 0 -372 88q-61 -88 -197 -88q-129 0 -213 74q-89 77 -89 204q0 44 8 81q91 -197 257 -197q52 0 80 47q16 27 32 88q11 48 22 48q10 0 118.5 -91.5t162.5 -91.5q85 0 126 184q247 -138 273 -223q3 -12 3 -25z"/>
            <glyph glyph-name="U071b" unicode="ܛ" horiz-adv-x="837" d="M945 -293q0 -100 -59.5 -154t-161.5 -54q-111 0 -220 85t-139 193q-22 83 -22 156q0 47 9 104q-107 36 -129 49q-64 35 -83 105q-15 51 -15 97q0 41 12 101q134 -124 250 -187q4 15 52 137q109 280 109 434q0 53 -11 94q-27 99 -106 164q-70 56 -70 84q0 31 17 87 q20 67 42 67q52 0 127 -142q59 -113 80 -192q17 -61 17 -130q0 -134 -64 -324q-57 -158 -114 -315q98 -38 195 -76q107 -43 164 -95q74 -69 105 -185q15 -54 15 -103zM862 -295q0 13 -5 30q-32 124 -165 195q-82 44 -253 84q-1 -20 -1 -37q0 -42 8 -74q44 -161 247 -233 q58 -20 98 -20q71 0 71 55z"/>
            <glyph glyph-name="U071c" unicode="ܜ" horiz-adv-x="837" d="M945 -293q0 -100 -59.5 -154t-161.5 -54q-111 0 -220 85t-139 193q-22 83 -22 156q0 47 9 104q-107 36 -129 49q-64 35 -83 105q-15 51 -15 97q0 41 12 101q134 -124 250 -187q4 15 52 137q109 280 109 434q0 53 -11 94q-27 99 -106 164q-70 56 -70 84q0 31 17 87 q20 67 42 67q52 0 127 -142q60 -113 80 -192q17 -61 17 -130q0 -134 -64 -324q-57 -158 -114 -315q98 -38 195 -76q107 -43 164 -95q74 -69 105 -185q15 -54 15 -103zM862 -295q0 13 -5 30q-32 124 -165 195q-82 44 -253 84q-1 -20 -1 -37q0 -42 8 -74q44 -161 247 -233 q58 -20 98 -20q71 0 71 55zM712 -197q0 -44 -46 -44q-28 0 -52.5 23t-24.5 51q0 44 46 44q28 0 52.5 -23t24.5 -51z"/>
            <glyph glyph-name="U071d" unicode="ܝ" horiz-adv-x="793" d="M808 85q0 -100 -211 -100q-132 0 -214 11q-104 14 -155 49q-61 41 -85 134q-3 12 -3 24q0 48 39 108q114 -159 226 -159q101 0 128 181q247 -138 272 -223q3 -12 3 -25z"/>
            <glyph glyph-name="U071e" unicode="ܞ" horiz-adv-x="1561" d="M453 712q0 -49 -51 -49q-32 0 -59.5 26t-27.5 58q0 49 51 49q33 0 60 -25.5t27 -58.5zM277 886q0 -50 -52 -50q-32 0 -59 26t-27 58q0 50 51 50q32 0 59.5 -26t27.5 -58zM1576 85q0 -100 -211 -100q-166 0 -247 18q-135 30 -209 121q4 -64 4 -99q0 -68 -12 -104 q-24 92 -49 184q-40 133 -77 160q-24 -12 -58 -65q-72 -113 -104 -142q-62 -58 -163 -58q-105 0 -201.5 72.5t-123.5 172.5q-15 54 -15 106q0 94 45 155q51 68 141 68q94 0 217 -76q115 -71 174 -155q15 14 50 77q29 53 57 66q49 -64 94 -245q41 43 59 70q114 -159 226 -159 q101 0 128 181q247 -138 271 -223q4 -12 4 -25zM193 712q0 -49 -51 -49q-33 0 -60 26t-27 58q0 49 51 49q32 0 59.5 -25.5t27.5 -58.5zM567 -198q0 -49 -51 -49q-33 0 -60 25.5t-27 58.5q0 49 51 49q33 0 60 -26t27 -58zM630 237q-38 74 -128 130t-173 56q-46 0 -99 -16 q-66 -20 -79 -52q34 -78 129 -135q92 -55 179 -55q39 0 95 20q66 23 76 52z"/>
            <glyph glyph-name="U071f" unicode="ܟ" horiz-adv-x="880" d="M880 78q0 -39 -25.5 -65t-65.5 -26q-15 0 -44 6.5t-44 6.5q-76 0 -98 -67q-84 -245 -94 -274q-55 -155 -106 -269q-14 -31 -24 -31q-21 0 -21 20q0 8 9 38q64 209 83 282q44 170 49 287q-29 2 -86 7q-153 18 -199 185q-3 11 -3 25q0 47 39 107q114 -159 227 -159 q100 0 127 181q249 -139 272 -222q4 -16 4 -32z"/>
            <glyph glyph-name="U0720" unicode="ܠ" horiz-adv-x="1782" d="M1782 46q0 -46 -33 -46q-24 0 -211 120q-54 -85 -79 -103q-37 -27 -127 -27q-59 0 -182 81l-1186 775q8 47 37 104q396 -262 1192 -779q89 -57 116 -57q36 0 68.5 25t38.5 60l-1105 725q6 52 31 108q296 -200 1191 -781q67 -42 134 -83q97 -64 111 -94q4 -9 4 -28z"/>
            <glyph glyph-name="U0721" unicode="ܡ" horiz-adv-x="963" d="M939 195q0 -98 -60 -154t-158 -56q-159 0 -324 232q1 -20 1 -44q0 -164 -42 -351q-48 -218 -128 -325q15 101 30 201q16 119 16 203q0 296 -149 505q-22 31 -45 62q-24 37 -33 68q12 43 76 125q69 -84 216 -242q58 140 237 140q110 0 215 -79.5t134 -185.5q14 -53 14 -99 zM826 197q0 66 -119.5 160t-195.5 94q-36 0 -69 -24q-36 -25 -36 -60q0 -66 137 -151q129 -79 204 -79q27 0 53 17t26 43z"/>
            <glyph glyph-name="U0722" unicode="ܢ" horiz-adv-x="612" d="M997 -648q-107 45 -245 143q-158 114 -333 284q-221 215 -259 337q-2 5 -2 13q0 58 109 128q72 -134 261 -372q250 -314 469 -533z"/>
            <glyph glyph-name="U0723" unicode="ܣ" horiz-adv-x="1448" d="M1421 205q0 -96 -57 -150.5t-153 -54.5h-765q-141 0 -225 67q-92 73 -92 210q0 50 13 105q71 -165 156 -204q57 -26 264 -26q-124 94 -124 240q0 76 53 119q49 39 127 39q107 0 216 -80q18 -15 54 -41q79 121 223 121q136 0 225 -106q85 -101 85 -239zM1282 226 q0 11 -3 24q-18 67 -82 109q-60 39 -132 39q-36 0 -67 -30t-31 -66q0 -53 63 -103q59 -47 114 -47q138 0 138 74zM925 209q0 22 -35 64q-106 125 -245 125q-87 0 -87 -59q0 -78 95 -136q84 -51 167 -51q28 0 63 15q42 18 42 42z"/>
            <glyph glyph-name="U0724" unicode="ܤ" horiz-adv-x="1106" d="M1078 205q0 -96 -57 -150.5t-154 -54.5h-148q25 -98 25 -149q0 -73 -49 -73q-52 0 -52 143q0 44 -6 79h-88q-161 0 -303 114q-151 121 -151 278q0 76 53 119q49 39 127 39q109 0 219 -80q16 -14 49 -37q77 117 225 117q135 0 225 -107q85 -100 85 -238zM939 226 q0 11 -4 24q-17 68 -77 109q-56 39 -128 39q-107 0 -107 -82q0 -59 58.5 -111.5t119.5 -52.5q138 0 138 74zM582 209q0 22 -36 64q-105 125 -244 125q-88 0 -88 -59q0 -78 96 -136q84 -51 167 -51q28 0 63 15q42 18 42 42z"/>
            <glyph glyph-name="U0725" unicode="ܥ" horiz-adv-x="1187" d="M1209 71q-45 -71 -101 -71q-73 0 -243 109q-47 -62 -76 -81q-41 -28 -106 -28q-66 0 -209 115q-122 97 -235 192q-67 56 -192 173q24 58 70 86q498 -445 563 -445q70 0 103 56q-59 44 -188 154q-69 59 -201 182q1 27 69 89q133 -118 405 -347q231 -184 341 -184z"/>
            <glyph glyph-name="U0726" unicode="ܦ" horiz-adv-x="1154" d="M1123 218q0 -218 -304 -218h-373q-109 0 -188 43q-92 50 -118 147q-6 23 -6 46q0 18 3 40q72 -124 299 -124h357q230 0 230 100q0 105 -154 219q-7 -25 -25 -75q-53 -121 -213 -121q-137 0 -232 72q-104 79 -104 212q0 178 219 178q153 0 350 -132q203 -136 243 -278 q16 -57 16 -109zM807 513q-144 93 -272 93q-138 0 -138 -74q0 -115 203 -115q176 0 207 96z"/>
            <glyph glyph-name="U0727" unicode="ܧ" horiz-adv-x="1154" d="M1151 140q0 -140 -211 -140h-373q-380 0 -464 327q-8 31 -8 60q0 129 127 241q124 109 254 109q124 0 218 -66q96 -69 127 -188q8 -29 8 -53q0 -80 -75 -122q-60 -33 -147 -33q-158 0 -276 119q-22 26 -68 77q-54 -67 -54 -141q0 -178 304 -178h355q228 0 232 124 q51 -72 51 -136zM715 489q0 62 -68 93q-52 24 -122 24q-127 0 -222 -93q83 -96 259 -96q153 0 153 72z"/>
            <glyph glyph-name="U0728" unicode="ܨ" horiz-adv-x="474" d="M606 -443q0 -95 -61.5 -150t-158.5 -55q-152 0 -350 95q-230 110 -230 246q0 13 2 34q105 -100 286.5 -173t326.5 -73q104 0 104 69q0 48 -51.5 124.5t-51.5 109.5q0 21 8.5 63t8.5 64q0 68 -38 117q-22 28 -73 62q-38 27 -38 40q0 18 28.5 69.5t43.5 59.5q33 -23 84 -99 q54 -81 54 -116q0 -24 -12.5 -71t-12.5 -72q0 -57 65.5 -152.5t65.5 -191.5z"/>
            <glyph glyph-name="U0729" unicode="ܩ" horiz-adv-x="1190" d="M1166 211q0 -104 -85 -166q-76 -55 -184 -55q-102 0 -206 64q-53 -54 -175 -54q-327 0 -381 208q-6 22 -6 43q0 34 13 65q80 -165 294 -165q117 0 131 25q-79 81 -79 202q0 107 72 173q69 64 177 64q143 0 264 -99q118 -97 155 -237q10 -35 10 -68zM1097 207 q-38 102 -160.5 179t-233.5 77q-41 0 -85 -25q-50 -28 -56 -64q138 -232 425 -232q88 0 110 65z"/>
            <glyph glyph-name="U072a" unicode="ܪ" horiz-adv-x="483" d="M239 727q0 -20 -22.5 -52.5t-41.5 -32.5q-23 0 -69 39.5t-46 62.5q0 20 22.5 52.5t42.5 32.5q22 0 68 -39.5t46 -62.5zM497 35q0 -228 -167 -287q70 109 70 159q0 76 -58 119q-59 37 -119 73q-73 54 -98 147q-10 36 -10 69q0 129 127 129q113 0 190 -154q65 -129 65 -255 z"/>
            <glyph glyph-name="U072b" unicode="ܫ" horiz-adv-x="1291" d="M1298 128q-7 -69 -67 -107q-52 -34 -125 -34q-135 0 -265 78q-109 -65 -260 -65h-135q-141 0 -225 67q-92 73 -92 210q0 48 12 100q48 -117 118 -169q76 -56 199 -56q-1 21 -10 69q-8 44 -8 72q0 181 195 181q127 0 213 -95q69 -88 139 -176q95 -96 244 -96q37 0 67 21z "/>
            <glyph glyph-name="U072c" unicode="ܬ" horiz-adv-x="704" d="M704 -3q0 -46 -6 -78q-220 81 -291 81q-81 0 -154 -52q-12 205 -52 354q-102 379 -261 630q-68 107 -68 130q0 39 46 138q357 -580 396 -1057q32 8 137 8q56 0 137 -21q100 -26 110 -62q6 -17 6 -71z"/>
            <glyph glyph-name="U0730" unicode="ܰ" horiz-adv-x="0" d="M319 353l-252 -351l-49 36l53 76l-109 245l260 -37l47 67zM189 276l-143 16l58 -131z"/>
            <glyph glyph-name="U0731" unicode="ܱ" horiz-adv-x="0" d="M526 -380l-261 37l-47 -68l-49 36l252 351l49 -36l-53 -75zM442 -313l-58 131l-85 -115z"/>
            <glyph glyph-name="U0732" unicode="ܲ" horiz-adv-x="0" d="M94 1045q0 -87 -73 -87q-78 0 -78 96q0 88 72 88q79 0 79 -97zM215 -96q0 -88 -72 -88q-79 0 -79 96q0 88 73 88q78 0 78 -96z"/>
            <glyph glyph-name="U0733" unicode="ܳ" horiz-adv-x="0" d="M258 273q0 -81 -68.5 -164.5t-147.5 -106.5q45 50 99 129q-75 65 -75 170q0 109 89 109q44 0 75 -48q28 -43 28 -89zM205 278q0 73 -41 73q-46 0 -46 -53q0 -78 52 -130q35 74 35 110z"/>
            <glyph glyph-name="U0734" unicode="ܴ" horiz-adv-x="0" d="M336 -2q-46 -50 -99 -129q74 -65 74 -170q0 -109 -89 -109q-43 0 -74 48q-28 43 -28 89q0 81 69 166q68 82 147 105zM260 -298q0 78 -53 130q-35 -74 -35 -110q0 -73 41 -73q47 0 47 53z"/>
            <glyph glyph-name="U0735" unicode="ܵ" horiz-adv-x="0" d="M396 169q0 -88 -73 -88q-79 0 -79 96q0 88 73 88q79 0 79 -96zM174 88q0 -88 -73 -88q-78 0 -78 96q0 88 72 88q79 0 79 -96z"/>
            <glyph glyph-name="U0736" unicode="ܶ" horiz-adv-x="0" d="M444 107q0 -6 -1 -18.5t-1 -18.5l-44 -61q-3 173 -108 259l-40 -249l-53 25l36 249q-28 10 -52 10q-69 0 -118 -110l-56 20q18 77 59.5 108.5t122.5 31.5q80 0 156 -69q72 -66 93 -146q6 -20 6 -31z"/>
            <glyph glyph-name="U0737" unicode="ܷ" horiz-adv-x="0" d="M534 -224q-39 -162 -175 -162q-80 0 -156 69q-72 65 -94 146q-9 36 -11 90l45 61q2 -174 108 -259l39 248l54 -25l-36 -248q26 -10 51 -10q69 0 118 110z"/>
            <glyph glyph-name="U0738" unicode="ܸ" horiz-adv-x="0" d="M469 -96q0 -88 -73 -88q-79 0 -79 96q0 88 73 88q79 0 79 -96zM225 -96q0 -88 -73 -88q-78 0 -78 96q0 88 72 88q79 0 79 -96z"/>
            <glyph glyph-name="U0739" unicode="ܹ" horiz-adv-x="0" d="M466 -96q0 -88 -73 -88q-78 0 -78 96q0 88 72 88q79 0 79 -96zM246 -186q0 -88 -72 -88q-79 0 -79 96q0 88 73 88q78 0 78 -96z"/>
            <glyph glyph-name="U073a" unicode="ܺ" horiz-adv-x="0" d="M377 281l-237 -292l-38 42l103 127l-69 55l-104 -123l-34 37l227 281l33 -36l-88 -122l59 -46l104 111z"/>
            <glyph glyph-name="U073b" unicode="ܻ" horiz-adv-x="0" d="M497 -125q-148 -202 -240 -295q-5 14 -35 37l93 128l-62 49q-33 -42 -110 -117q-4 4 -46 36q145 197 250 307q6 -18 40 -44l-108 -134l62 -48q36 43 119 120q5 -15 37 -39z"/>
            <glyph glyph-name="U073c" unicode="ܼ" horiz-adv-x="0" d="M220 -97q0 -88 -73 -88q-79 0 -79 96q0 88 73 88q79 0 79 -96z"/>
            <glyph glyph-name="U073d" unicode="ܽ" horiz-adv-x="0" d="M347 111l-29 -38l-204 162l-98 -134l-47 36l220 302l47 -38l-95 -128zM258 18q0 -60 -61 -60q-38 0 -70.5 31t-32.5 69q0 59 61 59q37 0 70 -31t33 -68zM217 24q0 54 -52 54q-32 0 -32 -25q0 -54 54 -54q30 0 30 25z"/>
            <glyph glyph-name="U073e" unicode="ܾ" horiz-adv-x="0" d="M285 -71q0 -54 -56 -54q-34 0 -63.5 28.5t-29.5 62.5q0 54 55 54q34 0 64 -28t30 -63zM398 -142l-199 -275l-43 34l86 116l-187 148l26 35l186 -148l89 122zM249 -66q0 49 -48 49q-28 0 -28 -22q0 -50 47 -50q29 0 29 23z"/>
            <glyph glyph-name="U073f" unicode="ܿ" horiz-adv-x="0" d="M170 87q0 -88 -72 -88q-79 0 -79 96q0 88 73 88q78 0 78 -96z"/>
            <glyph glyph-name="U0740" unicode="݀" horiz-adv-x="0" d="M151 39q0 -39 -49 -39q-33 0 -56.5 22t-23.5 56q0 46 47 46q33 0 57.5 -26t24.5 -59z"/>
            <glyph glyph-name="U0741" unicode="݁" horiz-adv-x="0" d="M151 39q0 -39 -49 -39q-33 0 -56.5 22t-23.5 56q0 46 47 46q33 0 57.5 -26t24.5 -59z"/>
            <glyph glyph-name="U0742" unicode="݂" horiz-adv-x="0" d="M184 -85q0 -39 -49 -39q-33 0 -56.5 22.5t-23.5 55.5q0 46 47 46q33 0 57.5 -26t24.5 -59z"/>
            <glyph glyph-name="U0743" unicode="݃" horiz-adv-x="0" d="M103 220q0 -40 -49 -40q-34 0 -57 22.5t-23 55.5q0 46 47 46q32 0 57 -26t25 -58zM151 39q0 -39 -49 -39q-33 0 -56.5 22t-23.5 56q0 46 47 46q33 0 57.5 -26t24.5 -59z"/>
            <glyph glyph-name="U0744" unicode="݄" horiz-adv-x="0" d="M183 -77q0 -47 -48 -47q-32 0 -56.5 26t-24.5 59q0 39 48 39q34 0 57.5 -22t23.5 -55zM231 -258q0 -46 -47 -46q-33 0 -57.5 26t-24.5 59q0 39 48 39q34 0 57.5 -22t23.5 -56z"/>
            <glyph glyph-name="U0745" unicode="݅" horiz-adv-x="0" d="M229 220q0 -40 -49 -40q-33 0 -56.5 22.5t-23.5 55.5q0 46 47 46q33 0 57.5 -26t24.5 -58zM404 39q0 -39 -49 -39q-34 0 -57 22t-23 56q0 46 47 46q32 0 57 -26t25 -59zM151 39q0 -39 -49 -39q-33 0 -56.5 22t-23.5 56q0 46 47 46q33 0 57.5 -26t24.5 -59z"/>
            <glyph glyph-name="U0746" unicode="݆" horiz-adv-x="0" d="M436 -77q0 -47 -48 -47q-33 0 -57 26t-24 59q0 39 48 39q33 0 57 -22t24 -55zM183 -77q0 -47 -48 -47q-32 0 -56.5 26t-24.5 59q0 39 48 39q34 0 57.5 -22t23.5 -55zM358 -258q0 -46 -48 -46q-33 0 -57 26t-24 59q0 39 48 39q33 0 57 -22t24 -56z"/>
            <glyph glyph-name="U0747" unicode="݇" horiz-adv-x="0" d="M249 238l-174 -238l-43 34l173 239z"/>
            <glyph glyph-name="U0748" unicode="݈" horiz-adv-x="0" d="M380 -238l-25 -35l-302 239l26 34z"/>
            <glyph glyph-name="U0749" unicode="݉" horiz-adv-x="0" d="M758 56l-15 -43l-181 90l-32 -103l-54 27l31 105l-46 22l-32 -103l-55 27l31 103l-46 24l-32 -103l-55 27l32 104l-47 23l-31 -104l-55 27l31 104l-47 23l-32 -103l-54 27l32 105l-172 85l14 43l171 -87l31 101l55 -28l-30 -100l45 -22l32 100l54 -27l-30 -100l46 -25 l31 100l55 -27l-32 -100l47 -23l32 100l54 -27l-31 -100l47 -25l31 100l55 -27l-31 -100z"/>
            <glyph glyph-name="U074a" unicode="݊" horiz-adv-x="0" d="M295 302q0 -18 -22 -18q-35 0 -35 38q0 17 20 17q37 0 37 -37zM342 126q0 -18 -22 -18q-35 0 -35 38q0 17 21 17q36 0 36 -37zM432 198h-198l53 -198h-50l-53 198h-195l-14 49h196l-52 196h49l53 -196h197zM127 299q0 -17 -20 -17q-37 0 -37 38q0 18 22 18q35 0 35 -39z M174 126q0 -18 -23 -18q-36 0 -36 38q0 17 21 17q38 0 38 -37z"/>
            <glyph glyph-name="U1e06" unicode="Ḇ" horiz-adv-x="1284" d="M1100 241q0 -109 -80 -177q-75 -64 -187 -64l-586 -1q-69 0 -69 54q0 29 47 32q-17 -1 70 -1l-268 1002q-78 0 -86 1q-54 9 -54 53q0 31 46 31l486 -1q145 0 268 -82q129 -86 167 -221q10 -33 10 -66q0 -110 -108 -183q145 -47 236 -135q108 -105 108 -242zM1057 -255 q0 -30 -45 -30h-491q-66 0 -66 55q0 30 46 30h487q69 0 69 -55zM775 821q0 114 -111 193q-102 72 -220 72h-333l117 -436h297q96 0 164 37q86 46 86 134zM1012 263q0 95 -85 180q-124 122 -375 122h-302l129 -481h425q85 0 144 46q64 50 64 133z"/>
            <glyph glyph-name="U1e07" unicode="ḇ" horiz-adv-x="1229" d="M1083 265q0 -140 -92.5 -225t-233.5 -85q-218 0 -395 178l36 -133h-155q-69 0 -69 54q0 28 48 32q-17 -1 69 -1l-289 1079q-78 0 -86 1q-54 10 -54 53q0 31 46 31h155l170 -632q82 177 299 177q206 0 378.5 -162t172.5 -367zM1097 -255q0 -30 -45 -30h-491q-66 0 -66 55 q0 30 46 30h487q69 0 69 -55zM1003 285q0 168 -142 302q-140 131 -309 131q-116 0 -192 -69.5t-76 -184.5q0 -168 143 -301q140 -131 308 -131q117 0 192.5 69t75.5 184z"/>
            <glyph glyph-name="U1e0c" unicode="Ḍ" horiz-adv-x="1283" d="M1053 382q0 -166 -93 -271q-98 -111 -261 -111l-452 -1q-69 0 -69 54q0 28 48 32q-17 -1 69 -1l-268 1000q-77 0 -85 1q-55 9 -55 53q0 31 46 31l452 1q314 0 540 -345q51 -78 108 -298q20 -75 20 -145zM809 -297q0 -57 -59 -57q-37 0 -68.5 30t-31.5 67q0 57 59 57 q38 0 69 -30t31 -67zM968 405q0 53 -14 104l-40 152q-44 159 -188 288q-152 137 -310 137h-305l268 -1002h305q129 0 209 98q75 92 75 223z"/>
            <glyph glyph-name="U1e0d" unicode="ḍ" horiz-adv-x="1229" d="M1161 31q0 -31 -46 -31h-155l-36 133q-82 -178 -300 -178q-206 0 -376 161q-174 163 -174 368q0 140 94 226q90 84 232 84q217 0 394 -177l-146 547q-78 0 -86 1q-54 10 -54 53q0 31 46 31l155 -1l312 -1163q77 0 86 -1q54 -10 54 -53zM778 -297q0 -57 -59 -57 q-37 0 -68.5 30t-31.5 67q0 57 59 57q38 0 69 -30t31 -67zM873 286q0 167 -143 301q-140 131 -309 131q-116 0 -191 -68q-77 -71 -77 -186q0 -168 143 -301q139 -131 309 -131q116 0 192 69.5t76 184.5z"/>
            <glyph glyph-name="U1e0e" unicode="Ḏ" horiz-adv-x="1283" d="M1053 382q0 -166 -93 -271q-98 -111 -261 -111l-452 -1q-69 0 -69 54q0 28 48 32q-17 -1 69 -1l-268 1000q-77 0 -85 1q-55 9 -55 53q0 31 46 31l452 1q314 0 540 -345q51 -78 108 -298q20 -75 20 -145zM1057 -255q0 -30 -45 -30h-491q-66 0 -66 55q0 30 46 30h487 q69 0 69 -55zM968 405q0 53 -14 104l-40 152q-44 159 -188 288q-152 137 -310 137h-305l268 -1002h305q129 0 209 98q75 92 75 223z"/>
            <glyph glyph-name="U1e0f" unicode="ḏ" horiz-adv-x="1229" d="M1161 31q0 -31 -46 -31h-155l-36 133q-82 -178 -300 -178q-206 0 -376 161q-174 163 -174 368q0 140 94 226q90 84 232 84q217 0 394 -177l-146 547q-78 0 -86 1q-54 10 -54 53q0 31 46 31l155 -1l312 -1163q77 0 86 -1q54 -10 54 -53zM1037 -255q0 -30 -45 -30h-491 q-66 0 -66 55q0 30 46 30h487q69 0 69 -55zM873 286q0 167 -143 301q-140 131 -309 131q-116 0 -191 -68q-77 -71 -77 -186q0 -168 143 -301q139 -131 309 -131q116 0 192 69.5t76 184.5z"/>
            <glyph glyph-name="U1e24" unicode="Ḥ" horiz-adv-x="1278" d="M1161 30q0 -31 -43 -31h-232q-66 0 -66 54q0 31 46 31h70l-129 482h-557l129 -482q78 0 85 -1q55 -9 55 -53q0 -31 -43 -31h-232q-66 0 -66 54q0 31 46 31h71l-268 1002q-78 0 -85 1q-55 9 -55 53q0 31 43 31h232q66 0 66 -54q0 -31 -46 -31h-71l117 -436h557l-116 436 q-78 0 -85 1q-55 9 -55 53q0 31 43 31h232q66 0 66 -54q0 -31 -46 -31h-71l268 -1002q78 0 85 -1q55 -9 55 -53zM839 -297q0 -57 -59 -57q-37 0 -68.5 30t-31.5 67q0 57 59 57q38 0 69 -30t31 -67z"/>
            <glyph glyph-name="U1e25" unicode="ḥ" horiz-adv-x="1284" d="M1165 30q0 -31 -46 -31h-226q-69 0 -69 54q0 31 46 31h71l-104 385q-27 100 -115 158q-83 55 -190 55q-96 0 -158 -58q-32 -30 -102 -138l108 -402q78 0 85 -1q55 -9 55 -53q0 -31 -46 -31h-226q-69 0 -69 54q0 31 46 31h71l-291 1086q-78 0 -85 1q-55 9 -55 53 q0 31 46 31h155l174 -647q103 158 275 158q138 0 252 -79q119 -82 153 -212l105 -391q78 0 85 -1q55 -9 55 -53zM849 -297q0 -57 -59 -57q-37 0 -68.5 30t-31.5 67q0 57 59 57q38 0 69 -30t31 -67z"/>
            <glyph glyph-name="U1e34" unicode="Ḵ" horiz-adv-x="1320" d="M1201 30q0 -31 -46 -31l-266 1q-69 0 -69 54q0 31 46 31h71l-549 525l-128 -152l100 -374q78 0 85 -1q55 -9 55 -53q0 -31 -43 -31h-232q-66 0 -66 54q0 31 46 31h71l-268 1002q-78 0 -85 1q-55 9 -55 53q0 31 43 31h232q66 0 66 -54q0 -31 -46 -31h-71l138 -517l442 517 q-78 0 -85 1q-55 9 -55 53q0 31 43 31h269q66 0 66 -54q0 -31 -46 -31h-71l-352 -413l620 -589q78 0 85 -1q55 -9 55 -53zM1036 -255q0 -30 -44 -30h-492q-65 0 -65 55q0 30 46 30h486q69 0 69 -55z"/>
            <glyph glyph-name="U1e35" unicode="ḵ" horiz-adv-x="1214" d="M1096 30q0 -31 -43 -31h-264q-66 0 -66 54q0 31 46 31h71l-460 371l-75 -81l79 -290q78 0 85 -1q55 -9 55 -53q0 -31 -43 -31h-234q-66 0 -66 54q0 31 46 31h71l-290 1086q-78 0 -84 1q-56 9 -56 53q0 31 44 31h157l208 -774l276 300q-78 0 -84 1q-56 9 -56 53 q0 31 44 31h276q67 0 67 -54q0 -31 -47 -31h-71l-254 -274l528 -423q78 0 85 -1q55 -9 55 -53zM992 -255q0 -30 -44 -30h-492q-65 0 -65 55q0 30 46 30h486q69 0 69 -55z"/>
            <glyph glyph-name="U1e62" unicode="Ṣ" horiz-adv-x="1229" d="M1013 226q0 -129 -112 -200q-95 -59 -232 -59q-219 0 -387 137q16 -56 16 -72q0 -32 -30 -32q-42 0 -57 56l-62 232q-4 15 -4 26q0 31 30 31q17 0 33 -12q20 -40 55 -101q37 -55 111 -105q112 -76 272 -76q109 0 186 45q93 55 93 156q0 35 -9 65q-48 160 -250 216 q-184 40 -369 81q-205 69 -263 261q-11 38 -11 80q0 119 99 185q86 57 210 57q176 0 333 -111q-12 38 -12 54q0 30 31 30q42 0 57 -56l58 -214q3 -14 3 -25q0 -31 -30 -31q-17 0 -33 12q-19 38 -53 97q-33 49 -97 93q-98 67 -232 67q-96 0 -165 -42q-81 -49 -81 -140 q0 -30 8 -58q45 -152 245 -203q185 -40 369 -80q207 -72 268 -276q12 -42 12 -88zM819 -297q0 -57 -59 -57q-37 0 -68.5 30t-31.5 67q0 57 59 57q38 0 69 -30t31 -67z"/>
            <glyph glyph-name="U1e63" unicode="ṣ" horiz-adv-x="1034" d="M876 159q0 -101 -109 -152q-84 -39 -198 -39q-179 0 -318 91q6 -23 6 -35q0 -27 -28 -27q-38 0 -51 51q-45 169 -45 178q0 29 27 29q29 0 52 -44q34 -63 38 -67q94 -101 296 -101q88 0 157 28q95 36 95 110q0 19 -5 34q-34 112 -203 148q-155 25 -309 50 q-171 46 -211 181q-6 21 -6 45q0 87 99 132q75 35 175 35q156 0 275 -77q-3 11 -3 21q0 29 28 29q39 0 53 -51q38 -142 38 -152q0 -29 -29 -29q-24 0 -45 34l-32 54q-20 24 -52 44q-82 50 -209 50q-73 0 -134 -22q-84 -31 -84 -91q0 -13 4 -25q24 -80 149 -109 q127 -20 254 -41q162 -30 243.5 -106t81.5 -176zM719 -297q0 -57 -59 -57q-37 0 -68.5 30t-31.5 67q0 57 59 57q38 0 69 -30t31 -67z"/>
            <glyph glyph-name="U1e6c" unicode="Ṭ" horiz-adv-x="1241" d="M864 989q0 -31 -31 -31q-38 0 -57 49q-9 39 -19 78h-344l268 -1002q78 0 85 -1q56 -9 56 -53q0 -31 -44 -31h-231q-67 0 -67 54q0 31 46 31h71l-269 1002h-344q24 -85 24 -96q0 -31 -32 -31q-42 0 -57 56l-42 155h941l42 -155q4 -15 4 -25zM819 -297q0 -57 -59 -57 q-37 0 -68.5 30t-31.5 67q0 57 59 57q38 0 69 -30t31 -67z"/>
            <glyph glyph-name="U1e6d" unicode="ṭ" horiz-adv-x="1101" d="M1037 97q0 -46 -103 -91q-88 -39 -176 -39q-128 0 -230 66q-108 70 -140 189l-123 455h-205q-69 0 -69 55q0 30 47 30h205l-94 352q-3 14 -3 24q0 32 30 32q43 0 58 -56l94 -352h406q69 0 69 -55q0 -30 -47 -30h-406l123 -455q22 -80 98 -127q71 -44 158 -44q44 0 127 26 q15 4 71 38q52 32 57 32q19 0 36 -16t17 -34zM769 -297q0 -57 -59 -57q-37 0 -68.5 30t-31.5 67q0 57 59 57q38 0 69 -30t31 -67z"/>
            <glyph glyph-name="U1e6e" unicode="Ṯ" horiz-adv-x="1241" d="M864 989q0 -31 -31 -31q-38 0 -57 49q-9 39 -19 78h-344l268 -1002q78 0 85 -1q56 -9 56 -53q0 -31 -44 -31h-231q-67 0 -67 54q0 31 46 31h71l-269 1002h-344q24 -85 24 -96q0 -31 -32 -31q-42 0 -57 56l-42 155h941l42 -155q4 -15 4 -25zM1042 -255q0 -30 -44 -30h-492 q-65 0 -65 55q0 30 46 30h486q69 0 69 -55z"/>
            <glyph glyph-name="U1e6f" unicode="ṯ" horiz-adv-x="1101" d="M1037 97q0 -46 -103 -91q-88 -39 -176 -39q-128 0 -230 66q-108 70 -140 189l-123 455h-205q-69 0 -69 55q0 30 47 30h205l-94 352q-3 14 -3 24q0 32 30 32q43 0 58 -56l94 -352h406q69 0 69 -55q0 -30 -47 -30h-406l123 -455q22 -80 98 -127q71 -44 158 -44q44 0 127 26 q15 4 71 38q52 32 57 32q19 0 36 -16t17 -34zM1002 -255q0 -30 -44 -30h-492q-65 0 -65 55q0 30 46 30h486q69 0 69 -55z"/>
            <glyph glyph-name="U1e92" unicode="Ẓ" horiz-adv-x="1109" d="M1000 0h-809l-33 122l424 964h-560q24 -85 24 -96q0 -31 -32 -31q-42 0 -57 56l-42 155h725l32 -119l-423 -967h644q-24 85 -24 96q0 31 32 31q42 0 57 -56zM759 -297q0 -57 -59 -57q-37 0 -68.5 30t-31.5 67q0 57 59 57q38 0 69 -30t31 -67z"/>
            <glyph glyph-name="U1e93" unicode="ẓ" horiz-adv-x="1015" d="M905 0h-714l-20 75l413 602h-468q23 -84 23 -92q0 -35 -32 -35q-42 0 -56 53l-42 159h672l20 -75l-417 -603l513 1q-23 84 -23 92q0 35 32 35q42 0 56 -53zM729 -297q0 -57 -59 -57q-37 0 -68.5 30t-31.5 67q0 57 59 57q38 0 69 -30t31 -67z"/>
            <glyph glyph-name="U200c" unicode="‌" horiz-adv-x="41" d="M113 -116h-41l-394 1469h41z"/>
            <glyph glyph-name="U200d" unicode="‍" horiz-adv-x="41" d="M113 -116h-41l-360 1345l-56 -76l-34 27l70 96l-122 97l20 27l122 -97l71 97l34 -27l-70 -97l122 -96l-20 -27l-97 76z"/>
            <glyph glyph-name="U200e" unicode="‎" horiz-adv-x="41" d="M113 -116h-41l-379 1414h196l-94 74l20 28l157 -124l-90 -124l-36 28l57 77h-159z"/>
            <glyph glyph-name="U200f" unicode="‏" horiz-adv-x="41" d="M113 -116h-41l-368 1373h-159l98 -77l-20 -28l-157 124l90 124l36 -28l-54 -74h196z"/>
            <glyph glyph-name="hyphen" unicode="‐" horiz-adv-x="1242" d="M977 573q0 -30 -47 -30h-829q-69 0 -69 54q0 30 47 30h829q69 0 69 -54z"/>
            <glyph glyph-name="quoteleft" unicode="‘" horiz-adv-x="500" d="M173 796q0 -74 -74 -74q-71 0 -112 72q-34 60 -34 137q0 129 108 236l20 -74q16 -46 42 -60q-57 -31 -57 -90q0 -10 3 -20q44 -11 74 -46.5t30 -80.5z"/>
            <glyph glyph-name="quoteright" unicode="’" horiz-adv-x="500" d="M123 952q0 -129 -108 -236l-20 74q-16 46 -42 61q57 31 57 89q0 10 -3 20q-44 11 -74 47t-30 81q0 73 74 73q73 0 113 -71q33 -59 33 -138z"/>
            <glyph glyph-name="quotedblleft" unicode="“" horiz-adv-x="745" d="M417 796q0 -74 -74 -74q-72 0 -113 72q-34 60 -34 137q0 129 109 236l20 -74q16 -46 42 -60q-57 -31 -57 -90q0 -10 2 -20q45 -11 75 -46.5t30 -80.5zM173 796q0 -74 -74 -74q-71 0 -112 72q-34 60 -34 137q0 129 108 236l20 -74q16 -46 42 -60q-57 -31 -57 -90 q0 -10 3 -20q44 -11 74 -46.5t30 -80.5z"/>
            <glyph glyph-name="quotedblright" unicode="”" horiz-adv-x="743" d="M367 952q0 -129 -108 -236l-20 74q-16 46 -42 61q57 31 57 89q0 10 -3 20q-45 11 -75 47t-30 81q0 73 75 73q72 0 113 -71q33 -59 33 -138zM123 952q0 -129 -108 -236l-20 74q-16 46 -42 61q57 31 57 89q0 10 -3 20q-44 11 -74 47t-30 81q0 73 74 73q73 0 113 -71 q33 -59 33 -138z"/>
            <glyph glyph-name="glyph212" unicode="•" horiz-adv-x="1229" d="M741 572q0 -82 -53.5 -132.5t-137.5 -50.5q-120 0 -221 96t-101 217q0 82 53.5 132t136.5 50q121 0 222 -95.5t101 -216.5z"/>
            <glyph glyph-name="overscore" unicode="‾" horiz-adv-x="1229" d="M928 1370q0 -30 -43 -30h-1178q-66 0 -66 55q0 30 44 30h1177q66 0 66 -55z"/>
            <glyph glyph-name="U25cc" unicode="◌" horiz-adv-x="1010" d="M754 682q0 -26 -32 -26q-56 0 -56 55q0 27 34 27q54 0 54 -56zM870 558q0 -28 -33 -28q-55 0 -55 57q0 27 34 27q54 0 54 -56zM608 764q0 -26 -32 -26q-56 0 -56 56q0 27 33 27q55 0 55 -57zM938 412q0 -26 -32 -26q-56 0 -56 55q0 27 34 27q54 0 54 -56zM454 793 q0 -26 -32 -26q-54 0 -54 57q0 26 32 26q54 0 54 -57zM948 267q0 -27 -34 -27q-54 0 -54 57q0 27 32 27q56 0 56 -57zM318 764q0 -26 -34 -26q-54 0 -54 57q0 26 31 26q57 0 57 -57zM898 142q0 -26 -32 -26q-54 0 -54 57q0 27 32 27q54 0 54 -58zM215 683q0 -27 -33 -27 q-54 0 -54 55q0 27 32 27q55 0 55 -55zM796 61q0 -26 -32 -26q-54 0 -54 57q0 26 32 26q54 0 54 -57zM166 556q0 -26 -30 -26q-56 0 -56 58q0 26 32 26q54 0 54 -58zM658 31q0 -27 -32 -27q-54 0 -54 58q0 26 32 26q54 0 54 -57zM176 412q0 -26 -32 -26q-56 0 -56 55 q0 27 34 27q54 0 54 -56zM506 62q0 -27 -34 -27q-54 0 -54 57q0 26 32 26q56 0 56 -56zM244 266q0 -26 -32 -26q-54 0 -54 57q0 27 31 27q55 0 55 -58zM360 142q0 -26 -32 -26q-56 0 -56 57q0 27 32 27q56 0 56 -58z"/>
            <glyph glyph-name="middot" unicode="◯" horiz-adv-x="903" d="M418 652q0 -76 -79 -76q-50 0 -92 39.5t-42 89.5q0 76 79 76q50 0 92 -40t42 -89z"/>
            <glyph glyph-name="U2670" unicode="♰" horiz-adv-x="1350" d="M1159 500q-2 -16 -17 -26h-64q-36 40 -132 68q-84 24 -150 24h-156l110 -416q18 -68 72 -149q59 -89 114 -117l16 -62q-3 -16 -20 -27h-62q-102 96 -130 96q-24 0 -48 -37q-16 -29 -33 -58h-61q-13 0 -31 25l-17 64q52 39 52 183q0 50 -8 82l-112 416h-151 q-70 0 -132 -18q-85 -25 -101 -74h-62q-17 8 -33 28l-17 62q69 75 69 96q0 25 -50 64l-74 50l-16 61q2 16 18 26h64q40 -46 141 -87t211 -41h87l-44 163q-19 69 -69 145q-56 83 -113 112l-17 63q4 15 21 26h62q102 -95 130 -95q22 0 47 37q17 29 33 57h61q17 -7 31 -24 l18 -65q-54 -39 -54 -180q0 -45 52 -239h50q35 -1 50 -1q114 0 189.5 40t91.5 89h63q17 -8 33 -29l17 -61q-68 -76 -68 -96q0 -25 50 -64l72 -50z"/>
            <glyph glyph-name="U2671" unicode="♱" horiz-adv-x="1350" d="M1123 684q-37 -105 -37 -214l-224 121l-215 -1l130 -487q43 -44 168 -178q-95 -15 -180 -94q-128 78 -239 94q31 61 79 177l-131 489h-221l-159 -126q-52 112 -149 206q43 96 43 206l207 -117h234l-69 258l-173 172q99 21 181 107q141 -83 237 -103l-71 -184l67 -250h215 l153 120q51 -108 154 -196zM1032 618l-29 109h-76l29 -109h76zM476 1121l-20 76h-109l20 -76h109zM686 658l-9 32h-127l-42 157h-33l42 -157h-128l9 -32h127l103 -384h33l-103 384h128zM137 618l-29 109h-76l29 -109h76zM797 -76l-21 76h-108l20 -76h109z"/>
            <glyph glyph-name="glyph4" horiz-adv-x="681"/>
            <glyph glyph-name="glyph5" horiz-adv-x="681"/>
            <glyph glyph-name="U0640ThreeQuart" horiz-adv-x="375" d="M416 0h-445l-41 152h445z"/>
            <glyph glyph-name="U0640Quart" horiz-adv-x="125" d="M166 0h-195l-41 152h195z"/>
            <glyph glyph-name="U0640Half" horiz-adv-x="250" d="M291 0h-320l-41 152h320z"/>
            <glyph glyph-name="U0710Medi2" horiz-adv-x="530" d="M571 0h-53q-140 0 -224 116q-10 -184 -117 -297q12 60 12 148q0 233 -56 442q-44 163 -133 394q-94 244 -94 263q0 54 112 134q66 -174 177 -529q25 -106 79 -317q56 -203 218 -203h38z"/>
            <glyph glyph-name="U0710Fina1" horiz-adv-x="530" d="M571 0h-53q-140 0 -224 116q-10 -184 -117 -297q12 60 12 148q0 233 -56 442q-44 163 -133 394q-94 244 -94 263q0 54 112 134q66 -174 177 -529q25 -106 79 -317q56 -203 218 -203h38z"/>
            <glyph glyph-name="U0710Fina2" horiz-adv-x="311" d="M278 96q0 -211 -101 -277q8 41 8 92q0 147 -81 449q-53 186 -107 372q-91 316 -91 334q0 54 112 134q24 -68 84 -277q77 -266 110 -402q66 -263 66 -425z"/>
            <glyph glyph-name="U0710Fina3" horiz-adv-x="311" d="M278 96q0 -211 -101 -277q8 41 8 92q0 147 -81 449q-54 186 -107 372q-91 316 -91 334q0 54 112 134q25 -73 92 -304q71 -249 102 -375q66 -263 66 -425z"/>
            <glyph glyph-name="U0712Init" horiz-adv-x="814" d="M811 129q0 -129 -155 -129h-685l-41 152h689q33 0 33 34q0 59 -101 125q-153 99 -395 99q-29 0 -76 -5q-58 -5 -75 -6q0 151 228 151q180 0 368 -118q210 -133 210 -303z"/>
            <glyph glyph-name="U0712Medi" horiz-adv-x="915" d="M956 0h-985l-41 152h689q33 0 33 34q0 59 -101 125q-153 99 -395 99q-29 0 -76 -5q-58 -5 -75 -6q0 151 228 151q157 0 335 -99q193 -108 232 -248q7 -25 10 -51h105z"/>
            <glyph glyph-name="U0712Fina" horiz-adv-x="1345" d="M1385 0h-939q-141 0 -225 67q-92 73 -92 210q0 50 13 105q53 -123 105 -170q68 -60 189 -60h613q33 0 33 34q0 59 -102 125q-153 99 -395 99q-28 0 -75 -5q-58 -5 -75 -6q0 151 228 151q157 0 334 -99q194 -108 233 -248q7 -25 10 -51h105z"/>
            <glyph glyph-name="U0713Init" horiz-adv-x="1392" d="M1803 -472q0 -92 -186 -92q-212 0 -618 176q-203 87 -596 291q-187 97 -334 97h-98l-41 152h97q154 0 474 -169q253 -134 548 -262q411 -178 549 -178q47 0 47 23q0 27 -63 63q-93 54 -333 172q-207 98 -617 301q-91 45 -270 139q-56 29 -156 96q15 45 109 66l870 -444 q312 -158 341 -174q245 -139 272 -222q5 -16 5 -35z"/>
            <glyph glyph-name="U0713Medi" horiz-adv-x="1445" d="M1803 -472q0 -92 -186 -92q-211 0 -618 176q-214 92 -596 291q-186 97 -334 97h-98l-41 152h97q154 0 474 -169q252 -133 548 -262q411 -178 549 -178q47 0 47 23q0 27 -63 63q-93 54 -333 172q-207 98 -617 301q-95 48 -283 146q-51 27 -143 89q15 45 109 66l492 -251 h638l41 -152h-381q193 -98 385 -195q280 -155 308 -242q5 -16 5 -35z"/>
            <glyph glyph-name="U0713Fina" horiz-adv-x="1708" d="M2067 -472q0 -92 -186 -92q-204 0 -631 184q-193 84 -616 297q-228 115 -324 180q-211 145 -211 268q0 66 57 104q29 -87 94 -162.5t509 -323.5q216 -120 550 -263q413 -177 552 -177q47 0 47 23q0 27 -62 63q-94 54 -334 172q-206 98 -617 301q-88 44 -264 136 q-57 29 -161 99q15 45 108 66l493 -251h637l41 -152h-381l386 -196q281 -155 308 -241q5 -16 5 -35z"/>
            <glyph glyph-name="U0714Init" horiz-adv-x="1392" d="M1803 -472q0 -92 -186 -92q-211 0 -618 176q-214 92 -596 291q-186 97 -334 97h-98l-41 152h97q111 0 319 -94l306 -152l89 141q-125 62 -373 191q-58 29 -162 99q15 45 109 66l870 -444q313 -158 341 -174q246 -140 272 -222q5 -16 5 -35zM1645 -434q0 27 -62.5 63 t-236.5 124q-172 83 -514 249l-90 -141q663 -318 856 -318q47 0 47 23z"/>
            <glyph glyph-name="U0714Medi" horiz-adv-x="1445" d="M1803 -472q0 -92 -186 -92q-324 0 -1214 467q-184 97 -334 97h-98l-41 152h97q111 0 319 -94l306 -152l89 141q-129 64 -385 197q-53 28 -150 93q12 44 109 66l492 -251h638l41 -152h-381l386 -196q281 -155 307 -241q5 -17 5 -35zM1645 -434q0 27 -62.5 63t-236.5 124 q-172 83 -514 249l-90 -141q663 -318 856 -318q47 0 47 23z"/>
            <glyph glyph-name="U0714Fina" horiz-adv-x="1708" d="M2067 -472q0 -92 -186 -92q-204 0 -631 184q-193 84 -616 297q-228 115 -324 181q-211 144 -211 267q0 65 57 104q29 -88 94 -163q53 -60 310 -211q201 -117 353 -192l91 144q-127 63 -379 194q-55 29 -155 96q11 44 108 66l493 -251h637l41 -152h-381l386 -196 q282 -156 308 -241q5 -17 5 -35zM1908 -434q0 27 -62 63t-237 124q-171 83 -514 249l-91 -144q657 -315 857 -315q47 0 47 23z"/>
            <glyph glyph-name="U0715Fina" horiz-adv-x="669" d="M710 0h-162q-97 0 -145 36q19 -70 19 -107q0 -60 -30 -104q-5 64 -122.5 182t-117.5 135q0 24 35 92q34 64 55 86q129 -106 143 -115q81 -53 173 -53h111zM557 -365q0 -19 -22 -49.5t-40 -30.5q-22 0 -65.5 37.5t-43.5 58.5q0 20 21.5 50.5t40.5 30.5q21 0 65 -37.5 t44 -59.5z"/>
            <glyph glyph-name="U0716Fina" horiz-adv-x="669" d="M710 0h-162q-97 0 -145 36q19 -70 19 -107q0 -60 -30 -104q-5 64 -122.5 182t-117.5 135q0 24 35 92q34 64 55 86q129 -106 143 -115q81 -53 173 -53h111z"/>
            <glyph glyph-name="U0717Fina" horiz-adv-x="1003" d="M1044 0h-134q-4 -30 -14 -59q-24 87 -47 174q-38 124 -74 150q-24 -12 -58 -65q-72 -113 -104 -142q-62 -58 -163 -58q-105 0 -201.5 72.5t-123.5 172.5q-15 54 -15 106q0 94 45 155q51 68 141 68q94 0 217 -76q115 -71 174 -155q15 14 50 77q29 53 57 66 q75 -96 113 -334h96zM630 237q-38 74 -128 130t-173 56q-46 0 -99 -16q-66 -20 -79 -52q34 -78 129 -135q92 -55 179 -55q39 0 95 20q66 23 76 52z"/>
            <glyph glyph-name="U0718Fina" horiz-adv-x="742" d="M783 0h-347q-116 0 -212 99q-85 88 -116 210q-9 36 -9 68q0 95 73 149q65 48 164 48q132 0 227 -118q90 -111 90 -246q0 -31 -6 -58h95zM578 186q-3 23 -12 55q-23 81 -107.5 145t-169.5 64q-93 0 -133 -30q28 -105 132 -186.5t212 -81.5q53 0 78 34z"/>
            <glyph glyph-name="U0719Fina" horiz-adv-x="413" d="M454 0h-89q1 -19 1 -37q0 -194 -103 -281q21 70 21 127q0 125 -108 344q-73 149 -73 179q0 26 44.5 95.5t66.5 69.5q44 0 127 -345h72z"/>
            <glyph glyph-name="U071aInit" horiz-adv-x="783" d="M797 88q0 -98 -211 -98q-231 0 -373 88q-35 -51 -88 -67q-34 -11 -111 -11h-43l-41 152h50q51 0 80 47q16 27 31 88q12 48 22 48q11 0 119 -91.5t163 -91.5q84 0 126 184q246 -137 272 -223q4 -11 4 -25z"/>
            <glyph glyph-name="U071aMedi" horiz-adv-x="825" d="M866 0h-175q14 0 -37 -6q-33 -4 -68 -4q-231 0 -373 88q-35 -51 -88 -67q-34 -11 -111 -11h-43l-41 152h50q51 0 80 47q16 27 31 88q12 48 22 48q11 0 119 -91.5t163 -91.5q84 0 126 184q174 -97 249 -184h55z"/>
            <glyph glyph-name="U071aFina" horiz-adv-x="1241" d="M1281 0h-174q14 0 -38 -6q-32 -4 -68 -4q-231 0 -372 88q-61 -88 -197 -88q-129 0 -213 74q-89 77 -89 204q0 44 8 81q91 -197 257 -197q52 0 80 47q16 27 32 88q11 48 22 48q10 0 118.5 -91.5t162.5 -91.5q85 0 126 184q175 -97 249 -184h55z"/>
            <glyph glyph-name="U071bInit" horiz-adv-x="665" d="M773 -293q0 -100 -59.5 -154t-161.5 -54q-111 0 -219.5 85t-138.5 193q-24 84 -24 144q0 33 6 79h-205l-41 152h265q4 15 57 149q123 317 123 479q0 49 -10 87q-30 110 -98 159t-77 79l-1 10q0 31 17 87q20 67 42 67q52 0 127 -142q60 -113 81 -192q15 -61 15 -128 q0 -138 -64 -335q-59 -162 -117 -324q45 -2 118 -24q288 -87 351 -314q14 -53 14 -103zM690 -295q0 13 -5 30q-33 125 -160 195q-107 58 -251 67q-7 -9 -7 -37q0 -30 7 -57q43 -161 247 -233q58 -20 98 -20q71 0 71 55z"/>
            <glyph glyph-name="U071bMedi" horiz-adv-x="1101" d="M1142 0h-41q-206 0 -472 198q-221 164 -371 369q47 -155 47 -275q0 -73 -15 -144q50 -3 130 -28q278 -89 339 -310q14 -53 14 -103q0 -100 -59.5 -154t-161.5 -54q-111 0 -219.5 85t-138.5 193q-23 82 -23 146q0 34 5 77h-205l-41 152h273q18 80 18 156q0 80 -28 201 q-32 136 -72 186q-31 39 -63 78q-39 51 -49 84q10 37 83 138q190 -292 420 -522q321 -321 548 -321h41zM690 -295q0 13 -5 30q-33 125 -160 195q-107 58 -251 67q-5 -10 -5 -38q0 -34 5 -56q43 -161 247 -233q58 -20 98 -20q71 0 71 55z"/>
            <glyph glyph-name="U071bFina" horiz-adv-x="1273" d="M1314 0h-41q-207 0 -472 198q-221 164 -371 369q47 -155 47 -274q0 -62 -11 -127q97 -37 195 -75q105 -44 164 -99q75 -71 105 -182q15 -54 15 -103q0 -100 -59.5 -154t-161.5 -54q-111 0 -220 85t-139 193q-22 82 -22 156q0 47 9 104q-107 36 -129 49q-64 35 -83 105 q-15 51 -15 97q0 41 12 101q133 -123 247 -185q8 52 8 104q0 83 -28 202q-30 134 -71 185q-31 39 -63 78q-40 51 -49 84q9 36 82 138q191 -292 421 -522q321 -321 548 -321h41zM862 -295q0 13 -5 30q-32 124 -165 195q-82 44 -253 84q-1 -20 -1 -37q0 -42 8 -74 q44 -161 247 -233q58 -20 98 -20q71 0 71 55z"/>
            <glyph glyph-name="U071cInit" horiz-adv-x="665" d="M773 -293q0 -100 -59.5 -154t-161.5 -54q-111 0 -219.5 85t-138.5 193q-24 84 -24 144q0 33 6 79h-205l-41 152h265q4 15 57 149q123 317 123 479q0 49 -10 87q-30 110 -98 159t-77 79l-1 10q0 31 17 87q20 67 42 67q52 0 127 -142q60 -113 81 -192q15 -61 15 -128 q0 -138 -64 -335q-59 -162 -117 -324q45 -2 118 -24q288 -87 351 -314q14 -53 14 -103zM690 -295q0 13 -5 30q-33 125 -160 195q-107 58 -251 67q-7 -9 -7 -37q0 -30 7 -57q43 -161 247 -233q58 -20 98 -20q71 0 71 55zM540 -197q0 -44 -46 -44q-28 0 -52 23t-24 51 q0 44 45 44q29 0 53 -23t24 -51z"/>
            <glyph glyph-name="U071cMedi" horiz-adv-x="1101" d="M1142 0h-41q-206 0 -472 198q-221 164 -371 369q47 -155 47 -275q0 -73 -15 -144q50 -3 130 -28q278 -89 339 -310q14 -53 14 -103q0 -100 -59.5 -154t-161.5 -54q-111 0 -219.5 85t-138.5 193q-23 82 -23 146q0 34 5 77h-205l-41 152h273q18 80 18 156q0 80 -28 201 q-32 136 -72 186q-31 39 -63 78q-39 51 -49 84q10 37 83 138q190 -292 420 -522q321 -321 548 -321h41zM690 -295q0 13 -5 30q-33 125 -160 195q-107 58 -251 67q-5 -10 -5 -38q0 -34 5 -56q43 -161 247 -233q58 -20 98 -20q71 0 71 55zM540 -197q0 -44 -46 -44 q-28 0 -52 23t-24 51q0 44 45 44q29 0 53 -23t24 -51z"/>
            <glyph glyph-name="U071cFina" horiz-adv-x="1273" d="M1314 0h-41q-207 0 -472 198q-221 164 -371 369q47 -155 47 -274q0 -62 -11 -127q97 -37 195 -75q105 -44 164 -99q75 -71 105 -182q15 -54 15 -103q0 -100 -59.5 -154t-161.5 -54q-111 0 -220 85t-139 193q-22 82 -22 156q0 47 9 104q-107 36 -129 49q-64 35 -83 105 q-15 51 -15 97q0 41 12 101q133 -123 247 -185q8 52 8 104q0 83 -28 202q-30 134 -71 185q-31 39 -63 78q-40 51 -49 84q9 36 82 138q191 -292 421 -522q321 -321 548 -321h41zM862 -295q0 13 -5 30q-32 124 -165 195q-82 44 -253 84q-1 -20 -1 -37q0 -42 8 -74 q44 -161 247 -233q58 -20 98 -20q71 0 71 55zM712 -197q0 -44 -46 -44q-28 0 -52.5 23t-24.5 51q0 44 46 44q28 0 52.5 -23t24.5 -51z"/>
            <glyph glyph-name="U071dInit" horiz-adv-x="418" d="M432 85q0 -85 -193 -85h-268l-41 152h100q101 0 127 181q248 -138 272 -223q3 -12 3 -25z"/>
            <glyph glyph-name="U071dMedi" horiz-adv-x="545" d="M586 0h-103q-143 0 -197 58q-55 -58 -227 -58h-88l-41 151h96q49 0 70 53q6 16 21 97q10 52 31 52q25 0 160 -101t192 -101h45z"/>
            <glyph glyph-name="U071dFina" horiz-adv-x="842" d="M882 0h-28q-137 0 -218 61q-44 -49 -91 -63q-35 -11 -112 -11q-121 0 -207 69q-93 75 -93 193q0 41 6 97q89 -194 256 -194q57 0 85 53q8 15 33 102q8 25 16 25q28 0 129.5 -90t151.5 -90h32z"/>
            <glyph glyph-name="U071eFina" horiz-adv-x="1657" d="M1698 0h-66q-138 0 -218 61q-68 -74 -220 -74q-75 0 -156 39.5t-129 97.5q4 -64 4 -99q0 -68 -12 -104q-24 92 -49 184q-40 133 -77 160q-24 -12 -58 -65q-72 -113 -104 -142q-63 -58 -163 -58q-105 0 -201.5 72.5t-123.5 172.5q-15 54 -15 106q0 94 45 155q51 68 141 68 q94 0 217 -76q115 -71 174 -155q15 14 50 77q29 53 57 66q49 -64 94 -245q41 43 59 70q114 -159 226 -159q52 0 81 47q16 26 32 86q11 47 21 47q27 0 129 -90t152 -90h69zM453 712q0 -49 -51 -49q-32 0 -59.5 26t-27.5 58q0 49 51 49q33 0 60 -25.5t27 -58.5zM277 886 q0 -50 -52 -50q-32 0 -59 26t-27 58q0 50 51 50q32 0 59.5 -26t27.5 -58zM193 712q0 -49 -51 -49q-33 0 -60 26t-27 58q0 49 51 49q32 0 59.5 -25.5t27.5 -58.5zM567 -198q0 -49 -51 -49q-33 0 -60 25.5t-27 58.5q0 49 51 49q33 0 60 -26t27 -58zM630 237q-38 74 -128 130 t-173 56q-46 0 -99 -16q-66 -20 -79 -52q34 -78 129 -135q92 -55 179 -55q39 0 95 20q66 23 76 52z"/>
            <glyph glyph-name="U071fInit" horiz-adv-x="735" d="M722 159q0 -68 -33 -111q-37 -48 -102 -48h-616l-41 152h586q69 0 69 64q0 13 -4 28q-52 196 -267 196q-103 0 -130 -74q-6 -28 -11 -56q-9 -42 -21 -42q-18 0 -63 56t-51 78q-2 9 -2 20q0 73 72 124q64 46 140 46q368 0 462 -346q12 -46 12 -87z"/>
            <glyph glyph-name="U071fMedi" horiz-adv-x="918" d="M959 0h-988l-41 152h586q69 0 69 64q0 13 -4 28q-52 196 -267 196q-103 0 -130 -74q-6 -28 -11 -56q-9 -42 -21 -42q-18 0 -63 56t-51 78q-2 9 -2 20q0 73 72 124q64 46 140 46q368 0 462 -346q14 -52 12 -94h196z"/>
            <glyph glyph-name="U071fFina" horiz-adv-x="1011" d="M1052 0h-283q25 -96 25 -219q0 -121 -26 -225q-36 -142 -110 -187q14 125 14 227q0 232 -69 404q-215 0 -280 17q-147 39 -187 186q-3 12 -3 28q0 41 18 80q23 -74 99 -119q69 -41 152 -41q95 0 133 80l16 52q14 42 22 42q41 0 161.5 -86.5t216.5 -86.5h60z"/>
            <glyph glyph-name="U0720Init" horiz-adv-x="1079" d="M1104 44q0 -44 -31 -44q-15 0 -28 6q-65 43 -173 114q-57 -120 -171 -120h-730l-41 152h700q108 0 108 46l-1 8l-1093 718q14 69 30 108q398 -260 1192 -781l128 -84q96 -66 105 -92q5 -13 5 -31z"/>
            <glyph glyph-name="U0720Medi" horiz-adv-x="867" d="M908 0h-76q-90 0 -221 101q-48 -101 -179 -101h-461l-41 152h608l-1098 750q13 65 30 108q375 -252 1137 -759q97 -65 122 -76q53 -23 138 -23z"/>
            <glyph glyph-name="U0720Fina" horiz-adv-x="1792" d="M1833 0h-76q-38 0 -219 120q-43 -77 -80 -102q-41 -28 -126 -28q-58 0 -182 81l-1186 775q8 47 37 104q396 -262 1192 -779q88 -56 111 -56q96 0 111 85l-1104 724q6 52 31 108q397 -260 1191 -781q150 -99 219 -99h40z"/>
            <glyph glyph-name="U0721Init" horiz-adv-x="1042" d="M1028 168q0 -183 -195 -183q-110 0 -216 60q-24 -45 -125 -45h-521l-41 152h538q-107 73 -318 220q-55 35 -147 113q2 28 24.5 69.5t45.5 47.5q14 -6 140 -94q87 -60 257 -183q6 87 70.5 143.5t151.5 56.5q126 0 233 -116q103 -114 103 -241zM649 373q-99 0 -99 -61 q0 -53 110 -116q102 -59 160 -59q99 0 99 48q0 61 -106 127q-98 61 -164 61z"/>
            <glyph glyph-name="U0721Medi" horiz-adv-x="1122" d="M1163 0h-240q-39 -15 -90 -15q-110 0 -216 60q-23 -45 -125 -45h-521l-41 152h538q-109 74 -325 225q-52 33 -140 108q1 27 24 69.5t46 47.5q12 -5 121 -81q93 -64 276 -196q6 86 70.5 143t151.5 57q130 0 237.5 -121.5t98.5 -251.5h94zM649 373q-99 0 -99 -61 q0 -53 110 -116q102 -59 160 -59q99 0 99 48q0 61 -106 127q-98 61 -164 61z"/>
            <glyph glyph-name="U0721Fina" horiz-adv-x="1036" d="M1077 0h-265q-42 -15 -91 -15q-158 0 -324 232q1 -20 1 -44q0 -164 -42 -351q-48 -218 -128 -325q15 101 30 201q16 119 16 203q0 295 -149 505q-22 31 -45 62q-24 37 -33 68q11 42 76 125q68 -85 216 -242q58 140 237 140q110 0 215.5 -79.5t133.5 -185.5q14 -54 14 -99 q0 -23 -3 -43h100zM826 197q0 66 -119.5 160t-195.5 94q-36 0 -69 -24q-36 -25 -36 -60q0 -66 137 -151q129 -79 204 -79q27 0 53 17t26 43z"/>
            <glyph glyph-name="U0722Init" horiz-adv-x="350" d="M333 178q0 -72 -36 -122q-40 -56 -109 -56h-217l-41 152h288q-33 65 -67 130q-42 85 -42 136q0 65 98 125q39 -90 79 -181q47 -117 47 -184z"/>
            <glyph glyph-name="U0722Medi" horiz-adv-x="470" d="M511 0h-540l-41 152h288q-33 65 -67 130q-42 85 -42 136q0 65 98 125q39 -90 79 -180q47 -117 47 -189q0 -12 -1 -22h138z"/>
            <glyph glyph-name="U0722Fina" horiz-adv-x="595" d="M1118 -547q-18 -8 -41 -8q-130 0 -354 121t-385 279q-181 177 -181 310q0 68 32 68q29 0 68 -18l64 -30q63 -23 150 -23h124l41 -152h-154q-64 0 -64 -38q0 -97 300 -290q234 -150 400 -219z"/>
            <glyph glyph-name="U0723Init" horiz-adv-x="1105" d="M1078 205q0 -96 -57 -150.5t-154 -54.5h-896l-41 152h289q-124 94 -124 240q0 76 53 119q49 39 127 39q107 0 216 -80q17 -15 53 -41q79 121 224 121q135 0 225 -106q85 -101 85 -239zM939 226q0 11 -4 24q-17 67 -81 109q-60 39 -133 39q-35 0 -66 -30t-31 -66 q0 -53 61 -101.5t116 -48.5q138 0 138 74zM582 209q0 22 -36 64q-105 125 -244 125q-88 0 -88 -59q0 -78 96 -136q84 -51 167 -51q28 0 63 15q42 18 42 42z"/>
            <glyph glyph-name="U0723Medi" horiz-adv-x="1188" d="M1229 0h-1258l-41 152h289q-124 93 -124 240q0 76 53 119q49 39 127 39q102 0 207 -74q20 -17 62 -47q79 121 224 121q135 0 225 -106q85 -101 85 -239q0 -28 -5 -53h115zM939 226q0 11 -4 24q-17 67 -81 109q-60 39 -133 39q-35 0 -66 -30t-31 -66q0 -53 61 -101.5 t116 -48.5q138 0 138 74zM582 209q0 22 -36 64q-105 125 -244 125q-88 0 -88 -59q0 -78 96 -136q84 -51 167 -51q28 0 63 15q42 18 42 42z"/>
            <glyph glyph-name="U0723Fina" horiz-adv-x="1531" d="M1572 0h-1126q-141 0 -225 67q-92 73 -92 210q0 50 13 105q71 -165 156 -204q57 -26 264 -26q-124 93 -124 240q0 76 53 119q49 39 127 39q106 0 213 -78q19 -16 57 -43q79 121 223 121q136 0 225 -106q85 -101 85 -239q0 -28 -5 -53h115zM1282 226q0 11 -3 24 q-18 67 -82 109q-60 39 -132 39q-36 0 -67 -30t-31 -66q0 -53 63 -103q59 -47 114 -47q138 0 138 74zM925 209q0 22 -35 64q-106 125 -245 125q-87 0 -87 -59q0 -78 95 -136q84 -51 167 -51q28 0 63 15q42 18 42 42z"/>
            <glyph glyph-name="U0724Init" horiz-adv-x="1105" d="M1078 205q0 -96 -57 -150.5t-154 -54.5h-896l-41 152h289q-124 94 -124 240q0 76 53 119q49 39 127 39q107 0 216 -80q17 -15 53 -41q79 121 224 121q135 0 225 -106q85 -101 85 -239zM939 226q0 11 -4 24q-17 67 -81 109q-60 39 -133 39q-35 0 -66 -30t-31 -66 q0 -53 61 -101.5t116 -48.5q138 0 138 74zM582 209q0 22 -36 64q-105 125 -244 125q-88 0 -88 -59q0 -78 96 -136q84 -51 167 -51q28 0 63 15q42 18 42 42z"/>
            <glyph glyph-name="U0724Medi" horiz-adv-x="1188" d="M1229 0h-1258l-41 152h289q-124 93 -124 240q0 76 53 119q49 39 127 39q102 0 207 -74q20 -17 62 -47q79 121 224 121q135 0 225 -106q85 -101 85 -239q0 -28 -5 -53h115zM939 226q0 11 -4 24q-17 67 -81 109q-60 39 -133 39q-35 0 -66 -30t-31 -66q0 -53 61 -101.5 t116 -48.5q138 0 138 74zM582 209q0 22 -36 64q-105 125 -244 125q-88 0 -88 -59q0 -78 96 -136q84 -51 167 -51q28 0 63 15q42 18 42 42z"/>
            <glyph glyph-name="U0724Fina" horiz-adv-x="1188" d="M1229 0h-510q25 -98 25 -149q0 -73 -49 -73q-52 0 -52 143q0 44 -6 79h-88q-161 0 -303 114q-151 121 -151 278q0 76 53 119q49 39 127 39q107 0 216 -78q17 -14 52 -39q77 117 225 117q135 0 225 -107q85 -100 85 -238q0 -28 -5 -53h115zM939 226q0 11 -4 24 q-17 68 -77 109q-56 39 -128 39q-107 0 -107 -82q0 -59 58.5 -111.5t119.5 -52.5q138 0 138 74zM582 209q0 22 -36 64q-105 125 -244 125q-88 0 -88 -59q0 -78 96 -136q84 -51 167 -51q28 0 63 15q42 18 42 42z"/>
            <glyph glyph-name="U0725Init" horiz-adv-x="740" d="M762 71q-45 -71 -102 -71q-73 0 -242 109q-48 -62 -76 -81q-41 -28 -107 -28h-264l-41 152h436q-60 46 -202 166q-75 63 -218 195q2 28 70 89q133 -118 405 -347q230 -184 341 -184z"/>
            <glyph glyph-name="U0725Medi" horiz-adv-x="693" d="M734 0h-74q-73 0 -242 109q-48 -62 -76 -81q-41 -28 -107 -28h-264l-41 152h436q-122 98 -241 200q-62 52 -179 161q2 28 70 89q133 -118 405 -347q128 -103 191 -103h81z"/>
            <glyph glyph-name="U0725Fina" horiz-adv-x="1140" d="M1181 0h-73q-73 0 -243 109q-47 -62 -76 -81q-41 -28 -106 -28q-66 0 -209 115q-122 97 -235 192q-67 56 -192 173q24 58 70 86q498 -445 563 -445q70 0 103 56q-56 42 -180 147q-72 61 -209 189q1 27 69 89q133 -118 405 -347q129 -103 191 -103h81z"/>
            <glyph glyph-name="U0726Init" horiz-adv-x="910" d="M879 218q0 -218 -304 -218h-604l-41 152h603q246 0 246 100q0 105 -154 219q-7 -24 -23 -70q-53 -126 -215 -126q-137 0 -232 72q-105 79 -105 212q0 178 220 178q152 0 350 -132q204 -136 243 -278q16 -58 16 -109zM563 513q-144 93 -272 93q-138 0 -138 -74 q0 -115 203 -115q176 0 207 96z"/>
            <glyph glyph-name="U0726Medi" horiz-adv-x="988" d="M1029 0h-1058l-41 152h603q246 0 246 100q0 105 -154 219q-7 -25 -25 -75q-53 -121 -213 -121q-137 0 -232 72q-105 79 -105 212q0 178 220 178q153 0 350 -132q203 -136 243 -278q16 -57 16 -109q0 -36 -9 -66h118zM563 513q-144 93 -272 93q-138 0 -138 -74 q0 -115 203 -115q176 0 207 96z"/>
            <glyph glyph-name="U0726Fina" horiz-adv-x="1232" d="M1273 0h-827q-108 0 -188 43q-93 51 -118 147q-6 23 -6 46q0 18 3 40q72 -124 299 -124h355q232 0 232 100q0 105 -154 219q-7 -26 -26 -78q-54 -118 -212 -118q-137 0 -232 72q-104 79 -104 212q0 178 219 178q153 0 350 -132q203 -136 243 -278q16 -57 16 -109 q0 -36 -8 -66h117zM807 513q-144 93 -272 93q-138 0 -138 -74q0 -115 203 -115q176 0 207 96z"/>
            <glyph glyph-name="U0727Init" horiz-adv-x="1082" d="M1079 140q0 -140 -211 -140h-897l-41 152h188q-95 115 -95 235q0 129 127 241q124 109 254 109q124 0 218 -66q97 -69 127 -188q8 -29 8 -53q0 -80 -75 -122q-60 -33 -147 -33q-159 0 -276 119q-22 26 -67 77q-55 -67 -55 -141q0 -178 306 -178h353q228 0 232 124 q51 -72 51 -136zM643 489q0 62 -68 93q-52 24 -121 24q-128 0 -223 -93q83 -96 259 -96q153 0 153 72z"/>
            <glyph glyph-name="U0727Medi" horiz-adv-x="988" d="M1029 0h-1058l-41 152h188q-95 115 -95 235q0 129 127 241q124 109 254 109q125 0 218 -66q97 -69 127 -188q8 -29 8 -53q0 -80 -75 -122q-60 -33 -147 -33q-158 0 -275 119q-23 26 -68 77q-55 -67 -55 -141q0 -178 318 -178h533zM643 489q0 62 -68 93q-52 24 -121 24 q-128 0 -223 -93q83 -96 259 -96q153 0 153 72z"/>
            <glyph glyph-name="U0727Fina" horiz-adv-x="988" d="M1029 0h-534q-379 0 -464 327q-8 31 -8 60q0 129 127 241q124 109 254 109q125 0 218 -66q96 -69 127 -188q8 -29 8 -53q0 -80 -75 -122q-60 -33 -147 -33q-164 0 -286 130l-57 66q-55 -67 -55 -141q0 -178 318 -178h533zM643 489q0 62 -68 93q-52 24 -121 24 q-128 0 -223 -93q83 -96 259 -96q153 0 153 72z"/>
            <glyph glyph-name="U0728Fina" horiz-adv-x="534" d="M606 -443q0 -95 -61.5 -150t-158.5 -55q-152 0 -350 95q-230 110 -230 246q0 13 2 34q105 -100 286.5 -173t326.5 -73q104 0 104 69q0 48 -51.5 124.5t-51.5 109.5q0 21 8.5 63t8.5 64q0 68 -38 117q-22 28 -73 62q-38 27 -38 40q0 18 28.5 69.5t43.5 59.5 q36 -26 89 -107h83l41 -152h-82q-18 -67 -18 -99q0 -57 65.5 -152.5t65.5 -191.5z"/>
            <glyph glyph-name="U0729Init" horiz-adv-x="803" d="M779 211q0 -104 -85 -166q-76 -55 -184 -55q-102 0 -206 64q-53 -54 -176 -54h-157l-41 152h121q116 0 129 24q-79 81 -79 202q0 107 72 173q69 64 177 64q143 0 264 -99q118 -97 155 -237q10 -35 10 -68zM710 207q-38 102 -160.5 179t-233.5 77q-41 0 -85 -25 q-50 -28 -56 -64q138 -232 425 -232q88 0 110 65z"/>
            <glyph glyph-name="U0729Medi" horiz-adv-x="869" d="M910 0h-315q8 0 -27 -6q-29 -4 -58 -4q-102 0 -206 64q-53 -54 -176 -54h-157l-41 152h119q118 0 131 24q-79 82 -79 202q0 107 72 173q69 64 177 64q143 0 264 -99q117 -96 155 -237q10 -35 10 -68q0 -31 -9 -59h99zM710 207q-38 102 -160.5 179t-233.5 77 q-41 0 -85 -25q-50 -28 -56 -64q138 -232 425 -232q88 0 110 65z"/>
            <glyph glyph-name="U0729Fina" horiz-adv-x="1256" d="M1297 0h-315q8 0 -27 -6q-29 -4 -58 -4q-102 0 -206 64q-53 -54 -175 -54q-327 0 -381 208q-6 22 -6 43q0 34 13 65q80 -165 294 -165q118 0 131 25q-79 82 -79 202q0 107 72 173q69 64 177 64q143 0 264 -99q117 -96 155 -237q10 -35 10 -68q0 -31 -9 -59h99zM1097 207 q-38 102 -160.5 179t-233.5 77q-41 0 -85 -25q-50 -28 -56 -64q138 -232 425 -232q88 0 110 65z"/>
            <glyph glyph-name="U072aFina" horiz-adv-x="669" d="M254 551q0 -20 -21.5 -50.5t-39.5 -30.5q-22 0 -65.5 37.5t-43.5 59.5q0 19 21.5 49.5t39.5 30.5q22 0 65.5 -37.5t43.5 -58.5zM710 0h-162q-97 0 -145 36q19 -70 19 -107q0 -60 -30 -104q-5 64 -122.5 182t-117.5 135q0 24 35 92q34 64 55 86q131 -107 143 -115 q82 -54 173 -54h111z"/>
            <glyph glyph-name="U072bInit" horiz-adv-x="935" d="M941 128q-7 -69 -66 -107q-52 -34 -125 -34q-135 0 -265 78q-110 -65 -260 -65h-254l-41 152h172q-1 21 -10 69q-9 44 -9 72q0 181 196 181q127 0 212 -95l140 -176q94 -96 244 -96q36 0 66 21z"/>
            <glyph glyph-name="U072bMedi" horiz-adv-x="793" d="M834 0h-93q-148 0 -256 65q-110 -65 -260 -65h-254l-41 152h172q-2 21 -10 70q-9 45 -9 71q0 181 196 181q117 0 200 -83q3 -4 115 -155q61 -84 128 -84h71z"/>
            <glyph glyph-name="U072bFina" horiz-adv-x="1149" d="M1190 0h-93q-148 0 -256 65q-109 -65 -260 -65h-135q-141 0 -225 67q-92 73 -92 210q0 48 12 100q48 -117 118 -169q76 -56 199 -56q-1 21 -10 69q-8 44 -8 72q0 181 195 181q118 0 200 -83q3 -4 115 -155q61 -84 128 -84h71z"/>
            <glyph glyph-name="U072cFina" horiz-adv-x="1272" d="M1313 0h-103q-212 0 -530 275q-239 207 -424 454q74 -273 74 -443q0 -57 -7 -109q104 -14 202 -44q151 -46 151 -100q0 -32 -24 -129q-183 102 -301 102q-63 0 -187 -64q89 251 89 383q0 127 -45 287q-8 27 -60 135q-45 95 -45 122q0 65 104 134q268 -389 427 -549 q300 -302 593 -302h45z"/>
            <glyph glyph-name="U0720U0710Isol" horiz-adv-x="684" d="M638 177q0 -192 -135 -192q-117 0 -206 93q-51 -182 -147 -250q49 144 49 249q0 54 -12 136q-75 127 -137 327q-13 43 -94 344q-49 180 -49 201q0 50 118 115q47 -193 149 -577q142 -486 278 -486q54 0 54 83q0 111 -92 410q-67 212 -135 424q-3 10 -3 19q0 56 112 127 q65 -223 190 -670q60 -227 60 -353z"/>
            <glyph glyph-name="U0720U0710Fina" horiz-adv-x="744" d="M785 0h-217q-27 -15 -65 -15q-117 0 -206 93q-51 -182 -147 -250q49 144 49 249q0 54 -12 136q-75 127 -137 327q-14 45 -94 344q-49 180 -49 201q0 50 118 115q47 -193 149 -577q142 -486 278 -486q54 0 54 83q0 111 -92 410q-67 212 -135 424q-3 10 -3 19q0 56 112 127 q65 -223 190 -670q66 -248 59 -378h107z"/>
            <glyph glyph-name="U0728U0722Fina" horiz-adv-x="783" d="M997 -648q-76 32 -170 92q-57 -92 -189 -92q-152 0 -350 95q-231 110 -231 246q0 13 3 34q104 -100 286 -173t326 -73q47 0 75 18q-155 112 -330 282q-223 217 -257 335q-2 6 -2 13q0 54 109 128q120 -224 496 -653q-7 20 -53 93q-37 58 -37 87q0 21 9 63t9 64 q0 69 -39 118q-22 27 -72 61q-39 26 -39 40q0 18 28.5 69t43.5 60q37 -26 89 -107h83l41 -152h-82q-17 -66 -17 -99q0 -57 65 -152.5t65 -191.5q0 -27 -5 -52q82 -89 145 -153z"/>
            <glyph glyph-name="U0710U0720Isol" horiz-adv-x="2048" d="M2048 46q0 -46 -33 -46q-23 0 -83 38q-120 77 -1354 886q5 52 30 108q376 -253 941 -618l315 -204q45 -28 135 -87q49 -34 49 -77zM1595 46q0 -46 -33 -46q-23 0 -210 120q-54 -85 -79 -103q-37 -27 -127 -27q-59 0 -183 81l-1185 775q7 47 37 104q396 -262 1192 -779 q89 -57 116 -57q36 0 68.5 25t38.5 60l-1105 725q6 52 30 108q297 -200 1192 -781q67 -42 134 -83q97 -64 111 -94q3 -9 3 -28z"/>
            <glyph glyph-name="U0710U0720Fina" horiz-adv-x="2048" d="M2089 0h-99q-39 0 -341 199l-1105 725q6 52 30 108q356 -240 1192 -781q154 -99 219 -99h63zM1562 46q0 -46 -33 -46q-24 0 -210 120q-54 -85 -79 -103q-38 -27 -128 -27q-59 0 -182 81l-1186 775q8 47 37 104q396 -262 1192 -779q89 -57 116 -57q36 0 68.5 25t38.5 60 l-1105 725q6 52 31 108q297 -200 1191 -781q67 -42 134 -83q97 -64 111 -94q4 -9 4 -28z"/>
            <glyph glyph-name="U0710U0720Init" horiz-adv-x="1648" d="M1648 46q0 -46 -33 -46q-23 0 -82 38q-121 77 -1355 886q6 52 30 108q376 -253 941 -618l315 -204q45 -28 135 -87q49 -34 49 -77zM1173 46q0 -46 -33 -46q-23 0 -211 120q-52 -81 -85 -100.5t-123 -19.5h-750l-41 152h787q84 0 90 47l-1105 725q5 50 31 108 q295 -199 890 -584q161 -103 480 -312q70 -47 70 -90z"/>
            <glyph glyph-name="U0710U0720Medi" horiz-adv-x="1681" d="M1722 0h-98q-39 0 -341 199l-1105 725q6 52 30 108q356 -240 1192 -781q154 -99 219 -99h62zM1173 46q0 -46 -33 -46q-23 0 -211 120q-52 -81 -85 -100.5t-123 -19.5h-750l-41 152h787q84 0 90 47l-1105 725q5 50 31 108q295 -199 890 -584q161 -103 480 -312 q70 -47 70 -90z"/>
            <glyph glyph-name="U0713U0720Isol" horiz-adv-x="1878" d="M2212 -526q0 -57 -49 -89q-42 -26 -104 -26q-142 0 -273 88q-61 41 -221 191t-430 421q-91 -84 -186 -84q-104 0 -247 136q-127 121 -461 450q-183 182 -548 546q14 29 76 93l999 -983q98 -97 156 -97q28 0 55 17t31 43l-941 930q11 21 79 90q502 -498 1511 -1490 q212 -206 344 -206q39 0 39 28q0 13 -4 24q-12 30 -130 145q-198 195 -595 584q2 24 30 52t53 37q150 -142 589 -580q65 -64 130 -129q71 -79 92 -155q5 -18 5 -36z"/>
            <glyph glyph-name="U0713U0720Fina" horiz-adv-x="2048" d="M2212 -526q0 -57 -49 -89q-42 -26 -104 -26q-142 0 -273 88q-61 40 -221 190.5t-430 421.5q-91 -84 -186 -84q-104 0 -247 136q-128 121 -461 450q-184 182 -548 546q12 26 76 93l999 -983q98 -97 156 -97q28 0 55 17t31 43l-941 930q8 17 79 90q503 -498 1511 -1490 q212 -206 344 -206q39 0 39 28q0 12 -4 24q-11 29 -130 145q-198 195 -595 584q1 23 30.5 52t52.5 37q86 -81 229 -222h423l41 -152h-310l206 -206q65 -64 130 -129q71 -79 92 -155q5 -18 5 -36z"/>
            <glyph glyph-name="U0713U0720Init" horiz-adv-x="1702" d="M2036 -526q0 -57 -50 -89q-41 -26 -103 -26q-143 0 -273 88q-61 41 -221 191t-430 421q-65 -59 -169 -59h-819l-41 152h934l-971 958q10 21 79 90q502 -498 1511 -1490q212 -206 343 -206q40 0 40 28q0 13 -5 24q-11 30 -129 145q-198 195 -595 584q2 24 30 52t53 37 q150 -142 589 -580q65 -64 130 -129q71 -79 92 -155q5 -18 5 -36z"/>
            <glyph glyph-name="U0713U0720Medi" horiz-adv-x="1858" d="M2036 -526q0 -57 -50 -89q-41 -26 -103 -26q-143 0 -273 88q-61 40 -221 190.5t-430 421.5q-65 -59 -169 -59h-819l-41 152h934l-971 958q8 17 79 90q503 -498 1511 -1490q211 -206 343 -206q40 0 40 28q0 12 -5 24q-10 29 -129 145q-198 195 -595 584q1 23 30.5 52 t52.5 37q85 -81 229 -222h410l41 -152h-298l207 -206q65 -64 130 -129q71 -79 92 -155q5 -18 5 -36z"/>
            <glyph glyph-name="U0713U0725Isol" horiz-adv-x="1608" d="M1940 -525q0 -55 -37.5 -85.5t-94.5 -30.5q-140 0 -286 92q-32 20 -245 187q-201 157 -519 421q-73 -84 -168 -84q-99 0 -276 136q-105 81 -478 391q8 29 57 93l464 -378q119 -97 177 -97q27 0 51.5 17t22.5 43l-396 325q6 20 60 90q361 -295 1085 -885 q253 -206 387 -206q34 0 34 20q0 39 -171 177l-719 584l-1 6q0 21 22 48t44 35q177 -140 711 -580q80 -65 159 -129q93 -85 114 -163q3 -12 3 -27z"/>
            <glyph glyph-name="U0713U0725Fina" horiz-adv-x="1713" d="M1940 -525q0 -55 -37.5 -85.5t-94.5 -30.5q-140 0 -286 92q-32 20 -245 187q-200 157 -519 421q-73 -84 -168 -84q-99 0 -276 136q-106 81 -478 391q7 26 57 93l464 -378q119 -97 177 -97q27 0 51.5 17t22.5 43l-396 325q6 21 60 90q361 -295 1085 -885 q252 -206 387 -206q34 0 34 20q0 39 -171 177l-719 584l-1 6q0 21 22.5 48.5t43.5 34.5q102 -81 275 -222h485l41 -152h-340l250 -206q80 -65 159 -129q93 -86 114 -163q3 -12 3 -27z"/>
            <glyph glyph-name="U0713U0725Init" horiz-adv-x="1304" d="M1633 -525q0 -55 -37.5 -85.5t-94.5 -30.5q-140 0 -286 92q-32 21 -245 187q-201 158 -519 421q-58 -59 -177 -59h-303l-41 152h402l-427 353q6 20 60 90q361 -295 1085 -885q253 -206 387 -206q34 0 34 20q0 39 -171 177l-719 584l-1 6q0 21 22 48t44 35 q174 -138 711 -580q80 -65 159 -129q92 -85 114 -163q3 -12 3 -27z"/>
            <glyph glyph-name="U0713U0725Medi" horiz-adv-x="1456" d="M1633 -525q0 -55 -37.5 -85.5t-94.5 -30.5q-140 0 -286 92q-32 20 -245 187q-200 157 -519 421q-57 -59 -177 -59h-303l-41 152h402l-427 353q6 20 60 90q362 -295 1085 -885q252 -206 387 -206q34 0 34 20q0 39 -171 177l-719 584l-1 6q0 21 22.5 48.5t43.5 34.5 q103 -81 275 -222h535l41 -152h-390l250 -206q80 -65 159 -129q93 -86 114 -163q3 -12 3 -27z"/>
            <glyph glyph-name="U071bU0725Isol" horiz-adv-x="1228" d="M1318 -339q0 -162 -202 -162q-121 0 -231 97q-103 91 -138 212q-21 72 -21 148q0 79 21 167q-96 -123 -199 -123q-68 0 -212 115q-106 85 -225 185q-69 58 -199 180q23 58 70 86q498 -445 563 -445q81 0 121 65q-140 103 -409 322q1 29 71 94q15 -12 457 -364q3 9 51 127 q104 256 104 406q0 53 -12 96q-30 110 -98 159t-77 79l-1 10q0 31 17 87q20 67 42 67q52 0 127 -142q60 -113 81 -192q16 -63 16 -132q0 -133 -62 -319q-56 -154 -111 -308q199 -147 251 -190q167 -141 191 -230q14 -53 14 -95zM1222 -296q0 87 -391 362q-5 -33 -5 -67 q0 -53 11 -96q29 -106 116 -178q89 -75 196 -75q73 0 73 54z"/>
            <glyph glyph-name="U071bU0725Fina" horiz-adv-x="1660" d="M1701 0h-41q-206 0 -472 198q-221 164 -371 369q47 -155 47 -275q0 -54 -8 -107q172 -130 251 -198q175 -151 197 -231q14 -53 14 -95q0 -162 -202 -162q-121 0 -231 97q-103 91 -138 212q-21 71 -21 148q0 79 21 167q-96 -123 -199 -123q-68 0 -212 115 q-102 82 -224 184q-69 58 -200 181q23 58 70 86q498 -445 563 -445q81 0 121 65q-140 103 -409 322q2 31 71 94q204 -170 449 -358q3 32 3 64q0 80 -28 202q-32 135 -72 185q-31 39 -63 78q-39 51 -49 84q10 37 83 138q190 -292 420 -522q321 -321 548 -321h41zM1222 -296 q0 87 -391 362q-5 -33 -5 -67q0 -53 11 -96q29 -106 116 -178q89 -75 196 -75q73 0 73 54z"/>
            <glyph glyph-name="U071bU0725Init" horiz-adv-x="1026" d="M1116 -339q0 -162 -202 -162q-121 0 -231 97q-103 91 -138 212q-21 72 -21 148q0 79 21 167q-55 -70 -69 -83q-42 -40 -95 -40h-410l-41 152h486q37 0 48 34q-140 103 -409 322q1 29 71 94q15 -12 457 -364q4 12 49 122q106 260 106 411q0 53 -12 96q-30 110 -98 159 t-77 79l-1 10q0 31 17 87q20 67 42 67q52 0 127 -142q60 -113 81 -192q16 -63 16 -132q0 -133 -62 -319q-56 -154 -111 -308q199 -147 251 -190q167 -141 191 -230q14 -53 14 -95zM1020 -296q0 87 -391 362q-5 -33 -5 -67q0 -53 11 -96q29 -106 116 -178q89 -75 196 -75 q73 0 73 54z"/>
            <glyph glyph-name="U071bU0725Medi" horiz-adv-x="1458" d="M1499 0h-41q-206 0 -472 198q-221 164 -371 369q47 -155 47 -275q0 -55 -8 -108q180 -136 251 -198q175 -150 197 -230q14 -53 14 -95q0 -162 -202 -162q-121 0 -231 97q-103 91 -138 212q-21 71 -21 148q0 79 21 167q-55 -70 -69 -83q-43 -40 -95 -40h-410l-41 152h486 q37 0 48 34q-140 103 -409 322q2 31 71 94q126 -105 449 -358q3 32 3 64q0 80 -28 202q-32 135 -72 185q-31 39 -63 78q-39 51 -49 84q9 36 83 138q190 -292 420 -522q321 -321 548 -321h41zM1020 -296q0 87 -391 362q-5 -33 -5 -67q0 -53 11 -96q29 -106 116 -178 q89 -75 196 -75q73 0 73 54z"/>
            <glyph glyph-name="U071dU072cIsol" horiz-adv-x="1622" d="M1635 95q0 -60 -131 -89q-90 -21 -188 -21q-504 0 -1061 744q74 -274 74 -443q0 -57 -7 -109q104 -14 202 -44q151 -46 151 -100q0 -32 -24 -129q-183 102 -301 102q-63 0 -187 -64q89 251 89 383q0 127 -45 287q-8 27 -59 135q-46 95 -46 122q0 65 104 134 q272 -394 447 -564q310 -302 622 -302q62 0 79 73l8 123q273 -153 273 -238z"/>
            <glyph glyph-name="U071bU072cFina" horiz-adv-x="1762" d="M207 1003q-104 -69 -104 -134q0 -26 45 -121q52 -109 60 -136q45 -159 45 -287q0 -132 -89 -383q124 64 187 64q118 0 301 -102q24 96 24 129q0 54 -151 100q-98 30 -202 44q7 52 7 109q0 170 -74 443q556 -744 1040 -744q140 0 207 73q41 -44 142 -55q32 -3 158 -3 l-41 151h-45q-56 0 -191.5 101t-160.5 101q-23 0 -41.5 -108.5t-68.5 -108.5q-310 0 -612 304q-153 153 -436 563z"/>
            <glyph glyph-name="U071fU0720Isol" horiz-adv-x="1978" d="M1959 186q0 -102 -86 -156q-72 -45 -179 -45q-203 0 -405 135q-45 -78 -79 -102q-42 -28 -127 -28q-58 0 -182 81l-1186 775q7 44 37 104q396 -262 1192 -779q87 -56 111 -56q96 0 111 85l-1104 724q6 51 31 108q540 -364 1191 -781q106 -68 174 -90q76 -24 195 -24 q170 0 170 95q0 18 -5 35q-51 173 -261 173q-96 0 -126 -65q-3 -5 -15 -63q-9 -44 -21 -44q-18 0 -63 55q-40 50 -50 75q-3 7 -3 24q0 73 72 124q65 46 140 46q371 0 456 -325q12 -45 12 -81z"/>
            <glyph glyph-name="U071fU0720Fina" horiz-adv-x="2048" d="M2089 0h-286q5 0 -30 -7q-39 -8 -79 -8q-203 0 -405 135q-45 -78 -79 -102q-42 -28 -127 -28q-58 0 -182 81l-1186 775q7 44 37 104q397 -261 1192 -779q87 -56 111 -56q95 0 111 85l-1104 724q6 51 31 108q531 -358 1191 -781q106 -68 174 -90q76 -24 195 -24 q170 0 170 95q0 18 -5 35q-50 173 -261 173q-103 0 -131 -76l-10 -54q-9 -42 -21 -42q-18 0 -63 55q-41 51 -50 75q-3 8 -3 24q0 73 72 124q65 46 140 46q372 0 456 -325q12 -45 12 -81q0 -18 -2 -34h91z"/>
            <glyph glyph-name="U071fU0720Init" horiz-adv-x="1709" d="M1690 186q0 -102 -86 -156q-72 -45 -179 -45q-203 0 -406 135q-43 -76 -80.5 -98t-122.5 -22h-845l-41 152h860q99 0 107 48l-1104 724q5 50 31 108q507 -342 1191 -781q106 -68 174 -90q76 -24 195 -24q170 0 170 95q0 17 -5 35q-24 85 -99 131q-69 42 -162 42 q-105 0 -132 -77q-5 -27 -9 -54q-9 -41 -21 -41q-18 0 -63 55q-42 52 -50 75q-3 8 -3 24q0 73 72 124q64 46 140 46q373 0 456 -325q12 -46 12 -81z"/>
            <glyph glyph-name="U071fU0720Medi" horiz-adv-x="1778" d="M1819 0h-286l-24 -6q-42 -9 -84 -9q-203 0 -406 135q-43 -76 -80.5 -98t-122.5 -22h-845l-41 152h860q99 0 107 48l-1104 724q5 50 31 108q495 -334 1191 -781q106 -68 174 -90q76 -24 195 -24q170 0 170 95q0 17 -5 35q-23 84 -99 131q-70 42 -162 42q-96 0 -126 -63 q-3 -7 -15 -64q-9 -45 -21 -45q-18 0 -63 55q-42 52 -50 75q-3 9 -3 24q0 73 72 124q64 46 140 46q371 0 456 -325q12 -44 12 -81q0 -18 -3 -34h91z"/>
            <glyph glyph-name="U071fU072cIsol" horiz-adv-x="1623" d="M256 729q74 -274 74 -443q0 -57 -7 -109q104 -14 202 -44q151 -46 151 -100q0 -32 -24 -129q-183 102 -301 102q-62 0 -187 -64q89 251 89 383q0 127 -45 287q-8 27 -60 135q-45 95 -45 122q0 65 104 134q68 -102 207 -303q414 -563 884 -563q170 0 170 95q0 17 -5 35 q-24 85 -99 131q-69 42 -162 42q-104 0 -131 -77l-10 -54q-8 -41 -21 -41q-18 0 -63 55q-41 52 -50 75q-3 8 -3 24q0 73 72 124q65 46 140 46q373 0 457 -325q11 -46 11 -81q0 -102 -85 -156q-73 -45 -180 -45q-322 0 -622 240q-208 165 -461 504z"/>
            <glyph glyph-name="U071fU072cFina" horiz-adv-x="1684" d="M1602 152h82l41 -152h-277l-24 -6q-42 -9 -85 -9q-322 0 -622 240q-208 165 -461 504q74 -274 74 -443q0 -57 -7 -109q104 -14 202 -44q151 -46 151 -100q0 -32 -24 -129q-183 102 -301 102q-62 0 -187 -64q89 251 89 383q0 127 -45 287q-8 27 -60 135q-45 95 -45 122 q0 65 104 134q68 -102 207 -303q414 -563 884 -563q170 0 170 95q0 17 -5 35q-23 84 -99 131q-69 42 -162 42q-100 0 -129 -70l-12 -58q-9 -44 -21 -44q-18 0 -63 55q-41 52 -50 75q-3 8 -3 24q0 73 72 124q65 46 140 46q371 0 457 -325q11 -44 11 -81q0 -18 -2 -34z"/>
            <glyph glyph-name="U0720U0020U0710Fina" horiz-adv-x="1572" d="M1613 0h-76q-37 0 -219 120q-45 -78 -79 -102q-41 -28 -127 -28q-58 0 -182 81l-320 210q97 -151 97 -241q0 -56 -50 -151q-56 72 -123.5 236.5t-73.5 253.5l-716 467q6 42 37 104l685 -450q5 34 33 156l-408 268q6 50 31 108q135 -91 393 -260q-2 77 -51 139 q-26 32 -95 86q-54 42 -61 67.5t-7 49.5q0 43 34 86q65 -27 141 -109.5t93 -147.5q11 -41 11 -87q0 -51 -13 -118l746 -487q150 -99 219 -99h40zM1195 200l-653 428q-19 -87 -19 -135q0 -16 2 -31l448 -291q87 -56 111 -56q95 0 111 85z"/>
            <glyph glyph-name="U0720U0720Isol" horiz-adv-x="1990" d="M2014 46q0 -46 -33 -46q-23 0 -210 120q-49 -76 -69 -95q-40 -35 -109 -35q-102 0 -274 130q-54 -85 -80 -103q-37 -27 -127 -27q-59 0 -182 81l-1186 775q7 44 37 104q396 -262 1192 -779q89 -57 116 -57q36 0 68.5 25t38.5 60l-1105 725q6 51 31 108 q398 -260 1191 -781q207 -137 248 -137q32 0 57 26t31 59l-1105 725q5 51 30 108q238 -160 1192 -781l134 -84q98 -64 110 -93q4 -9 4 -28z"/>
            <glyph glyph-name="U0720U0720Fina" horiz-adv-x="2048" d="M2089 0h-99q-32 0 -219 120q-48 -76 -69 -95q-40 -35 -109 -35q-102 0 -274 130q-54 -85 -80 -103q-37 -27 -127 -27q-58 0 -182 81l-1186 775q8 47 37 104q396 -262 1192 -779q89 -57 116 -57q36 0 68 25t39 60l-1105 725q6 52 31 108q398 -260 1191 -781 q207 -137 248 -137q32 0 57 26t31 59l-1105 725q6 52 30 108q326 -220 1192 -781q154 -99 237 -99h45z"/>
            <glyph glyph-name="U0720U0720Init" horiz-adv-x="1440" d="M1462 46q0 -46 -33 -46q-23 0 -210 120q-49 -77 -69 -95q-40 -35 -109 -35q-102 0 -274 130q-53 -82 -83 -100q-33 -20 -122 -20h-591l-41 152h604q102 0 110 47l-1105 725q6 51 31 108q398 -260 1191 -781q207 -137 248 -137q32 0 57 26t31 59l-1105 725q5 51 30 108 q128 -86 1192 -781l134 -84q100 -65 110 -93q4 -10 4 -28z"/>
            <glyph glyph-name="U0720U0720Medi" horiz-adv-x="1490" d="M1531 0h-93q-32 0 -219 120q-49 -76 -69 -95q-40 -35 -109 -35q-102 0 -274 130q-53 -82 -83 -100q-33 -20 -122 -20h-591l-41 152h604q102 0 110 47l-1105 725q6 51 31 108q398 -260 1191 -781q207 -137 248 -137q32 0 57 26t31 59l-1105 725q5 51 30 108 q221 -149 1192 -781q152 -99 232 -99h44z"/>
            <glyph glyph-name="U0722U0710Isol" horiz-adv-x="846" d="M828 182q0 -93 -68 -147q-62 -50 -157 -50q-214 0 -309 131q-10 -184 -117 -297q12 60 12 148q0 234 -56 442q-44 164 -133 394q-94 244 -94 263q0 55 112 134q66 -174 177 -529q25 -106 79 -317q61 -217 282 -217q65 0 157 15q-34 65 -67 130q-42 85 -42 136 q0 65 98 125q39 -90 78 -179q48 -119 48 -182z"/>
            <glyph glyph-name="U0722U0710Fina" horiz-adv-x="938" d="M979 0h-284q14 0 -35 -10q-28 -5 -57 -5q-214 0 -309 131q-10 -184 -117 -297q12 60 12 148q0 234 -56 442q-44 165 -133 394q-94 244 -94 263q0 55 112 134q66 -174 177 -529q25 -106 79 -317q61 -217 282 -217q65 0 157 15q-34 65 -67 130q-42 85 -42 136q0 65 98 125 l78 -178q47 -118 47 -188q0 -13 -1 -25h112z"/>
            <glyph glyph-name="U0723U071bIsol" horiz-adv-x="1230" d="M1029 855q0 -96 -57 -150.5t-154 -54.5h-187q-21 -99 -76 -244q-82 -218 -89 -240q98 -38 195 -76q107 -43 164 -95q74 -69 105 -185q15 -54 15 -103q0 -100 -59.5 -154t-161.5 -54q-111 0 -220 85t-139 193q-22 82 -22 156q0 47 9 104q-107 36 -129 49q-63 35 -83 105 q-15 51 -15 97q0 41 12 101q134 -124 250 -187q4 14 57 148q72 181 95 300h-39q-161 0 -303 114q-151 121 -151 278q0 76 53 119q49 39 127 39q104 0 210 -74q19 -15 58 -43q77 117 225 117q135 0 225 -106q85 -101 85 -239zM890 876q0 11 -4 24q-17 68 -75 108t-130 40 q-107 0 -107 -82q0 -59 58.5 -111.5t119.5 -52.5q138 0 138 74zM533 859q0 22 -36 64q-105 125 -244 125q-88 0 -88 -59q0 -78 96 -136q84 -51 167 -51q28 0 63 15q42 18 42 42zM862 -295q0 13 -5 30q-32 124 -165 195q-82 44 -253 84q-1 -20 -1 -37q0 -42 8 -74 q44 -161 247 -233q58 -20 98 -20q71 0 71 55z"/>
            <glyph glyph-name="U0723U071bFina" d="M769 567l-183 -567h-88l-465 567l160 571h88zM678 567l-419 493l-140 -493l404 -492z"/>
            <glyph glyph-name="U0723U071bInit" horiz-adv-x="1230" d="M857 855q0 -96 -57 -150.5t-153 -54.5h-193q-21 -105 -74 -253q-45 -125 -90 -249q45 -2 118 -24q288 -87 351 -314q14 -53 14 -103q0 -100 -59.5 -154t-161.5 -54q-111 0 -219.5 85t-138.5 193q-24 83 -24 144q0 33 6 79h-205l-41 152h265q5 16 55 143q85 219 111 355 h-33q-161 0 -303 114q-151 121 -151 278q0 76 53 119q49 39 127 39q106 0 214 -76q18 -15 55 -41q76 117 224 117q136 0 225 -107q85 -100 85 -238zM718 876q0 11 -3 24q-18 68 -76 108t-130 40q-107 0 -107 -82q0 -59 58.5 -111.5t119.5 -52.5q138 0 138 74zM361 859 q0 22 -35 64q-106 125 -245 125q-87 0 -87 -59q0 -78 95 -136q84 -51 167 -51q28 0 63 15q42 18 42 42zM690 -295q0 13 -5 30q-33 125 -160 195q-107 58 -251 67q-7 -9 -7 -37q0 -30 7 -57q43 -161 247 -233q58 -20 98 -20q71 0 71 55z"/>
            <glyph glyph-name="U0723U071bMedi" d="M769 567l-183 -567h-88l-465 567l160 571h88zM678 567l-419 493l-140 -493l404 -492z"/>
            <glyph glyph-name="U071bU0720Isol" horiz-adv-x="1800" d="M1607 802q0 -132 -61 -318q-55 -153 -111 -307q402 -267 445 -432q13 -47 13 -84q0 -162 -206 -162q-109 0 -218.5 85.5t-140.5 192.5q-29 100 -29 193q0 74 20 150q-55 -85 -79 -103q-38 -27 -128 -27q-59 0 -182 81l-1186 775q7 44 37 104q396 -262 1192 -779 q89 -57 116 -57q36 0 68.5 25t38.5 60l-1105 725q6 51 31 108q110 -74 852 -550q128 -82 380 -249q87 214 104 265q53 158 53 276q0 52 -11 93q-30 110 -96 157q-69 50 -79 81l-1 10q0 31 17 87q20 67 42 67q52 0 127 -142q61 -114 80 -192q17 -66 17 -133zM1405 61 q-6 -22 -6 -60q0 -59 10 -98q26 -97 114 -173q91 -80 187 -80q85 0 85 55q0 11 -3 22q-15 53 -173 178q-107 86 -214 156z"/>
            <glyph glyph-name="U071bU0720Fina" horiz-adv-x="2048" d="M2089 0h-41q-206 0 -472 198q-221 164 -371 369q47 -156 47 -272q0 -59 -10 -118q402 -267 445 -432q12 -47 12 -84q0 -162 -205 -162q-110 0 -219 85.5t-140 192.5q-29 100 -29 193q0 74 19 150q-54 -85 -79 -103q-37 -27 -127 -27q-59 0 -183 81l-1185 775q6 44 37 104 q396 -262 1191 -779q90 -57 117 -57q36 0 68 25t39 60l-1105 725q5 51 30 108q112 -75 854 -550q128 -82 381 -249q5 41 5 80q0 80 -28 199q-32 132 -72 183q-31 39 -63 77q-38 49 -49 85q11 39 83 138q190 -292 420 -522q321 -321 548 -321h41zM1212 61q-7 -22 -7 -60 q0 -59 11 -98q26 -97 113 -173q91 -80 188 -80q85 0 85 55q0 11 -4 22q-15 53 -173 178q-107 86 -213 156z"/>
            <glyph glyph-name="U071bU0720Init" horiz-adv-x="1375" d="M1468 -339q0 -162 -205 -162q-109 0 -218.5 86t-140.5 192q-29 102 -29 193q0 74 19 150q-52 -82 -82 -100q-33 -20 -122 -20h-719l-41 152h737q98 0 105 47l-1105 725q5 50 31 108q110 -74 852 -550q128 -82 380 -249q88 218 104 265q53 158 53 276q0 52 -11 93 q-31 110 -97 158q-69 50 -78 80l-1 10q0 31 16 87q21 67 43 67q52 0 127 -142q59 -113 80 -192q17 -63 17 -133q0 -132 -61 -318q-56 -153 -111 -307q403 -268 445 -432q12 -48 12 -84zM1371 -295q0 11 -3 22q-15 53 -173 178q-108 86 -214 156q-7 -22 -7 -60q0 -59 11 -98 q26 -97 113 -173q92 -80 188 -80q85 0 85 55z"/>
            <glyph glyph-name="U071bU0720Medi" horiz-adv-x="1818" d="M1859 0h-42q-206 0 -472 198q-220 164 -371 369q47 -156 47 -272q0 -59 -10 -118q403 -268 445 -432q12 -48 12 -84q0 -162 -205 -162q-109 0 -218.5 86t-140.5 192q-29 101 -29 193q0 74 19 150q-52 -82 -82 -100q-33 -20 -122 -20h-719l-41 152h737q98 0 105 47 l-1105 725q6 51 31 108q111 -75 853 -550q128 -82 381 -249q5 41 5 80q0 79 -28 199q-32 133 -71 183q-32 39 -63 77q-40 51 -50 85q10 37 83 138q191 -292 421 -522q321 -321 547 -321h42zM1371 -295q0 11 -3 22q-15 53 -173 178q-108 86 -214 156q-7 -22 -7 -60 q0 -59 11 -98q26 -97 113 -173q92 -80 188 -80q85 0 85 55z"/>
            <glyph glyph-name="U072aU0308Fina" horiz-adv-x="669" d="M438 555q0 -20 -22.5 -52.5t-42.5 -32.5q-22 0 -68 39.5t-46 62.5q0 20 22.5 52.5t41.5 32.5q23 0 69 -39.5t46 -62.5zM150 555q0 -20 -22.5 -52.5t-41.5 -32.5q-23 0 -69 39.5t-46 62.5q0 20 23 52.5t42 32.5q23 0 68.5 -39.5t45.5 -62.5zM710 0h-162q-97 0 -145 36 q19 -70 19 -107q0 -60 -30 -104q-5 64 -122.5 182t-117.5 135q0 24 35 92q34 64 55 86q131 -107 143 -115q82 -54 173 -54h111z"/>
            <glyph glyph-name="U0725U0020U0710Isol" horiz-adv-x="1492" d="M1514 71q-45 -71 -102 -71q-73 0 -242 109q-48 -62 -76 -81q-41 -28 -107 -28q-65 0 -209 115q-121 97 -235 192q-66 56 -191 173q23 58 70 86q498 -445 562 -445q70 0 104 56q-60 44 -189 154q-69 59 -201 182q1 27 70 89q133 -118 405 -347q230 -184 341 -184zM278 96 q0 -211 -101 -277q8 41 8 92q0 147 -81 449q-53 186 -107 372q-91 316 -91 334q0 54 112 134q25 -73 92 -304q71 -249 102 -375q66 -263 66 -425z"/>
            <glyph glyph-name="U0725U0020U0710Fina" horiz-adv-x="1445" d="M1486 0h-74q-73 0 -242 109q-48 -62 -76 -81q-41 -28 -107 -28q-65 0 -209 115q-121 97 -235 192q-66 56 -191 173q23 58 70 86q498 -445 562 -445q70 0 104 56q-56 42 -180 147q-72 61 -210 189q1 27 70 89q133 -118 405 -347q129 -103 191 -103h81zM278 96 q0 -211 -101 -277q8 41 8 92q0 147 -81 449q-54 186 -107 372q-91 316 -91 334q0 54 112 134q24 -68 84 -277q77 -266 110 -402q66 -263 66 -425z"/>
            <glyph glyph-name="U071cU0725Isol" horiz-adv-x="1228" d="M1318 -339q0 -162 -202 -162q-121 0 -231 97q-103 91 -138 212q-21 72 -21 148q0 79 21 167q-96 -123 -199 -123q-68 0 -212 115q-106 85 -225 185q-69 58 -199 180q23 58 70 86q498 -445 563 -445q81 0 121 65q-140 103 -409 322q1 29 71 94q15 -12 457 -364q3 9 51 127 q104 256 104 406q0 53 -12 96q-30 110 -98 159t-77 79l-1 10q0 31 17 87q20 67 42 67q52 0 127 -142q60 -113 81 -192q16 -63 16 -132q0 -133 -62 -319q-56 -154 -111 -308q199 -147 251 -190q167 -141 191 -230q14 -53 14 -95zM1222 -296q0 87 -391 362q-5 -33 -5 -67 q0 -53 11 -96q29 -106 116 -178q89 -75 196 -75q73 0 73 54zM1070 -197q0 -44 -45 -44q-29 0 -53 23t-24 51q0 44 45 44q29 0 53 -23t24 -51z"/>
            <glyph glyph-name="U071cU0725Fina" horiz-adv-x="1660" d="M1701 0h-41q-206 0 -472 198q-221 164 -371 369q47 -155 47 -275q0 -54 -8 -107q172 -130 251 -198q175 -151 197 -231q14 -53 14 -95q0 -162 -202 -162q-121 0 -231 97q-103 91 -138 212q-21 71 -21 148q0 79 21 167q-96 -123 -199 -123q-68 0 -212 115 q-102 82 -224 184q-69 58 -200 181q23 58 70 86q498 -445 563 -445q81 0 121 65q-140 103 -409 322q2 31 71 94q204 -170 449 -358q3 32 3 64q0 80 -28 202q-32 135 -72 185q-31 39 -63 78q-39 51 -49 84q10 37 83 138q190 -292 420 -522q321 -321 548 -321h41zM1222 -296 q0 87 -391 362q-5 -33 -5 -67q0 -53 11 -96q29 -106 116 -178q89 -75 196 -75q73 0 73 54zM1070 -197q0 -44 -45 -44q-29 0 -53 23t-24 51q0 44 45 44q29 0 53 -23t24 -51z"/>
            <glyph glyph-name="U071cU0725Init" horiz-adv-x="1026" d="M1116 -339q0 -162 -202 -162q-121 0 -231 97q-103 91 -138 212q-21 72 -21 148q0 79 21 167q-55 -70 -69 -83q-42 -40 -95 -40h-410l-41 152h486q37 0 48 34q-140 103 -409 322q1 29 71 94q15 -12 457 -364q4 12 49 122q106 260 106 411q0 53 -12 96q-30 110 -98 159 t-77 79l-1 10q0 31 17 87q20 67 42 67q52 0 127 -142q60 -113 81 -192q16 -63 16 -132q0 -133 -62 -319q-56 -154 -111 -308q199 -147 251 -190q167 -141 191 -230q14 -53 14 -95zM1020 -296q0 87 -391 362q-5 -33 -5 -67q0 -53 11 -96q29 -106 116 -178q89 -75 196 -75 q73 0 73 54zM868 -197q0 -44 -45 -44q-29 0 -53 23t-24 51q0 44 45 44q29 0 53 -23t24 -51z"/>
            <glyph glyph-name="U071cU0725Medi" horiz-adv-x="1458" d="M1499 0h-41q-206 0 -472 198q-221 164 -371 369q47 -155 47 -275q0 -55 -8 -108q180 -136 251 -198q175 -150 197 -230q14 -53 14 -95q0 -162 -202 -162q-121 0 -231 97q-103 91 -138 212q-21 71 -21 148q0 79 21 167q-55 -70 -69 -83q-43 -40 -95 -40h-410l-41 152h486 q37 0 48 34q-140 103 -409 322q2 31 71 94q126 -105 449 -358q3 32 3 64q0 80 -28 202q-32 135 -72 185q-31 39 -63 78q-39 51 -49 84q9 36 83 138q190 -292 420 -522q321 -321 548 -321h41zM1020 -296q0 87 -391 362q-5 -33 -5 -67q0 -53 11 -96q29 -106 116 -178 q89 -75 196 -75q73 0 73 54zM868 -197q0 -44 -45 -44q-29 0 -53 23t-24 51q0 44 45 44q29 0 53 -23t24 -51z"/>
            <glyph glyph-name="U072cU0720Isol" horiz-adv-x="1800" d="M1607 802q0 -132 -61 -318q-55 -153 -111 -307q402 -267 445 -432q13 -47 13 -84q0 -162 -206 -162q-109 0 -218.5 85.5t-140.5 192.5q-29 100 -29 193q0 74 20 150q-55 -85 -79 -103q-38 -27 -128 -27q-59 0 -182 81l-1186 775q7 44 37 104q396 -262 1192 -779 q89 -57 116 -57q36 0 68.5 25t38.5 60l-1105 725q6 51 31 108q110 -74 852 -550q128 -82 380 -249q87 214 104 265q53 158 53 276q0 52 -11 93q-30 110 -96 157q-69 50 -79 81l-1 10q0 31 17 87q20 67 42 67q52 0 127 -142q61 -114 80 -192q17 -66 17 -133zM1405 61 q-6 -22 -6 -60q0 -59 10 -98q26 -97 114 -173q91 -80 187 -80q85 0 85 55q0 11 -3 22q-15 53 -173 178q-107 86 -214 156zM1631 -197q0 -44 -45 -44q-29 0 -53 23t-24 51q0 44 45 44q29 0 53 -23t24 -51z"/>
            <glyph glyph-name="U072cU0720Fina" horiz-adv-x="2048" d="M2089 0h-41q-206 0 -472 198q-221 164 -371 369q47 -156 47 -272q0 -59 -10 -118q402 -267 445 -432q12 -47 12 -84q0 -162 -205 -162q-110 0 -219 85.5t-140 192.5q-29 100 -29 193q0 74 19 150q-54 -85 -79 -103q-37 -27 -127 -27q-59 0 -183 81l-1185 775q6 44 37 104 q396 -262 1191 -779q90 -57 117 -57q36 0 68 25t39 60l-1105 725q5 51 30 108q112 -76 854 -550q128 -82 381 -249q5 41 5 80q0 80 -28 199q-32 132 -72 183q-31 39 -63 77q-38 49 -49 85q11 39 83 138q190 -292 420 -522q321 -321 548 -321h41zM1212 61q-7 -22 -7 -60 q0 -59 11 -98q26 -97 113 -173q91 -80 188 -80q85 0 85 55q0 11 -4 22q-15 53 -173 178q-107 86 -213 156zM1438 -197q0 -44 -45 -44q-29 0 -53 23t-24 51q0 44 45 44q29 0 53 -23t24 -51z"/>
            <glyph glyph-name="U072cU0720Init" horiz-adv-x="1375" d="M1468 -339q0 -162 -205 -162q-109 0 -218.5 86t-140.5 192q-29 102 -29 193q0 74 19 150q-52 -82 -82 -100q-33 -20 -122 -20h-719l-41 152h737q98 0 105 47l-1105 725q5 50 31 108q110 -74 852 -550q128 -82 380 -249q88 218 104 265q53 158 53 276q0 52 -11 93 q-31 110 -97 158q-69 50 -78 80l-1 10q0 31 16 87q21 67 43 67q52 0 127 -142q59 -113 80 -192q17 -63 17 -133q0 -132 -61 -318q-56 -153 -111 -307q403 -268 445 -432q12 -48 12 -84zM1371 -295q0 11 -3 22q-15 53 -173 178q-108 86 -214 156q-7 -22 -7 -60q0 -59 11 -98 q26 -97 113 -173q92 -80 188 -80q85 0 85 55zM1207 -197q0 -44 -45 -44q-29 0 -53 23t-24 51q0 44 45 44q29 0 53 -23t24 -51z"/>
            <glyph glyph-name="U072cU0720Medi" horiz-adv-x="1818" d="M1859 0h-42q-206 0 -472 198q-220 164 -371 369q47 -156 47 -272q0 -59 -10 -118q403 -268 445 -432q12 -48 12 -84q0 -162 -205 -162q-109 0 -218.5 86t-140.5 192q-29 101 -29 193q0 74 19 150q-52 -82 -82 -100q-33 -20 -122 -20h-719l-41 152h737q98 0 105 47 l-1105 725q6 51 31 108q111 -75 853 -550q128 -82 381 -249q5 41 5 80q0 79 -28 199q-32 133 -71 183q-32 39 -63 77q-40 51 -50 85q10 37 83 138q191 -292 421 -522q321 -321 547 -321h42zM1371 -295q0 11 -3 22q-15 53 -173 178q-108 86 -214 156q-7 -22 -7 -60 q0 -59 11 -98q26 -97 113 -173q92 -80 188 -80q85 0 85 55zM1207 -197q0 -44 -45 -44q-29 0 -53 23t-24 51q0 44 45 44q29 0 53 -23t24 -51z"/>
            <glyph glyph-name="glyph479" d="M769 567l-183 -567h-88l-465 567l160 571h88zM678 567l-419 493l-140 -493l404 -492z"/>
            <glyph glyph-name="glyph480" d="M769 567l-183 -567h-88l-465 567l160 571h88zM678 567l-419 493l-140 -493l404 -492z"/>
            <glyph glyph-name="glyph481" d="M769 567l-183 -567h-88l-465 567l160 571h88zM678 567l-419 493l-140 -493l404 -492z"/>
            <glyph glyph-name="glyph482" d="M769 567l-183 -567h-88l-465 567l160 571h88zM678 567l-419 493l-140 -493l404 -492z"/>
            <glyph glyph-name="glyph483" d="M769 567l-183 -567h-88l-465 567l160 571h88zM678 567l-419 493l-140 -493l404 -492z"/>
            <glyph glyph-name="glyph484" d="M769 567l-183 -567h-88l-465 567l160 571h88zM678 567l-419 493l-140 -493l404 -492z"/>
            <glyph glyph-name="glyph485" d="M769 567l-183 -567h-88l-465 567l160 571h88zM678 567l-419 493l-140 -493l404 -492z"/>
            <glyph glyph-name="glyph486" d="M769 567l-183 -567h-88l-465 567l160 571h88zM678 567l-419 493l-140 -493l404 -492z"/>
            <glyph glyph-name="glyph487" d="M769 567l-183 -567h-88l-465 567l160 571h88zM678 567l-419 493l-140 -493l404 -492z"/>
            <glyph glyph-name="glyph488" d="M769 567l-183 -567h-88l-465 567l160 571h88zM678 567l-419 493l-140 -493l404 -492z"/>
            <glyph glyph-name="glyph489" d="M769 567l-183 -567h-88l-465 567l160 571h88zM678 567l-419 493l-140 -493l404 -492z"/>
            <glyph glyph-name="glyph490" d="M769 567l-183 -567h-88l-465 567l160 571h88zM678 567l-419 493l-140 -493l404 -492z"/>
            <glyph glyph-name="glyph491" d="M769 567l-183 -567h-88l-465 567l160 571h88zM678 567l-419 493l-140 -493l404 -492z"/>
            <glyph glyph-name="glyph492" d="M769 567l-183 -567h-88l-465 567l160 571h88zM678 567l-419 493l-140 -493l404 -492z"/>
            <glyph glyph-name="glyph493" d="M769 567l-183 -567h-88l-465 567l160 571h88zM678 567l-419 493l-140 -493l404 -492z"/>
            <glyph glyph-name="glyph494" d="M769 567l-183 -567h-88l-465 567l160 571h88zM678 567l-419 493l-140 -493l404 -492z"/>
            <glyph glyph-name="glyph495" d="M769 567l-183 -567h-88l-465 567l160 571h88zM678 567l-419 493l-140 -493l404 -492z"/>
            <glyph glyph-name="glyph496" d="M769 567l-183 -567h-88l-465 567l160 571h88zM678 567l-419 493l-140 -493l404 -492z"/>
            <glyph glyph-name="glyph497" d="M769 567l-183 -567h-88l-465 567l160 571h88zM678 567l-419 493l-140 -493l404 -492z"/>
            <glyph glyph-name="glyph498" d="M769 567l-183 -567h-88l-465 567l160 571h88zM678 567l-419 493l-140 -493l404 -492z"/>
            <glyph glyph-name="glyph499" d="M769 567l-183 -567h-88l-465 567l160 571h88zM678 567l-419 493l-140 -493l404 -492z"/>
            <glyph glyph-name="glyph500" d="M769 567l-183 -567h-88l-465 567l160 571h88zM678 567l-419 493l-140 -493l404 -492z"/>
            <glyph glyph-name="glyph501" d="M769 567l-183 -567h-88l-465 567l160 571h88zM678 567l-419 493l-140 -493l404 -492z"/>
            <glyph glyph-name="glyph502" d="M769 567l-183 -567h-88l-465 567l160 571h88zM678 567l-419 493l-140 -493l404 -492z"/>
            <glyph glyph-name="glyph503" d="M769 567l-183 -567h-88l-465 567l160 571h88zM678 567l-419 493l-140 -493l404 -492z"/>
            <glyph glyph-name="glyph504" d="M769 567l-183 -567h-88l-465 567l160 571h88zM678 567l-419 493l-140 -493l404 -492z"/>
            <glyph glyph-name="glyph505" d="M769 567l-183 -567h-88l-465 567l160 571h88zM678 567l-419 493l-140 -493l404 -492z"/>
            <glyph glyph-name="glyph506" d="M769 567l-183 -567h-88l-465 567l160 571h88zM678 567l-419 493l-140 -493l404 -492z"/>
            <glyph glyph-name="glyph507" d="M769 567l-183 -567h-88l-465 567l160 571h88zM678 567l-419 493l-140 -493l404 -492z"/>
            <glyph glyph-name="glyph508" d="M769 567l-183 -567h-88l-465 567l160 571h88zM678 567l-419 493l-140 -493l404 -492z"/>
            <glyph glyph-name="glyph509" d="M769 567l-183 -567h-88l-465 567l160 571h88zM678 567l-419 493l-140 -493l404 -492z"/>
            <glyph glyph-name="glyph510" d="M769 567l-183 -567h-88l-465 567l160 571h88zM678 567l-419 493l-140 -493l404 -492z"/>
            <glyph glyph-name="glyph511" d="M769 567l-183 -567h-88l-465 567l160 571h88zM678 567l-419 493l-140 -493l404 -492z"/>
            <glyph glyph-name="glyph512" d="M769 567l-183 -567h-88l-465 567l160 571h88zM678 567l-419 493l-140 -493l404 -492z"/>
            <glyph glyph-name="glyph513" d="M769 567l-183 -567h-88l-465 567l160 571h88zM678 567l-419 493l-140 -493l404 -492z"/>
            <glyph glyph-name="glyph514" d="M769 567l-183 -567h-88l-465 567l160 571h88zM678 567l-419 493l-140 -493l404 -492z"/>
            <glyph glyph-name="glyph515" d="M769 567l-183 -567h-88l-465 567l160 571h88zM678 567l-419 493l-140 -493l404 -492z"/>
            <glyph glyph-name="glyph516" d="M769 567l-183 -567h-88l-465 567l160 571h88zM678 567l-419 493l-140 -493l404 -492z"/>
            <glyph glyph-name="glyph517" d="M769 567l-183 -567h-88l-465 567l160 571h88zM678 567l-419 493l-140 -493l404 -492z"/>
            <glyph glyph-name="glyph518" d="M769 567l-183 -567h-88l-465 567l160 571h88zM678 567l-419 493l-140 -493l404 -492z"/>
            <glyph glyph-name="glyph519" d="M769 567l-183 -567h-88l-465 567l160 571h88zM678 567l-419 493l-140 -493l404 -492z"/>
            <glyph glyph-name="glyph520" d="M769 567l-183 -567h-88l-465 567l160 571h88zM678 567l-419 493l-140 -493l404 -492z"/>
            <glyph glyph-name="glyph521" d="M769 567l-183 -567h-88l-465 567l160 571h88zM678 567l-419 493l-140 -493l404 -492z"/>
            <glyph glyph-name="glyph522" d="M769 567l-183 -567h-88l-465 567l160 571h88zM678 567l-419 493l-140 -493l404 -492z"/>
            <glyph glyph-name="glyph523" d="M769 567l-183 -567h-88l-465 567l160 571h88zM678 567l-419 493l-140 -493l404 -492z"/>
            <glyph glyph-name="glyph524" d="M769 567l-183 -567h-88l-465 567l160 571h88zM678 567l-419 493l-140 -493l404 -492z"/>
            <glyph glyph-name="glyph525" d="M769 567l-183 -567h-88l-465 567l160 571h88zM678 567l-419 493l-140 -493l404 -492z"/>
            <glyph glyph-name="glyph526" d="M769 567l-183 -567h-88l-465 567l160 571h88zM678 567l-419 493l-140 -493l404 -492z"/>
            <glyph glyph-name="glyph527" d="M769 567l-183 -567h-88l-465 567l160 571h88zM678 567l-419 493l-140 -493l404 -492z"/>
            <glyph glyph-name="glyph528" d="M769 567l-183 -567h-88l-465 567l160 571h88zM678 567l-419 493l-140 -493l404 -492z"/>
            <glyph glyph-name="glyph529" d="M769 567l-183 -567h-88l-465 567l160 571h88zM678 567l-419 493l-140 -493l404 -492z"/>
            <glyph glyph-name="glyph530" d="M769 567l-183 -567h-88l-465 567l160 571h88zM678 567l-419 493l-140 -493l404 -492z"/>
            <glyph glyph-name="glyph531" d="M769 567l-183 -567h-88l-465 567l160 571h88zM678 567l-419 493l-140 -493l404 -492z"/>
            <glyph glyph-name="glyph532" d="M769 567l-183 -567h-88l-465 567l160 571h88zM678 567l-419 493l-140 -493l404 -492z"/>
            <glyph glyph-name="glyph533" d="M769 567l-183 -567h-88l-465 567l160 571h88zM678 567l-419 493l-140 -493l404 -492z"/>
            <glyph glyph-name="glyph534" d="M769 567l-183 -567h-88l-465 567l160 571h88zM678 567l-419 493l-140 -493l404 -492z"/>
            <glyph glyph-name="glyph535" d="M769 567l-183 -567h-88l-465 567l160 571h88zM678 567l-419 493l-140 -493l404 -492z"/>
            <glyph glyph-name="glyph536" d="M769 567l-183 -567h-88l-465 567l160 571h88zM678 567l-419 493l-140 -493l404 -492z"/>
            <glyph glyph-name="glyph537" d="M769 567l-183 -567h-88l-465 567l160 571h88zM678 567l-419 493l-140 -493l404 -492z"/>
            <glyph glyph-name="glyph538" d="M769 567l-183 -567h-88l-465 567l160 571h88zM678 567l-419 493l-140 -493l404 -492z"/>
            <glyph glyph-name="glyph539" d="M769 567l-183 -567h-88l-465 567l160 571h88zM678 567l-419 493l-140 -493l404 -492z"/>
            <glyph glyph-name="glyph540" d="M769 567l-183 -567h-88l-465 567l160 571h88zM678 567l-419 493l-140 -493l404 -492z"/>
            <glyph glyph-name="glyph541" d="M769 567l-183 -567h-88l-465 567l160 571h88zM678 567l-419 493l-140 -493l404 -492z"/>
            <glyph glyph-name="glyph542" d="M769 567l-183 -567h-88l-465 567l160 571h88zM678 567l-419 493l-140 -493l404 -492z"/>
            <glyph glyph-name="glyph543" d="M769 567l-183 -567h-88l-465 567l160 571h88zM678 567l-419 493l-140 -493l404 -492z"/>
            <glyph glyph-name="glyph544" d="M769 567l-183 -567h-88l-465 567l160 571h88zM678 567l-419 493l-140 -493l404 -492z"/>
            <glyph glyph-name="glyph545" d="M769 567l-183 -567h-88l-465 567l160 571h88zM678 567l-419 493l-140 -493l404 -492z"/>
            <glyph glyph-name="glyph546" d="M769 567l-183 -567h-88l-465 567l160 571h88zM678 567l-419 493l-140 -493l404 -492z"/>
            <glyph glyph-name="glyph547" d="M769 567l-183 -567h-88l-465 567l160 571h88zM678 567l-419 493l-140 -493l404 -492z"/>
            <glyph glyph-name="nonbreakingspace" horiz-adv-x="681"/>
            <glyph glyph-name="periodcentered" horiz-adv-x="717" d="M483 610q0 -83 -55 -133.5t-138 -50.5q-124 0 -226 98t-102 221q0 83 55 133t138 50q123 0 225.5 -97.5t102.5 -220.5z"/>
            <glyph glyph-name="bullet" horiz-adv-x="717" d="M483 610q0 -83 -55 -133.5t-138 -50.5q-124 0 -226 98t-102 221q0 83 55 133t138 50q123 0 225.5 -97.5t102.5 -220.5z"/>
            <glyph glyph-name="bulletmath" horiz-adv-x="717" d="M483 610q0 -83 -55 -133.5t-138 -50.5q-124 0 -226 98t-102 221q0 83 55 133t138 50q123 0 225.5 -97.5t102.5 -220.5z"/>
            <glyph glyph-name="endash" d="M960 453h-1059l-19 73h1059z"/>
            </font>
</defs>
</svg>
