<?xml version="1.0"?>
<!DOCTYPE svg PUBLIC "-//W3C//DTD SVG 1.1//EN" "http://www.w3.org/Graphics/SVG/1.1/DTD/svg11.dtd">
<svg xmlns="http://www.w3.org/2000/svg" version="1.1" width="60mm" height="100pt">

<g id="bundesadler" transform="matrix(0.1171 0 0 0.1171 21.3669 24.375)">
  <path d="M199.6621094,145.9873047c3.6933594,5.4550781,9.8125,13.5214844,18.4824219,20.1621094c-12.4511719,0-20.7070313,0.2910156-31.2421875-16.3632813l-2.3691406-3.7988281l-26.8261719-42.9291992c-1.7285156,0.6655273-3.4824219,1.2822266-5.2675781,1.8666992l25.65625,41.0625l7.3457031,11.7519531c3.2226563,5.1308594,10.1054688,15.2851563,20.3574219,23.1503906c-12.4433594,0-20.6972656,0.2832031-31.2324219-16.3710938l-11.5761719-18.53125l-23.59375-37.7670898c-2.0214844,3.2387695-2.6875,6.0795898-2.6875,8.9116211c0,10.4394531,4.0351563,20.1699219,10.2109375,28.8554688c4.2851563,6.0234375,9.6191406,11.5664063,15.3242188,16.5097656c-0.8847656,0.3964844-2.4355469,0.5429688-3.8789063,0.5429688c-2.8652344,0-4.7324219-0.1699219-6.03125-0.3886719c3.2304688,7.328125,10.1621094,16.8007813,13.6601563,21.7109375c4.5625-0.8183594,11.1933594-1.4609375,15.5429688-1.4609375c4.546875,0,5.0566406,2.6542969,5.0566406,5.0253906c0,4.1308594-1.9316406,7.4433594-4.1796875,9.2773438c-0.8359375-2.1523438-2.5410156-4.9511719-10.9335938-4.9511719c1.6074219,2.7675781,9.2949219,8.984375,9.2949219,13.9921875c0,3.3125-3.6289063,8.2792969-8.4257813,8.2792969c0.2851563-1.0703125,0.2441406-2.0605469,0.2441406-2.7910156c0-4.0429688-3.5878906-8.7832031-6.6152344-12.09375c0.0878906,0.9804688,0.0410156,0.8828125,0.0410156,2.0195313c0,9.5859375-0.8691406,13.9863281-6.9492188,13.9863281c-2.9785156,0-5.0390625-1.6328125-5.7460938-2.1113281c3.9453125-3.6523438,4.1464844-6.5019531,4.1464844-11.8828125l-0.03125-4.6503906c-0.0078125-1.2167969,0.015625-2.8496094,0.203125-4.0351563c-2.1757813-0.2988281-3.0527344-0.2910156-4.7324219-0.2910156c0,0-8.6445313-0.6894531-10.7226563,3.8144531c-2.3378906-2.1582031-5.7460938-5.1875-5.7460938-8.546875c0-2.2070313,1.046875-4.7148438,5.4960938-4.7148438c1.6875,0,6.9882813,1.0292969,11.4277344,1.0292969c-1.1933594-2.6542969-6.5097656-10.4121094-11.0957031-16.046875c-0.6992188,2.1914063-1.7773438,4.5625-4.1894531,6.4785156c-0.3320313-3.6132813-2.4589844-15.0566406-8.125-21.7539063c-0.65625,4.5136719-1.5488281,9.15625-1.5488281,18.9453125c0,23.8066406,5.7304688,41.3867188,17.8808594,44.7558594c-1.5820313,2.7675781-4.9277344,5.2265625-8.3925781,5.2265625c-4.4472656,0-6.8671875-5.0410156-9.3417969-9.7734375c-1.2832031,3.5078125-4.8378906,12.078125-8.3935547,12.078125c-3.5629883,0-7.1181641-8.5703125-8.3925781-12.078125c-2.4755859,4.7324219-4.894043,9.7734375-9.3422852,9.7734375c-3.4741211,0-6.8178711-2.4589844-8.4008789-5.2265625c12.1586914-3.3691406,17.8891602-20.9492188,17.8891602-44.7558594c0-9.7890625-0.8925781-14.4316406-1.550293-18.9453125c-5.6650391,6.6972656-7.7919922,18.140625-8.1166992,21.7539063c-2.4106445-1.9160156-3.4980469-4.2871094-4.1962891-6.4785156c-4.59375,5.6347656-9.894043,13.3925781-11.0957031,16.046875c4.4404297,0,9.7402344-1.0292969,11.4287109-1.0292969c4.4477539,0,5.4951172,2.5078125,5.4951172,4.7148438c0,3.359375-3.4091797,6.3886719-5.7548828,8.546875c-2.0698242-4.5039063-10.7138672-3.8144531-10.7138672-3.8144531c-1.6801758,0-2.5571289-0.0078125-4.7324219,0.2910156c0.1870117,1.1855469,0.2192383,2.8183594,0.203125,4.0351563l-0.0327148,4.6503906c0,5.3808594,0.1948242,8.2304688,4.1557617,11.8828125c-0.722168,0.4785156-2.7758789,2.1113281-5.7543945,2.1113281c-6.0795898,0-6.9560547-4.4003906-6.9560547-13.9863281c0-1.1367188-0.0405273-1.0390625,0.0488281-2.0195313c-3.027832,3.3105469-6.6152344,8.0507813-6.6152344,12.09375c0,0.7304688-0.0405273,1.7207031,0.2431641,2.7910156c-4.7885742,0-8.4248047-4.9667969-8.4248047-8.2792969c0-5.0078125,7.6865234-11.2246094,10.1376953-13.9511719c-9.2368164-0.0410156-10.9414063,2.7578125-11.7856445,4.9101563c-2.2402344-1.8339844-4.171875-5.1464844-4.171875-9.2773438c0-2.3710938,0.503418-5.0253906,5.0488281-5.0253906c4.3505859,0,10.9897461,0.6425781,15.5512695,1.4609375c3.4985352-4.9101563,10.421875-14.3828125,13.6606445-21.7109375c-1.2988281,0.21875-3.1655273,0.3886719-6.0390625,0.3886719c-1.4365234,0-2.9868164-0.1464844-3.8798828-0.5429688c5.7143555-4.9433594,11.046875-10.4863281,15.3325195-16.5253906c6.1689453-8.7011719,10.2109375-18.4003906,10.2109375-28.8398438c0-2.8320313-0.6738281-5.6728516-1.6313477-8.7089844l-24.6503906,37.5644531l-11.574707,18.53125c-10.5351563,16.6542969-18.7900391,16.3710938-31.2407227,16.3710938c10.2592773-7.8652344,17.1420898-18.0195313,20.3642578-23.1503906l7.3461914-11.7519531l25.6567383-41.0625c-1.7856445-0.5844727-3.546875-1.2011719-5.2680664-1.8666992l-26.8256836,42.9291992l-2.3779297,3.7988281c-10.5273438,16.6542969-18.7822266,16.3632813-31.2250977,16.3632813c8.6523438-6.640625,14.7802734-14.7070313,18.4658203-20.2265625l1.8911133-2.921875l28.359375-45.3813477c-1.6152344-0.8847656-3.1894531-1.8178711-4.7075195-2.7836914L42.953125,132.0263672c-4.894043,7.7441406-9.3012695,11.8183594-13.8632813,13.9609375c-5.2514648,2.484375-10.7138672,2.4101563-17.3696289,2.4101563l2.9624023-2.4179688c8.6933594-7.4667969,14.4477539-16.046875,17.4023438-20.7460938l23.8305664-38.1489258c-1.4042969-1.2744141-2.7353516-2.5732422-3.9931641-3.9204102L35.03125,110.2006836c-10.5273438,16.6635742-18.7817383,16.362793-31.2329102,16.362793c10.3408203-7.9375,17.1020508-17.9536133,20.3647461-23.1728516l19.6264648-31.3955078c-1.0551758-1.9477539-1.956543-3.9448242-2.6948242-5.9902344l-9.8540039,15.7871094C20.7055664,98.4555664,12.4506836,98.1552734,0,98.1552734c10.2998047-7.8891602,17.1259766-17.9946289,20.3725586-23.1645508l19.2451172-30.7788086c1.8666992-9.5209961,6.793457-18.4091797,14.1469727-25.0161133c-2.4672852-0.9414063-4.5288086-1.9233398-5.7709961-2.8647461c12.5727539,0,25.015625-6.3881836,31.8745117-6.3881836c4.4072266,0,7.2480469,2.6381836,7.2480469,6.128418c-0.300293,3.871582-4.2856445,7.815918-11.6635742,7.815918c-1.671875,0-3.8066406-0.21875-6.1523438-0.6000977c-3.9936523,5.5678711-7.2241211,10.6000977-7.2241211,17.7670898c0,13.4824219,16.1279297,23.9931641,32.394043,23.9931641l2.71875-0.1054688c3.222168-10.925293,10.0810547-18.0839844,15.5600586-25.0805664c-6.5668945-2.3945313-13.8959961-8.6362305-13.8959961-11.4609375c0.828125-0.4785156,13.4248047,3.4663086,14.7236328,3.8149414c2.3701172-0.4545898,3.6523438-2.6865234,3.6523438-2.9140625c-1.347168-0.2270508-9.2446289-1.2416992-14.6342773-3.2143555c-4.1069336-1.5014648-6.1850586-4.2207031-6.1850586-5.2514648c1.3232422-0.2109375,6.3071289,2.4111328,13.6523438,2.4111328c2.7109375,0,3.2304688-0.1054688,5.925293-0.4384766c-1.8911133-4.5126953-5.4462891-8.3198242-9.4477539-8.3198242c-1.6069336,0-5.1298828,0.9985352-8.0678711,2.4838867c-2.0537109-3.1899414-3.8476563-7.3701172-3.8476563-9.6591797c0-2.7109375,2.6704102-5.8681641,10.203125-5.8681641c2.1098633,0,4.0742188,0.1787109,5.9008789,0.5195313c1.4765625,0.2841797,2.7109375,0.6171875,4.0336914,1.1279297C114.5991211,1.1040039,115.5488281,0,119.0795898,0c6.2016602,0,12.5571289,2.0454102,20.3481445,2.0454102c2.0214844,0,3.3925781-0.0810547,4.5546875-0.5761719c-0.5039063,1.5581055-2.6953125,3.8388672-4.6914063,5.6977539c1.2402344,1.6884766,4.4472656,5.7709961,4.4472656,12.3701172c0,10.6083984-6.9804688,19.3579102-6.9804688,30.0722656c0,6.371582,4.9023438,11.996582,6.3710938,15.3325195l2.7109375,0.1054688c16.2753906,0,32.3945313-10.5107422,32.3945313-23.9931641c0-7.1669922-3.2226563-12.1992188-7.2167969-17.7670898c-2.3457031,0.3813477-4.4785156,0.6000977-6.1523438,0.6000977c-7.3769531,0-11.3710938-3.9443359-11.6542969-7.815918c0-3.4902344,2.8242188-6.128418,7.2402344-6.128418c6.8574219,0,19.3007813,6.3881836,31.8730469,6.3881836c-1.25,0.9414063-3.3027344,1.9233398-5.7792969,2.8647461c7.3632813,6.6069336,12.2890625,15.4951172,14.15625,25.0161133l19.2441406,30.7788086c3.2382813,5.1699219,10.0742188,15.2753906,20.3730469,23.1645508c-12.4511719,0-20.7050781,0.300293-31.2324219-16.3632813l-9.8691406-15.7871094c-0.7304688,2.0454102-1.640625,4.0424805-2.6875,5.9902344l19.6171875,31.3955078c3.2714844,5.2192383,10.0253906,15.2353516,20.3730469,23.1728516c-12.4511719,0-20.7050781,0.3007813-31.2324219-16.362793l-16.8984375-27.0366211c-1.25,1.347168-2.5898438,2.6459961-3.9941406,3.9204102l23.8398438,38.1489258c2.953125,4.6992188,8.7089844,13.2871094,17.4023438,20.7460938l2.9609375,2.4179688c-6.6542969,0-12.1171875,0.0644531-17.3691406-2.4101563c-4.5703125-2.1347656-8.96875-6.2167969-13.8632813-13.9609375l-23.2382813-37.1904297c-1.5253906,0.9658203-3.0917969,1.8989258-4.7070313,2.7836914l28.359375,45.3813477L199.6621094,145.9873047L199.6621094,145.9873047z"/> 
  <g fill="white">
    <path fill-rule="evenodd" d="M97.3349609,165.7119141c-0.6816406-2.4921875-1.347168-4.3183594-3.9526367-4.3183594c-1.3310547,0-1.9643555,0.234375-2.7675781,0.5351563c-2.8085938,7.8085938-13.6362305,22.4746094-15.3408203,24.7226563c-4.675293-0.7617188-11.2089844-1.5820313-16.5009766-1.5820313c-1.2338867,0-2.9384766-0.1210938-2.9384766,2.8574219c0,1.7285156,0.7631836,4.7402344,1.6962891,5.7382813c2.3295898-2.7519531,6.3393555-3.5722656,11.3066406-3.5722656c1.9316406,0,4.2695313,0.6738281,5.1542969,0.8847656c-6.3232422,6.4121094-12.2890625,11.7207031-12.2890625,15.2675781c0,1.9882813,2.0620117,4.6113281,3.7910156,5.4882813c0-5.2363281,5.421875-12.46875,10.7299805-16.5097656c0,0.7148438,0.2514648,3.4570313,0.2514648,6.4355469c0,9.8789063,0.9741211,11.8359375,4.7729492,11.8359375c0.6894531,0,1.8828125-0.2519531,2.3295898-0.5214844c-2.0454102-2.34375-2.9057617-5.453125-2.9057617-11.3222656c0-1.6875,0.0483398-3.2792969,0.0483398-4.6582031c0-2.6054688-0.300293-4.4394531-0.4951172-5.8769531c1.4609375-0.203125,4.7563477-0.6738281,7.1835938-0.6738281c5.1699219,0,8.3764648,0.5039063,10.7138672,2.8320313c1.6801758-1.2734375,3.5551758-3.6757813,3.5551758-5.3320313c0-2.3867188-1.6074219-2.5488281-3.2954102-2.5488281c-2.6220703,0-4.7724609,1.0390625-14.7075195,1.0390625C85.6308594,180.8330078,91.3613281,172.9677734,97.3349609,165.7119141L97.3349609,165.7119141L97.3349609,165.7119141z"/> 
    <path d="M156.6445313,186.4326172c-9.9355469,0-12.09375-1.0390625-14.7070313-1.0390625c-1.6816406,0-3.296875,0.1621094-3.296875,2.5488281c0,1.65625,1.875,4.0585938,3.546875,5.3320313c2.3378906-2.328125,5.5527344-2.8320313,10.7226563-2.8320313c2.4179688,0,5.7226563,0.4707031,7.1757813,0.6738281c-0.1953125,1.4375-0.4882813,3.2714844-0.4882813,5.8769531c0,1.3789063,0.0488281,2.9707031,0.0488281,4.6582031c0,5.8691406-0.859375,8.9785156-2.9042969,11.3222656c0.4453125,0.2695313,1.6386719,0.5214844,2.328125,0.5214844c3.7988281,0,4.7734375-1.9570313,4.7734375-11.8359375c0-2.9785156,0.2519531-5.7207031,0.2519531-6.4355469c5.3085938,4.0410156,10.7207031,11.2734375,10.7207031,16.5097656c1.7382813-0.8769531,3.7988281-3.5,3.7988281-5.4882813c0-3.546875-5.9726563-8.8554688-12.2890625-15.2675781c0.8867188-0.2109375,3.2226563-0.8847656,5.1542969-0.8847656c4.96875,0,8.9785156,0.8203125,11.3066406,3.5722656c0.9335938-0.9980469,1.6894531-4.0097656,1.6894531-5.7382813c0-2.9785156-1.7050781-2.8574219-2.9394531-2.8574219c-5.2832031,0-11.8261719,0.8203125-16.4921875,1.5820313c-1.7050781-2.2480469-12.5332031-16.9140625-15.3398438-24.7226563c-0.8046875-0.3007813-1.4375-0.5351563-2.7695313-0.5351563c-2.6054688,0-3.2695313,1.8261719-3.9511719,4.3183594C148.9570313,172.9677734,154.6875,180.8330078,156.6445313,186.4326172L156.6445313,186.4326172z"/> 
    <path d="M188.7363281,45.640625c0-11.7211914-8.5292969-21.0146484-11.5332031-23.6201172l-2.1582031,0.4951172c3.1894531,3.9042969,8.8222656,10.4223633,8.8222656,19.0664063c0,17.0043945-17.9785156,31.769043-38.4902344,32.0527344c0.1640625,1.753418,0.1542969,3.2871094,0.1542969,4.6103516c0,2.4350586-0.1699219,4.8134766-0.4453125,7.1103516C168.3652344,84.9492188,188.7363281,66.0214844,188.7363281,45.640625L188.7363281,45.640625z"/> 
    <path d="M56.4511719,41.5820313c0-8.644043,5.625-15.1621094,8.8227539-19.0664063l-2.1586914-0.4951172C60.1118164,24.6259766,51.581543,33.9194336,51.581543,45.640625c0,20.5268555,20.6728516,39.5849609,44.1547852,39.7392578c-0.2514648-2.2319336-0.3979492-4.6103516-0.3979492-7.1347656c0-1.5830078,0.0732422-3.1245117,0.2109375-4.5942383C74.7871094,73.6508789,56.4511719,58.7407227,56.4511719,41.5820313L56.4511719,41.5820313z"/> 
    <path d="M119.574707,25.7543945c1.0717773-2.4433594,2.5170898-5.3652344,2.5170898-8.5874023c0-8.8959961-7.3789063-13.1494141-17.2646484-13.1494141c-5.0732422,0-7.6381836,1.6401367-7.6381836,3.2954102c0,1.6396484,1.6723633,5.2597656,2.3295898,6.3798828c1.8261719-0.8037109,5.1137695-1.7695313,7.0209961-1.7695313C113.3168945,11.9233398,118.3901367,19.5126953,119.574707,25.7543945L119.574707,25.7543945z"/> 
    <path fill-rule="evenodd" d="M124.4296875,14.375c5.7695313,1.1279297,9.7148438-6.2421875,4.2285156-7.5571289c0.7617188,2.4272461-2.9394531,4.1557617-2.9394531,4.1557617s-1.4042969-3.2788086,0.40625-5.1376953c-3.34375-1.6313477-4.1972656,0.3569336-4.2617188,2.4428711C123.1796875,10.0322266,124.046875,12.09375,124.4296875,14.375L124.4296875,14.375L124.4296875,14.375z"/>
  </g>
</g>

<g id="flag">
  <rect fill="black" x="16.25mm" y="20pt" width="1.25mm" height="20pt"/>
  <rect fill="red" x="16.25mm" y="40pt" width="1.25mm" height="20pt"/>
  <rect fill="#FFCC00" x="16.25mm" y="60pt" width="1.25mm" height="20pt"/>
</g>

<g id="text"
  font-family="'Univers 57 Condensed', 'Univers 57', U001Con, U001, Univers, 'DejaVu Sans Condensed', Arial Narrow, sans-serif" 
  font-size="11.2pt" font-weight="normal" font-stretch="condensed" font-size-adjust=".6"
  text-anchor="start" transform="translate(0 11.2)">
<text x="20mm" y="20pt">Federal Ministry</text>
<text x="20mm" y="32pt">of Education</text>
<text x="20mm" y="44pt">and Research</text>
</g>
</svg>
