<?xml version="1.0" encoding="UTF-8"?><svg id="a" xmlns="http://www.w3.org/2000/svg" viewBox="0 0 20 20"><path id="b" d="m2,11V3.62c-.02-.87.67-1.59,1.54-1.61.02,0,.05,0,.07,0h5.38v9H2ZM11,2h5.39c.87-.02,1.59.67,1.62,1.54,0,.03,0,.05,0,.08v3.38h-7V2Zm0,16v-9h7v7.39c.02.87-.67,1.59-1.54,1.61-.02,0-.05,0-.07,0h-5.39ZM2,13h7v5H3.61c-.87.02-1.59-.67-1.62-1.54,0-.03,0-.05,0-.08v-3.38Zm1-3h5V3H3.61c-.33-.01-.6.24-.62.57,0,.02,0,.03,0,.05v6.38Zm9-4h5v-2.38c.01-.33-.24-.6-.57-.62-.02,0-.03,0-.05,0h-4.39v3Zm0,4v7h4.39c.33.01.6-.24.61-.57,0-.02,0-.03,0-.05v-6.39h-5ZM3,14v2.39c-.01.33.24.6.57.61.02,0,.03,0,.05,0h4.38v-3H3Z"/></svg>