<?xml version="1.0" encoding="UTF-8"?><svg id="a" xmlns="http://www.w3.org/2000/svg" viewBox="0 0 20 20"><defs><style>.c{fill:#01883B;}</style></defs><path id="b" class="c" d="m10,13.15l4.05-4.05-1.28-1.26-2.77,2.77-2.77-2.77-1.28,1.26,4.05,4.05Zm0,5.85c-1.21,0-2.4-.23-3.51-.71-2.16-.91-3.87-2.63-4.78-4.78-.48-1.11-.72-2.3-.71-3.51,0-1.21.23-2.4.71-3.51.91-2.16,2.63-3.87,4.78-4.78,1.11-.48,2.3-.72,3.51-.71,1.21,0,2.4.23,3.51.71,2.16.91,3.87,2.63,4.78,4.78.48,1.11.72,2.3.71,3.51,0,1.21-.23,2.4-.71,3.51-.91,2.16-2.63,3.87-4.78,4.78-1.11.48-2.3.72-3.51.71m0-1.8c1.92.04,3.77-.72,5.11-2.09,1.37-1.34,2.13-3.19,2.09-5.11.04-1.92-.72-3.77-2.09-5.11-1.34-1.37-3.19-2.13-5.11-2.09-1.92-.04-3.77.72-5.11,2.09-1.37,1.34-2.13,3.19-2.09,5.11-.04,1.92.72,3.77,2.09,5.11,1.34,1.37,3.19,2.13,5.11,2.09"/></svg>