<?xml version="1.0" encoding="UTF-8"?><svg id="a" xmlns="http://www.w3.org/2000/svg" viewBox="0 0 20 20"><path id="b" d="m4.89,11.97h1.37l5.67-5.62c.15-.13.18-.36.05-.51-.01-.02-.03-.03-.05-.05l-.86-.87c-.13-.15-.36-.18-.51-.05-.02.01-.03.03-.05.05l-5.62,5.67v1.37m4.42,0h6.19v-1h-5.19l-1,1ZM1,18.55V3.09c-.02-.87.67-1.59,1.54-1.61.02,0,.05,0,.07,0h14.77c.87-.02,1.59.67,1.61,1.54,0,.02,0,.05,0,.07v10.77c.02.87-.67,1.6-1.54,1.61-.02,0-.05,0-.07,0H4.08l-3.08,3.08Zm2.65-4.08h13.74c.33-.02.59-.29.61-.61V3.09c0-.16-.07-.31-.19-.42-.11-.12-.26-.19-.42-.19H2.62c-.16,0-.31.07-.42.19-.12.11-.19.26-.19.42v13.03l1.65-1.64Zm-1.65,0h0Z"/></svg>