<?xml version="1.0" encoding="UTF-8"?><svg id="a" xmlns="http://www.w3.org/2000/svg" viewBox="0 0 20 20"><path id="b" d="m7.6,12.91l.71-.71-2.2-2.19,2.18-2.18-.71-.71-2.89,2.89,2.91,2.91Zm4.8,0l2.91-2.91-2.91-2.91-.71.71,2.2,2.19-2.19,2.19.71.71Zm-8.78,5.09c-.87.02-1.59-.67-1.61-1.54,0-.02,0-.05,0-.07V3.61c-.02-.87.67-1.59,1.54-1.61.02,0,.05,0,.07,0h12.77c.87-.02,1.59.67,1.61,1.54,0,.02,0,.05,0,.07v12.77c.02.87-.67,1.59-1.54,1.61-.02,0-.05,0-.07,0H3.61Zm0-1h12.77c.33-.02.59-.29.61-.61V3.61c0-.16-.07-.31-.19-.42-.11-.12-.26-.19-.42-.19H3.61c-.16,0-.31.07-.42.19-.12.11-.19.26-.19.42v12.77c0,.16.07.31.19.42.11.12.26.19.42.19m-.62-14h0Z"/></svg>