<?xml version="1.0" encoding="UTF-8"?><svg id="a" xmlns="http://www.w3.org/2000/svg" viewBox="0 0 20 20"><path id="b" d="m14.01,6.31v-3H6.01v3h-1V2.31h10v4h-1Zm-11.42,1h0Zm13.04,2.5c.56,0,1-.46,1-1.02,0-.26-.1-.51-.29-.7-.4-.38-1.04-.37-1.43.04-.37.39-.37,1,0,1.39.19.19.45.29.71.29m-1.61,2.35H6.01v4.54h8v-4.54Zm1,5.54H5.01v-4H1.58v-5.39c-.01-.53.2-1.05.58-1.43.37-.38.89-.59,1.42-.57h12.85c1.08-.02,1.98.84,2,1.93,0,.02,0,.05,0,.07v5.39h-3.42v4Zm2.42-5v-4.39c.01-.54-.42-.99-.96-1-.01,0-.02,0-.04,0H3.58c-.54-.01-.99.42-1,.96,0,.01,0,.02,0,.04v4.39h2.42v-1.54h10v1.54h2.42Z"/></svg>