<?xml version="1.0" encoding="UTF-8"?><svg id="a" xmlns="http://www.w3.org/2000/svg" viewBox="0 0 50 50"><path d="m16.72,5.5c-8.08,0-14.65,6.57-14.65,14.65,0,12.35,13.76,23.11,14.35,23.56l.31.24.31-.24c.59-.45,14.35-11.21,14.35-23.56,0-8.08-6.57-14.65-14.65-14.65Zm0,37.17c-2.05-1.67-13.65-11.65-13.65-22.52,0-7.53,6.12-13.65,13.65-13.65s13.65,6.12,13.65,13.65c0,10.87-11.61,20.85-13.65,22.52Z"/><path d="m16.72,12.75c-3.9,0-7.07,3.17-7.07,7.07s3.17,7.07,7.07,7.07,7.07-3.17,7.07-7.07-3.17-7.07-7.07-7.07Zm0,13.15c-3.35,0-6.07-2.72-6.07-6.07s2.72-6.07,6.07-6.07,6.07,2.72,6.07,6.07-2.72,6.07-6.07,6.07Z"/><rect x="45.56" y="34.12" width="2.27" height="1"/><rect x="27.94" y="34.12" width="14.54" height="1"/><rect x="24.4" y="38.3" width="18.09" height="1"/></svg>