<?xml version="1.0" encoding="UTF-8"?><svg id="a" xmlns="http://www.w3.org/2000/svg" viewBox="0 0 50 50"><path d="m5.54,43.22h16.24c1.42,0,2.58,1.16,2.58,2.58,0,.29.23.52.52.52s.52-.23.52-.52c0-1.42,1.16-2.58,2.58-2.58h16.24c.29,0,.52-.23.52-.52V9.66c0-.29-.23-.52-.52-.52h-16.24c-1.28,0-2.44.68-3.1,1.78-.65-1.1-1.82-1.78-3.1-1.78H5.54c-.29,0-.52.23-.52.52v33.04c0,.29.23.52.52.52ZM25.4,12.76c0-1.42,1.16-2.58,2.58-2.58h15.72v32h-15.72c-.97,0-1.89.4-2.58,1.1V12.76Zm-19.34-2.58h15.73c1.42,0,2.58,1.16,2.58,2.58v30.52c-.68-.71-1.6-1.1-2.58-1.1H6.06V10.18Z"/><path d="m47.78,14.17h-1.84c-.29,0-.52.23-.52.52s.23.52.52.52h1.32v30.06h-19.78c-.29,0-.52.23-.52.52v1.29h-4.15v-1.29c0-.29-.23-.52-.52-.52H2.51V15.21h1.32c.29,0,.52-.23.52-.52s-.23-.52-.52-.52h-1.84c-.29,0-.52.23-.52.52v31.1c0,.29.23.52.52.52h19.78v1.29c0,.29.23.52.52.52h5.19c.29,0,.52-.23.52-.52v-1.29h19.78c.29,0,.52-.23.52-.52V14.7c0-.29-.23-.52-.52-.52Z"/><path d="m27.85,15.18h13.19c.29,0,.52-.23.52-.52s-.23-.52-.52-.52h-13.19c-.29,0-.52.23-.52.52s.23.52.52.52Z"/><path d="m27.85,19.66h13.19c.29,0,.52-.23.52-.52s-.23-.52-.52-.52h-13.19c-.29,0-.52.23-.52.52s.23.52.52.52Z"/><path d="m27.85,28.63h13.19c.29,0,.52-.23.52-.52s-.23-.52-.52-.52h-13.19c-.29,0-.52.23-.52.52s.23.52.52.52Z"/><path d="m27.85,33.11h13.19c.29,0,.52-.23.52-.52s-.23-.52-.52-.52h-13.19c-.29,0-.52.23-.52.52s.23.52.52.52Z"/><path d="m35.54,37.08c0-.29-.23-.52-.52-.52h-7.17c-.29,0-.52.23-.52.52s.23.52.52.52h7.17c.29,0,.52-.23.52-.52Z"/><path d="m8.7,15.42h13.19c.29,0,.52-.23.52-.52s-.23-.52-.52-.52h-13.19c-.29,0-.52.23-.52.52s.23.52.52.52Z"/><path d="m8.7,19.9h13.19c.29,0,.52-.23.52-.52s-.23-.52-.52-.52h-13.19c-.29,0-.52.23-.52.52s.23.52.52.52Z"/><path d="m8.7,28.87h13.19c.29,0,.52-.23.52-.52s-.23-.52-.52-.52h-13.19c-.29,0-.52.23-.52.52s.23.52.52.52Z"/><path d="m22.4,32.83c0-.29-.23-.52-.52-.52h-13.19c-.29,0-.52.23-.52.52s.23.52.52.52h13.19c.29,0,.52-.23.52-.52Z"/><path d="m22.4,37.32c0-.29-.23-.52-.52-.52h-7.17c-.29,0-.52.23-.52.52s.23.52.52.52h7.17c.29,0,.52-.23.52-.52Z"/><path d="m41.05,23.11h-13.19c-.29,0-.52.23-.52.52s.23.52.52.52h13.19c.29,0,.52-.23.52-.52s-.23-.52-.52-.52Z"/><path d="m21.9,23.35h-13.19c-.29,0-.52.23-.52.52s.23.52.52.52h13.19c.29,0,.52-.23.52-.52s-.23-.52-.52-.52Z"/></svg>