<?xml version="1.0" encoding="UTF-8"?><svg id="a" xmlns="http://www.w3.org/2000/svg" viewBox="0 0 50 50"><path d="m13.35,48.18l-11.7-2.12L8.42,8.65l11.7,2.12-6.78,37.42Zm-10.54-2.93l9.74,1.76,6.42-35.45-9.74-1.76L2.8,45.26Z"/><path d="m28.52,48.04h-8.05V5.36h8.05v42.68Zm-7.05-1h6.05V6.36h-6.05v40.68Z"/><path d="m38.47,47.99h-9.23V10.17h9.23v37.81Zm-8.23-1h7.23V11.17h-7.23v35.81Z"/><path d="m48.28,47.88h-9.23V10.07h9.23v37.81Zm-8.23-1h7.23V11.07h-7.23v35.81Z"/><rect x="22.8" y="10.86" width="3.58" height="1"/><rect x="22.8" y="14.64" width="3.58" height="1"/><rect x="31.77" y="37.94" width="4.32" height="1"/><rect x="31.77" y="41.57" width="4.32" height="1"/><rect x="11.03" y="21.35" width="1" height="7.02" transform="translate(-15 31.76) rotate(-79.7)"/><rect x="10.38" y="24.9" width="1" height="7.02" transform="translate(-19.02 34.04) rotate(-79.71)"/><rect x="41.47" y="37.94" width="4.35" height="1"/><rect x="41.47" y="41.57" width="4.35" height="1"/></svg>