<?xml version="1.0" encoding="UTF-8"?><svg id="a" xmlns="http://www.w3.org/2000/svg" viewBox="0 0 50 50"><path d="m13.22,46.7c-1.27,0-2.36-.45-3.27-1.36-.91-.9-1.36-1.99-1.36-3.26s.45-2.35,1.35-3.24c.9-.89,1.99-1.34,3.28-1.34.38,0,.77.05,1.17.15.39.1.78.25,1.16.45l6.2-7.65c-.57-.63-.96-1.32-1.18-2.05-.22-.73-.26-1.5-.13-2.3l-9.1-3c-.4.77-.96,1.38-1.69,1.83-.73.45-1.55.68-2.48.68-1.24,0-2.32-.45-3.22-1.34-.91-.9-1.36-1.98-1.36-3.26s.45-2.36,1.36-3.26c.9-.89,1.99-1.34,3.26-1.34s2.35.45,3.24,1.34c.89.89,1.34,1.98,1.34,3.26,0,.17,0,.3-.03.4s-.03.2-.03.3l9.1,3.15c.37-.7.86-1.29,1.48-1.78s1.38-.81,2.28-.98v-9.65c-1.27-.2-2.23-.75-2.9-1.65s-1-1.87-1-2.92c0-1.24.45-2.31,1.34-3.22.9-.91,1.98-1.36,3.26-1.36s2.36.45,3.26,1.36c.89.91,1.34,1.99,1.34,3.24,0,1.03-.33,2-1,2.9s-1.63,1.45-2.9,1.65v9.65c.9.17,1.66.49,2.28.98s1.13,1.08,1.53,1.78l9.05-3.15c-.03-.09-.05-.19-.05-.3v-.4c0-1.28.44-2.36,1.33-3.26.89-.89,1.97-1.34,3.24-1.34s2.36.45,3.27,1.34c.91.9,1.36,1.98,1.36,3.26s-.45,2.36-1.36,3.26c-.91.89-1.98,1.34-3.22,1.34-.92,0-1.74-.23-2.47-.7s-1.3-1.07-1.7-1.8l-9.1,3c.17.8.13,1.58-.1,2.33s-.63,1.41-1.2,1.98l6.2,7.7c.33-.2.71-.35,1.13-.45s.81-.15,1.18-.15c1.32,0,2.42.44,3.31,1.33.89.89,1.34,1.97,1.34,3.24s-.45,2.36-1.36,3.27c-.9.91-1.99,1.36-3.26,1.36s-2.35-.45-3.24-1.35c-.89-.9-1.34-1.99-1.34-3.27,0-.6.08-1.14.25-1.62.17-.48.48-.97.95-1.47l-6.2-7.75c-.7.47-1.54.7-2.51.7s-1.8-.23-2.49-.7l-6.2,7.8c.43.47.74.94.93,1.42.18.48.28,1.02.28,1.62,0,1.28-.44,2.37-1.33,3.27-.89.9-1.97,1.35-3.24,1.35Zm-6.02-22.2c.96,0,1.78-.35,2.46-1.04.68-.69,1.03-1.52,1.03-2.48s-.35-1.78-1.04-2.46c-.69-.68-1.52-1.03-2.48-1.03s-1.78.35-2.46,1.04c-.68.69-1.03,1.52-1.03,2.48s.35,1.78,1.04,2.46c.69.68,1.52,1.03,2.48,1.03h0Zm6,21.1c.96,0,1.78-.35,2.46-1.04.68-.69,1.03-1.52,1.03-2.48s-.35-1.78-1.04-2.46c-.69-.68-1.52-1.03-2.48-1.03s-1.78.35-2.46,1.04c-.68.69-1.03,1.52-1.03,2.48s.35,1.78,1.04,2.46c.69.68,1.52,1.03,2.48,1.03ZM25.3,11.4c.96,0,1.78-.35,2.46-1.04.68-.69,1.03-1.52,1.03-2.48s-.35-1.78-1.04-2.46c-.69-.68-1.52-1.03-2.48-1.03s-1.78.35-2.46,1.04c-.68.69-1.03,1.52-1.03,2.48s.35,1.78,1.04,2.46c.69.68,1.52,1.03,2.48,1.03Zm-.01,19.45c1.07,0,1.98-.38,2.73-1.13s1.13-1.66,1.13-2.73-.38-1.98-1.13-2.73-1.66-1.13-2.72-1.13-1.98.38-2.73,1.13-1.13,1.66-1.13,2.72.38,1.98,1.13,2.73,1.66,1.13,2.73,1.13Zm12.11,14.75c.96,0,1.78-.35,2.46-1.04.68-.69,1.03-1.52,1.03-2.48s-.35-1.78-1.04-2.46c-.69-.68-1.52-1.03-2.48-1.03s-1.78.35-2.46,1.04c-.68.69-1.03,1.52-1.03,2.48s.35,1.78,1.04,2.46c.69.68,1.52,1.03,2.48,1.03Zm6-21.1c.96,0,1.78-.35,2.46-1.04.68-.69,1.03-1.52,1.03-2.48s-.35-1.78-1.04-2.46c-.69-.68-1.52-1.03-2.48-1.03s-1.78.35-2.46,1.04c-.68.69-1.03,1.52-1.03,2.48s.35,1.78,1.04,2.46c.69.68,1.52,1.03,2.48,1.03Z"/></svg>