<?xml version="1.0" encoding="UTF-8"?><svg id="a" xmlns="http://www.w3.org/2000/svg" viewBox="0 0 56 50"><defs><style>.c{fill:#00883a;}</style></defs><path id="b" class="c" d="m28.4,50.07l-1.53-1.73c-1.76-1.75-3.78-3.23-5.99-4.37-5.77-3.02-12.18-4.61-18.69-4.64L0,39.29V.08h5.48C13.61.08,21.98,2.05,28.17,6.23,34.35,2.05,42.73.08,50.86.08h5.11v16.01h-4.46V4.54h-.64c-5.45,0-13.15,1.17-19.06,4.66,3.33,3.27,5.4,7.6,5.85,12.24v.23c.01,5.24-4.24,9.49-9.47,9.49s-9.49-4.25-9.49-9.49v-.23c.46-4.64,2.53-8.98,5.86-12.24-5.92-3.5-13.62-4.66-19.06-4.66h-1.01v30.43c13.2.81,21.04,6.22,24.17,8.92,7.89-5.92,17.5-9.08,27.37-9.02v4.46c-9.45-.09-18.62,3.16-25.92,9.16l-1.68,1.59h0Zm-5.26-28.29c.04,2.78,2.32,5,5.1,4.96,2.72-.04,4.92-2.24,4.96-4.96-.39-3.81-2.18-7.34-5.03-9.91-2.84,2.57-4.63,6.1-5.03,9.91"/></svg>