<?xml version="1.0" encoding="UTF-8"?>
<svg width="362px" height="171px" viewBox="0 0 362 171" version="1.1" xmlns="http://www.w3.org/2000/svg" xmlns:xlink="http://www.w3.org/1999/xlink">
    <!-- Generator: Sketch 49.2 (51160) - http://www.bohemiancoding.com/sketch -->
    <title>Logo</title>
    <desc>Created with Sketch.</desc>
    <defs></defs>
    <g id="Startseite" stroke="none" stroke-width="1" fill="none" fill-rule="evenodd">
        <g id="lmu_01_start_1440" transform="translate(-103.000000, -10.000000)">
            <g id="header_1440">
                <g id="Logo" transform="translate(103.000000, 10.000000)">
                    <g>
                        <g id="Group-2">
                            <rect id="Rectangle-Copy" fill="#00883A" x="0" y="0" width="171" height="171"></rect>
                            <path d="M103.775741,135.341786 L103.775741,98.8040029 L124.031239,98.8040029 L124.031239,137.35193 C124.031239,140.08562 124.660276,142.032618 125.915716,143.192924 C127.176421,144.35586 128.852974,144.934697 130.958535,144.934697 C133.066729,144.934697 134.761705,144.35586 136.04873,143.192924 C137.333122,142.032618 137.980582,140.08562 137.980582,137.35193 L137.980582,98.8040029 L158.146594,98.8040029 L158.146594,135.341786 C158.146594,139.704114 157.488606,143.408672 156.172631,146.463354 C154.859287,149.515405 153.016921,151.996511 150.650796,153.919829 C148.28204,155.840517 145.418477,157.232357 142.057475,158.100613 C138.693841,158.974131 134.993317,159.41089 130.958535,159.41089 C126.981657,159.41089 123.33114,158.974131 119.99909,158.100613 C116.664407,157.232357 113.798212,155.840517 111.400504,153.919829 C109.002796,151.996511 107.131479,149.515405 105.789184,146.463354 C104.444256,143.408672 103.775741,139.704114 103.775741,135.341786 Z M67.9917286,144.497938 C67.9917286,144.905755 68.1917569,145.11098 68.6023414,145.11098 C68.891856,145.11098 69.0418772,144.905755 69.0418772,144.497938 C69.5656356,140.659195 70.2394152,136.462625 71.0553201,131.897705 C71.8791209,127.335415 72.689762,122.886262 73.5109308,118.552876 C74.3294677,114.227383 75.1190532,110.286028 75.8770552,106.744597 C76.6376892,103.192641 77.2246144,100.551039 77.6351988,98.8040029 L96.5799854,98.8040029 L96.5799854,157.845398 L85.1810036,157.845398 L85.1810036,108.136437 C85.1810036,107.844388 84.9704475,107.699678 84.562495,107.699678 C84.3308833,107.699678 84.2124455,107.844388 84.2124455,108.136437 C83.7465901,110.459679 83.2491513,113.064447 82.722761,115.942846 C82.1963707,118.821246 81.5515426,122.191657 80.7935405,126.056711 C80.0302746,129.924396 79.1117236,134.441957 78.0326235,139.617288 C76.9535234,144.792619 75.6770269,150.865148 74.2136619,157.845398 L62.3751442,157.845398 C60.9117792,150.983546 59.6694981,145.053096 58.645669,140.048785 C57.6192079,135.054999 56.7296083,130.66636 55.9689743,126.88287 C55.2109723,123.107272 54.5398247,119.73423 53.9528995,116.769005 C53.3712382,113.80378 52.786945,110.928011 52.1973879,108.136437 C52.1973879,107.844388 51.9947276,107.699678 51.5841432,107.699678 C51.3525314,107.699678 51.2340936,107.844388 51.2340936,108.136437 L51.2340936,157.845398 L40.7984061,157.845398 L40.7984061,98.8040029 L59.8300471,98.8040029 C60.1221937,100.085338 60.4748752,101.740286 60.8828277,103.779372 C61.2881482,105.813195 61.7461078,108.091709 62.2409147,110.622806 C62.7383535,113.14601 63.2489521,115.856021 63.7779743,118.729158 C64.3017327,121.610189 64.828123,124.543841 65.3545132,127.540639 C65.8835355,130.532175 66.3625507,133.47109 66.8047185,136.349489 C67.2416224,139.227889 67.6390471,141.94053 67.9917286,144.497938 Z M12.2075173,98.8040029 L17.9925466,98.8040029 L17.9925466,153.483071 L34.837036,153.483071 L34.837036,157.845398 L12.2075173,157.845398 L12.2075173,98.8040029 Z" id="Fill-44" fill="#FFFFFF"></path>
                        </g>
                        <g id="Group" transform="translate(191.000000, 0.000000)">
                            <rect id="Rectangle" fill="#00883A" x="0" y="0" width="171" height="171"></rect>
                            <polygon id="Fill-2" fill="#FFFFFF" points="11.9302326 88.8139535 11.9302326 76.8837209 14.1022499 76.8837209 14.1022499 87.0441939 19.8837209 87.0441939 19.8837209 88.8139535"></polygon>
                            <path d="M29.0989937,88.9432479 C26.4038754,88.9432479 23.8587784,87.9776422 23.8587784,83.6758293 L23.8587784,76.1535766 L26.1985832,76.1535766 L26.1985832,83.8915777 C26.1985832,85.8806728 27.1592455,87.2225227 29.0989937,87.2225227 C31.0150544,87.2225227 31.9467652,85.9674984 31.9467652,83.8915777 L31.9467652,76.1535766 L34.2944659,76.1535766 L34.2944659,83.6758293 C34.2944659,87.6750682 31.6940979,88.9432479 29.0989937,88.9432479" id="Fill-3" fill="#FFFFFF"></path>
                            <path d="M42.7419774,77.9256078 L41.4102099,77.9256078 L41.4102099,86.8975846 L42.7419774,86.8975846 C45.4134081,86.8975846 46.8688772,85.7188615 46.8688772,82.3326638 C46.8688772,79.3963805 45.4607832,77.9256078 42.7419774,77.9256078 M42.8498874,88.6919799 L39.0677731,88.6919799 L39.0677731,76.1522611 L42.8498874,76.1522611 C47.316309,76.1522611 49.3165921,78.7333488 49.3165921,82.3326638 C49.3165921,86.4503013 46.9057246,88.6919799 42.8498874,88.6919799" id="Fill-5" fill="#FFFFFF"></path>
                            <polygon id="Fill-7" fill="#FFFFFF" points="65.5504688 88.6914537 63.0659066 88.6914537 60.6339834 79.8931281 58.1994283 88.6914537 55.7148661 88.6914537 51.8959046 76.1517349 54.5068004 76.1517349 57.0624253 85.9682877 59.4785567 77.1725932 61.9657509 77.1725932 64.3660906 85.9682877 66.9059238 76.1517349 69.3536386 76.1517349"></polygon>
                            <polygon id="Fill-9" fill="#FFFFFF" points="72.9036148 88.6919799 75.2513155 88.6919799 75.2513155 76.1522611 72.9036148 76.1522611"></polygon>
                            <path d="M85.6962149,88.9432479 C81.8772533,88.9432479 79.5900875,86.3279561 79.5900875,82.3129308 C79.5900875,77.9769138 82.7773807,75.9009931 85.6962149,75.9009931 C87.7544009,75.9009931 89.0861684,76.5456073 89.9336567,77.2980957 L88.9782583,79.0530248 C88.293951,78.2821189 87.3569762,77.5848832 85.6962149,77.5848832 C83.5906537,77.5848832 82.0220106,79.4661041 82.0220106,82.3129308 C82.0220106,85.2334276 83.5906537,87.2567267 85.8041249,87.2567267 C87.0858852,87.2567267 87.8254636,86.9331041 88.128138,86.6515788 L88.128138,83.4600809 L85.3172139,83.4600809 L85.3172139,81.7419868 L90.3863524,81.7419868 L90.3863524,87.7618938 C89.3019884,88.4249255 87.8412553,88.9432479 85.6962149,88.9432479" id="Fill-11" fill="#FFFFFF"></path>
                            <polygon id="Fill-12" fill="#FFFFFF" points="93.606545 83.8560581 98.5256623 83.8560581 98.5256623 82.2958288 93.606545 82.2958288"></polygon>
                            <polygon id="Fill-13" fill="#FFFFFF" points="23.3568652 111.728912 22.9278571 102.196515 19.732668 110.008186 17.6034193 110.008186 14.3450634 102.196515 13.9686943 111.728912 11.6788966 111.728912 12.4211069 99.1839305 15.3373091 99.1839305 18.7799016 107.500769 22.0408895 99.1839305 24.9597237 99.1839305 25.699302 111.728912"></polygon>
                            <path d="M34.9232391,101.515329 L32.9624353,106.998496 L36.9261542,106.998496 L34.9232391,101.515329 Z M38.6342907,111.729175 L37.534135,108.682386 L32.383406,108.682386 L31.2674585,111.729175 L28.7986881,111.729175 L33.8072917,99.1841937 L36.2629024,99.1841937 L41.2320268,111.729175 L38.6342907,111.729175 Z" id="Fill-14" fill="#FFFFFF"></path>
                            <polygon id="Fill-15" fill="#FFFFFF" points="52.7452353 111.728912 49.3368581 106.67461 45.8653142 111.728912 43.0491261 111.728912 47.881389 105.222255 43.430759 99.1839305 46.3653849 99.1839305 49.4684557 103.846201 52.4925679 99.1839305 55.308756 99.1839305 50.8686539 105.222255 55.6798612 111.728912"></polygon>
                            <polygon id="Fill-16" fill="#FFFFFF" points="59.1253488 111.729701 61.4704176 111.729701 61.4704176 99.187351 59.1253488 99.187351"></polygon>
                            <polygon id="Fill-17" fill="#FFFFFF" points="77.8695808 111.728912 77.4326768 102.196515 74.2453836 110.008186 72.1135029 110.008186 68.855147 102.196515 68.476146 111.728912 66.1889802 111.728912 66.9311905 99.1839305 69.8473927 99.1839305 73.2899852 107.500769 76.5536051 99.1839305 79.4698073 99.1839305 80.2067537 111.728912"></polygon>
                            <polygon id="Fill-18" fill="#FFFFFF" points="84.929001 111.729701 87.2714378 111.729701 87.2714378 99.187351 84.929001 99.187351"></polygon>
                            <polygon id="Fill-19" fill="#FFFFFF" points="100.876258 111.728912 100.876258 109.866108 94.6437971 109.866108 94.6437971 99.1839305 92.2960964 99.1839305 92.2960964 111.728912"></polygon>
                            <polygon id="Fill-20" fill="#FFFFFF" points="104.866033 111.729701 107.200574 111.729701 107.200574 99.187351 104.866033 99.187351"></polygon>
                            <path d="M116.809303,101.515329 L114.845867,106.998496 L118.809586,106.998496 L116.809303,101.515329 Z M120.520354,111.729175 L119.417567,108.682386 L114.261574,108.682386 L113.145626,111.729175 L110.68212,111.729175 L115.685459,99.1841937 L118.14107,99.1841937 L123.115458,111.729175 L120.520354,111.729175 Z" id="Fill-21" fill="#FFFFFF"></path>
                            <polygon id="Fill-22" fill="#FFFFFF" points="134.083853 111.728912 128.825214 102.375428 128.825214 111.728912 126.516993 111.728912 126.516993 99.1839305 129.580584 99.1839305 134.844487 108.540045 134.844487 99.1839305 137.147444 99.1839305 137.147444 111.728912"></polygon>
                            <path d="M150.502756,108.252468 C150.502756,106.352829 149.352593,105.458263 147.926075,104.847853 L145.441513,103.795421 C144.665087,103.471799 143.851814,103.040302 143.851814,102.143104 C143.851814,101.42482 144.483483,100.624972 145.873153,100.624972 C147.439164,100.624972 148.3235,101.316946 149.044655,102.195726 L150.0369,100.638127 C149.131509,99.5593854 147.547074,98.9358199 145.873153,98.9358199 C143.851814,98.9358199 141.456739,100.114543 141.456739,102.535135 C141.456739,104.076947 142.498991,105.100436 143.851814,105.676642 L146.339009,106.729074 C147.312831,107.139522 148.052409,107.607854 148.052409,108.594508 C148.052409,109.402249 147.312831,110.294185 145.728396,110.294185 C144.125537,110.294185 143.080653,109.578531 142.175261,108.557673 L141.18828,110.133689 C141.780469,110.828293 143.204354,111.978075 145.691549,111.978075 C149.476295,111.978075 150.502756,109.539065 150.502756,108.252468" id="Fill-23" fill="#FFFFFF"></path>
                            <polygon id="Fill-24" fill="#FFFFFF" points="153.512392 106.893779 158.43151 106.893779 158.43151 105.330919 153.512392 105.330919"></polygon>
                            <path d="M17.0493935,135.015269 C14.3490113,135.015269 11.8091782,134.047033 11.8091782,129.747851 L11.8091782,122.222967 L14.1437191,122.222967 L14.1437191,129.960968 C14.1437191,131.950063 15.1043814,133.294544 17.0493935,133.294544 C18.9601903,133.294544 19.897165,132.036889 19.897165,129.960968 L19.897165,122.222967 L22.2396018,122.222967 L22.2396018,129.747851 C22.2396018,133.744459 19.6444977,135.015269 17.0493935,135.015269" id="Fill-25" fill="#FFFFFF"></path>
                            <polygon id="Fill-26" fill="#FFFFFF" points="34.5839806 134.763475 29.3200777 125.407361 29.3200777 134.763475 27.0118562 134.763475 27.0118562 122.221125 30.0754477 122.221125 35.3393507 131.574608 35.3393507 122.221125 37.6423082 122.221125 37.6423082 134.763475"></polygon>
                            <polygon id="Fill-27" fill="#FFFFFF" points="42.6703883 134.767422 45.015457 134.767422 45.015457 122.222441 42.6703883 122.222441"></polygon>
                            <polygon id="Fill-28" fill="#FFFFFF" points="55.6240638 134.763475 53.1447655 134.763475 48.128266 122.221125 50.7760092 122.221125 54.4396856 132.403398 58.0954662 122.221125 60.6352994 122.221125"></polygon>
                            <polygon id="Fill-29" fill="#FFFFFF" points="64.1110545 134.763475 64.1110545 122.221125 72.5648826 122.221125 72.5648826 124.049725 66.4587552 124.049725 66.4587552 127.346466 72.0779716 127.346466 72.0779716 129.13823 66.4587552 129.13823 66.4587552 132.900672 72.8017582 132.900672 72.8017582 134.763475"></polygon>
                            <path d="M81.1803125,123.995261 L79.1563419,123.995261 L79.1563419,127.634042 L81.1803125,127.634042 C82.9831993,127.634042 83.4279991,126.755262 83.4279991,125.715986 C83.4279991,124.766167 82.6910527,123.995261 81.1803125,123.995261 Z M84.0780911,134.764264 L81.5382579,130.983405 C80.8907979,130.015168 80.3301922,129.349505 79.7406351,129.349505 L79.1563419,129.349505 L79.1563419,134.764264 L76.819169,134.764264 L76.819169,122.221915 L81.6330082,122.221915 C83.8464794,122.221915 85.8441305,123.390113 85.8441305,125.715986 C85.8441305,128.081326 83.7175138,128.960106 82.6384137,129.089029 C82.996359,129.31267 83.4674784,129.925712 83.6306594,130.159878 L86.8758555,134.764264 L84.0780911,134.764264 Z" id="Fill-30" fill="#FFFFFF"></path>
                            <path d="M93.8644762,135.015269 C91.3799141,135.015269 89.9560283,133.865488 89.3559434,133.170884 L90.3481891,131.589605 C91.2562123,132.613095 92.2958332,133.326117 93.9039555,133.326117 C95.4831264,133.326117 96.2227048,132.439444 96.2227048,131.629072 C96.2227048,130.642417 95.4831264,130.176716 94.5119363,129.766268 L92.0273741,128.708575 C90.6719191,128.135 89.6322983,127.114141 89.6322983,125.57233 C89.6322983,123.151738 92.0273741,121.970384 94.0434489,121.970384 C95.720002,121.970384 97.3070688,122.59658 98.2071962,123.675322 L97.2149505,125.227658 C96.4964277,124.35414 95.612092,123.656905 94.0434489,123.656905 C92.6564105,123.656905 92.0273741,124.462015 92.0273741,125.180299 C92.0273741,126.077497 92.8353832,126.508993 93.6118089,126.827354 L96.099003,127.885047 C97.5228888,128.492826 98.6756835,129.384762 98.6756835,131.287032 C98.6756835,132.57626 97.6465905,135.015269 93.8644762,135.015269" id="Fill-31" fill="#FFFFFF"></path>
                            <polygon id="Fill-32" fill="#FFFFFF" points="102.897334 134.767422 105.237139 134.767422 105.237139 122.222441 102.897334 122.222441"></polygon>
                            <polygon id="Fill-33" fill="#FFFFFF" points="115.305669 124.084981 115.305669 134.767159 112.968496 134.767159 112.968496 124.084981 108.731054 124.084981 108.731054 122.222178 119.543111 122.222178 119.543111 124.084981"></polygon>
                            <path d="M129.311072,121.076343 C128.642557,121.076343 128.087215,120.500137 128.087215,119.876571 C128.087215,119.247744 128.624133,118.674169 129.311072,118.674169 C129.99538,118.674169 130.53493,119.247744 130.53493,119.876571 C130.53493,120.500137 129.979588,121.076343 129.311072,121.076343 Z M127.542401,124.549366 L125.578965,130.032533 L129.542684,130.032533 L127.542401,124.549366 Z M125.829,121.076343 C125.168381,121.076343 124.607775,120.500137 124.607775,119.876571 C124.607775,119.247744 125.147325,118.674169 125.829,118.674169 C126.51594,118.674169 127.058122,119.247744 127.058122,119.876571 C127.058122,120.500137 126.497516,121.076343 125.829,121.076343 Z M131.256084,134.763212 L130.155929,131.719055 L124.999936,131.719055 L123.883988,134.763212 L121.420482,134.763212 L126.423821,122.223493 L128.879432,122.223493 L133.848557,134.763212 L131.256084,134.763212 Z" id="Fill-34" fill="#FFFFFF"></path>
                            <polygon id="Fill-35" fill="#FFFFFF" points="142.298437 124.084981 142.298437 134.767159 139.961264 134.767159 139.961264 124.084981 135.723822 124.084981 135.723822 122.222178 146.535879 122.222178 146.535879 124.084981"></polygon>
                            <polygon id="Fill-36" fill="#FFFFFF" points="23.3568652 157.798302 22.9278571 148.268537 19.732668 156.082839 17.6034193 156.082839 14.3450634 148.268537 13.9686943 157.798302 11.6788966 157.798302 12.4211069 145.253321 15.3373091 145.253321 18.7799016 153.575421 22.0408895 145.253321 24.9597237 145.253321 25.699302 157.798302"></polygon>
                            <path d="M36.9793196,144.11117 C36.3108039,144.11117 35.7501983,143.537595 35.7501983,142.911398 C35.7501983,142.285202 36.2950122,141.711627 36.9793196,141.711627 C37.6662589,141.711627 38.2268646,142.285202 38.2268646,142.911398 C38.2268646,143.537595 37.6425714,144.11117 36.9793196,144.11117 M33.5025117,144.11117 C32.83926,144.11117 32.2760223,143.537595 32.2760223,142.911398 C32.2760223,142.285202 32.8155724,141.711627 33.5025117,141.711627 C34.1841872,141.711627 34.7421609,142.285202 34.7421609,142.911398 C34.7421609,143.537595 34.1710274,144.11117 33.5025117,144.11117 M35.4106765,158.050622 C32.7076624,158.050622 30.1678292,157.085017 30.1678292,152.783204 L30.1678292,145.260951 L32.510266,145.260951 L32.510266,152.998952 C32.510266,154.988047 33.4630325,156.335159 35.4106765,156.335159 C37.3188414,156.335159 38.258448,155.077504 38.258448,152.998952 L38.258448,145.260951 L40.5982529,145.260951 L40.5982529,152.783204 C40.5982529,156.774549 38.0110446,158.050622 35.4106765,158.050622" id="Fill-37" fill="#FFFFFF"></path>
                            <polygon id="Fill-38" fill="#FFFFFF" points="52.94579 157.798302 47.6818871 148.444819 47.6818871 157.798302 45.3736656 157.798302 45.3736656 145.253321 48.4372571 145.253321 53.7011601 154.609435 53.7011601 145.253321 56.0041176 145.253321 56.0041176 157.798302"></polygon>
                            <path d="M66.2597797,158.050096 C62.1881508,158.050096 60.2799859,154.898064 60.2799859,151.435565 C60.2799859,148.049368 62.5987352,145.007841 66.2597797,145.007841 C68.0652984,145.007841 69.4707605,145.599834 70.4235269,146.599644 L69.5023439,148.344049 C68.8022448,147.552094 68.0995138,146.723304 66.2992589,146.723304 C64.1673783,146.723304 62.7277008,148.78607 62.7277008,151.435565 C62.7277008,154.037702 64.2752883,156.334633 66.3150507,156.334633 C67.815263,156.334633 68.8022448,155.824204 69.8629212,154.700734 L70.7656806,156.487236 C69.3023156,157.602813 68.246903,158.050096 66.2597797,158.050096" id="Fill-39" fill="#FFFFFF"></path>
                            <polygon id="Fill-40" fill="#FFFFFF" points="82.3881151 157.798302 82.3881151 152.120435 76.7688987 152.120435 76.7688987 157.798302 74.4238299 157.798302 74.4238299 145.253321 76.7688987 145.253321 76.7688987 150.402341 82.3881151 150.402341 82.3881151 145.253321 84.7305519 145.253321 84.7305519 157.798302"></polygon>
                            <polygon id="Fill-41" fill="#FFFFFF" points="89.6852005 157.798302 89.6852005 145.253321 98.1363967 145.253321 98.1363967 147.089814 92.0329012 147.089814 92.0329012 150.383923 97.6521176 150.383923 97.6521176 152.170426 92.0329012 152.170426 92.0329012 155.935499 98.3732723 155.935499 98.3732723 157.798302"></polygon>
                            <polygon id="Fill-42" fill="#FFFFFF" points="109.959386 157.798302 104.695483 148.444819 104.695483 157.798302 102.387261 157.798302 102.387261 145.253321 105.450853 145.253321 110.714756 154.609435 110.714756 145.253321 113.022977 145.253321 113.022977 157.798302"></polygon>
                        </g>
                    </g>
                </g>
            </g>
        </g>
    </g>
</svg>