<?xml version="1.0" encoding="UTF-8"?><svg id="a" xmlns="http://www.w3.org/2000/svg" xmlns:xlink="http://www.w3.org/1999/xlink" viewBox="0 0 100 100"><defs><style>.c{fill:url(#b);}.d{fill:#ea5b0c;}.e{fill:#1d1d1b;}</style><linearGradient id="b" x1="54.16" y1="38" x2="85.95" y2="38" gradientUnits="userSpaceOnUse"><stop offset="0" stop-color="#ea5b0c"/><stop offset="1" stop-color="#fff"/></linearGradient></defs><path class="c" d="m58.43,29.25c.7-.83.6-2.06-.23-2.76-.83-.7-2.07-.6-2.77.23-.7.83-.6,2.06.23,2.76.83.7,2.06.6,2.76-.23m2.89,3.99c.99-.45,1.42-1.62.96-2.6-.45-.99-1.62-1.42-2.6-.97-.98.45-1.42,1.62-.97,2.6.45.99,1.62,1.42,2.6.97Zm.96.92c-1.09-.01-1.97.86-1.98,1.94-.01,1.08.86,1.97,1.94,1.98,1.08,0,1.97-.86,1.98-1.94.01-1.08-.86-1.97-1.94-1.98Zm-1.22,8.6c.98.46,2.15.04,2.61-.94.46-.98.04-2.15-.94-2.61-.98-.46-2.15-.04-2.61.94-.46.98-.04,2.15.94,2.61Zm.03,3.67c.81-.73.87-1.97.14-2.77-.73-.81-1.97-.87-2.77-.15-.8.73-.87,1.97-.14,2.77.73.8,1.97.87,2.77.14Zm-5.66-.34c-1.03.33-1.6,1.44-1.27,2.47.33,1.03,1.44,1.6,2.47,1.27,1.03-.33,1.6-1.44,1.27-2.47-.33-1.03-1.44-1.6-2.47-1.27Zm6.7,5.82c.73-.58.85-1.64.28-2.37-.58-.73-1.63-.85-2.37-.28-.73.58-.85,1.64-.28,2.36.58.73,1.64.85,2.37.28Zm6.8-13.77c.02-.93-.72-1.7-1.64-1.72-.93-.02-1.7.72-1.72,1.65-.02.93.71,1.7,1.65,1.72.93.02,1.7-.72,1.72-1.64Zm-2.99,6.26c.88.29,1.83-.2,2.12-1.08.29-.89-.2-1.83-1.08-2.12-.88-.29-1.83.2-2.12,1.08-.29.88.19,1.83,1.08,2.12Zm.07,3.22c.51-.78.29-1.82-.48-2.33-.78-.51-1.82-.29-2.33.48-.51.78-.29,1.82.48,2.33.78.51,1.82.29,2.33-.49Zm.83-13.2c.89-.29,1.37-1.23,1.09-2.12-.29-.89-1.23-1.37-2.12-1.08-.89.29-1.37,1.23-1.08,2.12.28.89,1.23,1.37,2.12,1.09Zm-1.84-7.61c-.57-.74-1.62-.87-2.36-.3-.73.57-.87,1.62-.3,2.36.57.74,1.63.87,2.36.3.73-.57.87-1.63.3-2.36Zm-6.11-1.13c.77.52,1.82.31,2.34-.46.52-.77.31-1.82-.46-2.34-.77-.52-1.82-.31-2.34.47-.52.77-.31,1.82.46,2.33Zm2.73-3.71c.67.45,1.58.27,2.04-.4.45-.67.27-1.58-.4-2.04-.67-.45-1.59-.27-2.03.4-.45.67-.28,1.58.39,2.04Zm4.87,2.31c.57-.58.57-1.5,0-2.07-.57-.57-1.5-.57-2.07,0-.57.57-.57,1.5,0,2.07.57.57,1.5.57,2.07,0Zm.35,2.93c.44.68,1.35.87,2.03.43.68-.44.87-1.35.43-2.03-.44-.68-1.35-.87-2.03-.43-.68.44-.87,1.35-.43,2.03Zm2.39,1.15c-.74.32-1.09,1.18-.76,1.93.32.74,1.18,1.09,1.93.77.74-.32,1.09-1.18.77-1.93-.32-.75-1.18-1.09-1.93-.77Zm.29,5.61c.18.79.97,1.28,1.76,1.1.79-.18,1.28-.97,1.09-1.76-.18-.79-.97-1.28-1.76-1.1-.79.18-1.28.97-1.1,1.76Zm3.42,4.06c0-.81-.65-1.47-1.46-1.48-.81,0-1.47.65-1.48,1.45,0,.81.64,1.47,1.45,1.48.81,0,1.47-.65,1.48-1.46Zm-.47,4.31c.16-.79-.34-1.57-1.14-1.73-.79-.16-1.57.35-1.73,1.14-.16.79.34,1.57,1.14,1.73.79.16,1.57-.34,1.73-1.14Zm-3.13,4.73c.75.31,1.61-.05,1.92-.8.31-.75-.05-1.61-.8-1.92-.75-.31-1.61.05-1.92.8-.31.75.05,1.61.8,1.92Zm-.28,3.24c.46-.67.29-1.58-.38-2.04-.67-.46-1.58-.29-2.04.38-.46.67-.29,1.58.38,2.04.67.46,1.58.29,2.04-.38Zm-2.69,3.21c.58-.57.58-1.5.01-2.07-.57-.58-1.5-.58-2.07-.01-.58.57-.58,1.5-.01,2.07.57.58,1.5.58,2.07.01Zm-5,.32c-.68.44-.88,1.34-.45,2.03.44.68,1.34.88,2.03.45.68-.44.88-1.34.44-2.03-.44-.68-1.34-.88-2.03-.44Zm5.6-33.89c.49-.48.49-1.28,0-1.76-.49-.49-1.28-.5-1.77-.01-.49.49-.49,1.28,0,1.77.49.49,1.27.49,1.77,0Zm3.19,3.52c.58-.38.74-1.15.35-1.73-.38-.58-1.15-.74-1.73-.36-.58.38-.74,1.16-.36,1.73.38.58,1.15.74,1.73.36Zm.79,3.36c.26.64.99.95,1.63.68.64-.26.95-.99.68-1.63-.26-.64-.99-.95-1.63-.69-.64.26-.95.99-.69,1.63Zm3.18,4.98c.68-.13,1.12-.79.98-1.47-.14-.67-.79-1.11-1.47-.98-.68.14-1.11.79-.98,1.47.13.68.79,1.12,1.47.98Zm.75,2.36c-.69,0-1.25.55-1.26,1.24,0,.69.55,1.25,1.24,1.26.69,0,1.25-.55,1.26-1.24,0-.69-.55-1.25-1.24-1.26Zm1.15,6.78c.15-.67-.27-1.34-.94-1.5-.67-.15-1.34.27-1.5.94-.16.67.27,1.34.94,1.5.67.15,1.34-.27,1.49-.94Zm-2.65,5.24c.63.27,1.37-.02,1.64-.65.27-.63-.01-1.37-.65-1.64-.63-.28-1.37.01-1.64.65-.28.63.02,1.37.65,1.64Zm-.21,3.71c.39-.57.24-1.35-.33-1.73-.57-.39-1.35-.24-1.73.33-.39.57-.24,1.35.33,1.74.57.39,1.34.24,1.73-.33Zm-2.96,4.33c.5-.48.51-1.27.03-1.77-.48-.5-1.27-.51-1.76-.03-.5.48-.51,1.27-.03,1.77.48.5,1.27.51,1.77.03Zm-4.87,1.32c-.58.37-.74,1.15-.37,1.73.37.58,1.15.74,1.73.37.58-.37.74-1.15.37-1.73-.38-.58-1.15-.74-1.73-.37Zm.42-40.08c.54.37,1.28.22,1.65-.32.36-.55.22-1.28-.32-1.65-.55-.37-1.28-.22-1.65.32-.36.54-.22,1.28.33,1.65Zm5.8,3.38c.46-.46.47-1.21,0-1.68-.46-.47-1.21-.47-1.68,0-.47.46-.47,1.21,0,1.68.46.47,1.21.47,1.68,0Zm3.51,4.74c.55-.35.71-1.09.36-1.64-.35-.55-1.09-.71-1.64-.36-.55.35-.71,1.09-.36,1.64.35.55,1.09.71,1.64.36Zm.56,3.8c.25.61.95.89,1.55.64.6-.25.89-.95.64-1.55-.26-.61-.95-.89-1.55-.64-.61.25-.89.95-.64,1.55Zm2.91,5.72c.64-.14,1.05-.76.92-1.4-.13-.64-.76-1.05-1.41-.92-.64.13-1.05.76-.92,1.4.13.64.76,1.05,1.41.92Zm.36,3.19c-.66,0-1.19.54-1.18,1.19,0,.66.54,1.18,1.19,1.18.66,0,1.18-.54,1.18-1.19,0-.66-.54-1.18-1.2-1.18Zm-.81,8.31c.64.13,1.27-.28,1.41-.92.13-.64-.28-1.27-.92-1.41-.64-.13-1.27.27-1.41.92-.14.64.27,1.27.92,1.4Zm-.92,2.99c-.6-.26-1.3.02-1.56.63-.26.6.02,1.3.63,1.56.6.26,1.3-.02,1.56-.62.26-.6-.02-1.3-.63-1.56Zm-1.99,6.41c.37-.54.22-1.28-.32-1.65-.54-.37-1.28-.22-1.65.32-.37.54-.22,1.28.32,1.65.54.37,1.28.22,1.65-.32Zm-5.52,2.95c-.47.46-.48,1.21-.02,1.68.46.47,1.21.48,1.68.03.47-.46.48-1.21.02-1.68-.46-.47-1.21-.48-1.68-.03Zm-4.22,3.37c-.55.35-.71,1.09-.36,1.64.35.55,1.09.71,1.64.36.55-.35.72-1.09.36-1.64-.35-.55-1.09-.71-1.64-.36Zm5.53-50.54c.19-.28.12-.65-.15-.85-.28-.19-.65-.12-.85.15-.19.28-.12.65.15.85.28.19.65.12.85-.15Zm4.96,4.32c.24-.23.25-.62.01-.86-.24-.24-.62-.24-.86-.01-.24.23-.24.62-.01.86.24.24.62.25.86.01Zm3.97,5.07c.28-.18.35-.56.17-.84-.19-.28-.56-.36-.85-.17-.28.19-.36.56-.17.84.18.28.56.36.84.17Zm2.57,4.8c-.31.13-.46.48-.33.79.13.31.48.46.79.33.31-.13.46-.48.33-.79-.13-.31-.48-.46-.79-.33Zm2.25,7.19c.33-.07.54-.39.47-.72-.07-.33-.39-.54-.72-.47-.33.07-.54.39-.47.72.07.33.39.54.72.47Zm.63,5.55c-.34,0-.61.28-.6.61,0,.34.28.61.62.6.34,0,.61-.28.6-.61,0-.34-.28-.61-.61-.6Zm-.5,6.99c-.33-.06-.65.15-.72.48-.06.33.15.65.48.71.33.06.65-.15.71-.48.07-.33-.15-.65-.48-.71Zm-2.16,7.39c-.31-.14-.67,0-.8.31-.14.31,0,.67.31.8.31.14.66,0,.8-.31.14-.31,0-.67-.31-.8Zm-4.24,6.35c-.2.27-.13.65.14.85.27.2.65.13.85-.14.2-.27.13-.65-.14-.85-.27-.2-.65-.13-.85.14Zm-3.7,4.36c-.24.24-.24.62,0,.86.23.24.62.24.86,0,.24-.24.24-.62,0-.86-.24-.24-.62-.24-.86,0Zm-5.21,4.23c-.28.18-.36.56-.17.84.18.28.56.36.84.18.29-.18.36-.56.18-.84-.18-.28-.56-.36-.84-.18Zm.87-52.75c-.3.29-.31.77-.01,1.07.29.3.78.31,1.08.01.3-.29.31-.78.01-1.08-.29-.3-.77-.31-1.07-.01Zm5.1,5.37c.35-.23.45-.7.21-1.05-.23-.35-.7-.45-1.05-.21-.35.23-.45.7-.21,1.05.23.35.7.45,1.05.22Zm3.4,5.45c.39-.15.58-.6.42-.99-.15-.39-.6-.58-.99-.43-.39.15-.58.6-.43.99.16.39.6.58.99.42Zm1.1,4.63c.08.41.48.68.9.6.41-.08.68-.48.59-.9-.08-.41-.48-.68-.9-.6-.41.08-.68.48-.59.9Zm1.89,4.51c-.42,0-.75.36-.74.78,0,.42.36.75.78.74.42,0,.75-.36.74-.78-.01-.42-.36-.75-.78-.74Zm-.62,7.17c-.08.41.19.81.61.89.41.08.81-.19.89-.6.08-.41-.19-.81-.6-.89-.41-.08-.81.19-.89.6Zm-.14,5.61c-.39-.16-.83.02-.99.41-.16.39.02.83.41.99.39.16.83-.02.99-.41.16-.39-.02-.83-.41-.99Zm-2.17,7.15c.24-.35.15-.82-.2-1.06-.35-.24-.82-.15-1.06.2-.24.35-.15.82.2,1.06.35.24.82.15,1.06-.2Zm-3.46,5.09c.3-.3.3-.78,0-1.07-.29-.3-.77-.3-1.07-.01-.3.3-.3.78,0,1.08.29.3.78.3,1.08,0Zm-5.41,3.22c-.35.23-.45.7-.22,1.05.23.35.7.45,1.05.22.35-.23.45-.7.22-1.05-.23-.35-.7-.45-1.05-.22Z"/><g><path class="d" d="m54.22,26.9c-.29,1.04-1.38,1.65-2.42,1.36-1.04-.29-1.65-1.37-1.36-2.42.29-1.04,1.37-1.65,2.42-1.36,1.04.29,1.65,1.37,1.36,2.42"/><path class="d" d="m49.66,48.96c.1-1.08,1.05-1.87,2.13-1.78,1.08.1,1.88,1.05,1.78,2.13-.1,1.08-1.05,1.87-2.13,1.78-1.08-.1-1.87-1.05-1.78-2.13"/><path class="d" d="m45.43,47.6c.5-.96,1.69-1.33,2.65-.82.96.51,1.32,1.69.82,2.65-.5.96-1.69,1.32-2.65.82-.96-.51-1.32-1.69-.82-2.65"/><path class="d" d="m41.93,44.57c.85-.68,2.08-.54,2.76.31.67.85.54,2.08-.31,2.76-.85.68-2.08.53-2.76-.31-.68-.85-.54-2.08.31-2.76"/><path class="d" d="m39.95,40.41c1.05-.28,2.12.34,2.4,1.38.28,1.05-.34,2.12-1.39,2.4-1.04.28-2.12-.34-2.4-1.39-.28-1.05.34-2.12,1.39-2.4"/><path class="d" d="m39.75,35.99c1.08.14,1.83,1.13,1.69,2.2-.14,1.07-1.13,1.83-2.2,1.69-1.07-.14-1.83-1.13-1.69-2.2.14-1.07,1.13-1.83,2.2-1.69"/><path class="d" d="m41.36,31.69c.93.56,1.23,1.76.68,2.69-.56.93-1.76,1.23-2.69.67-.93-.56-1.23-1.76-.68-2.69.56-.93,1.76-1.23,2.69-.67"/><path class="d" d="m44.55,28.38c.63.88.43,2.11-.45,2.74-.88.63-2.11.43-2.74-.45-.63-.88-.43-2.11.45-2.74.88-.63,2.11-.43,2.74.45"/><path class="d" d="m49.3,26.53c.18,1.07-.54,2.08-1.61,2.26-1.07.18-2.08-.54-2.26-1.61-.18-1.07.54-2.08,1.61-2.26,1.07-.18,2.08.54,2.26,1.61"/><path class="d" d="m52.64,54.14c0,.93-.75,1.68-1.69,1.68s-1.68-.75-1.68-1.68.75-1.68,1.68-1.68,1.69.75,1.69,1.68"/><path class="d" d="m57.73,52.75c.29.88-.18,1.83-1.06,2.13-.88.29-1.84-.18-2.13-1.06-.29-.88.18-1.83,1.06-2.13.88-.29,1.84.18,2.13,1.06"/><path class="d" d="m49.17,21.51c.03-.93.8-1.66,1.73-1.63.93.03,1.66.81,1.63,1.74-.03.93-.81,1.66-1.74,1.63-.93-.03-1.66-.81-1.63-1.73"/><path class="d" d="m54.16,21.65c.29-.88,1.25-1.36,2.13-1.06.88.3,1.36,1.25,1.06,2.13-.3.88-1.25,1.36-2.13,1.06-.88-.3-1.36-1.25-1.06-2.13"/><path class="d" d="m44.21,22.91c-.27-.89.22-1.83,1.11-2.11.89-.27,1.83.22,2.11,1.11.27.89-.22,1.83-1.11,2.11-.89.28-1.83-.22-2.11-1.11"/><path class="d" d="m39.66,26.01c-.56-.74-.41-1.8.33-2.36.74-.56,1.8-.41,2.36.33.56.74.41,1.8-.33,2.36-.74.56-1.8.41-2.36-.33"/><path class="d" d="m34.9,34.58c-.88-.31-1.34-1.27-1.03-2.14.31-.88,1.27-1.34,2.15-1.03.88.31,1.34,1.27,1.03,2.15-.31.88-1.27,1.34-2.14,1.03"/><path class="d" d="m36.53,29.85c-.77-.52-.96-1.57-.43-2.34.53-.77,1.58-.96,2.34-.43.77.53.96,1.58.43,2.34-.53.77-1.57.96-2.34.43"/><path class="d" d="m34.61,39.64c-.93-.03-1.66-.81-1.62-1.74.03-.93.81-1.66,1.74-1.62.93.03,1.65.81,1.62,1.74-.03.93-.81,1.66-1.75,1.62"/><path class="d" d="m35.94,44.64c-.89.26-1.83-.25-2.09-1.14-.26-.89.25-1.83,1.14-2.09.89-.26,1.83.25,2.09,1.14.26.89-.25,1.83-1.14,2.09"/><path class="d" d="m38.86,48.98c-.75.55-1.8.39-2.36-.36-.55-.75-.39-1.8.36-2.35.75-.55,1.8-.39,2.35.36.55.75.39,1.8-.36,2.35"/><path class="d" d="m47.03,53.86c-.32.87-1.29,1.32-2.16,1-.87-.32-1.32-1.29-1-2.16.32-.87,1.29-1.32,2.16-1,.87.32,1.32,1.29,1,2.16"/><path class="d" d="m42.78,52.13c-.54.76-1.59.94-2.35.4-.76-.54-.94-1.59-.4-2.35.54-.76,1.59-.94,2.35-.4.76.54.94,1.59.4,2.35"/><path class="d" d="m52.43,17.21c0,.81-.66,1.47-1.47,1.47s-1.46-.66-1.46-1.47.66-1.47,1.46-1.47,1.47.66,1.47,1.47"/><path class="d" d="m56.43,17.91c-.16.79-.93,1.31-1.72,1.15-.79-.16-1.31-.93-1.15-1.72.16-.79.93-1.31,1.73-1.15.79.16,1.31.93,1.15,1.73"/><path class="d" d="m60.03,19.28c-.3.75-1.16,1.11-1.91.81-.75-.3-1.11-1.16-.81-1.91.3-.75,1.16-1.11,1.91-.81.75.3,1.11,1.16.81,1.91"/><path class="d" d="m30.31,36.43c.81,0,1.47.65,1.48,1.46,0,.81-.65,1.47-1.46,1.48-.81,0-1.47-.65-1.48-1.46,0-.81.64-1.47,1.46-1.48"/><path class="d" d="m30.97,32.42c.8.15,1.32.92,1.16,1.72-.15.8-.92,1.32-1.72,1.16-.8-.15-1.32-.92-1.16-1.72.15-.8.92-1.32,1.72-1.16"/><path class="d" d="m32.32,28.81c.75.3,1.12,1.15.82,1.9-.3.75-1.15,1.12-1.9.82-.75-.3-1.12-1.15-.82-1.9.3-.75,1.15-1.12,1.9-.83"/><path class="d" d="m34.59,25.16c.67.45.86,1.36.41,2.03-.45.68-1.36.86-2.03.41-.67-.45-.86-1.36-.41-2.03.45-.68,1.36-.86,2.03-.41"/><path class="d" d="m37.27,22.3c.58.57.59,1.5.02,2.07-.57.58-1.5.59-2.07.02-.58-.57-.59-1.5-.02-2.07.57-.58,1.5-.59,2.07-.02"/><path class="d" d="m40.61,19.89c.45.68.26,1.59-.41,2.03-.68.45-1.59.26-2.03-.42-.45-.68-.26-1.59.42-2.03.67-.45,1.58-.26,2.03.42"/><path class="d" d="m44.01,18.34c.33.74-.01,1.61-.75,1.93-.74.33-1.61,0-1.93-.75-.33-.74.01-1.61.75-1.93.74-.33,1.61,0,1.94.75"/><path class="d" d="m48.01,17.42c.19.79-.3,1.58-1.08,1.77-.79.19-1.58-.3-1.77-1.08-.19-.79.29-1.58,1.08-1.77.79-.19,1.58.29,1.77,1.08"/><path class="d" d="m49.53,58.39c0-.81.65-1.47,1.46-1.48.81,0,1.47.65,1.48,1.45,0,.81-.65,1.47-1.46,1.48-.81,0-1.47-.65-1.48-1.46"/><path class="d" d="m45.52,57.72c.15-.79.93-1.32,1.72-1.16.79.15,1.32.92,1.16,1.72-.15.8-.92,1.32-1.72,1.16-.79-.15-1.31-.92-1.16-1.72"/><path class="d" d="m41.91,56.38c.3-.75,1.15-1.12,1.9-.82.75.3,1.12,1.15.82,1.9-.3.75-1.15,1.12-1.9.82-.75-.3-1.12-1.15-.83-1.9"/><path class="d" d="m38.26,54.11c.45-.68,1.36-.86,2.03-.41.68.45.86,1.36.41,2.03-.45.68-1.36.86-2.03.41-.68-.45-.86-1.36-.41-2.03"/><path class="d" d="m35.4,51.42c.57-.58,1.49-.59,2.07-.02.58.57.59,1.5.02,2.07-.57.58-1.5.59-2.07.02-.58-.57-.59-1.5-.02-2.07"/><path class="d" d="m33,48.08c.67-.45,1.59-.26,2.03.42.45.68.26,1.59-.42,2.03-.68.45-1.59.26-2.03-.42-.45-.68-.26-1.58.42-2.03"/><path class="d" d="m31.45,44.68c.74-.33,1.61.01,1.93.75.33.74,0,1.61-.75,1.93-.74.33-1.6-.01-1.93-.75-.33-.74,0-1.61.75-1.93"/><path class="d" d="m30.53,40.68c.79-.19,1.58.3,1.77,1.08.19.79-.3,1.58-1.09,1.77-.79.19-1.58-.3-1.76-1.08-.19-.79.29-1.58,1.08-1.77"/><path class="d" d="m57.51,57.35c-.32-.75.03-1.61.78-1.92.75-.31,1.6.04,1.92.78.32.75-.03,1.61-.78,1.92-.74.31-1.6-.04-1.92-.78"/><path class="d" d="m53.49,58.21c-.18-.79.32-1.57,1.11-1.75.79-.18,1.57.32,1.75,1.11.18.79-.32,1.57-1.11,1.75-.79.18-1.57-.32-1.75-1.11"/><path class="d" d="m49.49,13.73c0,.69-.56,1.25-1.25,1.25s-1.25-.56-1.25-1.25.56-1.25,1.25-1.25,1.25.56,1.25,1.25"/><path class="d" d="m55.08,14.08c-.16.67-.83,1.09-1.5.93-.67-.16-1.09-.83-.93-1.5.16-.67.83-1.09,1.51-.93.67.16,1.08.83.92,1.5"/><path class="d" d="m59.42,15.29c-.28.63-1.02.91-1.65.63-.63-.28-.91-1.02-.63-1.65.28-.63,1.02-.91,1.65-.63.63.28.91,1.02.63,1.65"/><path class="d" d="m63.27,17.18c-.39.57-1.16.72-1.74.33-.57-.39-.72-1.17-.33-1.74.39-.57,1.16-.72,1.73-.33.57.39.72,1.17.33,1.74"/><path class="d" d="m61.08,59.59c-.26-.64.05-1.37.68-1.63.64-.26,1.37.05,1.63.69.26.64-.05,1.37-.69,1.63-.64.26-1.37-.05-1.63-.69"/><path class="d" d="m56.72,61.15c-.13-.68.31-1.33.99-1.47.68-.13,1.33.31,1.47.99.13.68-.31,1.33-.99,1.47-.68.13-1.33-.31-1.47-.98"/><path class="d" d="m52.24,61.85c0-.69.56-1.25,1.24-1.26.69,0,1.25.55,1.26,1.24,0,.69-.55,1.25-1.24,1.26-.69,0-1.25-.55-1.26-1.24"/><path class="d" d="m46.88,61.57c.15-.67.82-1.1,1.49-.95.67.15,1.1.82.95,1.49-.15.67-.82,1.1-1.49.95-.67-.15-1.1-.82-.95-1.49"/><path class="d" d="m42.95,60.58c.26-.64.99-.95,1.63-.69.64.26.95.99.69,1.63-.26.64-.99.95-1.63.69-.64-.26-.95-.99-.69-1.63"/><path class="d" d="m37.81,58.09c.4-.56,1.18-.69,1.74-.29.56.4.69,1.18.29,1.74-.4.56-1.18.69-1.74.29-.56-.4-.69-1.18-.28-1.74"/><path class="d" d="m34.5,55.55c.49-.48,1.28-.47,1.77.02.48.49.47,1.28-.02,1.77-.49.48-1.28.47-1.77-.02-.48-.49-.47-1.28.02-1.77"/><path class="d" d="m31.38,52.07c.58-.38,1.35-.22,1.73.36.38.58.22,1.35-.36,1.73-.58.38-1.35.22-1.73-.36-.38-.58-.22-1.35.36-1.73"/><path class="d" d="m29.16,48.4c.64-.27,1.37.03,1.64.66.27.64-.02,1.37-.66,1.64-.64.27-1.37-.03-1.64-.66-.27-.64.03-1.37.66-1.64"/><path class="d" d="m27.67,44.57c.67-.16,1.35.26,1.5.93.16.67-.26,1.34-.93,1.5-.67.16-1.34-.26-1.5-.93-.16-.67.26-1.34.93-1.5"/><path class="d" d="m26.75,39.41c.69,0,1.26.54,1.27,1.23,0,.69-.54,1.26-1.23,1.27-.69,0-1.26-.54-1.27-1.23,0-.69.55-1.26,1.23-1.27"/><path class="d" d="m26.94,34.37c.68.14,1.12.79.98,1.47-.14.68-.79,1.12-1.47.98-.68-.13-1.11-.79-.98-1.47.13-.68.79-1.12,1.47-.98"/><path class="d" d="m28.1,29.7c.64.27.94,1,.67,1.64-.27.64-1,.94-1.63.67-.64-.27-.94-1-.67-1.64.27-.64,1-.93,1.64-.67"/><path class="d" d="m30.19,25.3c.57.39.72,1.17.33,1.74-.39.57-1.17.72-1.74.33-.57-.39-.72-1.17-.33-1.74.39-.57,1.17-.71,1.74-.33"/><path class="d" d="m33.23,21.3c.48.5.46,1.29-.04,1.77-.5.48-1.29.46-1.77-.04-.48-.5-.46-1.29.04-1.77.5-.48,1.29-.46,1.76.04"/><path class="d" d="m36.54,18.37c.38.58.22,1.35-.36,1.73-.57.38-1.35.22-1.73-.36-.38-.58-.21-1.35.36-1.73.58-.38,1.35-.21,1.73.36"/><path class="d" d="m40.31,16.1c.27.64-.03,1.37-.67,1.64-.63.27-1.37-.03-1.63-.67-.27-.64.03-1.37.67-1.64.64-.27,1.37.03,1.64.67"/><path class="d" d="m44.77,14.46c.14.68-.3,1.34-.98,1.47-.67.14-1.34-.3-1.47-.98-.14-.68.3-1.33.98-1.47.68-.14,1.33.3,1.47.98"/><path class="d" d="m46.45,10.13c.13.64-.29,1.27-.93,1.4-.64.13-1.27-.29-1.4-.93-.13-.64.29-1.27.93-1.4.64-.13,1.27.29,1.4.93"/><path class="d" d="m52.18,9.8c0,.66-.54,1.18-1.2,1.18-.66,0-1.19-.54-1.18-1.19,0-.66.54-1.18,1.2-1.18.66,0,1.18.54,1.18,1.2"/><path class="d" d="m58.67,10.87c-.16.64-.8,1.03-1.44.87-.64-.16-1.03-.8-.87-1.44.16-.64.8-1.02,1.44-.87.64.16,1.02.8.87,1.44"/><path class="d" d="m63.1,12.57c-.26.6-.96.88-1.56.61-.6-.26-.88-.96-.61-1.56.26-.6.96-.88,1.56-.61.6.26.88.96.61,1.56"/><path class="d" d="m60.31,64.19c-.24-.61.05-1.3.66-1.54.61-.24,1.3.05,1.55.66.24.61-.05,1.3-.66,1.54-.61.24-1.3-.05-1.54-.66"/><path class="d" d="m55.21,65.48c-.12-.65.29-1.27.94-1.39.64-.12,1.27.29,1.39.94.13.65-.29,1.27-.94,1.39-.64.12-1.27-.29-1.39-.94"/><path class="d" d="m49.23,65.77c.01-.66.56-1.18,1.21-1.16.66.01,1.18.56,1.16,1.21-.01.66-.55,1.17-1.21,1.16-.65-.02-1.18-.56-1.16-1.21"/><path class="d" d="m43.89,64.92c.14-.64.77-1.05,1.41-.91.64.14,1.05.77.91,1.41-.14.64-.77,1.05-1.41.91-.64-.14-1.05-.77-.91-1.41"/><path class="d" d="m38.61,62.98c.27-.6.97-.87,1.57-.61.6.26.87.96.61,1.56-.27.6-.97.87-1.57.61-.6-.27-.87-.96-.61-1.56"/><path class="d" d="m33.27,59.57c.39-.53,1.14-.63,1.66-.24.53.39.63,1.14.24,1.66-.39.53-1.13.63-1.66.24-.52-.39-.63-1.14-.24-1.66"/><path class="d" d="m30.06,56.52c.47-.46,1.22-.45,1.68.02.45.47.45,1.22-.02,1.68-.47.46-1.22.45-1.68-.03-.46-.47-.45-1.22.02-1.68"/><path class="d" d="m26.88,52.22c.55-.36,1.29-.21,1.64.34.36.55.21,1.28-.34,1.64-.55.36-1.28.21-1.64-.34-.36-.55-.2-1.28.34-1.64"/><path class="d" d="m24.84,48.08c.6-.26,1.3,0,1.57.61.26.6,0,1.3-.61,1.56-.6.26-1.3,0-1.57-.61-.26-.6,0-1.3.61-1.56"/><path class="d" d="m23.32,42.73c.64-.14,1.28.27,1.42.91.14.64-.27,1.27-.91,1.41-.64.14-1.27-.26-1.42-.91-.14-.64.27-1.27.91-1.41"/><path class="d" d="m22.9,36.91c.66,0,1.19.52,1.2,1.18,0,.65-.52,1.19-1.18,1.2-.66,0-1.19-.52-1.2-1.18,0-.65.52-1.19,1.18-1.2"/><path class="d" d="m23.66,31.24c.64.13,1.06.75.93,1.4-.13.64-.75,1.06-1.4.93-.64-.13-1.06-.75-.93-1.4.13-.64.75-1.06,1.4-.93"/><path class="d" d="m25.42,26.14c.61.25.9.94.65,1.55-.25.61-.94.9-1.55.65-.61-.25-.9-.94-.65-1.55.25-.6.95-.89,1.55-.64"/><path class="d" d="m28.17,21.41c.54.36.7,1.1.33,1.65-.36.55-1.1.7-1.65.33-.55-.36-.7-1.1-.33-1.65.36-.55,1.1-.69,1.64-.33"/><path class="d" d="m32.34,16.81c.45.48.44,1.22-.03,1.68-.47.45-1.23.44-1.68-.04-.45-.47-.44-1.22.04-1.68.47-.45,1.22-.44,1.68.04"/><path class="d" d="m36.34,13.86c.36.55.21,1.28-.33,1.65-.55.36-1.29.21-1.65-.33-.36-.55-.21-1.28.33-1.65.55-.36,1.28-.21,1.65.33"/><path class="d" d="m41.19,11.51c.25.61-.04,1.3-.64,1.55-.61.25-1.3-.04-1.55-.64-.25-.61.03-1.3.64-1.55.6-.25,1.3.04,1.55.64"/><path class="d" d="m48.52,6.73c0,.42-.34.76-.76.76s-.76-.34-.76-.76.34-.76.76-.76.76.34.76.76"/><path class="d" d="m51.4,3.36c0,.34-.27.61-.61.61s-.61-.27-.61-.61.27-.61.61-.61.61.27.61.61"/><path class="d" d="m59.53,4.45c-.08.33-.41.53-.74.45-.33-.08-.53-.41-.45-.74.08-.33.41-.53.73-.45.32.08.53.41.45.74"/><path class="d" d="m65.78,6.74c-.14.31-.5.44-.81.3-.31-.14-.44-.5-.3-.81.14-.3.5-.44.81-.3.3.14.44.5.3.81"/><path class="d" d="m62.95,70.06c-.12-.31.03-.67.34-.79.31-.12.67.03.79.35.12.31-.03.67-.34.79-.31.12-.67-.03-.79-.34"/><path class="d" d="m56.66,71.75c-.06-.33.16-.65.49-.71.33-.06.65.16.71.49.06.33-.16.65-.49.71-.33.06-.65-.16-.71-.49"/><path class="d" d="m49.51,72.21c0-.34.29-.6.62-.59.34.01.6.29.59.63,0,.33-.29.6-.62.59-.34,0-.6-.29-.59-.62"/><path class="d" d="m42.31,71.14c.08-.33.41-.53.73-.45.33.08.53.41.45.73-.08.33-.41.53-.73.45-.33-.08-.53-.41-.45-.74"/><path class="d" d="m35.95,68.82c.14-.31.5-.44.81-.3.31.14.44.5.3.81-.14.31-.5.44-.81.3-.3-.14-.44-.5-.3-.81"/><path class="d" d="m29.81,65.02c.2-.27.58-.32.85-.12.27.2.32.58.12.85-.2.27-.58.32-.85.12-.27-.2-.32-.58-.12-.85"/><path class="d" d="m25.34,60.86c.25-.23.63-.21.86.03.23.25.22.63-.03.86-.25.23-.63.22-.86-.03-.23-.25-.21-.63.03-.86"/><path class="d" d="m21.75,56.12c.28-.18.66-.1.84.18.18.28.1.66-.18.84-.28.18-.66.1-.84-.18-.18-.28-.1-.66.18-.84"/><path class="d" d="m19.26,51.38c.31-.14.67,0,.8.31.14.31,0,.67-.31.8-.31.14-.67,0-.81-.31-.13-.31,0-.67.31-.8"/><path class="d" d="m17.28,45.23c.33-.08.66.12.73.45.07.33-.13.66-.45.73-.33.08-.66-.12-.73-.45-.08-.33.12-.65.45-.73"/><path class="d" d="m16.47,37.63c.34,0,.61.26.61.6,0,.34-.27.61-.6.61-.34,0-.61-.27-.62-.6,0-.34.27-.61.6-.61"/><path class="d" d="m17.1,31.22c.33.06.55.37.49.7-.06.33-.38.55-.7.49-.33-.06-.55-.37-.49-.71.06-.33.37-.55.7-.49"/><path class="d" d="m19.2,24.35c.31.13.46.48.34.79-.13.31-.48.46-.79.33-.31-.13-.46-.48-.34-.79.13-.31.48-.46.79-.33"/><path class="d" d="m22.62,18.15c.28.19.35.57.16.84-.19.28-.57.35-.84.16-.28-.19-.36-.56-.17-.84.19-.28.57-.35.84-.16"/><path class="d" d="m27.23,12.78c.24.24.23.63,0,.86-.24.24-.63.23-.86-.01-.24-.24-.23-.62,0-.86.24-.23.63-.23.86.01"/><path class="d" d="m32.54,8.66c.18.28.1.66-.18.84-.28.18-.66.1-.84-.18-.19-.28-.1-.66.18-.84.28-.18.66-.1.84.18"/><path class="d" d="m38.79,5.56c.12.31-.03.67-.34.79s-.67-.03-.79-.34c-.12-.31.03-.67.34-.79.31-.12.67.03.79.35"/><path class="d" d="m44.55,3.95c.07.33-.14.65-.47.72-.33.07-.65-.15-.72-.47-.07-.33.15-.65.48-.72.33-.07.65.15.71.47"/><path class="d" d="m55.52,6.98c-.09.41-.5.66-.91.57-.41-.09-.67-.5-.57-.91.09-.41.5-.66.91-.57.41.09.66.5.57.91"/><path class="d" d="m61.78,8.6c-.18.38-.63.55-1.01.37-.38-.18-.55-.63-.37-1.01.18-.38.63-.55,1.01-.37.38.18.54.63.37,1.01"/><path class="d" d="m66.65,10.91c-.24.35-.71.43-1.06.19-.34-.24-.43-.71-.19-1.06.24-.35.72-.43,1.06-.19.35.24.43.71.19,1.06"/><path class="d" d="m64.92,65.62c-.16-.39.02-.83.42-.99.38-.16.83.03.99.41.16.39-.02.83-.41.99-.39.16-.83-.03-.99-.42"/><path class="d" d="m59.29,67.81c-.08-.41.18-.81.6-.89.41-.08.81.19.89.6.08.41-.19.81-.6.89-.41.08-.81-.19-.89-.6"/><path class="d" d="m52.83,68.89c0-.42.35-.76.77-.75.42,0,.76.35.75.77,0,.42-.35.76-.77.75-.42,0-.75-.35-.75-.77"/><path class="d" d="m46.03,68.57c.1-.41.51-.66.92-.56.41.1.66.51.56.92-.1.41-.5.66-.92.56-.41-.1-.66-.51-.56-.92"/><path class="d" d="m40.57,67.19c.17-.38.62-.56,1.01-.39.38.17.56.62.39,1-.17.38-.62.56-1,.39-.38-.17-.56-.62-.39-1"/><path class="d" d="m34.43,64.24c.25-.34.73-.41,1.06-.16.34.25.41.72.16,1.06-.25.34-.72.41-1.06.16-.34-.25-.41-.72-.16-1.06"/><path class="d" d="m29.69,60.62c.31-.28.79-.26,1.08.04.28.31.26.79-.04,1.07-.31.28-.79.27-1.07-.04-.29-.31-.27-.79.04-1.08"/><path class="d" d="m26.07,56.61c.35-.23.82-.12,1.05.23.23.35.12.82-.23,1.05-.35.23-.82.13-1.05-.23-.23-.35-.12-.82.23-1.05"/><path class="d" d="m23.25,52.16c.39-.17.83.01,1,.4.17.39-.01.83-.4,1-.39.16-.83-.01-1-.4-.16-.39.02-.83.4-1"/><path class="d" d="m21.1,46.88c.41-.09.82.17.91.58.09.41-.17.82-.58.91-.41.09-.81-.17-.91-.58-.09-.41.17-.82.58-.91"/><path class="d" d="m19.84,40.2c.42,0,.76.34.76.76s-.34.76-.76.76c-.42,0-.76-.34-.76-.76,0-.42.34-.76.76-.76"/><path class="d" d="m19.94,34.3c.41.08.68.48.6.89-.08.41-.48.68-.89.6-.41-.08-.68-.48-.6-.89.08-.41.48-.68.89-.6"/><path class="d" d="m21.26,28.21c.39.16.58.6.41.99-.16.39-.6.57-.99.41-.39-.16-.57-.6-.42-.99.16-.39.61-.57.99-.41"/><path class="d" d="m23.75,22.51c.35.23.44.71.21,1.06-.23.35-.71.44-1.05.21-.35-.23-.44-.71-.21-1.05.23-.35.71-.44,1.05-.21"/><path class="d" d="m27.63,17.08c.29.3.28.78-.02,1.08-.3.29-.78.28-1.07-.02-.29-.3-.28-.78.02-1.07.3-.29.78-.28,1.08.02"/><path class="d" d="m32.17,12.9c.23.35.12.82-.23,1.05-.35.23-.83.12-1.05-.23-.23-.35-.12-.82.23-1.05.35-.23.82-.12,1.05.23"/><path class="d" d="m37.12,9.85c.16.39-.03.83-.42.99-.39.16-.83-.03-.99-.42-.16-.39.03-.83.42-.99.39-.16.83.03.99.42"/><path class="d" d="m42.84,7.7c.08.41-.19.81-.61.89-.41.08-.81-.2-.89-.61-.08-.41.19-.81.6-.89.41-.08.81.2.89.61"/></g><g><path class="e" d="m58.8,41.86c-1.92,2.57-4.4,3.93-7.56,3.93-4.06,0-7.96-2.57-7.96-8.27,0-5.2,3.35-8.15,7.72-8.15,4.09,0,5.79,2.45,6.1,2.91,1.27,1.8,1.55,4.49,1.58,6.04h-11.46c.43,2.45,1.95,3.84,4.4,3.84s3.56-1.49,4.03-2.14l3.16,1.83Zm-4.21-6.26c-.34-2.42-1.83-3.25-3.47-3.25-1.98,0-3.35,1.15-3.78,3.25h7.25Z"/><path class="e" d="m65.21,29.84v2.2c.46-.81,1.49-2.63,4.96-2.54v3.81c-.8.03-2.2.06-3.35.93-1.58,1.21-1.61,2.79-1.61,5.36v5.73h-3.59v-15.49h3.59Z"/><path class="e" d="m81.94,35.32c-.28-1.02-1.36-2.63-3.5-2.63s-3.84,1.7-3.84,4.8c0,2.79,1.46,4.83,3.9,4.83s3.25-1.8,3.72-3.04l3.19,1.67c-1.21,3.35-4.27,4.83-6.97,4.83-4.31,0-7.68-3.32-7.68-8.21s3.41-8.21,7.81-8.21c3.9,0,5.89,2.6,6.69,4.4l-3.31,1.55Z"/></g><polyline class="e" points="2.23 80.51 2.23 81.81 4.91 81.81 4.91 82.71 2.23 82.71 2.23 84.2 5.36 84.2 5.36 85.14 1.2 85.14 1.2 79.58 5.16 79.58 5.16 80.51 2.23 80.51"/><path class="e" d="m9.59,81.2v3.94h-.95v-.4c-.17.16-.55.5-1.28.5-.65,0-.95-.27-1.09-.46-.27-.34-.27-.71-.27-1.3v-2.28h.95v2.26c0,.16,0,.29.03.39.1.35.39.5.73.5.39,0,.64-.21.76-.42.14-.26.15-.51.16-1.06v-1.67h.95"/><path class="e" d="m11.53,81.2v.56c.12-.21.38-.67,1.26-.65v.97c-.2,0-.56.02-.85.24-.4.31-.41.71-.41,1.36v1.46h-.91v-3.94h.91"/><path class="e" d="m15.07,85.26c-1.23,0-2.05-.9-2.05-2.1s.83-2.07,2.01-2.07c1.09,0,2.03.76,2.04,2.07,0,1.23-.81,2.1-2,2.1m-.05-3.32c-.59,0-1.02.47-1.02,1.2,0,.81.5,1.26,1.06,1.26.69,0,1.03-.6,1.01-1.25-.02-.65-.39-1.21-1.06-1.21Z"/><path class="e" d="m17.85,81.2h.94v.36c.15-.16.47-.48,1.08-.48,1.16,0,1.79,1.04,1.79,2.13,0,1.17-.73,2.05-1.79,2.05-.55,0-.88-.26-1.08-.44v1.61h-.94v-5.22m1.89,3.17c.46,0,.95-.31.95-1.21,0-.98-.69-1.17-.97-1.17-.43,0-.93.32-.95,1.16-.02.81.43,1.22.96,1.22Z"/><path class="e" d="m26.15,84.26c-.49.65-1.12,1-1.92,1-1.03,0-2.03-.65-2.03-2.1,0-1.33.85-2.07,1.96-2.07,1.04,0,1.47.62,1.55.74.32.46.39,1.14.4,1.54h-2.92c.11.62.5.98,1.12.98s.91-.38,1.03-.54l.8.46m-1.07-1.59c-.09-.61-.47-.83-.88-.83-.5,0-.85.29-.96.83h1.84Z"/><path class="e" d="m26.75,82.36c.02-.2.03-.36.16-.59.38-.68,1.32-.68,1.57-.68.38,0,.84.05,1.18.25.46.28.47.65.47,1.08v2.09c0,.3,0,.4.17.64h-1.12c0-.09-.02-.25-.02-.31-.2.17-.62.4-1.17.4-.89,0-1.43-.55-1.43-1.23,0-.2.05-.38.13-.54.28-.57.89-.69,1.27-.76.81-.17.88-.18,1.22-.29,0-.2-.02-.6-.67-.6-.39,0-.61.13-.7.25-.1.13-.09.24-.09.35l-.97-.06m2.44.82c-.19.09-.4.17-.83.24-.34.05-.79.13-.79.54,0,.31.26.46.64.46.48,0,.82-.22.92-.46.06-.12.06-.24.06-.35v-.43Z"/><path class="e" d="m31.13,81.2h.95v.47c.05-.07.14-.2.31-.31.24-.17.6-.28.91-.28.45,0,.84.2,1.03.47.24.33.24.76.24,1.27v2.32h-.94v-2.01c0-.29,0-.49-.03-.6-.09-.35-.34-.53-.65-.53s-.59.18-.73.44c-.15.29-.15.69-.15.98v1.71h-.95v-3.94"/><path class="e" d="m37.84,79.58h1.77c.74,0,1.24,0,1.73.4.35.28.62.73.62,1.37,0,1.06-.78,1.43-1.1,1.53l1.24,2.26h-1.19l-1.1-2.06h-.93v2.06h-1.03v-5.56m1.03.9v1.74h.36c.35,0,.49,0,.69-.02.23,0,.98-.05.98-.86,0-.12,0-.53-.44-.75-.22-.11-.49-.12-1.1-.12h-.48Z"/><path class="e" d="m46.51,84.26c-.49.65-1.12,1-1.92,1-1.03,0-2.03-.65-2.03-2.1,0-1.33.85-2.07,1.96-2.07,1.04,0,1.47.62,1.55.74.32.46.39,1.14.4,1.54h-2.92c.11.62.5.98,1.12.98s.91-.38,1.03-.54l.8.46m-1.07-1.59c-.09-.61-.47-.83-.88-.83-.5,0-.85.29-.96.83h1.85Z"/><path class="e" d="m47.6,83.97c.24.29.59.5,1.14.5s.78-.27.78-.46c0-.25-.28-.32-.41-.34-.13-.03-.78-.15-.92-.19-.94-.22-1.11-.76-1.11-1.12,0-.67.61-1.28,1.69-1.28.6,0,1.03.19,1.3.38.2.13.32.26.4.35l-.67.62c-.11-.21-.38-.6-1.07-.6-.45,0-.65.2-.65.4,0,.28.29.36.8.45.82.15,1.05.19,1.3.39.24.19.4.5.4.84,0,.61-.55,1.35-1.77,1.35-.7,0-1.4-.22-1.89-.7l.7-.58"/><path class="e" d="m55.05,84.26c-.49.65-1.12,1-1.92,1-1.03,0-2.02-.65-2.02-2.1,0-1.33.85-2.07,1.96-2.07,1.04,0,1.47.62,1.55.74.32.46.39,1.14.4,1.54h-2.92c.11.62.5.98,1.12.98s.91-.38,1.02-.54l.8.46m-1.07-1.59c-.09-.61-.47-.83-.88-.83-.5,0-.85.29-.96.83h1.85Z"/><path class="e" d="m55.65,82.36c.02-.2.03-.36.16-.59.38-.68,1.32-.68,1.57-.68.38,0,.83.05,1.18.25.47.28.47.65.47,1.08v2.09c0,.3,0,.4.17.64h-1.12c0-.09-.02-.25-.02-.31-.2.17-.62.4-1.17.4-.89,0-1.43-.55-1.43-1.23,0-.2.05-.38.13-.54.28-.57.89-.69,1.27-.76.81-.17.88-.18,1.22-.29,0-.2-.02-.6-.67-.6-.39,0-.61.13-.7.25-.1.13-.09.24-.09.35l-.97-.06m2.44.82c-.19.09-.4.17-.83.24-.34.05-.79.13-.79.54,0,.31.26.46.64.46.48,0,.82-.22.92-.46.05-.12.05-.24.05-.35v-.43Z"/><path class="e" d="m60.95,81.2v.56c.12-.21.38-.67,1.26-.65v.97c-.2,0-.56.02-.85.24-.4.31-.41.71-.41,1.36v1.46h-.91v-3.94h.91"/><path class="e" d="m65.21,82.6c-.07-.26-.35-.67-.89-.67s-.98.43-.98,1.22c0,.71.37,1.23.99,1.23s.83-.46.95-.77l.81.43c-.31.85-1.09,1.23-1.77,1.23-1.1,0-1.95-.84-1.95-2.09s.87-2.09,1.99-2.09c.99,0,1.5.66,1.7,1.12l-.84.39"/><path class="e" d="m67.39,79.58v2.03c.3-.3.71-.52,1.25-.52.49,0,.87.19,1.08.42.32.35.33.75.33,1.2v2.43h-.93v-2.17c-.01-.36-.01-.44-.06-.56-.03-.08-.17-.43-.69-.43-.61,0-.89.49-.95.72-.03.13-.03.19-.03.63v1.81h-.95v-5.56h.95"/><path class="e" d="m77.98,83.59c-.07.18-.21.5-.48.84-.4.46-1.02.86-1.92.86-1.47,0-2.6-1.08-2.6-2.94s1.22-2.91,2.64-2.91c1.73,0,2.14,1.33,2.27,1.72l-1.04.28c-.02-.1-.06-.34-.2-.55-.12-.17-.43-.49-1-.49-.91,0-1.54.75-1.54,1.94,0,1.27.67,1.97,1.55,1.97.52,0,.84-.25,1.06-.54.18-.24.25-.45.29-.57l.98.41"/><path class="e" d="m80.44,85.26c-1.23,0-2.05-.9-2.05-2.1s.84-2.07,2.01-2.07c1.1,0,2.03.76,2.04,2.07,0,1.23-.81,2.1-2,2.1m-.05-3.32c-.59,0-1.02.47-1.02,1.2,0,.81.5,1.26,1.06,1.26.69,0,1.03-.6,1.01-1.25-.02-.65-.4-1.21-1.06-1.21Z"/><path class="e" d="m86.78,81.2v3.94h-.94v-.4c-.17.16-.55.5-1.28.5-.65,0-.95-.27-1.1-.46-.27-.34-.27-.71-.27-1.3v-2.28h.95v2.26c0,.16,0,.29.03.39.1.35.39.5.73.5.39,0,.64-.21.76-.42.14-.26.15-.51.16-1.06v-1.67h.94"/><path class="e" d="m87.8,81.2h.95v.47c.05-.07.14-.2.31-.31.24-.17.6-.28.91-.28.45,0,.84.2,1.03.47.24.33.24.76.24,1.27v2.32h-.94v-2.01c0-.29,0-.49-.03-.6-.09-.35-.34-.53-.65-.53s-.59.18-.73.44c-.15.29-.15.69-.15.98v1.71h-.95v-3.94"/><path class="e" d="m94.77,82.6c-.07-.26-.35-.67-.89-.67s-.98.43-.98,1.22c0,.71.37,1.23.99,1.23s.83-.46.95-.77l.81.43c-.31.85-1.09,1.23-1.77,1.23-1.1,0-1.95-.84-1.95-2.09s.87-2.09,1.99-2.09c.99,0,1.5.66,1.7,1.12l-.84.39"/><path class="e" d="m97.12,79.63v.95h-.94v-.95h.94m-.94,1.57h.94v3.94h-.94v-3.94Z"/><rect class="e" x="98.15" y="79.58" width=".95" height="5.56"/><g><path class="e" d="m1.24,96.18v-3.85h2.39v.37h-1.98v1.36h1.69v.37h-1.69v1.39h1.98v.37H1.24Z"/><path class="e" d="m5.25,96.22c-.45,0-.8-.1-1.09-.38l.26-.26c.21.22.5.31.83.31.44,0,.71-.16.71-.47,0-.23-.13-.36-.44-.39l-.44-.04c-.52-.04-.79-.28-.79-.71,0-.49.41-.78.98-.78.38,0,.72.09.96.29l-.25.25c-.19-.15-.43-.21-.71-.21-.39,0-.59.17-.59.44,0,.23.13.36.46.39l.43.04c.46.04.78.22.78.72s-.44.81-1.08.81Z"/><path class="e" d="m7.79,96.18c-.45,0-.68-.32-.68-.71v-1.63h-.33v-.3h.33v-.83h.39v.83h.57v.3h-.57v1.62c0,.24.11.39.36.39h.21v.34h-.28Z"/><path class="e" d="m10.3,96.18v-.25c-.22.22-.41.29-.77.29s-.58-.07-.75-.24c-.13-.13-.2-.33-.2-.54,0-.46.32-.77.92-.77h.8v-.25c0-.39-.19-.58-.68-.58-.34,0-.51.08-.67.3l-.26-.24c.24-.31.51-.39.94-.39.71,0,1.07.31,1.07.89v1.81h-.39Zm0-1.23h-.75c-.4,0-.59.16-.59.47s.19.45.61.45c.23,0,.43-.02.59-.18.09-.09.13-.24.13-.46v-.29Z"/><path class="e" d="m13.42,95.98c-.14.14-.38.23-.65.23-.29,0-.54-.07-.75-.35v.32h-.39v-3.85h.39v1.5c.22-.28.46-.34.75-.34.27,0,.51.09.65.23.27.27.32.71.32,1.13s-.05.86-.32,1.13Zm-.73-2.15c-.58,0-.67.5-.67,1.02s.09,1.02.67,1.02.66-.5.66-1.02-.09-1.02-.66-1.02Z"/><path class="e" d="m15.24,96.18c-.46,0-.68-.3-.68-.71v-3.14h.39v3.12c0,.26.09.39.36.39h.21v.34h-.28Z"/><path class="e" d="m16.16,92.77v-.44h.44v.44h-.44Zm.02,3.42v-2.66h.39v2.66h-.39Z"/><path class="e" d="m18.39,96.22c-.45,0-.8-.1-1.09-.38l.26-.26c.21.22.5.31.83.31.44,0,.71-.16.71-.47,0-.23-.13-.36-.44-.39l-.44-.04c-.52-.04-.79-.28-.79-.71,0-.49.41-.78.98-.78.38,0,.72.09.96.29l-.25.25c-.19-.15-.43-.21-.71-.21-.39,0-.59.17-.59.44,0,.23.13.36.46.39l.43.04c.46.04.78.22.78.72s-.44.81-1.08.81Z"/><path class="e" d="m21.93,96.18v-1.64c0-.47-.25-.7-.65-.7s-.66.24-.66.7v1.64h-.39v-3.85h.39v1.48c.19-.22.45-.32.75-.32.6,0,.96.38.96.98v1.71h-.39Z"/><path class="e" d="m23.51,94.96c0,.58.28.92.78.92.31,0,.49-.09.7-.3l.26.23c-.27.27-.52.41-.97.41-.7,0-1.16-.42-1.16-1.36,0-.86.42-1.36,1.09-1.36s1.09.5,1.09,1.29v.18h-1.8Zm1.32-.74c-.1-.24-.34-.4-.62-.4s-.52.16-.62.4c-.06.15-.07.23-.08.44h1.41c-.01-.22-.02-.3-.08-.44Z"/><path class="e" d="m27.72,96.18v-.32c-.22.28-.46.35-.76.35-.27,0-.51-.09-.65-.23-.27-.27-.32-.71-.32-1.13s.05-.86.32-1.13c.14-.14.38-.23.65-.23.29,0,.54.06.75.34v-1.5h.39v3.85h-.38Zm-.67-2.35c-.58,0-.67.5-.67,1.02s.09,1.02.67,1.02.66-.5.66-1.02-.09-1.02-.66-1.02Z"/><path class="e" d="m32.21,95.98c-.14.14-.38.23-.65.23-.29,0-.54-.07-.75-.35v.32h-.39v-3.85h.39v1.5c.22-.28.46-.34.75-.34.27,0,.51.09.65.23.27.27.32.71.32,1.13s-.05.86-.32,1.13Zm-.73-2.15c-.58,0-.67.5-.67,1.02s.09,1.02.67,1.02.66-.5.66-1.02-.09-1.02-.66-1.02Z"/><path class="e" d="m34.03,96.83c-.05.15-.11.24-.19.31-.14.13-.33.18-.52.18h-.17v-.35h.12c.27,0,.35-.09.44-.33l.19-.52-.96-2.61h.42l.73,2.14.72-2.14h.42l-1.21,3.3Z"/><path class="e" d="m37.87,96.18c-.45,0-.68-.32-.68-.71v-1.63h-.34v-.3h.34v-.83h.39v.83h.57v.3h-.57v1.62c0,.24.11.39.36.39h.21v.34h-.28Z"/><path class="e" d="m40.63,96.18v-1.64c0-.47-.25-.7-.65-.7s-.66.24-.66.7v1.64h-.39v-3.85h.39v1.48c.19-.22.45-.32.75-.32.6,0,.96.38.96.98v1.71h-.39Z"/><path class="e" d="m42.2,94.96c0,.58.28.92.78.92.31,0,.49-.09.7-.3l.26.23c-.27.27-.52.41-.97.41-.7,0-1.16-.42-1.16-1.36,0-.86.42-1.36,1.09-1.36s1.09.5,1.09,1.29v.18h-1.8Zm1.32-.74c-.1-.24-.34-.4-.62-.4s-.52.16-.62.4c-.06.15-.07.23-.08.44h1.41c-.01-.22-.02-.3-.08-.44Z"/><path class="e" d="m46.24,96.18v-3.85h2.39v.37h-1.98v1.36h1.69v.37h-1.69v1.39h1.98v.37h-2.39Z"/><path class="e" d="m51.09,96.18v-.3c-.19.22-.45.33-.75.33s-.52-.09-.69-.25c-.19-.18-.27-.44-.27-.75v-1.7h.39v1.64c0,.47.25.71.65.71s.66-.24.66-.71v-1.64h.39v2.66h-.38Z"/><path class="e" d="m53.93,94.03c-.15-.15-.25-.2-.46-.2-.39,0-.64.31-.64.71v1.63h-.39v-2.66h.39v.32c.15-.22.44-.36.75-.36.25,0,.45.06.64.25l-.29.29Z"/><path class="e" d="m56.25,95.91c-.18.18-.44.3-.76.3s-.58-.12-.76-.3c-.27-.28-.32-.65-.32-1.06s.05-.78.32-1.06c.18-.18.44-.3.76-.3s.58.12.76.3c.27.28.32.65.32,1.06s-.05.78-.32,1.06Zm-.28-1.88c-.12-.12-.3-.2-.49-.2s-.36.07-.48.2c-.2.19-.22.52-.22.82s.02.63.22.82c.12.12.29.2.48.2s.36-.07.49-.2c.2-.19.21-.52.21-.82s-.02-.63-.21-.82Z"/><path class="e" d="m59.19,95.98c-.14.14-.38.23-.65.23-.29,0-.53-.07-.75-.35v1.5h-.39v-3.85h.39v.31c.22-.28.46-.35.75-.35.27,0,.51.09.65.23.27.27.32.71.32,1.13s-.05.86-.32,1.13Zm-.73-2.15c-.58,0-.67.5-.67,1.02s.09,1.02.67,1.02.66-.5.66-1.02-.09-1.02-.66-1.02Z"/><path class="e" d="m60.59,94.96c0,.58.28.92.78.92.31,0,.49-.09.7-.3l.26.23c-.27.27-.52.41-.97.41-.7,0-1.16-.42-1.16-1.36,0-.86.42-1.36,1.09-1.36s1.09.5,1.09,1.29v.18h-1.8Zm1.32-.74c-.1-.24-.34-.4-.62-.4s-.52.16-.62.4c-.06.15-.07.23-.08.44h1.41c-.01-.22-.02-.3-.08-.44Z"/><path class="e" d="m64.72,96.18v-.25c-.22.22-.41.29-.77.29s-.58-.07-.75-.24c-.13-.13-.2-.33-.2-.54,0-.46.32-.77.92-.77h.8v-.25c0-.39-.2-.58-.68-.58-.34,0-.51.08-.67.3l-.26-.24c.24-.31.51-.39.94-.39.71,0,1.06.31,1.06.89v1.81h-.39Zm0-1.23h-.75c-.4,0-.59.16-.59.47s.19.45.61.45c.23,0,.43-.02.59-.18.09-.09.14-.24.14-.46v-.29Z"/><path class="e" d="m67.76,96.18v-1.64c0-.47-.25-.71-.65-.71s-.66.24-.66.71v1.64h-.39v-2.66h.39v.29c.19-.22.45-.32.75-.32s.52.09.68.25c.19.18.28.43.28.74v1.7h-.39Z"/><path class="e" d="m71.71,96.22c-.38,0-.72-.14-.98-.4-.36-.36-.36-.74-.36-1.56s0-1.19.36-1.56c.26-.26.61-.4.98-.4.69,0,1.21.42,1.34,1.15h-.42c-.1-.47-.43-.78-.91-.78-.25,0-.5.1-.66.27-.24.25-.27.51-.27,1.32s.03,1.07.27,1.32c.17.17.41.27.66.27.48,0,.82-.31.92-.78h.41c-.12.72-.65,1.15-1.34,1.15Z"/><path class="e" d="m75.59,95.91c-.18.18-.44.3-.76.3s-.58-.12-.76-.3c-.27-.28-.32-.65-.32-1.06s.05-.78.32-1.06c.18-.18.44-.3.76-.3s.58.12.76.3c.27.28.32.65.32,1.06s-.05.78-.32,1.06Zm-.28-1.88c-.12-.12-.3-.2-.49-.2s-.36.07-.48.2c-.2.19-.22.52-.22.82s.02.63.22.82c.12.12.29.2.48.2s.36-.07.49-.2c.19-.19.21-.52.21-.82s-.02-.63-.21-.82Z"/><path class="e" d="m80.16,96.18v-1.64c0-.47-.25-.71-.65-.71s-.67.24-.67.67v1.68h-.39v-1.64c0-.47-.25-.71-.65-.71s-.67.24-.67.71v1.64h-.39v-2.66h.39v.29c.19-.22.45-.32.75-.32.37,0,.65.15.82.44.21-.29.5-.44.88-.44.29,0,.53.09.69.25.19.18.29.43.29.74v1.7h-.39Z"/><path class="e" d="m84.91,96.18v-1.64c0-.47-.25-.71-.65-.71s-.67.24-.67.67v1.68h-.39v-1.64c0-.47-.25-.71-.65-.71s-.67.24-.67.71v1.64h-.39v-2.66h.39v.29c.19-.22.45-.32.75-.32.37,0,.65.15.82.44.21-.29.5-.44.88-.44.29,0,.52.09.69.25.19.18.29.43.29.74v1.7h-.39Z"/><path class="e" d="m86.22,92.77v-.44h.44v.44h-.44Zm.02,3.42v-2.66h.39v2.66h-.39Z"/><path class="e" d="m88.45,96.22c-.45,0-.8-.1-1.09-.38l.26-.26c.21.22.5.31.83.31.44,0,.71-.16.71-.47,0-.23-.13-.36-.44-.39l-.44-.04c-.52-.04-.79-.28-.79-.71,0-.49.41-.78.98-.78.38,0,.72.09.96.29l-.25.25c-.19-.15-.43-.21-.71-.21-.39,0-.59.17-.59.44,0,.23.13.36.46.39l.43.04c.46.04.78.22.78.72s-.44.81-1.08.81Z"/><path class="e" d="m91.04,96.22c-.45,0-.8-.1-1.09-.38l.26-.26c.21.22.5.31.83.31.44,0,.71-.16.71-.47,0-.23-.13-.36-.44-.39l-.44-.04c-.52-.04-.79-.28-.79-.71,0-.49.41-.78.98-.78.38,0,.72.09.96.29l-.25.25c-.19-.15-.43-.21-.71-.21-.39,0-.59.17-.59.44,0,.23.13.36.46.39l.43.04c.46.04.78.22.78.72s-.44.81-1.08.81Z"/><path class="e" d="m92.86,92.77v-.44h.44v.44h-.44Zm.02,3.42v-2.66h.39v2.66h-.39Z"/><path class="e" d="m95.96,95.91c-.18.18-.44.3-.76.3s-.58-.12-.76-.3c-.27-.28-.32-.65-.32-1.06s.05-.78.32-1.06c.18-.18.44-.3.76-.3s.58.12.76.3c.27.28.32.65.32,1.06s-.05.78-.32,1.06Zm-.28-1.88c-.12-.12-.3-.2-.49-.2s-.36.07-.48.2c-.2.19-.22.52-.22.82s.02.63.22.82c.12.12.29.2.48.2s.36-.07.49-.2c.2-.19.21-.52.21-.82s-.02-.63-.21-.82Z"/><path class="e" d="m98.81,96.18v-1.64c0-.47-.25-.71-.65-.71s-.66.24-.66.71v1.64h-.39v-2.66h.39v.29c.19-.22.45-.32.75-.32s.52.09.68.25c.19.18.28.43.28.74v1.7h-.39Z"/></g></svg>